<svg width="252" height="311" viewBox="0 0 252 311" fill="none" xmlns="http://www.w3.org/2000/svg">
<rect y="36" width="252" height="275" rx="20" fill="#943436"/>
<path d="M0 0H53C71.7777 0 87 15.2223 87 34V59C87 77.7777 71.7777 93 53 93H34C15.2223 93 0 77.7777 0 59V0Z" fill="#B95658"/>
<path d="M26.408 123.712V140.768C26.408 141.045 26.472 141.269 26.6 141.44C26.728 141.589 26.8987 141.696 27.112 141.76C27.3467 141.824 27.6027 141.867 27.88 141.888C28.1573 141.909 28.424 141.92 28.68 141.92H29.224V144H17.992V141.92H18.312C18.8667 141.92 19.3253 141.845 19.688 141.696C20.0507 141.547 20.232 141.237 20.232 140.768V124.512C20.232 124.043 20.0507 123.733 19.688 123.584C19.3253 123.435 18.8667 123.36 18.312 123.36H17.992V121.28H35.752V127.712H33.128L32.872 125.088C32.8293 124.704 32.68 124.416 32.424 124.224C32.168 124.011 31.8053 123.872 31.336 123.808C30.8667 123.744 30.28 123.712 29.576 123.712H26.408ZM25.512 131.52C26.3867 131.477 27.24 131.435 28.072 131.392C28.904 131.349 29.7253 131.307 30.536 131.264C31.368 131.2 32.2 131.147 33.032 131.104V134.08C32.2 134.016 31.368 133.963 30.536 133.92C29.704 133.856 28.872 133.803 28.04 133.76C27.2293 133.717 26.3867 133.675 25.512 133.632V131.52ZM42.2503 125.344C41.2903 125.344 40.5223 125.12 39.9463 124.672C39.3916 124.203 39.1143 123.552 39.1143 122.72C39.1143 121.888 39.3916 121.248 39.9463 120.8C40.5223 120.331 41.2903 120.096 42.2503 120.096C43.2316 120.096 43.9996 120.331 44.5543 120.8C45.1303 121.248 45.4183 121.888 45.4183 122.72C45.4183 123.552 45.1303 124.203 44.5543 124.672C43.9996 125.12 43.2316 125.344 42.2503 125.344ZM45.2583 127.584V141.088C45.2583 141.472 45.4183 141.728 45.7383 141.856C46.0796 141.984 46.4849 142.048 46.9543 142.048H46.9863V144H37.7063V142.048H37.7383C38.2289 142.048 38.6343 141.984 38.9543 141.856C39.2743 141.728 39.4343 141.472 39.4343 141.088V130.752C39.4343 130.411 39.3169 130.176 39.0823 130.048C38.8476 129.92 38.4743 129.803 37.9622 129.696L37.7063 129.632V127.584H45.2583ZM48.3313 144V142.048H48.3633C48.6833 142.048 48.9713 142.027 49.2273 141.984C49.4833 141.92 49.6753 141.824 49.8033 141.696C49.9526 141.547 50.0273 141.344 50.0273 141.088V130.752C50.0273 130.517 49.9739 130.347 49.8673 130.24C49.7819 130.112 49.6326 130.016 49.4193 129.952C49.2059 129.867 48.9286 129.781 48.5872 129.696L48.3313 129.632V127.584H55.4993V131.136H55.8833V141.76C55.8833 141.824 55.9579 141.877 56.1073 141.92C56.2779 141.963 56.4699 141.995 56.6833 142.016C56.9179 142.037 57.1313 142.048 57.3233 142.048H57.4193V144H48.3313ZM68.4593 144H59.3713V142.048H59.4033C59.5953 142.048 59.8086 142.048 60.0433 142.048C60.2779 142.027 60.4806 141.995 60.6513 141.952C60.8219 141.888 60.9073 141.824 60.9073 141.76V132.736C60.9073 132.203 60.8433 131.765 60.7153 131.424C60.5873 131.083 60.3953 130.827 60.1393 130.656C59.8833 130.485 59.5419 130.4 59.1153 130.4C58.6033 130.4 58.1233 130.549 57.6753 130.848C57.2273 131.125 56.8006 131.541 56.3953 132.096C55.9899 132.651 55.6059 133.344 55.2433 134.176L55.1793 131.232C55.6059 130.4 56.1073 129.696 56.6833 129.12C57.2806 128.523 57.9633 128.064 58.7313 127.744C59.5206 127.424 60.3846 127.264 61.3233 127.264C62.4113 127.264 63.3606 127.477 64.1713 127.904C64.9819 128.309 65.6113 128.928 66.0593 129.76C66.5073 130.571 66.7313 131.584 66.7313 132.8V141.088C66.7313 141.344 66.8059 141.547 66.9553 141.696C67.1046 141.824 67.2966 141.92 67.5312 141.984C67.7873 142.027 68.0753 142.048 68.3953 142.048H68.4593V144ZM88.1048 140.992C88.1048 141.333 88.2328 141.568 88.4888 141.696C88.7661 141.803 89.1608 141.888 89.6728 141.952L89.8008 141.984V144H82.6008V140.224L82.2488 140.48V123.584C82.2488 123.371 82.1848 123.2 82.0568 123.072C81.9501 122.944 81.7794 122.837 81.5448 122.752C81.3314 122.667 81.0434 122.592 80.6808 122.528L80.4248 122.464V120.448H88.1048V140.992ZM77.5448 127.264C78.5261 127.264 79.3794 127.424 80.1048 127.744C80.8514 128.043 81.5021 128.501 82.0568 129.12C82.6114 129.717 83.0914 130.475 83.4968 131.392L83.4008 134.464C82.9314 133.483 82.4834 132.672 82.0568 132.032C81.6514 131.392 81.2141 130.912 80.7448 130.592C80.2968 130.272 79.7634 130.112 79.1448 130.112C78.6114 130.112 78.1421 130.251 77.7368 130.528C77.3528 130.805 77.0221 131.2 76.7448 131.712C76.4888 132.203 76.2968 132.811 76.1688 133.536C76.0408 134.261 75.9768 135.083 75.9768 136C75.9768 136.875 76.0408 137.653 76.1688 138.336C76.2968 138.997 76.4781 139.563 76.7128 140.032C76.9688 140.501 77.2781 140.853 77.6408 141.088C78.0248 141.323 78.4621 141.44 78.9528 141.44C79.5501 141.44 80.0834 141.269 80.5528 140.928C81.0221 140.587 81.4808 140.064 81.9288 139.36C82.3768 138.656 82.8674 137.749 83.4008 136.64L83.4968 139.744C82.9634 140.747 82.4088 141.589 81.8328 142.272C81.2781 142.955 80.6381 143.467 79.9128 143.808C79.1874 144.149 78.3234 144.32 77.3208 144.32C75.8488 144.32 74.5581 143.979 73.4488 143.296C72.3608 142.592 71.5074 141.621 70.8888 140.384C70.2914 139.125 69.9928 137.664 69.9928 136C69.9928 134.272 70.3128 132.757 70.9528 131.456C71.5928 130.155 72.4781 129.131 73.6088 128.384C74.7608 127.637 76.0728 127.264 77.5448 127.264ZM110.217 140.384L108.553 143.552L107.049 145.728L100.361 130.656C100.233 130.357 100.094 130.133 99.9445 129.984C99.7952 129.813 99.6138 129.696 99.4005 129.632C99.1872 129.568 98.9098 129.536 98.5685 129.536H98.5365V127.584H108.105V129.536H108.041C107.721 129.536 107.401 129.547 107.081 129.568C106.761 129.589 106.494 129.621 106.281 129.664C106.089 129.685 105.993 129.739 105.993 129.824L110.217 140.384ZM110.025 143.456C109.406 144.885 108.787 146.101 108.169 147.104C107.571 148.128 106.963 148.96 106.345 149.6C105.747 150.24 105.107 150.709 104.425 151.008C103.763 151.328 103.038 151.488 102.249 151.488C101.63 151.488 101.097 151.413 100.649 151.264C100.222 151.115 99.8912 150.955 99.6565 150.784V146.592C99.7632 146.613 99.9658 146.688 100.265 146.816C100.585 146.944 100.969 147.072 101.417 147.2C101.865 147.328 102.334 147.392 102.825 147.392C103.337 147.392 103.795 147.328 104.201 147.2C104.627 147.072 105.033 146.859 105.417 146.56C105.801 146.261 106.174 145.835 106.536 145.28C106.899 144.747 107.241 144.075 107.561 143.264L108.265 141.696L113.193 130.24C113.193 130.091 113.097 129.973 112.905 129.888C112.734 129.781 112.489 129.696 112.169 129.632C111.87 129.568 111.561 129.536 111.241 129.536H111.145V127.584H117.353V129.536H117.321C117.043 129.536 116.798 129.579 116.585 129.664C116.371 129.749 116.169 129.899 115.977 130.112C115.785 130.325 115.614 130.613 115.465 130.976L110.025 143.456ZM136.461 135.808C136.461 137.472 136.077 138.955 135.309 140.256C134.562 141.536 133.485 142.539 132.077 143.264C130.69 143.968 129.047 144.32 127.149 144.32C125.25 144.32 123.597 143.968 122.189 143.264C120.802 142.539 119.725 141.536 118.957 140.256C118.21 138.955 117.837 137.472 117.837 135.808C117.837 134.528 118.05 133.376 118.477 132.352C118.903 131.307 119.522 130.411 120.333 129.664C121.165 128.896 122.146 128.309 123.277 127.904C124.429 127.477 125.719 127.264 127.149 127.264C128.578 127.264 129.858 127.477 130.989 127.904C132.141 128.309 133.122 128.896 133.933 129.664C134.765 130.411 135.394 131.307 135.821 132.352C136.247 133.376 136.461 134.528 136.461 135.808ZM123.821 135.808C123.821 137.131 123.949 138.251 124.205 139.168C124.482 140.085 124.866 140.779 125.357 141.248C125.847 141.717 126.445 141.952 127.149 141.952C127.853 141.952 128.45 141.717 128.941 141.248C129.431 140.779 129.805 140.085 130.061 139.168C130.317 138.251 130.445 137.131 130.445 135.808C130.445 134.443 130.317 133.312 130.061 132.416C129.805 131.52 129.431 130.848 128.941 130.4C128.45 129.952 127.853 129.728 127.149 129.728C126.445 129.728 125.847 129.952 125.357 130.4C124.866 130.848 124.482 131.52 124.205 132.416C123.949 133.312 123.821 134.443 123.821 135.808ZM145.564 127.584V138.784C145.564 139.339 145.617 139.797 145.724 140.16C145.852 140.501 146.044 140.757 146.3 140.928C146.556 141.099 146.897 141.184 147.324 141.184C147.793 141.184 148.241 141.056 148.668 140.8C149.095 140.544 149.511 140.149 149.916 139.616C150.321 139.061 150.716 138.347 151.1 137.472L151.164 140.384C150.737 141.259 150.215 141.984 149.596 142.56C148.999 143.136 148.327 143.573 147.58 143.872C146.833 144.171 146.012 144.32 145.116 144.32C144.028 144.32 143.079 144.117 142.268 143.712C141.457 143.285 140.828 142.667 140.38 141.856C139.953 141.024 139.74 140 139.74 138.784V130.752C139.74 130.411 139.623 130.176 139.388 130.048C139.153 129.92 138.78 129.803 138.268 129.696L137.98 129.632V127.584H145.564ZM156.284 127.584V140.992C156.284 141.205 156.348 141.376 156.476 141.504C156.604 141.632 156.785 141.728 157.02 141.792C157.255 141.856 157.532 141.909 157.852 141.952L158.044 141.984V144H150.844V140.32L150.46 140.448V130.752C150.46 130.411 150.3 130.176 149.98 130.048C149.66 129.899 149.244 129.781 148.732 129.696L148.252 129.632V127.584H156.284ZM172.355 127.552V132.512C172.185 132.448 171.993 132.405 171.779 132.384C171.587 132.341 171.374 132.309 171.139 132.288C170.905 132.267 170.67 132.256 170.435 132.256C169.945 132.256 169.486 132.309 169.059 132.416C168.654 132.501 168.27 132.651 167.907 132.864C167.566 133.056 167.257 133.323 166.979 133.664C166.702 133.984 166.446 134.389 166.211 134.88V133.056C166.489 131.947 166.83 130.965 167.235 130.112C167.662 129.259 168.185 128.597 168.803 128.128C169.422 127.637 170.211 127.392 171.171 127.392C171.427 127.392 171.662 127.413 171.875 127.456C172.089 127.477 172.249 127.509 172.355 127.552ZM159.331 144V142.048H159.363C159.854 142.048 160.249 141.984 160.547 141.856C160.867 141.728 161.027 141.472 161.027 141.088V130.752C161.027 130.539 160.974 130.368 160.867 130.24C160.782 130.112 160.633 130.016 160.419 129.952C160.206 129.867 159.929 129.781 159.587 129.696L159.331 129.632V127.584H166.499V132.8L166.883 132.416V141.472C166.883 141.643 167.001 141.771 167.235 141.856C167.47 141.941 167.747 141.995 168.067 142.016C168.387 142.037 168.675 142.048 168.931 142.048H169.219V144H159.331ZM22.28 171.272H31.08L31.112 173.64H22.184L22.28 171.272ZM25.928 160.36L26.984 161.768L21.544 178.344C21.544 178.451 21.64 178.557 21.832 178.664C22.024 178.749 22.2693 178.813 22.568 178.856C22.8667 178.899 23.176 178.92 23.496 178.92H23.944V181H17.288V178.92H17.448C17.896 178.92 18.248 178.835 18.504 178.664C18.7813 178.472 19.0053 178.099 19.176 177.544L25.544 158.28H31.464L38.024 178.024C38.152 178.387 38.3547 178.632 38.632 178.76C38.9093 178.867 39.2613 178.92 39.688 178.92H39.816V181H29.384V178.92H29.896C30.1947 178.92 30.4933 178.909 30.792 178.888C31.112 178.867 31.368 178.835 31.56 178.792C31.752 178.728 31.848 178.664 31.848 178.6L25.928 160.36ZM58.8235 177.992C58.8235 178.333 58.9515 178.568 59.2075 178.696C59.4848 178.803 59.8795 178.888 60.3915 178.952L60.5195 178.984V181H53.3195V177.224L52.9675 177.48V160.584C52.9675 160.371 52.9035 160.2 52.7755 160.072C52.6688 159.944 52.4982 159.837 52.2635 159.752C52.0502 159.667 51.7622 159.592 51.3995 159.528L51.1435 159.464V157.448H58.8235V177.992ZM48.2635 164.264C49.2448 164.264 50.0982 164.424 50.8235 164.744C51.5702 165.043 52.2208 165.501 52.7755 166.12C53.3302 166.717 53.8102 167.475 54.2155 168.392L54.1195 171.464C53.6502 170.483 53.2022 169.672 52.7755 169.032C52.3702 168.392 51.9328 167.912 51.4635 167.592C51.0155 167.272 50.4822 167.112 49.8635 167.112C49.3302 167.112 48.8608 167.251 48.4555 167.528C48.0715 167.805 47.7408 168.2 47.4635 168.712C47.2075 169.203 47.0155 169.811 46.8875 170.536C46.7595 171.261 46.6955 172.083 46.6955 173C46.6955 173.875 46.7595 174.653 46.8875 175.336C47.0155 175.997 47.1968 176.563 47.4315 177.032C47.6875 177.501 47.9968 177.853 48.3595 178.088C48.7435 178.323 49.1808 178.44 49.6715 178.44C50.2688 178.44 50.8022 178.269 51.2715 177.928C51.7408 177.587 52.1995 177.064 52.6475 176.36C53.0955 175.656 53.5862 174.749 54.1195 173.64L54.2155 176.744C53.6822 177.747 53.1275 178.589 52.5515 179.272C51.9968 179.955 51.3568 180.467 50.6315 180.808C49.9062 181.149 49.0422 181.32 48.0395 181.32C46.5675 181.32 45.2768 180.979 44.1675 180.296C43.0795 179.592 42.2262 178.621 41.6075 177.384C41.0102 176.125 40.7115 174.664 40.7115 173C40.7115 171.272 41.0315 169.757 41.6715 168.456C42.3115 167.155 43.1968 166.131 44.3275 165.384C45.4795 164.637 46.7915 164.264 48.2635 164.264ZM75.592 167.176C75.592 167.069 75.496 166.963 75.304 166.856C75.112 166.749 74.8667 166.675 74.568 166.632C74.2693 166.568 73.96 166.536 73.64 166.536H73.576V164.584H79.72V166.536H79.656C79.4213 166.536 79.1867 166.579 78.952 166.664C78.7387 166.728 78.5467 166.867 78.376 167.08C78.2053 167.272 78.056 167.539 77.928 167.88L73.32 181H67.72L62.984 167.624C62.8987 167.325 62.7813 167.101 62.632 166.952C62.4827 166.803 62.2907 166.696 62.056 166.632C61.8427 166.568 61.576 166.536 61.256 166.536H61.224V164.584H70.792V166.536H70.728C70.408 166.536 70.0773 166.547 69.736 166.568C69.416 166.589 69.1493 166.621 68.936 166.664C68.744 166.685 68.648 166.739 68.648 166.824L72.616 178.568L71.912 177.96L75.592 167.176ZM98.8355 172.808C98.8355 174.472 98.4515 175.955 97.6835 177.256C96.9368 178.536 95.8595 179.539 94.4515 180.264C93.0648 180.968 91.4222 181.32 89.5235 181.32C87.6248 181.32 85.9715 180.968 84.5635 180.264C83.1768 179.539 82.0995 178.536 81.3315 177.256C80.5848 175.955 80.2115 174.472 80.2115 172.808C80.2115 171.528 80.4248 170.376 80.8515 169.352C81.2782 168.307 81.8968 167.411 82.7075 166.664C83.5395 165.896 84.5208 165.309 85.6515 164.904C86.8035 164.477 88.0942 164.264 89.5235 164.264C90.9528 164.264 92.2328 164.477 93.3635 164.904C94.5155 165.309 95.4968 165.896 96.3075 166.664C97.1395 167.411 97.7688 168.307 98.1955 169.352C98.6222 170.376 98.8355 171.528 98.8355 172.808ZM86.1955 172.808C86.1955 174.131 86.3235 175.251 86.5795 176.168C86.8568 177.085 87.2408 177.779 87.7315 178.248C88.2222 178.717 88.8195 178.952 89.5235 178.952C90.2275 178.952 90.8248 178.717 91.3155 178.248C91.8062 177.779 92.1795 177.085 92.4355 176.168C92.6915 175.251 92.8195 174.131 92.8195 172.808C92.8195 171.443 92.6915 170.312 92.4355 169.416C92.1795 168.52 91.8062 167.848 91.3155 167.4C90.8248 166.952 90.2275 166.728 89.5235 166.728C88.8195 166.728 88.2222 166.952 87.7315 167.4C87.2408 167.848 86.8568 168.52 86.5795 169.416C86.3235 170.312 86.1955 171.443 86.1955 172.808ZM111.075 178.824C111.843 178.824 112.504 178.653 113.059 178.312C113.635 177.949 114.126 177.512 114.531 177C114.936 176.467 115.278 175.955 115.555 175.464L117.475 176.84C117.006 177.715 116.44 178.493 115.779 179.176C115.139 179.837 114.36 180.36 113.443 180.744C112.526 181.128 111.416 181.32 110.115 181.32C108.323 181.32 106.734 180.979 105.347 180.296C103.96 179.613 102.872 178.632 102.083 177.352C101.294 176.072 100.899 174.557 100.899 172.808C100.899 171.037 101.294 169.523 102.083 168.264C102.872 166.984 103.971 166.003 105.379 165.32C106.808 164.616 108.483 164.264 110.403 164.264C111.619 164.264 112.675 164.381 113.571 164.616C114.488 164.851 115.235 165.117 115.811 165.416C116.408 165.693 116.835 165.949 117.091 166.184V170.472H112.643V166.376C112.92 166.397 113.144 166.483 113.315 166.632C113.486 166.76 113.603 166.92 113.667 167.112C113.752 167.283 113.774 167.475 113.731 167.688C113.688 167.88 113.603 168.04 113.475 168.168C113.219 167.741 112.856 167.4 112.387 167.144C111.918 166.867 111.352 166.728 110.691 166.728C109.88 166.728 109.187 166.973 108.611 167.464C108.056 167.933 107.63 168.627 107.331 169.544C107.032 170.44 106.883 171.528 106.883 172.808C106.883 173.747 106.979 174.589 107.171 175.336C107.363 176.083 107.63 176.712 107.971 177.224C108.334 177.736 108.771 178.131 109.283 178.408C109.816 178.685 110.414 178.824 111.075 178.824ZM130.056 171.144V173.032C129.33 173.139 128.68 173.267 128.104 173.416C127.549 173.565 127.058 173.747 126.632 173.96C126.205 174.173 125.853 174.419 125.576 174.696C125.32 174.952 125.117 175.261 124.968 175.624C124.84 175.965 124.776 176.328 124.776 176.712C124.776 177.203 124.85 177.608 125 177.928C125.17 178.248 125.405 178.493 125.704 178.664C126.002 178.813 126.354 178.888 126.76 178.888C127.25 178.888 127.698 178.76 128.104 178.504C128.509 178.227 128.872 177.843 129.192 177.352C129.512 176.861 129.789 176.285 130.024 175.624L130.088 177.832C129.768 178.579 129.362 179.208 128.872 179.72C128.381 180.232 127.784 180.627 127.08 180.904C126.397 181.181 125.597 181.32 124.68 181.32C123.592 181.32 122.642 181.16 121.832 180.84C121.042 180.499 120.424 180.008 119.976 179.368C119.549 178.707 119.336 177.907 119.336 176.968C119.336 176.072 119.56 175.304 120.008 174.664C120.477 174.024 121.16 173.48 122.056 173.032C122.952 172.584 124.072 172.211 125.416 171.912C126.76 171.592 128.306 171.336 130.056 171.144ZM129.736 181V177.832L129.352 177.896V169.16C129.352 168.563 129.266 168.083 129.096 167.72C128.925 167.336 128.658 167.069 128.296 166.92C127.954 166.749 127.528 166.664 127.016 166.664C126.248 166.664 125.608 166.835 125.096 167.176C124.605 167.496 124.232 167.901 123.976 168.392C123.784 168.179 123.677 167.976 123.656 167.784C123.634 167.571 123.666 167.379 123.752 167.208C123.858 167.037 124.018 166.888 124.232 166.76C124.445 166.611 124.701 166.515 125 166.472V169.896H120.456V166.408C120.776 166.173 121.245 165.896 121.864 165.576C122.504 165.235 123.304 164.936 124.264 164.68C125.224 164.403 126.344 164.264 127.624 164.264C128.712 164.264 129.704 164.381 130.6 164.616C131.517 164.829 132.306 165.16 132.968 165.608C133.629 166.056 134.141 166.643 134.504 167.368C134.866 168.072 135.048 168.936 135.048 169.96V177.992C135.048 178.205 135.112 178.376 135.24 178.504C135.368 178.632 135.549 178.728 135.784 178.792C136.018 178.856 136.296 178.909 136.616 178.952L136.744 178.984V181H129.736ZM148.231 178.824C148.999 178.824 149.661 178.653 150.215 178.312C150.791 177.949 151.282 177.512 151.687 177C152.093 176.467 152.434 175.955 152.711 175.464L154.631 176.84C154.162 177.715 153.597 178.493 152.935 179.176C152.295 179.837 151.517 180.36 150.599 180.744C149.682 181.128 148.573 181.32 147.271 181.32C145.479 181.32 143.89 180.979 142.503 180.296C141.117 179.613 140.029 178.632 139.239 177.352C138.45 176.072 138.055 174.557 138.055 172.808C138.055 171.037 138.45 169.523 139.239 168.264C140.029 166.984 141.127 166.003 142.535 165.32C143.965 164.616 145.639 164.264 147.559 164.264C148.775 164.264 149.831 164.381 150.727 164.616C151.645 164.851 152.391 165.117 152.967 165.416C153.565 165.693 153.991 165.949 154.247 166.184V170.472H149.799V166.376C150.077 166.397 150.301 166.483 150.471 166.632C150.642 166.76 150.759 166.92 150.823 167.112C150.909 167.283 150.93 167.475 150.887 167.688C150.845 167.88 150.759 168.04 150.631 168.168C150.375 167.741 150.013 167.4 149.543 167.144C149.074 166.867 148.509 166.728 147.847 166.728C147.037 166.728 146.343 166.973 145.767 167.464C145.213 167.933 144.786 168.627 144.487 169.544C144.189 170.44 144.039 171.528 144.039 172.808C144.039 173.747 144.135 174.589 144.327 175.336C144.519 176.083 144.786 176.712 145.127 177.224C145.49 177.736 145.927 178.131 146.439 178.408C146.973 178.685 147.57 178.824 148.231 178.824ZM167.467 177.384L165.803 180.552L164.299 182.728L157.611 167.656C157.483 167.357 157.344 167.133 157.195 166.984C157.045 166.813 156.864 166.696 156.651 166.632C156.437 166.568 156.16 166.536 155.819 166.536H155.787V164.584H165.355V166.536H165.291C164.971 166.536 164.651 166.547 164.331 166.568C164.011 166.589 163.744 166.621 163.531 166.664C163.339 166.685 163.243 166.739 163.243 166.824L167.467 177.384ZM167.275 180.456C166.656 181.885 166.037 183.101 165.419 184.104C164.821 185.128 164.213 185.96 163.595 186.6C162.997 187.24 162.357 187.709 161.675 188.008C161.013 188.328 160.288 188.488 159.499 188.488C158.88 188.488 158.347 188.413 157.899 188.264C157.472 188.115 157.141 187.955 156.907 187.784V183.592C157.013 183.613 157.216 183.688 157.515 183.816C157.835 183.944 158.219 184.072 158.667 184.2C159.115 184.328 159.584 184.392 160.075 184.392C160.587 184.392 161.045 184.328 161.451 184.2C161.877 184.072 162.283 183.859 162.667 183.56C163.051 183.261 163.424 182.835 163.786 182.28C164.149 181.747 164.491 181.075 164.811 180.264L165.515 178.696L170.443 167.24C170.443 167.091 170.347 166.973 170.155 166.888C169.984 166.781 169.739 166.696 169.419 166.632C169.12 166.568 168.811 166.536 168.491 166.536H168.395V164.584H174.603V166.536H174.571C174.293 166.536 174.048 166.579 173.835 166.664C173.621 166.749 173.419 166.899 173.227 167.112C173.035 167.325 172.864 167.613 172.715 167.976L167.275 180.456Z" fill="white"/>
<path d="M15.8 216L15.704 215.376C16.2693 215.28 16.6107 215.173 16.728 215.056C16.856 214.939 16.92 214.715 16.92 214.384V206.528C16.92 206.197 16.856 205.973 16.728 205.856C16.6107 205.739 16.2693 205.632 15.704 205.536L15.8 204.912H20.024C21.1867 204.912 22.0773 205.147 22.696 205.616C23.3147 206.075 23.624 206.72 23.624 207.552C23.624 208.213 23.4427 208.773 23.08 209.232C22.728 209.68 22.3493 209.968 21.944 210.096V210.208C22.6267 210.336 23.1973 210.656 23.656 211.168C24.1147 211.68 24.344 212.304 24.344 213.04C24.344 213.765 24.024 214.443 23.384 215.072C22.7547 215.691 21.784 216 20.472 216H15.8ZM18.472 209.872H19.368C20.2427 209.872 20.8827 209.685 21.288 209.312C21.704 208.928 21.912 208.405 21.912 207.744C21.912 206.421 21.1227 205.76 19.544 205.76H18.472V209.872ZM18.472 214.448C18.472 214.757 18.552 214.944 18.712 215.008C18.872 215.115 19.1973 215.168 19.688 215.168C20.712 215.168 21.448 214.987 21.896 214.624C22.344 214.261 22.568 213.739 22.568 213.056C22.568 212.064 22.168 211.381 21.368 211.008C20.9733 210.816 20.5253 210.72 20.024 210.72H18.472V214.448ZM25.5463 216L25.4503 215.376C26.0156 215.28 26.3623 215.173 26.4903 215.056C26.6183 214.939 26.6823 214.741 26.6823 214.464V209.856C26.6823 209.579 26.6076 209.381 26.4583 209.264C26.3196 209.136 25.9516 209.029 25.3543 208.944L25.4503 208.432L27.6263 208.224C27.7009 208.224 27.7809 208.331 27.8663 208.544C27.9516 208.757 27.9943 208.981 27.9943 209.216C27.9943 209.44 27.9729 209.701 27.9303 210L28.0583 210.048L28.2663 209.584C28.4583 209.157 28.7463 208.821 29.1302 208.576C29.5249 208.32 29.9196 208.192 30.3143 208.192C30.7196 208.192 31.0929 208.277 31.4343 208.448C31.4343 209.323 31.3543 210.197 31.1943 211.072L30.4103 211.152C30.3249 210.256 30.2396 209.749 30.1543 209.632C30.0689 209.504 29.9249 209.44 29.7223 209.44C29.5303 209.44 29.3009 209.531 29.0343 209.712C28.7676 209.883 28.5489 210.069 28.3783 210.272C28.2076 210.464 28.1223 210.784 28.1223 211.232V214.848C28.1223 214.987 28.1489 215.077 28.2023 215.12C28.2663 215.152 28.3463 215.173 28.4423 215.184L29.8983 215.376L29.8343 216H25.5463ZM35.9085 216.144C34.7565 216.144 33.8712 215.803 33.2525 215.12C32.6338 214.437 32.3245 213.483 32.3245 212.256C32.3245 211.029 32.6498 210.048 33.3005 209.312C33.9618 208.565 34.8685 208.192 36.0205 208.192C37.1832 208.192 38.0738 208.539 38.6925 209.232C39.3112 209.915 39.6205 210.869 39.6205 212.096C39.6205 213.323 39.2898 214.304 38.6285 215.04C37.9778 215.776 37.0712 216.144 35.9085 216.144ZM33.8765 212.048C33.8765 212.997 34.0685 213.776 34.4525 214.384C34.8365 214.992 35.3592 215.296 36.0205 215.296C36.6818 215.296 37.1512 215.136 37.4285 214.816C37.6205 214.603 37.7752 214.267 37.8925 213.808C38.0098 213.339 38.0685 212.832 38.0685 212.288C38.0685 211.339 37.8765 210.56 37.4925 209.952C37.1085 209.344 36.5858 209.04 35.9245 209.04C35.2632 209.04 34.7938 209.2 34.5165 209.52C34.3245 209.733 34.1698 210.075 34.0525 210.544C33.9352 211.003 33.8765 211.504 33.8765 212.048ZM43.437 216.144L41.117 209.632C41.0423 209.429 40.9677 209.301 40.893 209.248C40.8183 209.195 40.605 209.131 40.253 209.056L40.349 208.432H43.309L43.373 209.056L42.669 209.28C42.5943 209.291 42.557 209.328 42.557 209.392C42.557 209.403 42.5783 209.472 42.621 209.6L44.093 214.208C44.1357 214.315 44.157 214.443 44.157 214.592V214.656H44.285C44.285 214.539 44.3277 214.379 44.413 214.176L45.869 210.544L45.565 209.632C45.501 209.44 45.4317 209.317 45.357 209.264C45.293 209.2 45.1277 209.131 44.861 209.056L44.957 208.432H47.581L47.645 209.056L46.941 209.28C46.8663 209.291 46.829 209.328 46.829 209.392C46.829 209.403 46.8503 209.472 46.893 209.6L48.349 214.208C48.3917 214.336 48.413 214.464 48.413 214.592V214.656H48.541C48.541 214.592 48.5837 214.432 48.669 214.176L50.125 210C50.189 209.829 50.221 209.717 50.221 209.664C50.221 209.6 50.2157 209.557 50.205 209.536C50.205 209.504 50.1943 209.477 50.173 209.456C50.1517 209.424 50.1303 209.403 50.109 209.392C50.0983 209.371 50.0717 209.349 50.029 209.328C49.997 209.307 49.965 209.291 49.933 209.28C49.9117 209.259 49.8743 209.237 49.821 209.216C49.7677 209.195 49.7197 209.179 49.677 209.168C49.645 209.157 49.597 209.141 49.533 209.12C49.469 209.088 49.4157 209.067 49.373 209.056L49.469 208.432H52.093L52.157 209.056C51.8157 209.141 51.6077 209.2 51.533 209.232C51.4583 209.253 51.4157 209.285 51.405 209.328L48.749 216.144H47.709L46.397 212.112C46.3437 211.952 46.317 211.808 46.317 211.68H46.189C46.189 211.797 46.157 211.936 46.093 212.096L44.477 216.144H43.437ZM55.7715 209.04C54.8328 209.04 54.3635 209.36 54.3635 210C54.3635 210.256 54.4275 210.448 54.5555 210.576C54.6835 210.693 54.7742 210.784 54.8275 210.848C54.8915 210.901 55.0088 210.971 55.1795 211.056C55.3502 211.141 55.4675 211.205 55.5315 211.248C55.6062 211.28 55.7502 211.339 55.9635 211.424C56.8595 211.797 57.4888 212.149 57.8515 212.48C58.2142 212.811 58.3955 213.28 58.3955 213.888C58.3955 214.496 58.1235 215.024 57.5795 215.472C57.0462 215.92 56.3102 216.144 55.3715 216.144C54.9555 216.144 54.5235 216.101 54.0755 216.016C53.6275 215.931 53.3022 215.845 53.0995 215.76C53.0782 215.621 53.0675 215.339 53.0675 214.912C53.0675 214.485 53.1155 214.021 53.2115 213.52L54.0435 213.456C54.1182 214.139 54.1715 214.56 54.2035 214.72C54.2462 214.869 54.3048 214.965 54.3795 215.008C54.7208 215.2 55.1688 215.296 55.7235 215.296C56.5875 215.296 57.0195 214.949 57.0195 214.256C57.0195 213.925 56.8915 213.653 56.6355 213.44C56.3475 213.205 56.0168 213.008 55.6435 212.848C54.6622 212.443 53.9902 212.075 53.6275 211.744C53.2755 211.403 53.0995 210.933 53.0995 210.336C53.0995 209.739 53.3715 209.232 53.9155 208.816C54.4595 208.4 55.1155 208.192 55.8835 208.192C56.6515 208.192 57.3555 208.325 57.9955 208.592C58.0062 208.677 58.0115 208.917 58.0115 209.312C58.0115 209.707 57.9422 210.123 57.8035 210.56L57.0675 210.64C56.9928 209.808 56.8702 209.333 56.6995 209.216C56.5395 209.099 56.2302 209.04 55.7715 209.04ZM63.1079 216.144C62.0305 216.144 61.1932 215.776 60.5959 215.04C60.0092 214.304 59.7159 213.376 59.7159 212.256C59.7159 211.125 60.0572 210.165 60.7399 209.376C61.4225 208.587 62.3239 208.192 63.4439 208.192C65.2572 208.192 66.2065 209.307 66.2919 211.536L65.8759 211.84L61.2359 212.096C61.2359 214.069 62.0785 215.056 63.7639 215.056C64.4999 215.056 65.2199 214.875 65.9239 214.512L66.2599 215.04C65.9079 215.328 65.4492 215.584 64.8839 215.808C64.3185 216.032 63.7265 216.144 63.1079 216.144ZM61.2839 211.36L64.5959 211.072C64.7025 211.061 64.7559 210.96 64.7559 210.768C64.7559 210.299 64.6279 209.893 64.3719 209.552C64.1265 209.211 63.7052 209.04 63.1079 209.04C62.5105 209.04 62.0732 209.243 61.7959 209.648C61.5292 210.043 61.3585 210.613 61.2839 211.36ZM74.8304 216.144C73.6784 216.144 72.793 215.803 72.1744 215.12C71.5557 214.437 71.2464 213.483 71.2464 212.256C71.2464 211.029 71.5717 210.048 72.2224 209.312C72.8837 208.565 73.7904 208.192 74.9424 208.192C76.105 208.192 76.9957 208.539 77.6144 209.232C78.233 209.915 78.5424 210.869 78.5424 212.096C78.5424 213.323 78.2117 214.304 77.5504 215.04C76.8997 215.776 75.993 216.144 74.8304 216.144ZM72.7984 212.048C72.7984 212.997 72.9904 213.776 73.3744 214.384C73.7584 214.992 74.281 215.296 74.9424 215.296C75.6037 215.296 76.073 215.136 76.3504 214.816C76.5424 214.603 76.697 214.267 76.8144 213.808C76.9317 213.339 76.9904 212.832 76.9904 212.288C76.9904 211.339 76.7984 210.56 76.4144 209.952C76.0304 209.344 75.5077 209.04 74.8464 209.04C74.185 209.04 73.7157 209.2 73.4384 209.52C73.2464 209.733 73.0917 210.075 72.9744 210.544C72.857 211.003 72.7984 211.504 72.7984 212.048ZM80.5829 217.824V209.856C80.5829 209.579 80.5135 209.387 80.3749 209.28C80.2469 209.163 79.9109 209.051 79.3669 208.944L79.4629 208.432C80.7855 208.293 81.4789 208.224 81.5429 208.224C81.6069 208.224 81.6815 208.368 81.7669 208.656C81.8629 208.933 81.9109 209.179 81.9109 209.392V209.552L82.0389 209.6L82.1989 209.392C82.8175 208.592 83.5589 208.192 84.4229 208.192C85.2869 208.192 85.9962 208.539 86.5509 209.232C87.1055 209.915 87.3829 210.853 87.3829 212.048C87.3829 213.243 87.0682 214.224 86.4389 214.992C85.8095 215.76 84.9295 216.144 83.7989 216.144C82.9989 216.144 82.4229 216.005 82.0709 215.728L81.9589 215.776C82.0015 216.011 82.0229 216.245 82.0229 216.48V218.208C82.0229 218.347 82.0495 218.432 82.1029 218.464C82.1669 218.507 82.2469 218.533 82.3429 218.544L83.7989 218.736L83.7349 219.36H79.5589L79.4629 218.736C79.9855 218.629 80.3002 218.517 80.4069 218.4C80.5242 218.293 80.5829 218.101 80.5829 217.824ZM82.0229 214.448C82.4602 214.971 83.1429 215.232 84.0709 215.232C84.5295 215.232 84.8922 215.083 85.1589 214.784C85.6069 214.283 85.8309 213.504 85.8309 212.448C85.8309 211.381 85.6602 210.597 85.3189 210.096C84.9882 209.595 84.5669 209.344 84.0549 209.344C83.5429 209.344 83.0095 209.525 82.4549 209.888C82.1669 210.08 82.0229 210.325 82.0229 210.624V214.448ZM89.4891 217.824V209.856C89.4891 209.579 89.4198 209.387 89.2811 209.28C89.1531 209.163 88.8171 209.051 88.2731 208.944L88.3691 208.432C89.6918 208.293 90.3851 208.224 90.4491 208.224C90.5131 208.224 90.5878 208.368 90.6731 208.656C90.7691 208.933 90.8171 209.179 90.8171 209.392V209.552L90.9451 209.6L91.1051 209.392C91.7238 208.592 92.4651 208.192 93.3291 208.192C94.1931 208.192 94.9025 208.539 95.4571 209.232C96.0118 209.915 96.2891 210.853 96.2891 212.048C96.2891 213.243 95.9745 214.224 95.3451 214.992C94.7158 215.76 93.8358 216.144 92.7051 216.144C91.9051 216.144 91.3291 216.005 90.9771 215.728L90.8651 215.776C90.9078 216.011 90.9291 216.245 90.9291 216.48V218.208C90.9291 218.347 90.9558 218.432 91.0091 218.464C91.0731 218.507 91.1531 218.533 91.2491 218.544L92.7051 218.736L92.6411 219.36H88.4651L88.3691 218.736C88.8918 218.629 89.2065 218.517 89.3131 218.4C89.4305 218.293 89.4891 218.101 89.4891 217.824ZM90.9291 214.448C91.3665 214.971 92.0491 215.232 92.9771 215.232C93.4358 215.232 93.7985 215.083 94.0651 214.784C94.5131 214.283 94.7371 213.504 94.7371 212.448C94.7371 211.381 94.5665 210.597 94.2251 210.096C93.8945 209.595 93.4731 209.344 92.9611 209.344C92.4491 209.344 91.9158 209.525 91.3611 209.888C91.0731 210.08 90.9291 210.325 90.9291 210.624V214.448ZM100.955 216.144C99.8034 216.144 98.918 215.803 98.2994 215.12C97.6807 214.437 97.3714 213.483 97.3714 212.256C97.3714 211.029 97.6967 210.048 98.3474 209.312C99.0087 208.565 99.9154 208.192 101.067 208.192C102.23 208.192 103.121 208.539 103.739 209.232C104.358 209.915 104.667 210.869 104.667 212.096C104.667 213.323 104.337 214.304 103.675 215.04C103.025 215.776 102.118 216.144 100.955 216.144ZM98.9234 212.048C98.9234 212.997 99.1154 213.776 99.4994 214.384C99.8834 214.992 100.406 215.296 101.067 215.296C101.729 215.296 102.198 215.136 102.475 214.816C102.667 214.603 102.822 214.267 102.939 213.808C103.057 213.339 103.115 212.832 103.115 212.288C103.115 211.339 102.923 210.56 102.539 209.952C102.155 209.344 101.633 209.04 100.971 209.04C100.31 209.04 99.8407 209.2 99.5634 209.52C99.3714 209.733 99.2167 210.075 99.0994 210.544C98.982 211.003 98.9234 211.504 98.9234 212.048ZM105.812 216L105.716 215.376C106.281 215.28 106.628 215.173 106.756 215.056C106.884 214.939 106.948 214.741 106.948 214.464V209.856C106.948 209.579 106.873 209.381 106.724 209.264C106.585 209.136 106.217 209.029 105.62 208.944L105.716 208.432L107.892 208.224C107.967 208.224 108.047 208.331 108.132 208.544C108.217 208.757 108.26 208.981 108.26 209.216C108.26 209.44 108.239 209.701 108.196 210L108.324 210.048L108.532 209.584C108.724 209.157 109.012 208.821 109.396 208.576C109.791 208.32 110.185 208.192 110.58 208.192C110.985 208.192 111.359 208.277 111.7 208.448C111.7 209.323 111.62 210.197 111.46 211.072L110.676 211.152C110.591 210.256 110.505 209.749 110.42 209.632C110.335 209.504 110.191 209.44 109.988 209.44C109.796 209.44 109.567 209.531 109.3 209.712C109.033 209.883 108.815 210.069 108.644 210.272C108.473 210.464 108.388 210.784 108.388 211.232V214.848C108.388 214.987 108.415 215.077 108.468 215.12C108.532 215.152 108.612 215.173 108.708 215.184L110.164 215.376L110.1 216H105.812ZM113.438 213.808V209.408H112.398L112.334 208.72L113.118 208.528C113.321 208.475 113.454 208.357 113.518 208.176C113.593 207.984 113.721 207.387 113.902 206.384L114.878 206.288V208.432H117.102L116.974 209.184L114.878 209.424V213.328C114.878 214.437 115.219 214.992 115.902 214.992C116.286 214.992 116.691 214.832 117.118 214.512L117.454 214.976C116.878 215.755 116.174 216.144 115.342 216.144C114.745 216.144 114.275 215.936 113.934 215.52C113.603 215.104 113.438 214.533 113.438 213.808ZM119.144 214.016V209.792C119.144 209.568 119.059 209.408 118.888 209.312C118.717 209.205 118.397 209.104 117.928 209.008L118.024 208.496C119.165 208.347 119.96 208.272 120.408 208.272L120.584 208.432V213.328C120.584 214.437 121.005 214.992 121.848 214.992C122.392 214.992 122.957 214.784 123.544 214.368C123.683 214.272 123.773 214.181 123.816 214.096C123.859 214 123.88 213.845 123.88 213.632V209.792C123.88 209.568 123.795 209.408 123.624 209.312C123.453 209.205 123.133 209.104 122.664 209.008L122.76 208.496C123.901 208.347 124.696 208.272 125.144 208.272L125.32 208.432V214.416C125.32 214.693 125.384 214.891 125.512 215.008C125.651 215.115 125.992 215.221 126.536 215.328L126.44 215.84L124.376 216.064C124.301 216.075 124.221 215.936 124.136 215.648C124.061 215.349 124.024 215.093 124.024 214.88V214.784L123.896 214.736L123.704 214.96C123.032 215.749 122.211 216.144 121.24 216.144C120.589 216.144 120.077 215.973 119.704 215.632C119.331 215.28 119.144 214.741 119.144 214.016ZM127.658 216L127.562 215.376C128.085 215.269 128.4 215.163 128.506 215.056C128.624 214.939 128.682 214.741 128.682 214.464V209.856C128.682 209.579 128.613 209.387 128.474 209.28C128.346 209.163 128.01 209.051 127.466 208.944L127.562 208.432L129.626 208.224C129.701 208.224 129.776 208.373 129.85 208.672C129.936 208.971 129.978 209.232 129.978 209.456V209.552L130.106 209.6L130.298 209.376C130.97 208.587 131.792 208.192 132.762 208.192C133.445 208.192 133.984 208.4 134.378 208.816C134.773 209.221 134.97 209.792 134.97 210.528V214.848C134.97 214.976 134.997 215.061 135.05 215.104C135.114 215.136 135.194 215.163 135.29 215.184L136.074 215.376L136.01 216H132.586L132.49 215.376C132.97 215.28 133.264 215.173 133.37 215.056C133.477 214.939 133.53 214.741 133.53 214.464V211.008C133.53 210.507 133.44 210.107 133.258 209.808C133.077 209.499 132.72 209.344 132.186 209.344C131.664 209.344 131.093 209.552 130.474 209.968C130.378 210.032 130.309 210.08 130.266 210.112C130.17 210.219 130.122 210.416 130.122 210.704V214.832C130.122 214.949 130.138 215.029 130.17 215.072C130.213 215.115 130.304 215.152 130.442 215.184L131.146 215.376L131.082 216H127.658ZM137.19 216L137.094 215.376C137.616 215.269 137.931 215.163 138.038 215.056C138.155 214.939 138.214 214.741 138.214 214.464V209.872C138.214 209.648 138.128 209.488 137.958 209.392C137.787 209.285 137.467 209.184 136.998 209.088L137.094 208.576C138.235 208.427 139.03 208.352 139.478 208.352L139.654 208.512V214.848C139.654 214.976 139.68 215.061 139.734 215.104C139.798 215.136 139.878 215.163 139.974 215.184L140.758 215.376L140.694 216H137.19ZM139.67 205.504C139.67 205.771 139.584 205.995 139.414 206.176C139.254 206.357 139.035 206.448 138.758 206.448C138.491 206.448 138.267 206.368 138.086 206.208C137.915 206.048 137.83 205.829 137.83 205.552C137.83 205.264 137.91 205.035 138.07 204.864C138.24 204.693 138.47 204.608 138.758 204.608C139.366 204.608 139.67 204.907 139.67 205.504ZM142.751 213.808V209.408H141.711L141.647 208.72L142.431 208.528C142.633 208.475 142.767 208.357 142.831 208.176C142.905 207.984 143.033 207.387 143.215 206.384L144.191 206.288V208.432H146.415L146.287 209.184L144.191 209.424V213.328C144.191 214.437 144.532 214.992 145.215 214.992C145.599 214.992 146.004 214.832 146.431 214.512L146.767 214.976C146.191 215.755 145.487 216.144 144.655 216.144C144.057 216.144 143.588 215.936 143.247 215.52C142.916 215.104 142.751 214.533 142.751 213.808ZM147.736 216L147.64 215.376C148.163 215.269 148.478 215.163 148.584 215.056C148.702 214.939 148.76 214.741 148.76 214.464V209.872C148.76 209.648 148.675 209.488 148.504 209.392C148.334 209.285 148.014 209.184 147.544 209.088L147.64 208.576C148.782 208.427 149.576 208.352 150.024 208.352L150.2 208.512V214.848C150.2 214.976 150.227 215.061 150.28 215.104C150.344 215.136 150.424 215.163 150.52 215.184L151.304 215.376L151.24 216H147.736ZM150.216 205.504C150.216 205.771 150.131 205.995 149.96 206.176C149.8 206.357 149.582 206.448 149.304 206.448C149.038 206.448 148.814 206.368 148.632 206.208C148.462 206.048 148.376 205.829 148.376 205.552C148.376 205.264 148.456 205.035 148.616 204.864C148.787 204.693 149.016 204.608 149.304 204.608C149.912 204.608 150.216 204.907 150.216 205.504ZM155.874 216.144C154.796 216.144 153.959 215.776 153.362 215.04C152.775 214.304 152.482 213.376 152.482 212.256C152.482 211.125 152.823 210.165 153.506 209.376C154.188 208.587 155.09 208.192 156.21 208.192C158.023 208.192 158.972 209.307 159.058 211.536L158.642 211.84L154.002 212.096C154.002 214.069 154.844 215.056 156.53 215.056C157.266 215.056 157.986 214.875 158.69 214.512L159.026 215.04C158.674 215.328 158.215 215.584 157.65 215.808C157.084 216.032 156.492 216.144 155.874 216.144ZM154.049 211.36L157.362 211.072C157.468 211.061 157.522 210.96 157.522 210.768C157.522 210.299 157.394 209.893 157.138 209.552C156.892 209.211 156.471 209.04 155.874 209.04C155.276 209.04 154.839 209.243 154.562 209.648C154.295 210.043 154.124 210.613 154.049 211.36ZM163.162 209.04C162.223 209.04 161.754 209.36 161.754 210C161.754 210.256 161.818 210.448 161.946 210.576C162.074 210.693 162.165 210.784 162.218 210.848C162.282 210.901 162.399 210.971 162.57 211.056C162.741 211.141 162.858 211.205 162.922 211.248C162.997 211.28 163.141 211.339 163.354 211.424C164.25 211.797 164.879 212.149 165.242 212.48C165.605 212.811 165.786 213.28 165.786 213.888C165.786 214.496 165.514 215.024 164.97 215.472C164.437 215.92 163.701 216.144 162.762 216.144C162.346 216.144 161.914 216.101 161.466 216.016C161.018 215.931 160.693 215.845 160.49 215.76C160.469 215.621 160.458 215.339 160.458 214.912C160.458 214.485 160.506 214.021 160.602 213.52L161.434 213.456C161.509 214.139 161.562 214.56 161.594 214.72C161.637 214.869 161.695 214.965 161.77 215.008C162.111 215.2 162.559 215.296 163.114 215.296C163.978 215.296 164.41 214.949 164.41 214.256C164.41 213.925 164.282 213.653 164.026 213.44C163.738 213.205 163.407 213.008 163.034 212.848C162.053 212.443 161.381 212.075 161.018 211.744C160.666 211.403 160.49 210.933 160.49 210.336C160.49 209.739 160.762 209.232 161.306 208.816C161.85 208.4 162.506 208.192 163.274 208.192C164.042 208.192 164.746 208.325 165.386 208.592C165.397 208.677 165.402 208.917 165.402 209.312C165.402 209.707 165.333 210.123 165.194 210.56L164.458 210.64C164.383 209.808 164.261 209.333 164.09 209.216C163.93 209.099 163.621 209.04 163.162 209.04ZM171.236 216L171.14 215.376C171.663 215.269 171.978 215.163 172.084 215.056C172.202 214.939 172.26 214.741 172.26 214.464V209.872C172.26 209.648 172.175 209.488 172.004 209.392C171.834 209.285 171.514 209.184 171.044 209.088L171.14 208.576C172.282 208.427 173.076 208.352 173.524 208.352L173.7 208.512V214.848C173.7 214.976 173.727 215.061 173.78 215.104C173.844 215.136 173.924 215.163 174.02 215.184L174.804 215.376L174.74 216H171.236ZM173.716 205.504C173.716 205.771 173.631 205.995 173.46 206.176C173.3 206.357 173.082 206.448 172.804 206.448C172.538 206.448 172.314 206.368 172.132 206.208C171.962 206.048 171.876 205.829 171.876 205.552C171.876 205.264 171.956 205.035 172.116 204.864C172.287 204.693 172.516 204.608 172.804 204.608C173.412 204.608 173.716 204.907 173.716 205.504ZM176.19 216L176.094 215.376C176.616 215.269 176.931 215.163 177.038 215.056C177.155 214.939 177.214 214.741 177.214 214.464V209.856C177.214 209.579 177.144 209.387 177.006 209.28C176.878 209.163 176.542 209.051 175.998 208.944L176.094 208.432L178.158 208.224C178.232 208.224 178.307 208.373 178.382 208.672C178.467 208.971 178.51 209.232 178.51 209.456V209.552L178.638 209.6L178.83 209.376C179.502 208.587 180.323 208.192 181.294 208.192C181.976 208.192 182.515 208.4 182.91 208.816C183.304 209.221 183.502 209.792 183.502 210.528V214.848C183.502 214.976 183.528 215.061 183.582 215.104C183.646 215.136 183.726 215.163 183.822 215.184L184.606 215.376L184.542 216H181.118L181.022 215.376C181.502 215.28 181.795 215.173 181.902 215.056C182.008 214.939 182.062 214.741 182.062 214.464V211.008C182.062 210.507 181.971 210.107 181.79 209.808C181.608 209.499 181.251 209.344 180.718 209.344C180.195 209.344 179.624 209.552 179.006 209.968C178.91 210.032 178.84 210.08 178.798 210.112C178.702 210.219 178.654 210.416 178.654 210.704V214.832C178.654 214.949 178.67 215.029 178.702 215.072C178.744 215.115 178.835 215.152 178.974 215.184L179.678 215.376L179.614 216H176.19ZM18.584 228.04C17.6453 228.04 17.176 228.36 17.176 229C17.176 229.256 17.24 229.448 17.368 229.576C17.496 229.693 17.5867 229.784 17.64 229.848C17.704 229.901 17.8213 229.971 17.992 230.056C18.1627 230.141 18.28 230.205 18.344 230.248C18.4187 230.28 18.5627 230.339 18.776 230.424C19.672 230.797 20.3013 231.149 20.664 231.48C21.0267 231.811 21.208 232.28 21.208 232.888C21.208 233.496 20.936 234.024 20.392 234.472C19.8587 234.92 19.1227 235.144 18.184 235.144C17.768 235.144 17.336 235.101 16.888 235.016C16.44 234.931 16.1147 234.845 15.912 234.76C15.8907 234.621 15.88 234.339 15.88 233.912C15.88 233.485 15.928 233.021 16.024 232.52L16.856 232.456C16.9307 233.139 16.984 233.56 17.016 233.72C17.0587 233.869 17.1173 233.965 17.192 234.008C17.5333 234.2 17.9813 234.296 18.536 234.296C19.4 234.296 19.832 233.949 19.832 233.256C19.832 232.925 19.704 232.653 19.448 232.44C19.16 232.205 18.8293 232.008 18.456 231.848C17.4747 231.443 16.8027 231.075 16.44 230.744C16.088 230.403 15.912 229.933 15.912 229.336C15.912 228.739 16.184 228.232 16.728 227.816C17.272 227.4 17.928 227.192 18.696 227.192C19.464 227.192 20.168 227.325 20.808 227.592C20.8187 227.677 20.824 227.917 20.824 228.312C20.824 228.707 20.7547 229.123 20.616 229.56L19.88 229.64C19.8053 228.808 19.6827 228.333 19.512 228.216C19.352 228.099 19.0427 228.04 18.584 228.04ZM23.4564 233.016V228.792C23.4564 228.568 23.371 228.408 23.2004 228.312C23.0297 228.205 22.7097 228.104 22.2404 228.008L22.3364 227.496C23.4777 227.347 24.2724 227.272 24.7204 227.272L24.8964 227.432V232.328C24.8964 233.437 25.3177 233.992 26.1604 233.992C26.7044 233.992 27.2697 233.784 27.8564 233.368C27.995 233.272 28.0857 233.181 28.1284 233.096C28.171 233 28.1924 232.845 28.1924 232.632V228.792C28.1924 228.568 28.107 228.408 27.9364 228.312C27.7657 228.205 27.4457 228.104 26.9764 228.008L27.0724 227.496C28.2137 227.347 29.0084 227.272 29.4564 227.272L29.6324 227.432V233.416C29.6324 233.693 29.6964 233.891 29.8244 234.008C29.963 234.115 30.3044 234.221 30.8484 234.328L30.7524 234.84L28.6884 235.064C28.6137 235.075 28.5337 234.936 28.4484 234.648C28.3737 234.349 28.3364 234.093 28.3364 233.88V233.784L28.2084 233.736L28.0164 233.96C27.3444 234.749 26.523 235.144 25.5524 235.144C24.9017 235.144 24.3897 234.973 24.0164 234.632C23.643 234.28 23.4564 233.741 23.4564 233.016ZM34.8028 228.04C33.8641 228.04 33.3948 228.36 33.3948 229C33.3948 229.256 33.4588 229.448 33.5868 229.576C33.7148 229.693 33.8054 229.784 33.8588 229.848C33.9228 229.901 34.0401 229.971 34.2108 230.056C34.3814 230.141 34.4988 230.205 34.5628 230.248C34.6374 230.28 34.7814 230.339 34.9948 230.424C35.8908 230.797 36.5201 231.149 36.8828 231.48C37.2454 231.811 37.4268 232.28 37.4268 232.888C37.4268 233.496 37.1548 234.024 36.6108 234.472C36.0774 234.92 35.3414 235.144 34.4028 235.144C33.9868 235.144 33.5548 235.101 33.1068 235.016C32.6588 234.931 32.3334 234.845 32.1308 234.76C32.1094 234.621 32.0988 234.339 32.0988 233.912C32.0988 233.485 32.1468 233.021 32.2428 232.52L33.0748 232.456C33.1494 233.139 33.2028 233.56 33.2348 233.72C33.2774 233.869 33.3361 233.965 33.4108 234.008C33.7521 234.2 34.2001 234.296 34.7548 234.296C35.6188 234.296 36.0508 233.949 36.0508 233.256C36.0508 232.925 35.9228 232.653 35.6668 232.44C35.3788 232.205 35.0481 232.008 34.6748 231.848C33.6934 231.443 33.0214 231.075 32.6588 230.744C32.3068 230.403 32.1308 229.933 32.1308 229.336C32.1308 228.739 32.4028 228.232 32.9468 227.816C33.4908 227.4 34.1468 227.192 34.9148 227.192C35.6828 227.192 36.3868 227.325 37.0268 227.592C37.0374 227.677 37.0428 227.917 37.0428 228.312C37.0428 228.707 36.9734 229.123 36.8348 229.56L36.0988 229.64C36.0241 228.808 35.9014 228.333 35.7308 228.216C35.5708 228.099 35.2614 228.04 34.8028 228.04ZM39.5631 232.808V228.408H38.5231L38.4591 227.72L39.2431 227.528C39.4458 227.475 39.5791 227.357 39.6431 227.176C39.7178 226.984 39.8458 226.387 40.0271 225.384L41.0031 225.288V227.432H43.2271L43.0991 228.184L41.0031 228.424V232.328C41.0031 233.437 41.3445 233.992 42.0271 233.992C42.4111 233.992 42.8165 233.832 43.2431 233.512L43.5791 233.976C43.0031 234.755 42.2991 235.144 41.4671 235.144C40.8698 235.144 40.4005 234.936 40.0591 234.52C39.7285 234.104 39.5631 233.533 39.5631 232.808ZM44.4689 233.032C44.4689 232.232 44.8102 231.635 45.4929 231.24C46.1755 230.845 47.2849 230.643 48.8209 230.632V230.12C48.8209 228.733 48.3195 228.04 47.3169 228.04C46.8369 228.04 46.5329 228.109 46.4049 228.248C46.2875 228.387 46.1595 228.84 46.0209 229.608L45.1569 229.512C45.0715 229.181 45.0289 228.84 45.0289 228.488C45.0289 228.125 45.0342 227.891 45.0449 227.784C45.6742 227.389 46.5009 227.192 47.5249 227.192C48.5489 227.192 49.2582 227.389 49.6529 227.784C50.0582 228.179 50.2609 228.829 50.2609 229.736V233.416C50.2609 233.693 50.3249 233.891 50.4529 234.008C50.5915 234.115 50.9329 234.221 51.4769 234.328L51.3809 234.84L49.4609 235.048C49.3542 235.048 49.2422 234.947 49.1249 234.744C49.0075 234.541 48.9489 234.355 48.9489 234.184C48.9489 234.003 48.9542 233.869 48.9649 233.784L48.8369 233.736L48.6449 234.024C48.1435 234.771 47.4555 235.144 46.5809 235.144C45.9835 235.144 45.4822 234.957 45.0769 234.584C44.6715 234.211 44.4689 233.693 44.4689 233.032ZM46.0209 232.888C46.0209 233.272 46.1222 233.565 46.3249 233.768C46.5275 233.96 46.8155 234.056 47.1889 234.056C47.5622 234.056 47.9835 233.875 48.4529 233.512C48.6982 233.32 48.8209 233.117 48.8209 232.904V231.336C47.8609 231.357 47.1515 231.485 46.6929 231.72C46.2449 231.955 46.0209 232.344 46.0209 232.888ZM52.7364 235L52.6404 234.376C53.163 234.269 53.4777 234.163 53.5844 234.056C53.7017 233.939 53.7604 233.741 53.7604 233.464V228.872C53.7604 228.648 53.675 228.488 53.5044 228.392C53.3337 228.285 53.0137 228.184 52.5444 228.088L52.6404 227.576C53.7817 227.427 54.5764 227.352 55.0244 227.352L55.2004 227.512V233.848C55.2004 233.976 55.227 234.061 55.2804 234.104C55.3444 234.136 55.4244 234.163 55.5204 234.184L56.3044 234.376L56.2404 235H52.7364ZM55.2164 224.504C55.2164 224.771 55.131 224.995 54.9604 225.176C54.8004 225.357 54.5817 225.448 54.3044 225.448C54.0377 225.448 53.8137 225.368 53.6324 225.208C53.4617 225.048 53.3764 224.829 53.3764 224.552C53.3764 224.264 53.4564 224.035 53.6164 223.864C53.787 223.693 54.0164 223.608 54.3044 223.608C54.9124 223.608 55.2164 223.907 55.2164 224.504ZM57.6895 235L57.5935 234.376C58.1162 234.269 58.4308 234.163 58.5375 234.056C58.6548 233.939 58.7135 233.741 58.7135 233.464V228.856C58.7135 228.579 58.6442 228.387 58.5055 228.28C58.3775 228.163 58.0415 228.051 57.4975 227.944L57.5935 227.432L59.6575 227.224C59.7322 227.224 59.8068 227.373 59.8815 227.672C59.9668 227.971 60.0095 228.232 60.0095 228.456V228.552L60.1375 228.6L60.3295 228.376C61.0015 227.587 61.8228 227.192 62.7935 227.192C63.4762 227.192 64.0148 227.4 64.4095 227.816C64.8042 228.221 65.0015 228.792 65.0015 229.528V233.848C65.0015 233.976 65.0282 234.061 65.0815 234.104C65.1455 234.136 65.2255 234.163 65.3215 234.184L66.1055 234.376L66.0415 235H62.6175L62.5215 234.376C63.0015 234.28 63.2948 234.173 63.4015 234.056C63.5082 233.939 63.5615 233.741 63.5615 233.464V230.008C63.5615 229.507 63.4708 229.107 63.2895 228.808C63.1082 228.499 62.7508 228.344 62.2175 228.344C61.6948 228.344 61.1242 228.552 60.5055 228.968C60.4095 229.032 60.3402 229.08 60.2975 229.112C60.2015 229.219 60.1535 229.416 60.1535 229.704V233.832C60.1535 233.949 60.1695 234.029 60.2015 234.072C60.2442 234.115 60.3348 234.152 60.4735 234.184L61.1775 234.376L61.1135 235H57.6895ZM67.1408 233.032C67.1408 232.232 67.4821 231.635 68.1648 231.24C68.8474 230.845 69.9568 230.643 71.4928 230.632V230.12C71.4928 228.733 70.9914 228.04 69.9888 228.04C69.5088 228.04 69.2048 228.109 69.0768 228.248C68.9594 228.387 68.8314 228.84 68.6928 229.608L67.8288 229.512C67.7434 229.181 67.7008 228.84 67.7008 228.488C67.7008 228.125 67.7061 227.891 67.7168 227.784C68.3461 227.389 69.1728 227.192 70.1968 227.192C71.2208 227.192 71.9301 227.389 72.3248 227.784C72.7301 228.179 72.9328 228.829 72.9328 229.736V233.416C72.9328 233.693 72.9968 233.891 73.1248 234.008C73.2634 234.115 73.6048 234.221 74.1488 234.328L74.0528 234.84L72.1328 235.048C72.0261 235.048 71.9141 234.947 71.7968 234.744C71.6794 234.541 71.6208 234.355 71.6208 234.184C71.6208 234.003 71.6261 233.869 71.6368 233.784L71.5088 233.736L71.3168 234.024C70.8154 234.771 70.1274 235.144 69.2528 235.144C68.6554 235.144 68.1541 234.957 67.7488 234.584C67.3434 234.211 67.1408 233.693 67.1408 233.032ZM68.6928 232.888C68.6928 233.272 68.7941 233.565 68.9968 233.768C69.1994 233.96 69.4874 234.056 69.8608 234.056C70.2341 234.056 70.6554 233.875 71.1248 233.512C71.3701 233.32 71.4928 233.117 71.4928 232.904V231.336C70.5328 231.357 69.8234 231.485 69.3648 231.72C68.9168 231.955 68.6928 232.344 68.6928 232.888ZM75.9843 234.456V224.168C75.9843 223.944 75.8989 223.784 75.7283 223.688C75.5576 223.581 75.2376 223.48 74.7683 223.384L74.8643 222.872C76.0056 222.723 76.8003 222.648 77.2483 222.648L77.4243 222.808V227.304C77.4243 227.891 77.3869 228.307 77.3123 228.552L77.4403 228.6L77.6003 228.392C78.2189 227.592 78.9603 227.192 79.8243 227.192C80.6883 227.192 81.3976 227.539 81.9523 228.232C82.5069 228.915 82.7843 229.859 82.7843 231.064C82.7843 232.269 82.4643 233.251 81.8243 234.008C81.1949 234.765 80.2829 235.144 79.0883 235.144C78.5229 235.144 77.9469 235.069 77.3603 234.92C76.7736 234.771 76.3149 234.616 75.9843 234.456ZM77.4243 233.656C77.8829 234.04 78.4589 234.232 79.1523 234.232C79.8563 234.232 80.3309 234.088 80.5763 233.8C80.7683 233.587 80.9229 233.251 81.0403 232.792C81.1683 232.323 81.2323 231.805 81.2323 231.24C81.2323 230.291 81.0616 229.571 80.7203 229.08C80.3789 228.589 79.9576 228.344 79.4563 228.344C78.9549 228.344 78.4216 228.531 77.8563 228.904C77.6749 229.021 77.5576 229.128 77.5043 229.224C77.4509 229.32 77.4243 229.453 77.4243 229.624V233.656ZM84.1114 235L84.0154 234.376C84.538 234.269 84.8527 234.163 84.9594 234.056C85.0767 233.939 85.1354 233.741 85.1354 233.464V228.872C85.1354 228.648 85.05 228.488 84.8794 228.392C84.7087 228.285 84.3887 228.184 83.9194 228.088L84.0154 227.576C85.1567 227.427 85.9514 227.352 86.3994 227.352L86.5754 227.512V233.848C86.5754 233.976 86.602 234.061 86.6554 234.104C86.7194 234.136 86.7994 234.163 86.8954 234.184L87.6794 234.376L87.6154 235H84.1114ZM86.5914 224.504C86.5914 224.771 86.506 224.995 86.3354 225.176C86.1754 225.357 85.9567 225.448 85.6794 225.448C85.4127 225.448 85.1887 225.368 85.0074 225.208C84.8367 225.048 84.7514 224.829 84.7514 224.552C84.7514 224.264 84.8314 224.035 84.9914 223.864C85.162 223.693 85.3914 223.608 85.6794 223.608C86.2874 223.608 86.5914 223.907 86.5914 224.504ZM88.9525 235L88.8565 234.376C89.3792 234.269 89.6938 234.163 89.8005 234.056C89.9178 233.939 89.9765 233.741 89.9765 233.464V224.168C89.9765 223.944 89.8912 223.784 89.7205 223.688C89.5498 223.581 89.2298 223.48 88.7605 223.384L88.8565 222.872C89.9978 222.723 90.7925 222.648 91.2405 222.648L91.4165 222.808V233.848C91.4165 233.976 91.4432 234.061 91.4965 234.104C91.5605 234.136 91.6405 234.163 91.7365 234.184L92.5205 234.376L92.4565 235H88.9525ZM93.9083 235L93.8123 234.376C94.3349 234.269 94.6496 234.163 94.7563 234.056C94.8736 233.939 94.9323 233.741 94.9323 233.464V228.872C94.9323 228.648 94.8469 228.488 94.6763 228.392C94.5056 228.285 94.1856 228.184 93.7163 228.088L93.8123 227.576C94.9536 227.427 95.7483 227.352 96.1963 227.352L96.3723 227.512V233.848C96.3723 233.976 96.3989 234.061 96.4523 234.104C96.5163 234.136 96.5963 234.163 96.6923 234.184L97.4763 234.376L97.4123 235H93.9083ZM96.3883 224.504C96.3883 224.771 96.3029 224.995 96.1323 225.176C95.9723 225.357 95.7536 225.448 95.4763 225.448C95.2096 225.448 94.9856 225.368 94.8043 225.208C94.6336 225.048 94.5483 224.829 94.5483 224.552C94.5483 224.264 94.6283 224.035 94.7883 223.864C94.9589 223.693 95.1883 223.608 95.4763 223.608C96.0843 223.608 96.3883 223.907 96.3883 224.504ZM99.4694 232.808V228.408H98.4294L98.3654 227.72L99.1494 227.528C99.352 227.475 99.4854 227.357 99.5494 227.176C99.624 226.984 99.752 226.387 99.9334 225.384L100.909 225.288V227.432H103.133L103.005 228.184L100.909 228.424V232.328C100.909 233.437 101.251 233.992 101.933 233.992C102.317 233.992 102.723 233.832 103.149 233.512L103.485 233.976C102.909 234.755 102.205 235.144 101.373 235.144C100.776 235.144 100.307 234.936 99.9654 234.52C99.6347 234.104 99.4694 233.533 99.4694 232.808ZM104.167 236.872C104.423 236.904 104.775 236.92 105.223 236.92C105.682 236.92 106.044 236.861 106.311 236.744C106.578 236.637 106.898 236.056 107.271 235L104.615 228.632C104.53 228.429 104.45 228.301 104.375 228.248C104.311 228.195 104.108 228.131 103.767 228.056L103.863 227.432H107.159L107.223 228.056L106.247 228.296C106.172 228.307 106.135 228.349 106.135 228.424C106.135 228.435 106.156 228.504 106.199 228.632L107.831 232.904C107.884 233.053 107.911 233.219 107.911 233.4H108.039L109.735 229C109.799 228.829 109.831 228.691 109.831 228.584C109.831 228.467 109.751 228.371 109.591 228.296C109.442 228.221 109.17 228.141 108.775 228.056L108.871 227.432H111.719L111.783 228.056C111.314 228.163 111.063 228.253 111.031 228.328L108.503 234.6C108.29 235.133 108.119 235.539 107.991 235.816C107.863 236.104 107.687 236.424 107.463 236.776C107.239 237.128 107.004 237.4 106.759 237.592C106.151 238.051 105.415 238.355 104.551 238.504C104.274 238.227 104.135 237.789 104.135 237.192C104.135 237.128 104.146 237.021 104.167 236.872ZM113.159 237.192L112.727 236.776C113.164 236.253 113.383 235.773 113.383 235.336C113.383 235.091 113.287 234.856 113.095 234.632C112.914 234.408 112.823 234.189 112.823 233.976C112.823 233.752 112.908 233.565 113.079 233.416C113.26 233.267 113.484 233.192 113.751 233.192C114.018 233.192 114.247 233.309 114.439 233.544C114.631 233.768 114.727 234.088 114.727 234.504C114.727 235.464 114.204 236.36 113.159 237.192ZM125.416 233.944C124.798 234.744 124.056 235.144 123.192 235.144C122.328 235.144 121.619 234.803 121.064 234.12C120.51 233.427 120.232 232.483 120.232 231.288C120.232 230.093 120.547 229.112 121.176 228.344C121.806 227.576 122.686 227.192 123.816 227.192C124.595 227.192 125.171 227.331 125.544 227.608L125.656 227.56C125.614 227.389 125.592 227.155 125.592 226.856V224.168C125.592 223.944 125.48 223.779 125.256 223.672C125.043 223.555 124.654 223.459 124.088 223.384L124.184 222.872C125.326 222.723 126.216 222.648 126.856 222.648L127.032 222.808V233.432C127.032 233.709 127.096 233.907 127.224 234.024C127.363 234.131 127.704 234.237 128.248 234.344L128.152 234.856L126.232 235.064C126.126 235.064 126.008 234.957 125.88 234.744C125.752 234.531 125.688 234.339 125.688 234.168C125.688 233.997 125.694 233.869 125.704 233.784L125.576 233.736L125.416 233.944ZM121.784 230.904C121.784 231.96 121.95 232.739 122.28 233.24C122.622 233.741 123.048 233.992 123.56 233.992C124.072 233.992 124.606 233.811 125.16 233.448C125.448 233.256 125.592 233.011 125.592 232.712V228.888C125.155 228.365 124.472 228.104 123.544 228.104C123.086 228.104 122.723 228.253 122.456 228.552C122.008 229.053 121.784 229.837 121.784 230.904ZM129.518 235L129.422 234.376C129.944 234.269 130.259 234.163 130.366 234.056C130.483 233.939 130.542 233.741 130.542 233.464V228.872C130.542 228.648 130.456 228.488 130.286 228.392C130.115 228.285 129.795 228.184 129.326 228.088L129.422 227.576C130.563 227.427 131.358 227.352 131.806 227.352L131.982 227.512V233.848C131.982 233.976 132.008 234.061 132.062 234.104C132.126 234.136 132.206 234.163 132.302 234.184L133.086 234.376L133.022 235H129.518ZM131.998 224.504C131.998 224.771 131.912 224.995 131.742 225.176C131.582 225.357 131.363 225.448 131.086 225.448C130.819 225.448 130.595 225.368 130.414 225.208C130.243 225.048 130.158 224.829 130.158 224.552C130.158 224.264 130.238 224.035 130.398 223.864C130.568 223.693 130.798 223.608 131.086 223.608C131.694 223.608 131.998 223.907 131.998 224.504ZM137.303 228.04C136.364 228.04 135.895 228.36 135.895 229C135.895 229.256 135.959 229.448 136.087 229.576C136.215 229.693 136.305 229.784 136.359 229.848C136.423 229.901 136.54 229.971 136.711 230.056C136.881 230.141 136.999 230.205 137.063 230.248C137.137 230.28 137.281 230.339 137.495 230.424C138.391 230.797 139.02 231.149 139.383 231.48C139.745 231.811 139.927 232.28 139.927 232.888C139.927 233.496 139.655 234.024 139.111 234.472C138.577 234.92 137.841 235.144 136.903 235.144C136.487 235.144 136.055 235.101 135.607 235.016C135.159 234.931 134.833 234.845 134.631 234.76C134.609 234.621 134.599 234.339 134.599 233.912C134.599 233.485 134.647 233.021 134.743 232.52L135.575 232.456C135.649 233.139 135.703 233.56 135.735 233.72C135.777 233.869 135.836 233.965 135.911 234.008C136.252 234.2 136.7 234.296 137.255 234.296C138.119 234.296 138.551 233.949 138.551 233.256C138.551 232.925 138.423 232.653 138.167 232.44C137.879 232.205 137.548 232.008 137.175 231.848C136.193 231.443 135.521 231.075 135.159 230.744C134.807 230.403 134.631 229.933 134.631 229.336C134.631 228.739 134.903 228.232 135.447 227.816C135.991 227.4 136.647 227.192 137.415 227.192C138.183 227.192 138.887 227.325 139.527 227.592C139.537 227.677 139.543 227.917 139.543 228.312C139.543 228.707 139.473 229.123 139.335 229.56L138.599 229.64C138.524 228.808 138.401 228.333 138.231 228.216C138.071 228.099 137.761 228.04 137.303 228.04ZM141.375 233.032C141.375 232.232 141.716 231.635 142.399 231.24C143.082 230.845 144.191 230.643 145.727 230.632V230.12C145.727 228.733 145.226 228.04 144.223 228.04C143.743 228.04 143.439 228.109 143.311 228.248C143.194 228.387 143.066 228.84 142.927 229.608L142.063 229.512C141.978 229.181 141.935 228.84 141.935 228.488C141.935 228.125 141.94 227.891 141.951 227.784C142.58 227.389 143.407 227.192 144.431 227.192C145.455 227.192 146.164 227.389 146.559 227.784C146.964 228.179 147.167 228.829 147.167 229.736V233.416C147.167 233.693 147.231 233.891 147.359 234.008C147.498 234.115 147.839 234.221 148.383 234.328L148.287 234.84L146.367 235.048C146.26 235.048 146.148 234.947 146.031 234.744C145.914 234.541 145.855 234.355 145.855 234.184C145.855 234.003 145.86 233.869 145.871 233.784L145.743 233.736L145.551 234.024C145.05 234.771 144.362 235.144 143.487 235.144C142.89 235.144 142.388 234.957 141.983 234.584C141.578 234.211 141.375 233.693 141.375 233.032ZM142.927 232.888C142.927 233.272 143.028 233.565 143.231 233.768C143.434 233.96 143.722 234.056 144.095 234.056C144.468 234.056 144.89 233.875 145.359 233.512C145.604 233.32 145.727 233.117 145.727 232.904V231.336C144.767 231.357 144.058 231.485 143.599 231.72C143.151 231.955 142.927 232.344 142.927 232.888ZM152.475 228.04C151.536 228.04 151.067 228.36 151.067 229C151.067 229.256 151.131 229.448 151.259 229.576C151.387 229.693 151.477 229.784 151.531 229.848C151.595 229.901 151.712 229.971 151.883 230.056C152.053 230.141 152.171 230.205 152.235 230.248C152.309 230.28 152.453 230.339 152.667 230.424C153.563 230.797 154.192 231.149 154.555 231.48C154.917 231.811 155.099 232.28 155.099 232.888C155.099 233.496 154.827 234.024 154.283 234.472C153.749 234.92 153.013 235.144 152.075 235.144C151.659 235.144 151.227 235.101 150.779 235.016C150.331 234.931 150.005 234.845 149.803 234.76C149.781 234.621 149.771 234.339 149.771 233.912C149.771 233.485 149.819 233.021 149.915 232.52L150.747 232.456C150.821 233.139 150.875 233.56 150.907 233.72C150.949 233.869 151.008 233.965 151.083 234.008C151.424 234.2 151.872 234.296 152.427 234.296C153.291 234.296 153.723 233.949 153.723 233.256C153.723 232.925 153.595 232.653 153.339 232.44C153.051 232.205 152.72 232.008 152.347 231.848C151.365 231.443 150.693 231.075 150.331 230.744C149.979 230.403 149.803 229.933 149.803 229.336C149.803 228.739 150.075 228.232 150.619 227.816C151.163 227.4 151.819 227.192 152.587 227.192C153.355 227.192 154.059 227.325 154.699 227.592C154.709 227.677 154.715 227.917 154.715 228.312C154.715 228.707 154.645 229.123 154.507 229.56L153.771 229.64C153.696 228.808 153.573 228.333 153.403 228.216C153.243 228.099 152.933 228.04 152.475 228.04ZM157.235 232.808V228.408H156.195L156.131 227.72L156.915 227.528C157.118 227.475 157.251 227.357 157.315 227.176C157.39 226.984 157.518 226.387 157.699 225.384L158.675 225.288V227.432H160.899L160.771 228.184L158.675 228.424V232.328C158.675 233.437 159.016 233.992 159.699 233.992C160.083 233.992 160.488 233.832 160.915 233.512L161.251 233.976C160.675 234.755 159.971 235.144 159.139 235.144C158.542 235.144 158.072 234.936 157.731 234.52C157.4 234.104 157.235 233.533 157.235 232.808ZM165.405 235.144C164.327 235.144 163.49 234.776 162.893 234.04C162.306 233.304 162.013 232.376 162.013 231.256C162.013 230.125 162.354 229.165 163.037 228.376C163.719 227.587 164.621 227.192 165.741 227.192C167.554 227.192 168.503 228.307 168.589 230.536L168.173 230.84L163.533 231.096C163.533 233.069 164.375 234.056 166.061 234.056C166.797 234.056 167.517 233.875 168.221 233.512L168.557 234.04C168.205 234.328 167.746 234.584 167.181 234.808C166.615 235.032 166.023 235.144 165.405 235.144ZM163.581 230.36L166.893 230.072C166.999 230.061 167.053 229.96 167.053 229.768C167.053 229.299 166.925 228.893 166.669 228.552C166.423 228.211 166.002 228.04 165.405 228.04C164.807 228.04 164.37 228.243 164.093 228.648C163.826 229.043 163.655 229.613 163.581 230.36ZM169.749 235L169.653 234.376C170.219 234.28 170.565 234.173 170.693 234.056C170.821 233.939 170.885 233.741 170.885 233.464V228.856C170.885 228.579 170.811 228.381 170.661 228.264C170.523 228.136 170.155 228.029 169.557 227.944L169.653 227.432L171.829 227.224C171.904 227.224 171.984 227.331 172.069 227.544C172.155 227.757 172.197 227.981 172.197 228.216C172.197 228.44 172.176 228.701 172.133 229L172.261 229.048L172.469 228.584C172.661 228.157 172.949 227.821 173.333 227.576C173.728 227.32 174.123 227.192 174.517 227.192C174.923 227.192 175.296 227.277 175.637 227.448C175.637 228.323 175.557 229.197 175.397 230.072L174.613 230.152C174.528 229.256 174.443 228.749 174.357 228.632C174.272 228.504 174.128 228.44 173.925 228.44C173.733 228.44 173.504 228.531 173.237 228.712C172.971 228.883 172.752 229.069 172.581 229.272C172.411 229.464 172.325 229.784 172.325 230.232V233.848C172.325 233.987 172.352 234.077 172.405 234.12C172.469 234.152 172.549 234.173 172.645 234.184L174.101 234.376L174.037 235H169.749ZM16.536 255.824V247.856C16.536 247.579 16.4667 247.387 16.328 247.28C16.2 247.163 15.864 247.051 15.32 246.944L15.416 246.432C16.7387 246.293 17.432 246.224 17.496 246.224C17.56 246.224 17.6347 246.368 17.72 246.656C17.816 246.933 17.864 247.179 17.864 247.392V247.552L17.992 247.6L18.152 247.392C18.7707 246.592 19.512 246.192 20.376 246.192C21.24 246.192 21.9493 246.539 22.504 247.232C23.0587 247.915 23.336 248.853 23.336 250.048C23.336 251.243 23.0213 252.224 22.392 252.992C21.7627 253.76 20.8827 254.144 19.752 254.144C18.952 254.144 18.376 254.005 18.024 253.728L17.912 253.776C17.9547 254.011 17.976 254.245 17.976 254.48V256.208C17.976 256.347 18.0027 256.432 18.056 256.464C18.12 256.507 18.2 256.533 18.296 256.544L19.752 256.736L19.688 257.36H15.512L15.416 256.736C15.9387 256.629 16.2533 256.517 16.36 256.4C16.4773 256.293 16.536 256.101 16.536 255.824ZM17.976 252.448C18.4133 252.971 19.096 253.232 20.024 253.232C20.4827 253.232 20.8453 253.083 21.112 252.784C21.56 252.283 21.784 251.504 21.784 250.448C21.784 249.381 21.6133 248.597 21.272 248.096C20.9413 247.595 20.52 247.344 20.008 247.344C19.496 247.344 18.9627 247.525 18.408 247.888C18.12 248.08 17.976 248.325 17.976 248.624V252.448ZM24.5463 254L24.4503 253.376C25.0156 253.28 25.3623 253.173 25.4903 253.056C25.6183 252.939 25.6823 252.741 25.6823 252.464V247.856C25.6823 247.579 25.6076 247.381 25.4583 247.264C25.3196 247.136 24.9516 247.029 24.3543 246.944L24.4503 246.432L26.6263 246.224C26.7009 246.224 26.7809 246.331 26.8663 246.544C26.9516 246.757 26.9943 246.981 26.9943 247.216C26.9943 247.44 26.9729 247.701 26.9303 248L27.0583 248.048L27.2663 247.584C27.4583 247.157 27.7463 246.821 28.1302 246.576C28.5249 246.32 28.9196 246.192 29.3143 246.192C29.7196 246.192 30.0929 246.277 30.4343 246.448C30.4343 247.323 30.3543 248.197 30.1943 249.072L29.4103 249.152C29.3249 248.256 29.2396 247.749 29.1543 247.632C29.0689 247.504 28.9249 247.44 28.7223 247.44C28.5303 247.44 28.3009 247.531 28.0343 247.712C27.7676 247.883 27.5489 248.069 27.3783 248.272C27.2076 248.464 27.1223 248.784 27.1223 249.232V252.848C27.1223 252.987 27.1489 253.077 27.2023 253.12C27.2663 253.152 27.3463 253.173 27.4423 253.184L28.8983 253.376L28.8343 254H24.5463ZM34.7485 254.144C33.6712 254.144 32.8338 253.776 32.2365 253.04C31.6498 252.304 31.3565 251.376 31.3565 250.256C31.3565 249.125 31.6978 248.165 32.3805 247.376C33.0632 246.587 33.9645 246.192 35.0845 246.192C36.8978 246.192 37.8472 247.307 37.9325 249.536L37.5165 249.84L32.8765 250.096C32.8765 252.069 33.7192 253.056 35.4045 253.056C36.1405 253.056 36.8605 252.875 37.5645 252.512L37.9005 253.04C37.5485 253.328 37.0898 253.584 36.5245 253.808C35.9592 254.032 35.3672 254.144 34.7485 254.144ZM32.9245 249.36L36.2365 249.072C36.3432 249.061 36.3965 248.96 36.3965 248.768C36.3965 248.299 36.2685 247.893 36.0125 247.552C35.7672 247.211 35.3458 247.04 34.7485 247.04C34.1512 247.04 33.7138 247.243 33.4365 247.648C33.1698 248.043 32.9992 248.613 32.9245 249.36ZM39.9891 255.824V247.856C39.9891 247.579 39.9198 247.387 39.7811 247.28C39.6531 247.163 39.3171 247.051 38.7731 246.944L38.8691 246.432C40.1918 246.293 40.8851 246.224 40.9491 246.224C41.0131 246.224 41.0878 246.368 41.1731 246.656C41.2691 246.933 41.3171 247.179 41.3171 247.392V247.552L41.4451 247.6L41.6051 247.392C42.2238 246.592 42.9651 246.192 43.8291 246.192C44.6931 246.192 45.4025 246.539 45.9571 247.232C46.5118 247.915 46.7891 248.853 46.7891 250.048C46.7891 251.243 46.4745 252.224 45.8451 252.992C45.2158 253.76 44.3358 254.144 43.2051 254.144C42.4051 254.144 41.8291 254.005 41.4771 253.728L41.3651 253.776C41.4078 254.011 41.4291 254.245 41.4291 254.48V256.208C41.4291 256.347 41.4558 256.432 41.5091 256.464C41.5731 256.507 41.6531 256.533 41.7491 256.544L43.2051 256.736L43.1411 257.36H38.9651L38.8691 256.736C39.3918 256.629 39.7065 256.517 39.8131 256.4C39.9305 256.293 39.9891 256.101 39.9891 255.824ZM41.4291 252.448C41.8665 252.971 42.5491 253.232 43.4771 253.232C43.9358 253.232 44.2985 253.083 44.5651 252.784C45.0131 252.283 45.2371 251.504 45.2371 250.448C45.2371 249.381 45.0665 248.597 44.7251 248.096C44.3945 247.595 43.9731 247.344 43.4611 247.344C42.9491 247.344 42.4158 247.525 41.8611 247.888C41.5731 248.08 41.4291 248.325 41.4291 248.624V252.448ZM48.0314 252.032C48.0314 251.232 48.3727 250.635 49.0554 250.24C49.738 249.845 50.8474 249.643 52.3834 249.632V249.12C52.3834 247.733 51.882 247.04 50.8794 247.04C50.3994 247.04 50.0954 247.109 49.9674 247.248C49.85 247.387 49.722 247.84 49.5834 248.608L48.7194 248.512C48.634 248.181 48.5914 247.84 48.5914 247.488C48.5914 247.125 48.5967 246.891 48.6074 246.784C49.2367 246.389 50.0634 246.192 51.0874 246.192C52.1114 246.192 52.8207 246.389 53.2154 246.784C53.6207 247.179 53.8234 247.829 53.8234 248.736V252.416C53.8234 252.693 53.8874 252.891 54.0154 253.008C54.154 253.115 54.4954 253.221 55.0394 253.328L54.9434 253.84L53.0234 254.048C52.9167 254.048 52.8047 253.947 52.6874 253.744C52.57 253.541 52.5114 253.355 52.5114 253.184C52.5114 253.003 52.5167 252.869 52.5274 252.784L52.3994 252.736L52.2074 253.024C51.706 253.771 51.018 254.144 50.1434 254.144C49.546 254.144 49.0447 253.957 48.6394 253.584C48.234 253.211 48.0314 252.693 48.0314 252.032ZM49.5834 251.888C49.5834 252.272 49.6847 252.565 49.8874 252.768C50.09 252.96 50.378 253.056 50.7514 253.056C51.1247 253.056 51.546 252.875 52.0154 252.512C52.2607 252.32 52.3834 252.117 52.3834 251.904V250.336C51.4234 250.357 50.714 250.485 50.2554 250.72C49.8074 250.955 49.5834 251.344 49.5834 251.888ZM56.1869 254L56.0909 253.376C56.6562 253.28 57.0029 253.173 57.1309 253.056C57.2589 252.939 57.3229 252.741 57.3229 252.464V247.856C57.3229 247.579 57.2482 247.381 57.0989 247.264C56.9602 247.136 56.5922 247.029 55.9949 246.944L56.0909 246.432L58.2669 246.224C58.3415 246.224 58.4215 246.331 58.5069 246.544C58.5922 246.757 58.6349 246.981 58.6349 247.216C58.6349 247.44 58.6135 247.701 58.5709 248L58.6989 248.048L58.9069 247.584C59.0989 247.157 59.3869 246.821 59.7709 246.576C60.1655 246.32 60.5602 246.192 60.9549 246.192C61.3602 246.192 61.7335 246.277 62.0749 246.448C62.0749 247.323 61.9949 248.197 61.8349 249.072L61.0509 249.152C60.9655 248.256 60.8802 247.749 60.7949 247.632C60.7095 247.504 60.5655 247.44 60.3629 247.44C60.1709 247.44 59.9415 247.531 59.6749 247.712C59.4082 247.883 59.1895 248.069 59.0189 248.272C58.8482 248.464 58.7629 248.784 58.7629 249.232V252.848C58.7629 252.987 58.7895 253.077 58.8429 253.12C58.9069 253.152 58.9869 253.173 59.0829 253.184L60.5389 253.376L60.4749 254H56.1869ZM66.3891 254.144C65.3118 254.144 64.4745 253.776 63.8771 253.04C63.2905 252.304 62.9971 251.376 62.9971 250.256C62.9971 249.125 63.3385 248.165 64.0211 247.376C64.7038 246.587 65.6051 246.192 66.7251 246.192C68.5385 246.192 69.4878 247.307 69.5731 249.536L69.1571 249.84L64.5171 250.096C64.5171 252.069 65.3598 253.056 67.0451 253.056C67.7811 253.056 68.5011 252.875 69.2051 252.512L69.5411 253.04C69.1891 253.328 68.7305 253.584 68.1651 253.808C67.5998 254.032 67.0078 254.144 66.3891 254.144ZM64.5651 249.36L67.8771 249.072C67.9838 249.061 68.0371 248.96 68.0371 248.768C68.0371 248.299 67.9091 247.893 67.6531 247.552C67.4078 247.211 66.9865 247.04 66.3891 247.04C65.7918 247.04 65.3545 247.243 65.0771 247.648C64.8105 248.043 64.6398 248.613 64.5651 249.36ZM75.8538 252.944C75.2351 253.744 74.4938 254.144 73.6298 254.144C72.7658 254.144 72.0564 253.803 71.5018 253.12C70.9471 252.427 70.6698 251.483 70.6698 250.288C70.6698 249.093 70.9844 248.112 71.6138 247.344C72.2431 246.576 73.1231 246.192 74.2538 246.192C75.0324 246.192 75.6084 246.331 75.9818 246.608L76.0938 246.56C76.0511 246.389 76.0298 246.155 76.0298 245.856V243.168C76.0298 242.944 75.9178 242.779 75.6938 242.672C75.4804 242.555 75.0911 242.459 74.5258 242.384L74.6218 241.872C75.7631 241.723 76.6538 241.648 77.2938 241.648L77.4698 241.808V252.432C77.4698 252.709 77.5338 252.907 77.6618 253.024C77.8004 253.131 78.1418 253.237 78.6858 253.344L78.5898 253.856L76.6698 254.064C76.5631 254.064 76.4458 253.957 76.3178 253.744C76.1898 253.531 76.1258 253.339 76.1258 253.168C76.1258 252.997 76.1311 252.869 76.1418 252.784L76.0138 252.736L75.8538 252.944ZM72.2218 249.904C72.2218 250.96 72.3871 251.739 72.7178 252.24C73.0591 252.741 73.4858 252.992 73.9978 252.992C74.5098 252.992 75.0431 252.811 75.5978 252.448C75.8858 252.256 76.0298 252.011 76.0298 251.712V247.888C75.5924 247.365 74.9098 247.104 73.9818 247.104C73.5231 247.104 73.1604 247.253 72.8938 247.552C72.4458 248.053 72.2218 248.837 72.2218 249.904ZM79.9551 254L79.8591 253.376C80.3818 253.269 80.6965 253.163 80.8031 253.056C80.9205 252.939 80.9791 252.741 80.9791 252.464V247.856C80.9791 247.579 80.9098 247.387 80.7711 247.28C80.6431 247.163 80.3071 247.051 79.7631 246.944L79.8591 246.432L81.9231 246.224C81.9978 246.224 82.0725 246.373 82.1471 246.672C82.2325 246.971 82.2751 247.232 82.2751 247.456V247.552L82.4031 247.6L82.5951 247.376C83.2671 246.587 84.0885 246.192 85.0591 246.192C85.7418 246.192 86.2805 246.4 86.6751 246.816C87.0698 247.221 87.2671 247.792 87.2671 248.528V252.848C87.2671 252.976 87.2938 253.061 87.3471 253.104C87.4111 253.136 87.4911 253.163 87.5871 253.184L88.3711 253.376L88.3071 254H84.8831L84.7871 253.376C85.2671 253.28 85.5605 253.173 85.6671 253.056C85.7738 252.939 85.8271 252.741 85.8271 252.464V249.008C85.8271 248.507 85.7365 248.107 85.5551 247.808C85.3738 247.499 85.0165 247.344 84.4831 247.344C83.9605 247.344 83.3898 247.552 82.7711 247.968C82.6751 248.032 82.6058 248.08 82.5631 248.112C82.4671 248.219 82.4191 248.416 82.4191 248.704V252.832C82.4191 252.949 82.4351 253.029 82.4671 253.072C82.5098 253.115 82.6005 253.152 82.7391 253.184L83.4431 253.376L83.3791 254H79.9551ZM92.6704 254.144C91.593 254.144 90.7557 253.776 90.1584 253.04C89.5717 252.304 89.2784 251.376 89.2784 250.256C89.2784 249.125 89.6197 248.165 90.3024 247.376C90.985 246.587 91.8864 246.192 93.0064 246.192C94.8197 246.192 95.769 247.307 95.8544 249.536L95.4384 249.84L90.7984 250.096C90.7984 252.069 91.641 253.056 93.3264 253.056C94.0624 253.056 94.7824 252.875 95.4864 252.512L95.8224 253.04C95.4704 253.328 95.0117 253.584 94.4464 253.808C93.881 254.032 93.289 254.144 92.6704 254.144ZM90.8464 249.36L94.1584 249.072C94.265 249.061 94.3184 248.96 94.3184 248.768C94.3184 248.299 94.1904 247.893 93.9344 247.552C93.689 247.211 93.2677 247.04 92.6704 247.04C92.073 247.04 91.6357 247.243 91.3584 247.648C91.0917 248.043 90.921 248.613 90.8464 249.36ZM99.959 247.04C99.0203 247.04 98.551 247.36 98.551 248C98.551 248.256 98.615 248.448 98.743 248.576C98.871 248.693 98.9617 248.784 99.015 248.848C99.079 248.901 99.1963 248.971 99.367 249.056C99.5377 249.141 99.655 249.205 99.719 249.248C99.7937 249.28 99.9377 249.339 100.151 249.424C101.047 249.797 101.676 250.149 102.039 250.48C102.402 250.811 102.583 251.28 102.583 251.888C102.583 252.496 102.311 253.024 101.767 253.472C101.234 253.92 100.498 254.144 99.559 254.144C99.143 254.144 98.711 254.101 98.263 254.016C97.815 253.931 97.4897 253.845 97.287 253.76C97.2657 253.621 97.255 253.339 97.255 252.912C97.255 252.485 97.303 252.021 97.399 251.52L98.231 251.456C98.3057 252.139 98.359 252.56 98.391 252.72C98.4337 252.869 98.4923 252.965 98.567 253.008C98.9083 253.2 99.3563 253.296 99.911 253.296C100.775 253.296 101.207 252.949 101.207 252.256C101.207 251.925 101.079 251.653 100.823 251.44C100.535 251.205 100.204 251.008 99.831 250.848C98.8497 250.443 98.1777 250.075 97.815 249.744C97.463 249.403 97.287 248.933 97.287 248.336C97.287 247.739 97.559 247.232 98.103 246.816C98.647 246.4 99.303 246.192 100.071 246.192C100.839 246.192 101.543 246.325 102.183 246.592C102.194 246.677 102.199 246.917 102.199 247.312C102.199 247.707 102.13 248.123 101.991 248.56L101.255 248.64C101.18 247.808 101.058 247.333 100.887 247.216C100.727 247.099 100.418 247.04 99.959 247.04ZM106.943 247.04C106.005 247.04 105.535 247.36 105.535 248C105.535 248.256 105.599 248.448 105.727 248.576C105.855 248.693 105.946 248.784 105.999 248.848C106.063 248.901 106.181 248.971 106.351 249.056C106.522 249.141 106.639 249.205 106.703 249.248C106.778 249.28 106.922 249.339 107.135 249.424C108.031 249.797 108.661 250.149 109.023 250.48C109.386 250.811 109.567 251.28 109.567 251.888C109.567 252.496 109.295 253.024 108.751 253.472C108.218 253.92 107.482 254.144 106.543 254.144C106.127 254.144 105.695 254.101 105.247 254.016C104.799 253.931 104.474 253.845 104.271 253.76C104.25 253.621 104.239 253.339 104.239 252.912C104.239 252.485 104.287 252.021 104.383 251.52L105.215 251.456C105.29 252.139 105.343 252.56 105.375 252.72C105.418 252.869 105.477 252.965 105.551 253.008C105.893 253.2 106.341 253.296 106.895 253.296C107.759 253.296 108.191 252.949 108.191 252.256C108.191 251.925 108.063 251.653 107.807 251.44C107.519 251.205 107.189 251.008 106.815 250.848C105.834 250.443 105.162 250.075 104.799 249.744C104.447 249.403 104.271 248.933 104.271 248.336C104.271 247.739 104.543 247.232 105.087 246.816C105.631 246.4 106.287 246.192 107.055 246.192C107.823 246.192 108.527 246.325 109.167 246.592C109.178 246.677 109.183 246.917 109.183 247.312C109.183 247.707 109.114 248.123 108.975 248.56L108.239 248.64C108.165 247.808 108.042 247.333 107.871 247.216C107.711 247.099 107.402 247.04 106.943 247.04ZM111.8 256.192L111.368 255.776C111.805 255.253 112.024 254.773 112.024 254.336C112.024 254.091 111.928 253.856 111.736 253.632C111.554 253.408 111.464 253.189 111.464 252.976C111.464 252.752 111.549 252.565 111.72 252.416C111.901 252.267 112.125 252.192 112.392 252.192C112.658 252.192 112.888 252.309 113.08 252.544C113.272 252.768 113.368 253.088 113.368 253.504C113.368 254.464 112.845 255.36 111.8 256.192ZM118.969 252.032C118.969 251.232 119.31 250.635 119.993 250.24C120.676 249.845 121.785 249.643 123.321 249.632V249.12C123.321 247.733 122.82 247.04 121.817 247.04C121.337 247.04 121.033 247.109 120.905 247.248C120.788 247.387 120.66 247.84 120.521 248.608L119.657 248.512C119.572 248.181 119.529 247.84 119.529 247.488C119.529 247.125 119.534 246.891 119.545 246.784C120.174 246.389 121.001 246.192 122.025 246.192C123.049 246.192 123.758 246.389 124.153 246.784C124.558 247.179 124.761 247.829 124.761 248.736V252.416C124.761 252.693 124.825 252.891 124.953 253.008C125.092 253.115 125.433 253.221 125.977 253.328L125.881 253.84L123.961 254.048C123.854 254.048 123.742 253.947 123.625 253.744C123.508 253.541 123.449 253.355 123.449 253.184C123.449 253.003 123.454 252.869 123.465 252.784L123.337 252.736L123.145 253.024C122.644 253.771 121.956 254.144 121.081 254.144C120.484 254.144 119.982 253.957 119.577 253.584C119.172 253.211 118.969 252.693 118.969 252.032ZM120.521 251.888C120.521 252.272 120.622 252.565 120.825 252.768C121.028 252.96 121.316 253.056 121.689 253.056C122.062 253.056 122.484 252.875 122.953 252.512C123.198 252.32 123.321 252.117 123.321 251.904V250.336C122.361 250.357 121.652 250.485 121.193 250.72C120.745 250.955 120.521 251.344 120.521 251.888ZM127.236 254L127.14 253.376C127.663 253.269 127.978 253.163 128.084 253.056C128.202 252.939 128.26 252.741 128.26 252.464V247.856C128.26 247.579 128.191 247.387 128.052 247.28C127.924 247.163 127.588 247.051 127.044 246.944L127.14 246.432L129.204 246.224C129.279 246.224 129.354 246.373 129.428 246.672C129.514 246.971 129.556 247.232 129.556 247.456V247.552L129.684 247.6L129.876 247.376C130.548 246.587 131.37 246.192 132.34 246.192C133.023 246.192 133.562 246.4 133.956 246.816C134.351 247.221 134.548 247.792 134.548 248.528V252.848C134.548 252.976 134.575 253.061 134.628 253.104C134.692 253.136 134.772 253.163 134.868 253.184L135.652 253.376L135.588 254H132.164L132.068 253.376C132.548 253.28 132.842 253.173 132.948 253.056C133.055 252.939 133.108 252.741 133.108 252.464V249.008C133.108 248.507 133.018 248.107 132.836 247.808C132.655 247.499 132.298 247.344 131.764 247.344C131.242 247.344 130.671 247.552 130.052 247.968C129.956 248.032 129.887 248.08 129.844 248.112C129.748 248.219 129.7 248.416 129.7 248.704V252.832C129.7 252.949 129.716 253.029 129.748 253.072C129.791 253.115 129.882 253.152 130.02 253.184L130.724 253.376L130.66 254H127.236ZM141.776 252.944C141.157 253.744 140.416 254.144 139.552 254.144C138.688 254.144 137.978 253.803 137.424 253.12C136.869 252.427 136.592 251.483 136.592 250.288C136.592 249.093 136.906 248.112 137.536 247.344C138.165 246.576 139.045 246.192 140.176 246.192C140.954 246.192 141.53 246.331 141.904 246.608L142.016 246.56C141.973 246.389 141.952 246.155 141.952 245.856V243.168C141.952 242.944 141.84 242.779 141.616 242.672C141.402 242.555 141.013 242.459 140.448 242.384L140.544 241.872C141.685 241.723 142.576 241.648 143.216 241.648L143.392 241.808V252.432C143.392 252.709 143.456 252.907 143.584 253.024C143.722 253.131 144.064 253.237 144.608 253.344L144.512 253.856L142.592 254.064C142.485 254.064 142.368 253.957 142.24 253.744C142.112 253.531 142.048 253.339 142.048 253.168C142.048 252.997 142.053 252.869 142.064 252.784L141.936 252.736L141.776 252.944ZM138.144 249.904C138.144 250.96 138.309 251.739 138.64 252.24C138.981 252.741 139.408 252.992 139.92 252.992C140.432 252.992 140.965 252.811 141.52 252.448C141.808 252.256 141.952 252.011 141.952 251.712V247.888C141.514 247.365 140.832 247.104 139.904 247.104C139.445 247.104 139.082 247.253 138.816 247.552C138.368 248.053 138.144 248.837 138.144 249.904ZM18.936 273.144C17.8587 273.144 17.0213 272.776 16.424 272.04C15.8373 271.304 15.544 270.376 15.544 269.256C15.544 268.125 15.8853 267.165 16.568 266.376C17.2507 265.587 18.152 265.192 19.272 265.192C21.0853 265.192 22.0347 266.307 22.12 268.536L21.704 268.84L17.064 269.096C17.064 271.069 17.9067 272.056 19.592 272.056C20.328 272.056 21.048 271.875 21.752 271.512L22.088 272.04C21.736 272.328 21.2773 272.584 20.712 272.808C20.1467 273.032 19.5547 273.144 18.936 273.144ZM17.112 268.36L20.424 268.072C20.5307 268.061 20.584 267.96 20.584 267.768C20.584 267.299 20.456 266.893 20.2 266.552C19.9547 266.211 19.5333 266.04 18.936 266.04C18.3387 266.04 17.9013 266.243 17.624 266.648C17.3573 267.043 17.1867 267.613 17.112 268.36ZM23.9526 266.536C24.2193 266.12 24.6086 265.795 25.1206 265.56C25.6433 265.315 26.2833 265.192 27.0406 265.192C27.8086 265.192 28.566 265.341 29.3126 265.64C29.3233 265.725 29.3286 266.003 29.3286 266.472C29.3286 266.931 29.2646 267.384 29.1366 267.832L28.2406 267.928C28.07 266.851 27.91 266.28 27.7606 266.216C27.5366 266.12 27.1366 266.072 26.5606 266.072C25.9846 266.072 25.5633 266.269 25.2966 266.664C24.9233 267.229 24.7366 268.035 24.7366 269.08C24.7366 270.115 24.9606 270.872 25.4086 271.352C25.8673 271.821 26.4593 272.056 27.1846 272.056C27.9206 272.056 28.63 271.821 29.3126 271.352L29.7606 271.88C28.8966 272.723 27.878 273.144 26.7046 273.144C25.542 273.144 24.662 272.781 24.0646 272.056C23.478 271.32 23.1846 270.413 23.1846 269.336C23.1846 268.248 23.4406 267.315 23.9526 266.536ZM34.221 273.144C33.069 273.144 32.1837 272.803 31.565 272.12C30.9463 271.437 30.637 270.483 30.637 269.256C30.637 268.029 30.9623 267.048 31.613 266.312C32.2743 265.565 33.181 265.192 34.333 265.192C35.4957 265.192 36.3863 265.539 37.005 266.232C37.6237 266.915 37.933 267.869 37.933 269.096C37.933 270.323 37.6023 271.304 36.941 272.04C36.2903 272.776 35.3837 273.144 34.221 273.144ZM32.189 269.048C32.189 269.997 32.381 270.776 32.765 271.384C33.149 271.992 33.6717 272.296 34.333 272.296C34.9943 272.296 35.4637 272.136 35.741 271.816C35.933 271.603 36.0877 271.267 36.205 270.808C36.3223 270.339 36.381 269.832 36.381 269.288C36.381 268.339 36.189 267.56 35.805 266.952C35.421 266.344 34.8983 266.04 34.237 266.04C33.5757 266.04 33.1063 266.2 32.829 266.52C32.637 266.733 32.4823 267.075 32.365 267.544C32.2477 268.003 32.189 268.504 32.189 269.048ZM39.1735 268.568L42.6615 268.344L42.4055 269.336L38.9815 269.752L39.1735 268.568ZM46.5323 273.144L44.0043 266.632C43.9296 266.429 43.8549 266.301 43.7803 266.248C43.7056 266.195 43.4976 266.131 43.1562 266.056L43.2523 265.432H46.5483L46.6123 266.056L45.6363 266.296C45.5616 266.307 45.5243 266.349 45.5243 266.424C45.5243 266.435 45.5456 266.504 45.5883 266.632L47.0283 270.664C47.1563 271.037 47.2203 271.331 47.2203 271.544H47.3483L49.1243 267C49.1883 266.829 49.2203 266.691 49.2203 266.584C49.2203 266.467 49.1403 266.371 48.9803 266.296C48.8309 266.221 48.5589 266.141 48.1643 266.056L48.2603 265.432H51.1083L51.1723 266.056C50.8309 266.141 50.6229 266.2 50.5483 266.232C50.4736 266.253 50.4309 266.285 50.4203 266.328L47.5723 273.144H46.5323ZM55.1898 273.144C54.0378 273.144 53.1524 272.803 52.5338 272.12C51.9151 271.437 51.6058 270.483 51.6058 269.256C51.6058 268.029 51.9311 267.048 52.5818 266.312C53.2431 265.565 54.1498 265.192 55.3018 265.192C56.4644 265.192 57.3551 265.539 57.9738 266.232C58.5924 266.915 58.9018 267.869 58.9018 269.096C58.9018 270.323 58.5711 271.304 57.9098 272.04C57.2591 272.776 56.3524 273.144 55.1898 273.144ZM53.1578 269.048C53.1578 269.997 53.3498 270.776 53.7338 271.384C54.1178 271.992 54.6404 272.296 55.3018 272.296C55.9631 272.296 56.4324 272.136 56.7098 271.816C56.9018 271.603 57.0564 271.267 57.1738 270.808C57.2911 270.339 57.3498 269.832 57.3498 269.288C57.3498 268.339 57.1578 267.56 56.7738 266.952C56.3898 266.344 55.8671 266.04 55.2057 266.04C54.5444 266.04 54.0751 266.2 53.7978 266.52C53.6058 266.733 53.4511 267.075 53.3338 267.544C53.2164 268.003 53.1578 268.504 53.1578 269.048ZM60.0463 273L59.9503 272.376C60.4729 272.269 60.7876 272.163 60.8943 272.056C61.0116 271.939 61.0703 271.741 61.0703 271.464V262.168C61.0703 261.944 60.9849 261.784 60.8143 261.688C60.6436 261.581 60.3236 261.48 59.8543 261.384L59.9503 260.872C61.0916 260.723 61.8863 260.648 62.3343 260.648L62.5103 260.808V271.848C62.5103 271.976 62.5369 272.061 62.5903 272.104C62.6543 272.136 62.7343 272.163 62.8303 272.184L63.6143 272.376L63.5503 273H60.0463ZM65.722 271.016V266.792C65.722 266.568 65.6367 266.408 65.466 266.312C65.2953 266.205 64.9753 266.104 64.506 266.008L64.602 265.496C65.7433 265.347 66.538 265.272 66.986 265.272L67.162 265.432V270.328C67.162 271.437 67.5833 271.992 68.426 271.992C68.97 271.992 69.5353 271.784 70.122 271.368C70.2607 271.272 70.3513 271.181 70.394 271.096C70.4367 271 70.458 270.845 70.458 270.632V266.792C70.458 266.568 70.3727 266.408 70.202 266.312C70.0313 266.205 69.7113 266.104 69.242 266.008L69.338 265.496C70.4793 265.347 71.274 265.272 71.722 265.272L71.898 265.432V271.416C71.898 271.693 71.962 271.891 72.09 272.008C72.2287 272.115 72.57 272.221 73.114 272.328L73.018 272.84L70.954 273.064C70.8793 273.075 70.7993 272.936 70.714 272.648C70.6393 272.349 70.602 272.093 70.602 271.88V271.784L70.474 271.736L70.282 271.96C69.61 272.749 68.7887 273.144 67.818 273.144C67.1673 273.144 66.6553 272.973 66.282 272.632C65.9087 272.28 65.722 271.741 65.722 271.016ZM74.2364 273L74.1404 272.376C74.663 272.269 74.9777 272.163 75.0844 272.056C75.2017 271.939 75.2604 271.741 75.2604 271.464V266.856C75.2604 266.579 75.191 266.387 75.0524 266.28C74.9244 266.163 74.5884 266.051 74.0444 265.944L74.1404 265.432L76.2044 265.224C76.279 265.224 76.3537 265.373 76.4284 265.672C76.5137 265.971 76.5564 266.232 76.5564 266.456V266.552L76.6844 266.6L76.8764 266.376C77.5484 265.587 78.3697 265.192 79.3404 265.192C80.023 265.192 80.5617 265.4 80.9564 265.816C81.351 266.221 81.5484 266.792 81.5484 267.528V271.848C81.5484 271.976 81.575 272.061 81.6284 272.104C81.6924 272.136 81.7724 272.163 81.8684 272.184L82.6524 272.376L82.5884 273H79.1644L79.0684 272.376C79.5484 272.28 79.8417 272.173 79.9484 272.056C80.055 271.939 80.1084 271.741 80.1084 271.464V268.008C80.1084 267.507 80.0177 267.107 79.8364 266.808C79.655 266.499 79.2977 266.344 78.7644 266.344C78.2417 266.344 77.671 266.552 77.0524 266.968C76.9564 267.032 76.887 267.08 76.8444 267.112C76.7484 267.219 76.7004 267.416 76.7004 267.704V271.832C76.7004 271.949 76.7164 272.029 76.7484 272.072C76.791 272.115 76.8817 272.152 77.0204 272.184L77.7244 272.376L77.6604 273H74.2364ZM84.3756 270.808V266.408H83.3356L83.2716 265.72L84.0556 265.528C84.2583 265.475 84.3916 265.357 84.4556 265.176C84.5303 264.984 84.6583 264.387 84.8396 263.384L85.8156 263.288V265.432H88.0396L87.9116 266.184L85.8156 266.424V270.328C85.8156 271.437 86.157 271.992 86.8396 271.992C87.2236 271.992 87.629 271.832 88.0556 271.512L88.3916 271.976C87.8156 272.755 87.1116 273.144 86.2796 273.144C85.6823 273.144 85.213 272.936 84.8716 272.52C84.541 272.104 84.3756 271.533 84.3756 270.808ZM92.5454 273.144C91.468 273.144 90.6307 272.776 90.0334 272.04C89.4467 271.304 89.1534 270.376 89.1534 269.256C89.1534 268.125 89.4947 267.165 90.1774 266.376C90.86 265.587 91.7614 265.192 92.8814 265.192C94.6947 265.192 95.644 266.307 95.7294 268.536L95.3134 268.84L90.6734 269.096C90.6734 271.069 91.516 272.056 93.2014 272.056C93.9374 272.056 94.6574 271.875 95.3614 271.512L95.6974 272.04C95.3454 272.328 94.8867 272.584 94.3214 272.808C93.756 273.032 93.164 273.144 92.5454 273.144ZM90.7214 268.36L94.0334 268.072C94.14 268.061 94.1934 267.96 94.1934 267.768C94.1934 267.299 94.0654 266.893 93.8094 266.552C93.564 266.211 93.1427 266.04 92.5454 266.04C91.948 266.04 91.5107 266.243 91.2334 266.648C90.9667 267.043 90.796 267.613 90.7214 268.36ZM100.186 273.144C99.1087 273.144 98.2713 272.776 97.674 272.04C97.0873 271.304 96.794 270.376 96.794 269.256C96.794 268.125 97.1353 267.165 97.818 266.376C98.5007 265.587 99.402 265.192 100.522 265.192C102.335 265.192 103.285 266.307 103.37 268.536L102.954 268.84L98.314 269.096C98.314 271.069 99.1567 272.056 100.842 272.056C101.578 272.056 102.298 271.875 103.002 271.512L103.338 272.04C102.986 272.328 102.527 272.584 101.962 272.808C101.397 273.032 100.805 273.144 100.186 273.144ZM98.362 268.36L101.674 268.072C101.781 268.061 101.834 267.96 101.834 267.768C101.834 267.299 101.706 266.893 101.45 266.552C101.205 266.211 100.783 266.04 100.186 266.04C99.5887 266.04 99.1513 266.243 98.874 266.648C98.6073 267.043 98.4367 267.613 98.362 268.36ZM104.531 273L104.435 272.376C105 272.28 105.347 272.173 105.475 272.056C105.603 271.939 105.667 271.741 105.667 271.464V266.856C105.667 266.579 105.592 266.381 105.443 266.264C105.304 266.136 104.936 266.029 104.339 265.944L104.435 265.432L106.611 265.224C106.685 265.224 106.765 265.331 106.851 265.544C106.936 265.757 106.979 265.981 106.979 266.216C106.979 266.44 106.957 266.701 106.915 267L107.043 267.048L107.251 266.584C107.443 266.157 107.731 265.821 108.115 265.576C108.509 265.32 108.904 265.192 109.299 265.192C109.704 265.192 110.077 265.277 110.419 265.448C110.419 266.323 110.339 267.197 110.179 268.072L109.395 268.152C109.309 267.256 109.224 266.749 109.139 266.632C109.053 266.504 108.909 266.44 108.707 266.44C108.515 266.44 108.285 266.531 108.019 266.712C107.752 266.883 107.533 267.069 107.363 267.272C107.192 267.464 107.107 267.784 107.107 268.232V271.848C107.107 271.987 107.133 272.077 107.187 272.12C107.251 272.152 107.331 272.173 107.427 272.184L108.883 272.376L108.819 273H104.531ZM111.549 273L111.453 272.376C111.976 272.269 112.29 272.163 112.397 272.056C112.514 271.939 112.573 271.741 112.573 271.464V266.872C112.573 266.648 112.488 266.488 112.317 266.392C112.146 266.285 111.826 266.184 111.357 266.088L111.453 265.576C112.594 265.427 113.389 265.352 113.837 265.352L114.013 265.512V271.848C114.013 271.976 114.04 272.061 114.093 272.104C114.157 272.136 114.237 272.163 114.333 272.184L115.117 272.376L115.053 273H111.549ZM114.029 262.504C114.029 262.771 113.944 262.995 113.773 263.176C113.613 263.357 113.394 263.448 113.117 263.448C112.85 263.448 112.626 263.368 112.445 263.208C112.274 263.048 112.189 262.829 112.189 262.552C112.189 262.264 112.269 262.035 112.429 261.864C112.6 261.693 112.829 261.608 113.117 261.608C113.725 261.608 114.029 261.907 114.029 262.504ZM119.334 266.04C118.395 266.04 117.926 266.36 117.926 267C117.926 267.256 117.99 267.448 118.118 267.576C118.246 267.693 118.337 267.784 118.39 267.848C118.454 267.901 118.571 267.971 118.742 268.056C118.913 268.141 119.03 268.205 119.094 268.248C119.169 268.28 119.313 268.339 119.526 268.424C120.422 268.797 121.051 269.149 121.414 269.48C121.777 269.811 121.958 270.28 121.958 270.888C121.958 271.496 121.686 272.024 121.142 272.472C120.609 272.92 119.873 273.144 118.934 273.144C118.518 273.144 118.086 273.101 117.638 273.016C117.19 272.931 116.865 272.845 116.662 272.76C116.641 272.621 116.63 272.339 116.63 271.912C116.63 271.485 116.678 271.021 116.774 270.52L117.606 270.456C117.681 271.139 117.734 271.56 117.766 271.72C117.809 271.869 117.867 271.965 117.942 272.008C118.283 272.2 118.731 272.296 119.286 272.296C120.15 272.296 120.582 271.949 120.582 271.256C120.582 270.925 120.454 270.653 120.198 270.44C119.91 270.205 119.579 270.008 119.206 269.848C118.225 269.443 117.553 269.075 117.19 268.744C116.838 268.403 116.662 267.933 116.662 267.336C116.662 266.739 116.934 266.232 117.478 265.816C118.022 265.4 118.678 265.192 119.446 265.192C120.214 265.192 120.918 265.325 121.558 265.592C121.569 265.677 121.574 265.917 121.574 266.312C121.574 266.707 121.505 267.123 121.366 267.56L120.63 267.64C120.555 266.808 120.433 266.333 120.262 266.216C120.102 266.099 119.793 266.04 119.334 266.04ZM123.486 273L123.39 272.376C123.913 272.269 124.228 272.163 124.334 272.056C124.452 271.939 124.51 271.741 124.51 271.464V266.856C124.51 266.579 124.441 266.387 124.302 266.28C124.174 266.163 123.838 266.051 123.294 265.944L123.39 265.432L125.454 265.224C125.529 265.224 125.604 265.373 125.678 265.672C125.764 265.96 125.806 266.221 125.806 266.456V266.552L125.918 266.6L126.078 266.392C126.345 266.051 126.681 265.768 127.086 265.544C127.502 265.309 127.94 265.192 128.398 265.192C129.422 265.192 130.073 265.651 130.35 266.568L130.462 266.584L130.638 266.36C131.246 265.581 132.009 265.192 132.926 265.192C133.577 265.192 134.084 265.4 134.446 265.816C134.82 266.232 135.006 266.803 135.006 267.528V271.848C135.006 271.976 135.033 272.061 135.086 272.104C135.15 272.136 135.23 272.163 135.326 272.184L136.11 272.376L136.046 273H132.622L132.526 272.376C133.006 272.28 133.3 272.173 133.406 272.056C133.513 271.939 133.566 271.741 133.566 271.464V267.832C133.566 266.84 133.166 266.344 132.366 266.344C131.95 266.344 131.428 266.552 130.798 266.968C130.67 267.043 130.585 267.128 130.542 267.224C130.5 267.309 130.478 267.469 130.478 267.704V271.848C130.478 271.976 130.505 272.061 130.558 272.104C130.622 272.136 130.702 272.163 130.798 272.184L131.502 272.376L131.438 273H128.094L127.998 272.376C128.478 272.28 128.772 272.173 128.878 272.056C128.985 271.939 129.038 271.741 129.038 271.464V267.832C129.038 266.84 128.638 266.344 127.838 266.344C127.422 266.344 126.9 266.552 126.27 266.968C126.142 267.043 126.057 267.128 126.014 267.224C125.972 267.309 125.95 267.469 125.95 267.704V271.848C125.95 271.976 125.977 272.061 126.03 272.104C126.094 272.136 126.174 272.163 126.27 272.184L126.974 272.376L126.91 273H123.486ZM139.476 272.152C139.476 272.429 139.386 272.664 139.204 272.856C139.023 273.048 138.788 273.144 138.5 273.144C138.212 273.144 137.978 273.064 137.796 272.904C137.615 272.733 137.524 272.504 137.524 272.216C137.524 271.917 137.61 271.672 137.78 271.48C137.962 271.288 138.196 271.192 138.484 271.192C139.146 271.192 139.476 271.512 139.476 272.152Z" fill="white"/>
<path d="M68.4227 62.2173L59.079 52.8736L51.8921 49.9044C54.2852 46.5013 55.5672 42.4415 55.5625 38.2812C55.5625 27.0981 46.4644 18 35.2812 18C24.0981 18 15 27.0981 15 38.2812C15 49.4644 24.0981 58.5625 35.2812 58.5625C39.4777 58.5673 43.5711 57.2631 46.9913 54.8316L49.9528 61.9991L59.2961 71.3433C59.8953 71.9425 60.6067 72.4179 61.3896 72.7422C62.1726 73.0665 63.0117 73.2335 63.8592 73.2335C64.7066 73.2335 65.5458 73.0666 66.3287 72.7424C67.1117 72.4181 67.8231 71.9428 68.4224 71.3435C69.0216 70.7443 69.497 70.0329 69.8213 69.25C70.1457 68.4671 70.3126 67.6279 70.3126 66.7805C70.3127 65.933 70.1458 65.0939 69.8215 64.3109C69.4972 63.5279 69.0219 62.8165 68.4227 62.2173ZM18.6875 38.2812C18.6875 29.1316 26.1316 21.6875 35.2812 21.6875C44.4309 21.6875 51.875 29.1316 51.875 38.2812C51.875 47.4309 44.4309 54.875 35.2812 54.875C26.1316 54.875 18.6875 47.4309 18.6875 38.2812ZM65.815 68.7358C65.2959 69.2537 64.5926 69.5445 63.8594 69.5445C63.1261 69.5445 62.4228 69.2537 61.9037 68.7358L53.08 59.9121L50.3266 53.2475L56.9914 56.001L65.8152 64.8247C66.333 65.3438 66.6238 66.0471 66.6237 66.7803C66.6237 67.5135 66.3329 68.2168 65.815 68.7358Z" fill="white"/>
</svg>
