<svg width="16" height="20" viewBox="0 0 16 20" fill="none" xmlns="http://www.w3.org/2000/svg">
<path d="M7.99936 19.9998C6.34536 19.9998 4.99936 18.6538 4.99936 16.9998V12.2358C3.85636 13.2598 1.97436 13.2148 0.878359 12.1208C0.315946 11.5582 0 10.7953 0 9.99981C0 9.20432 0.315946 8.4414 0.878359 7.87881L7.99936 0.757812L15.1204 7.87881C15.6828 8.4414 15.9987 9.20432 15.9987 9.99981C15.9987 10.7953 15.6828 11.5582 15.1204 12.1208C14.0264 13.2158 12.1414 13.2608 10.9994 12.2358V16.9998C10.9994 18.6538 9.65336 19.9998 7.99936 19.9998ZM6.99936 7.41381V16.9998C7.01088 17.2573 7.12127 17.5004 7.30754 17.6785C7.49382 17.8567 7.74162 17.9561 7.99936 17.9561C8.2571 17.9561 8.5049 17.8567 8.69118 17.6785C8.87745 17.5004 8.98784 17.2573 8.99936 16.9998V7.41381L12.2924 10.7068C12.4827 10.8888 12.736 10.9904 12.9994 10.9904C13.2628 10.9904 13.516 10.8888 13.7064 10.7068C13.8938 10.5193 13.9991 10.265 13.9991 9.99981C13.9991 9.73465 13.8938 9.48034 13.7064 9.29281L7.99936 3.58581L2.29236 9.29281C2.10489 9.48034 1.99957 9.73465 1.99957 9.99981C1.99957 10.265 2.10489 10.5193 2.29236 10.7068C2.48273 10.8888 2.73597 10.9904 2.99936 10.9904C3.26275 10.9904 3.51599 10.8888 3.70636 10.7068L6.99936 7.41381Z" fill="white"/>
</svg>
