<svg width="252" height="319" viewBox="0 0 252 319" fill="none" xmlns="http://www.w3.org/2000/svg">
<rect y="44" width="252" height="275" rx="20" fill="#638475"/>
<path d="M0 8H53C71.7777 8 87 23.2223 87 42V67C87 85.7777 71.7777 101 53 101H34C15.2223 101 0 85.7777 0 67V8Z" fill="#83A495"/>
<path d="M27.992 123.552C27.16 123.552 26.4027 123.765 25.72 124.192C25.0587 124.619 24.4933 125.227 24.024 126.016C23.5547 126.805 23.192 127.765 22.936 128.896C22.7013 130.005 22.584 131.253 22.584 132.64C22.584 134.091 22.712 135.371 22.968 136.48C23.224 137.589 23.5867 138.539 24.056 139.328C24.5467 140.117 25.1547 140.715 25.88 141.12C26.6053 141.525 27.4373 141.728 28.376 141.728C29.4 141.728 30.296 141.472 31.064 140.96C31.8533 140.427 32.5147 139.691 33.048 138.752C33.5813 137.813 33.976 136.747 34.232 135.552L36.504 136.48C36.184 138.016 35.64 139.381 34.872 140.576C34.1253 141.749 33.144 142.667 31.928 143.328C30.712 143.989 29.2613 144.32 27.576 144.32C25.8907 144.32 24.3547 144.043 22.968 143.488C21.5813 142.933 20.376 142.144 19.352 141.12C18.328 140.075 17.528 138.837 16.952 137.408C16.3973 135.979 16.12 134.389 16.12 132.64C16.12 130.891 16.408 129.301 16.984 127.872C17.5813 126.443 18.3813 125.216 19.384 124.192C20.408 123.147 21.5813 122.347 22.904 121.792C24.2267 121.237 25.6347 120.96 27.128 120.96C28.6427 120.96 29.8907 121.216 30.872 121.728C31.8747 122.24 32.6747 122.944 33.272 123.84C33.8907 124.736 34.3707 125.771 34.712 126.944L33.048 126.624L33.656 121.28H36.152V128.448H33.272C32.952 127.467 32.5573 126.613 32.088 125.888C31.64 125.141 31.0747 124.565 30.392 124.16C29.7307 123.755 28.9307 123.552 27.992 123.552ZM44.63 135.872C44.63 136.832 44.7153 137.685 44.886 138.432C45.0567 139.157 45.3233 139.776 45.686 140.288C46.0487 140.779 46.4967 141.152 47.03 141.408C47.5847 141.643 48.2247 141.76 48.95 141.76C49.718 141.76 50.3793 141.621 50.934 141.344C51.4887 141.045 51.9687 140.661 52.374 140.192C52.7793 139.723 53.11 139.253 53.366 138.784L55.35 140.192C54.9447 141.003 54.4113 141.717 53.75 142.336C53.0887 142.955 52.2887 143.445 51.35 143.808C50.4327 144.149 49.334 144.32 48.054 144.32C46.198 144.32 44.566 143.979 43.158 143.296C41.7713 142.613 40.694 141.643 39.926 140.384C39.158 139.104 38.774 137.589 38.774 135.84C38.774 134.133 39.1473 132.64 39.894 131.36C40.662 130.059 41.6967 129.056 42.998 128.352C44.3207 127.627 45.814 127.264 47.478 127.264C48.822 127.264 49.9953 127.467 50.998 127.872C52.022 128.256 52.8753 128.843 53.558 129.632C54.2407 130.421 54.7633 131.403 55.126 132.576C55.4887 133.749 55.67 135.125 55.67 136.704H43.862L43.83 134.432H50.934L50.23 135.36C50.2087 134.272 50.1447 133.365 50.038 132.64C49.9313 131.915 49.7713 131.339 49.558 130.912C49.3447 130.485 49.078 130.187 48.758 130.016C48.438 129.824 48.054 129.728 47.606 129.728C47.158 129.728 46.7527 129.845 46.39 130.08C46.0273 130.315 45.718 130.677 45.462 131.168C45.206 131.659 45.0033 132.299 44.854 133.088C44.7047 133.856 44.63 134.784 44.63 135.872ZM70.3553 127.552V132.512C70.1846 132.448 69.9926 132.405 69.7793 132.384C69.5873 132.341 69.3739 132.309 69.1393 132.288C68.9046 132.267 68.6699 132.256 68.4353 132.256C67.9446 132.256 67.4859 132.309 67.0593 132.416C66.6539 132.501 66.2699 132.651 65.9073 132.864C65.5659 133.056 65.2566 133.323 64.9792 133.664C64.7019 133.984 64.4459 134.389 64.2113 134.88V133.056C64.4886 131.947 64.8299 130.965 65.2353 130.112C65.6619 129.259 66.1846 128.597 66.8033 128.128C67.4219 127.637 68.2113 127.392 69.1713 127.392C69.4273 127.392 69.6619 127.413 69.8753 127.456C70.0886 127.477 70.2486 127.509 70.3553 127.552ZM57.3313 144V142.048H57.3633C57.8539 142.048 58.2486 141.984 58.5473 141.856C58.8673 141.728 59.0273 141.472 59.0273 141.088V130.752C59.0273 130.539 58.9739 130.368 58.8673 130.24C58.7819 130.112 58.6326 130.016 58.4193 129.952C58.2059 129.867 57.9286 129.781 57.5872 129.696L57.3313 129.632V127.584H64.4993V132.8L64.8833 132.416V141.472C64.8833 141.643 65.0006 141.771 65.2353 141.856C65.4699 141.941 65.7473 141.995 66.0673 142.016C66.3873 142.037 66.6753 142.048 66.9313 142.048H67.2193V144H57.3313ZM71.5968 129.856V127.744H71.6928C72.1621 127.744 72.5674 127.712 72.9088 127.648C73.2501 127.563 73.5168 127.424 73.7088 127.232C73.9008 127.019 73.9968 126.731 73.9968 126.368L77.1968 127.584H83.7248V129.856H71.5968ZM79.5968 138.4C79.5968 139.232 79.6821 139.893 79.8528 140.384C80.0448 140.853 80.3114 141.195 80.6528 141.408C80.9941 141.6 81.4101 141.696 81.9008 141.696C82.3061 141.696 82.6901 141.653 83.0528 141.568C83.4154 141.461 83.6928 141.387 83.8848 141.344V143.744C83.7141 143.829 83.4581 143.915 83.1168 144C82.7754 144.085 82.3808 144.16 81.9328 144.224C81.4848 144.288 80.9728 144.32 80.3968 144.32C79.1381 144.32 78.0074 144.139 77.0048 143.776C76.0021 143.413 75.2021 142.805 74.6048 141.952C74.0288 141.099 73.7408 139.936 73.7408 138.464V128.192L73.9968 127.936L74.0288 123.136H79.5968V138.4ZM89.7815 125.344C88.8215 125.344 88.0535 125.12 87.4775 124.672C86.9228 124.203 86.6455 123.552 86.6455 122.72C86.6455 121.888 86.9228 121.248 87.4775 120.8C88.0535 120.331 88.8215 120.096 89.7815 120.096C90.7628 120.096 91.5308 120.331 92.0855 120.8C92.6615 121.248 92.9495 121.888 92.9495 122.72C92.9495 123.552 92.6615 124.203 92.0855 124.672C91.5308 125.12 90.7628 125.344 89.7815 125.344ZM92.7895 127.584V141.088C92.7895 141.472 92.9495 141.728 93.2695 141.856C93.6108 141.984 94.0162 142.048 94.4855 142.048H94.5175V144H85.2375V142.048H85.2695C85.7602 142.048 86.1655 141.984 86.4855 141.856C86.8055 141.728 86.9655 141.472 86.9655 141.088V130.752C86.9655 130.411 86.8482 130.176 86.6135 130.048C86.3788 129.92 86.0055 129.803 85.4935 129.696L85.2375 129.632V127.584H92.7895ZM95.5425 127.584H108.247V129.856H95.5425V127.584ZM109.303 120.384V122.848C109.089 122.784 108.759 122.688 108.311 122.56C107.884 122.432 107.393 122.368 106.839 122.368C106.263 122.368 105.761 122.485 105.335 122.72C104.929 122.933 104.609 123.285 104.375 123.776C104.161 124.267 104.055 124.928 104.055 125.76V141.76C104.055 141.824 104.161 141.888 104.375 141.952C104.609 141.995 104.897 142.027 105.239 142.048C105.601 142.048 105.985 142.048 106.391 142.048H106.743V144H95.8945V142.048H96.2785C96.8972 142.048 97.3772 141.973 97.7185 141.824C98.0598 141.675 98.2305 141.408 98.2305 141.024V126.336C98.2305 124.736 98.5825 123.477 99.2865 122.56C100.012 121.643 100.961 120.992 102.135 120.608C103.329 120.203 104.631 120 106.039 120C106.764 120 107.425 120.043 108.023 120.128C108.62 120.192 109.047 120.277 109.303 120.384ZM121.06 140.384L119.396 143.552L117.892 145.728L111.204 130.656C111.076 130.357 110.938 130.133 110.788 129.984C110.639 129.813 110.458 129.696 110.244 129.632C110.031 129.568 109.754 129.536 109.412 129.536H109.38V127.584H118.948V129.536H118.884C118.564 129.536 118.244 129.547 117.924 129.568C117.604 129.589 117.338 129.621 117.124 129.664C116.932 129.685 116.836 129.739 116.836 129.824L121.06 140.384ZM120.868 143.456C120.25 144.885 119.631 146.101 119.012 147.104C118.415 148.128 117.807 148.96 117.188 149.6C116.591 150.24 115.951 150.709 115.268 151.008C114.607 151.328 113.882 151.488 113.092 151.488C112.474 151.488 111.94 151.413 111.492 151.264C111.066 151.115 110.735 150.955 110.5 150.784V146.592C110.607 146.613 110.81 146.688 111.108 146.816C111.428 146.944 111.812 147.072 112.26 147.2C112.708 147.328 113.178 147.392 113.668 147.392C114.18 147.392 114.639 147.328 115.044 147.2C115.471 147.072 115.876 146.859 116.26 146.56C116.644 146.261 117.018 145.835 117.38 145.28C117.743 144.747 118.084 144.075 118.404 143.264L119.108 141.696L124.036 130.24C124.036 130.091 123.94 129.973 123.748 129.888C123.578 129.781 123.332 129.696 123.012 129.632C122.714 129.568 122.404 129.536 122.084 129.536H121.988V127.584H128.196V129.536H128.164C127.887 129.536 127.642 129.579 127.428 129.664C127.215 129.749 127.012 129.899 126.82 130.112C126.628 130.325 126.458 130.613 126.308 130.976L120.868 143.456ZM157.91 134.432C157.782 135.051 157.537 135.787 157.174 136.64C156.812 137.472 156.321 138.336 155.702 139.232C155.105 140.128 154.369 140.96 153.494 141.728C152.62 142.496 151.596 143.125 150.422 143.616C149.249 144.085 147.926 144.32 146.454 144.32C144.726 144.32 143.201 144.053 141.878 143.52C140.556 142.965 139.521 142.176 138.774 141.152C138.049 140.107 137.686 138.859 137.686 137.408C137.686 136.469 137.868 135.627 138.23 134.88C138.614 134.112 139.148 133.429 139.83 132.832C140.534 132.235 141.356 131.733 142.294 131.328C143.254 130.901 144.3 130.571 145.43 130.336L146.39 131.52C145.708 131.861 145.11 132.288 144.598 132.8C144.108 133.291 143.734 133.877 143.478 134.56C143.222 135.243 143.094 136.011 143.094 136.864C143.094 137.845 143.276 138.699 143.638 139.424C144.001 140.149 144.534 140.715 145.238 141.12C145.942 141.504 146.796 141.696 147.798 141.696C148.609 141.696 149.388 141.536 150.134 141.216C150.881 140.875 151.574 140.416 152.214 139.84C152.876 139.264 153.441 138.624 153.91 137.92C154.401 137.216 154.785 136.491 155.062 135.744C155.34 134.976 155.478 134.24 155.478 133.536C155.478 133.451 155.372 133.387 155.158 133.344C154.966 133.301 154.732 133.269 154.454 133.248C154.177 133.227 153.91 133.216 153.654 133.216H153.462V131.168H160.086V133.216H159.798C159.436 133.216 159.126 133.248 158.87 133.312C158.636 133.355 158.433 133.461 158.262 133.632C158.113 133.803 157.996 134.069 157.91 134.432ZM160.342 144H154.23C152.886 142.912 151.617 141.781 150.422 140.608C149.228 139.435 148.14 138.24 147.158 137.024C146.198 135.808 145.366 134.603 144.662 133.408C143.958 132.213 143.414 131.061 143.03 129.952C142.668 128.843 142.486 127.808 142.486 126.848C142.486 125.589 142.774 124.533 143.35 123.68C143.948 122.805 144.758 122.144 145.782 121.696C146.828 121.227 148.044 120.992 149.43 120.992C151.329 120.992 152.769 121.429 153.75 122.304C154.753 123.157 155.254 124.267 155.254 125.632C155.254 126.421 155.062 127.136 154.678 127.776C154.316 128.416 153.804 128.992 153.142 129.504C152.502 130.016 151.734 130.464 150.838 130.848C149.964 131.232 149.014 131.573 147.99 131.872L147.094 129.984C147.841 129.707 148.481 129.429 149.014 129.152C149.569 128.853 150.017 128.533 150.358 128.192C150.721 127.829 150.977 127.435 151.126 127.008C151.297 126.581 151.382 126.112 151.382 125.6C151.382 124.96 151.244 124.448 150.966 124.064C150.71 123.68 150.294 123.488 149.718 123.488C149.313 123.488 148.95 123.595 148.63 123.808C148.332 124 148.097 124.32 147.926 124.768C147.756 125.195 147.67 125.781 147.67 126.528C147.67 127.296 147.798 128.096 148.054 128.928C148.31 129.739 148.684 130.592 149.174 131.488C149.686 132.363 150.337 133.291 151.126 134.272C151.916 135.253 152.844 136.288 153.91 137.376C154.977 138.443 156.193 139.573 157.558 140.768C157.836 141.003 158.092 141.205 158.326 141.376C158.561 141.525 158.796 141.632 159.03 141.696C159.286 141.76 159.585 141.792 159.926 141.792H160.342V144ZM37.304 172.744V177.672C36.984 178.077 36.5147 178.504 35.896 178.952C35.2987 179.379 34.584 179.773 33.752 180.136C32.9413 180.477 32.0347 180.765 31.032 181C30.0507 181.213 29.016 181.32 27.928 181.32C26.1573 181.32 24.5467 181.043 23.096 180.488C21.6667 179.933 20.4293 179.144 19.384 178.12C18.3387 177.096 17.528 175.869 16.952 174.44C16.3973 173.011 16.12 171.411 16.12 169.64C16.12 167.933 16.408 166.365 16.984 164.936C17.5813 163.507 18.4027 162.269 19.448 161.224C20.4933 160.179 21.7093 159.379 23.096 158.824C24.504 158.248 26.0187 157.96 27.64 157.96C29.176 157.96 30.456 158.216 31.48 158.728C32.504 159.24 33.3253 159.944 33.944 160.84C34.584 161.736 35.0853 162.76 35.448 163.912L33.752 163.592L34.36 158.28H36.888V165.416H33.976C33.6773 164.456 33.2827 163.613 32.792 162.888C32.3013 162.141 31.6933 161.565 30.968 161.16C30.264 160.755 29.4 160.552 28.376 160.552C27.48 160.552 26.6693 160.765 25.944 161.192C25.24 161.619 24.632 162.227 24.12 163.016C23.6293 163.805 23.2453 164.765 22.968 165.896C22.712 167.005 22.584 168.253 22.584 169.64C22.584 171.133 22.712 172.456 22.968 173.608C23.224 174.739 23.5973 175.688 24.088 176.456C24.6 177.203 25.208 177.768 25.912 178.152C26.616 178.536 27.3947 178.728 28.248 178.728C28.888 178.728 29.432 178.653 29.88 178.504C30.328 178.355 30.7013 178.184 31 177.992C31.2987 177.779 31.5333 177.587 31.704 177.416V172.744C31.704 172.275 31.5227 171.965 31.16 171.816C30.8187 171.667 30.36 171.592 29.784 171.592H29.464V169.512H39.096V171.592H38.904C38.456 171.592 38.072 171.667 37.752 171.816C37.4533 171.965 37.304 172.275 37.304 172.744ZM53.7615 164.552V169.512C53.5908 169.448 53.3988 169.405 53.1855 169.384C52.9935 169.341 52.7802 169.309 52.5455 169.288C52.3108 169.267 52.0762 169.256 51.8415 169.256C51.3508 169.256 50.8922 169.309 50.4655 169.416C50.0602 169.501 49.6762 169.651 49.3135 169.864C48.9722 170.056 48.6628 170.323 48.3855 170.664C48.1082 170.984 47.8522 171.389 47.6175 171.88V170.056C47.8948 168.947 48.2362 167.965 48.6415 167.112C49.0682 166.259 49.5908 165.597 50.2095 165.128C50.8282 164.637 51.6175 164.392 52.5775 164.392C52.8335 164.392 53.0682 164.413 53.2815 164.456C53.4948 164.477 53.6548 164.509 53.7615 164.552ZM40.7375 181V179.048H40.7695C41.2602 179.048 41.6548 178.984 41.9535 178.856C42.2735 178.728 42.4335 178.472 42.4335 178.088V167.752C42.4335 167.539 42.3802 167.368 42.2735 167.24C42.1882 167.112 42.0388 167.016 41.8255 166.952C41.6122 166.867 41.3348 166.781 40.9935 166.696L40.7375 166.632V164.584H47.9055V169.8L48.2895 169.416V178.472C48.2895 178.643 48.4068 178.771 48.6415 178.856C48.8762 178.941 49.1535 178.995 49.4735 179.016C49.7935 179.037 50.0815 179.048 50.3375 179.048H50.6255V181H40.7375ZM73.9293 172.808C73.9293 174.472 73.5453 175.955 72.7773 177.256C72.0306 178.536 70.9533 179.539 69.5453 180.264C68.1586 180.968 66.5159 181.32 64.6173 181.32C62.7186 181.32 61.0653 180.968 59.6573 180.264C58.2706 179.539 57.1933 178.536 56.4253 177.256C55.6786 175.955 55.3053 174.472 55.3053 172.808C55.3053 171.528 55.5186 170.376 55.9453 169.352C56.3719 168.307 56.9906 167.411 57.8013 166.664C58.6333 165.896 59.6146 165.309 60.7453 164.904C61.8973 164.477 63.1879 164.264 64.6173 164.264C66.0466 164.264 67.3266 164.477 68.4573 164.904C69.6093 165.309 70.5906 165.896 71.4013 166.664C72.2333 167.411 72.8626 168.307 73.2893 169.352C73.7159 170.376 73.9293 171.528 73.9293 172.808ZM61.2893 172.808C61.2893 174.131 61.4173 175.251 61.6733 176.168C61.9506 177.085 62.3346 177.779 62.8253 178.248C63.3159 178.717 63.9133 178.952 64.6173 178.952C65.3213 178.952 65.9186 178.717 66.4093 178.248C66.8999 177.779 67.2733 177.085 67.5293 176.168C67.7853 175.251 67.9133 174.131 67.9133 172.808C67.9133 171.443 67.7853 170.312 67.5293 169.416C67.2733 168.52 66.8999 167.848 66.4093 167.4C65.9186 166.952 65.3213 166.728 64.6173 166.728C63.9133 166.728 63.3159 166.952 62.8253 167.4C62.3346 167.848 61.9506 168.52 61.6733 169.416C61.4173 170.312 61.2893 171.443 61.2893 172.808ZM88.3918 169.384L85.3198 181H79.8798L76.2958 167.592C76.2318 167.315 76.1144 167.101 75.9438 166.952C75.7944 166.803 75.6131 166.696 75.3997 166.632C75.1864 166.568 74.9304 166.536 74.6318 166.536H74.5678V164.584H83.9758V166.536H83.9438C83.6238 166.536 83.3038 166.547 82.9838 166.568C82.6638 166.589 82.4078 166.621 82.2158 166.664C82.0238 166.685 81.9278 166.739 81.9278 166.824L84.5838 177.8L83.6558 178.984L87.3678 164.584H91.9118L95.3678 177.768L94.3758 178.888L97.3518 167.208C97.3518 167.059 97.2558 166.941 97.0638 166.856C96.8931 166.749 96.6584 166.675 96.3598 166.632C96.0824 166.568 95.7838 166.536 95.4638 166.536H95.4318V164.584H101.48V166.536H101.448C101.192 166.536 100.946 166.579 100.712 166.664C100.477 166.749 100.274 166.888 100.104 167.08C99.9544 167.272 99.8264 167.539 99.7198 167.88L96.2638 181H90.7917L87.8478 169.16L88.3918 169.384Z" fill="white"/>
<path d="M15.8 213L15.704 212.376C16.2693 212.28 16.6107 212.173 16.728 212.056C16.856 211.939 16.92 211.715 16.92 211.384V203.528C16.92 203.197 16.856 202.973 16.728 202.856C16.6107 202.739 16.2693 202.632 15.704 202.536L15.8 201.912H20.248C21.3893 201.912 22.2373 202.147 22.792 202.616C23.3467 203.085 23.624 203.72 23.624 204.52C23.624 205.32 23.4053 206.019 22.968 206.616C22.5307 207.203 21.9173 207.629 21.128 207.896V207.976C21.2347 208.008 21.352 208.125 21.48 208.328L23.736 211.72C23.896 211.955 24.0507 212.115 24.2 212.2C24.36 212.285 24.6427 212.344 25.048 212.376L24.952 213H22.68L19.512 208.136H18.472V211.768C18.472 212.003 18.5787 212.141 18.792 212.184L19.672 212.376L19.608 213H15.8ZM18.472 207.32H19.352C20.1947 207.32 20.8293 207.139 21.256 206.776C21.6933 206.403 21.912 205.725 21.912 204.744C21.912 203.421 21.192 202.76 19.752 202.76H18.792C18.5787 202.76 18.472 202.888 18.472 203.144V207.32ZM29.0454 213.144C27.968 213.144 27.1307 212.776 26.5334 212.04C25.9467 211.304 25.6534 210.376 25.6534 209.256C25.6534 208.125 25.9947 207.165 26.6774 206.376C27.36 205.587 28.2614 205.192 29.3814 205.192C31.1947 205.192 32.144 206.307 32.2294 208.536L31.8134 208.84L27.1734 209.096C27.1734 211.069 28.016 212.056 29.7014 212.056C30.4374 212.056 31.1574 211.875 31.8614 211.512L32.1974 212.04C31.8454 212.328 31.3867 212.584 30.8214 212.808C30.256 213.032 29.664 213.144 29.0454 213.144ZM27.2214 208.36L30.5334 208.072C30.64 208.061 30.6934 207.96 30.6934 207.768C30.6934 207.299 30.5654 206.893 30.3094 206.552C30.064 206.211 29.6427 206.04 29.0454 206.04C28.448 206.04 28.0107 206.243 27.7334 206.648C27.4667 207.043 27.296 207.613 27.2214 208.36ZM34.062 206.536C34.3287 206.12 34.718 205.795 35.23 205.56C35.7527 205.315 36.3927 205.192 37.15 205.192C37.918 205.192 38.6753 205.341 39.422 205.64C39.4327 205.725 39.438 206.003 39.438 206.472C39.438 206.931 39.374 207.384 39.246 207.832L38.35 207.928C38.1793 206.851 38.0193 206.28 37.87 206.216C37.646 206.12 37.246 206.072 36.67 206.072C36.094 206.072 35.6727 206.269 35.406 206.664C35.0327 207.229 34.846 208.035 34.846 209.08C34.846 210.115 35.07 210.872 35.518 211.352C35.9767 211.821 36.5687 212.056 37.294 212.056C38.03 212.056 38.7393 211.821 39.422 211.352L39.87 211.88C39.006 212.723 37.9873 213.144 36.814 213.144C35.6513 213.144 34.7713 212.781 34.174 212.056C33.5873 211.32 33.294 210.413 33.294 209.336C33.294 208.248 33.55 207.315 34.062 206.536ZM44.1704 213.144C43.093 213.144 42.2557 212.776 41.6584 212.04C41.0717 211.304 40.7784 210.376 40.7784 209.256C40.7784 208.125 41.1197 207.165 41.8024 206.376C42.485 205.587 43.3864 205.192 44.5064 205.192C46.3197 205.192 47.269 206.307 47.3544 208.536L46.9384 208.84L42.2984 209.096C42.2984 211.069 43.141 212.056 44.8264 212.056C45.5624 212.056 46.2824 211.875 46.9864 211.512L47.3224 212.04C46.9704 212.328 46.5117 212.584 45.9464 212.808C45.381 213.032 44.789 213.144 44.1704 213.144ZM42.3464 208.36L45.6584 208.072C45.765 208.061 45.8184 207.96 45.8184 207.768C45.8184 207.299 45.6904 206.893 45.4344 206.552C45.189 206.211 44.7677 206.04 44.1704 206.04C43.573 206.04 43.1357 206.243 42.8584 206.648C42.5917 207.043 42.421 207.613 42.3464 208.36ZM48.627 213L48.531 212.376C49.0537 212.269 49.3683 212.163 49.475 212.056C49.5923 211.939 49.651 211.741 49.651 211.464V206.872C49.651 206.648 49.5657 206.488 49.395 206.392C49.2243 206.285 48.9043 206.184 48.435 206.088L48.531 205.576C49.6723 205.427 50.467 205.352 50.915 205.352L51.091 205.512V211.848C51.091 211.976 51.1177 212.061 51.171 212.104C51.235 212.136 51.315 212.163 51.411 212.184L52.195 212.376L52.131 213H48.627ZM51.107 202.504C51.107 202.771 51.0217 202.995 50.851 203.176C50.691 203.357 50.4723 203.448 50.195 203.448C49.9283 203.448 49.7043 203.368 49.523 203.208C49.3523 203.048 49.267 202.829 49.267 202.552C49.267 202.264 49.347 202.035 49.507 201.864C49.6777 201.693 49.907 201.608 50.195 201.608C50.803 201.608 51.107 201.907 51.107 202.504ZM56.2041 213.144L53.6761 206.632C53.6015 206.429 53.5268 206.301 53.4521 206.248C53.3775 206.195 53.1695 206.131 52.8281 206.056L52.9241 205.432H56.2201L56.2841 206.056L55.3081 206.296C55.2335 206.307 55.1961 206.349 55.1961 206.424C55.1961 206.435 55.2175 206.504 55.2601 206.632L56.7001 210.664C56.8281 211.037 56.8921 211.331 56.8921 211.544H57.0201L58.7961 207C58.8601 206.829 58.8921 206.691 58.8921 206.584C58.8921 206.467 58.8121 206.371 58.6521 206.296C58.5028 206.221 58.2308 206.141 57.8361 206.056L57.9321 205.432H60.7801L60.8441 206.056C60.5028 206.141 60.2948 206.2 60.2201 206.232C60.1455 206.253 60.1028 206.285 60.0921 206.328L57.2441 213.144H56.2041ZM64.7016 213.144C63.6243 213.144 62.787 212.776 62.1896 212.04C61.603 211.304 61.3096 210.376 61.3096 209.256C61.3096 208.125 61.651 207.165 62.3336 206.376C63.0163 205.587 63.9176 205.192 65.0376 205.192C66.851 205.192 67.8003 206.307 67.8856 208.536L67.4696 208.84L62.8296 209.096C62.8296 211.069 63.6723 212.056 65.3576 212.056C66.0936 212.056 66.8136 211.875 67.5176 211.512L67.8536 212.04C67.5016 212.328 67.043 212.584 66.4776 212.808C65.9123 213.032 65.3203 213.144 64.7016 213.144ZM62.8776 208.36L66.1896 208.072C66.2963 208.061 66.3496 207.96 66.3496 207.768C66.3496 207.299 66.2216 206.893 65.9656 206.552C65.7203 206.211 65.299 206.04 64.7016 206.04C64.1043 206.04 63.667 206.243 63.3896 206.648C63.123 207.043 62.9523 207.613 62.8776 208.36ZM73.6881 210.808V206.408H72.6481L72.5841 205.72L73.3681 205.528C73.5708 205.475 73.7041 205.357 73.7681 205.176C73.8428 204.984 73.9708 204.387 74.1521 203.384L75.1281 203.288V205.432H77.3521L77.2241 206.184L75.1281 206.424V210.328C75.1281 211.437 75.4695 211.992 76.1521 211.992C76.5361 211.992 76.9415 211.832 77.3681 211.512L77.7041 211.976C77.1281 212.755 76.4241 213.144 75.5921 213.144C74.9948 213.144 74.5255 212.936 74.1841 212.52C73.8535 212.104 73.6881 211.533 73.6881 210.808ZM78.5619 213L78.4659 212.376C79.0312 212.28 79.3779 212.173 79.5059 212.056C79.6339 211.939 79.6979 211.741 79.6979 211.464V206.856C79.6979 206.579 79.6232 206.381 79.4739 206.264C79.3352 206.136 78.9672 206.029 78.3699 205.944L78.4659 205.432L80.6419 205.224C80.7165 205.224 80.7965 205.331 80.8819 205.544C80.9672 205.757 81.0099 205.981 81.0099 206.216C81.0099 206.44 80.9885 206.701 80.9459 207L81.0739 207.048L81.2819 206.584C81.4739 206.157 81.7619 205.821 82.1459 205.576C82.5405 205.32 82.9352 205.192 83.3299 205.192C83.7352 205.192 84.1085 205.277 84.4499 205.448C84.4499 206.323 84.3699 207.197 84.2099 208.072L83.4259 208.152C83.3405 207.256 83.2552 206.749 83.1699 206.632C83.0845 206.504 82.9405 206.44 82.7379 206.44C82.5459 206.44 82.3165 206.531 82.0499 206.712C81.7832 206.883 81.5645 207.069 81.3939 207.272C81.2232 207.464 81.1379 207.784 81.1379 208.232V211.848C81.1379 211.987 81.1645 212.077 81.2179 212.12C81.2819 212.152 81.3619 212.173 81.4579 212.184L82.9139 212.376L82.8499 213H78.5619ZM85.5001 211.032C85.5001 210.232 85.8415 209.635 86.5241 209.24C87.2068 208.845 88.3161 208.643 89.8521 208.632V208.12C89.8521 206.733 89.3508 206.04 88.3481 206.04C87.8681 206.04 87.5641 206.109 87.4361 206.248C87.3188 206.387 87.1908 206.84 87.0521 207.608L86.1881 207.512C86.1028 207.181 86.0601 206.84 86.0601 206.488C86.0601 206.125 86.0655 205.891 86.0761 205.784C86.7055 205.389 87.5321 205.192 88.5561 205.192C89.5801 205.192 90.2895 205.389 90.6841 205.784C91.0895 206.179 91.2921 206.829 91.2921 207.736V211.416C91.2921 211.693 91.3561 211.891 91.4841 212.008C91.6228 212.115 91.9641 212.221 92.5081 212.328L92.4121 212.84L90.4921 213.048C90.3855 213.048 90.2735 212.947 90.1561 212.744C90.0388 212.541 89.9801 212.355 89.9801 212.184C89.9801 212.003 89.9855 211.869 89.9961 211.784L89.8681 211.736L89.6761 212.024C89.1748 212.771 88.4868 213.144 87.6121 213.144C87.0148 213.144 86.5135 212.957 86.1081 212.584C85.7028 212.211 85.5001 211.693 85.5001 211.032ZM87.0521 210.888C87.0521 211.272 87.1535 211.565 87.3561 211.768C87.5588 211.96 87.8468 212.056 88.2201 212.056C88.5935 212.056 89.0148 211.875 89.4841 211.512C89.7295 211.32 89.8521 211.117 89.8521 210.904V209.336C88.8921 209.357 88.1828 209.485 87.7241 209.72C87.2761 209.955 87.0521 210.344 87.0521 210.888ZM93.7676 213L93.6716 212.376C94.1943 212.269 94.509 212.163 94.6156 212.056C94.733 211.939 94.7916 211.741 94.7916 211.464V206.872C94.7916 206.648 94.7063 206.488 94.5356 206.392C94.365 206.285 94.045 206.184 93.5756 206.088L93.6716 205.576C94.813 205.427 95.6076 205.352 96.0556 205.352L96.2316 205.512V211.848C96.2316 211.976 96.2583 212.061 96.3116 212.104C96.3756 212.136 96.4556 212.163 96.5516 212.184L97.3356 212.376L97.2716 213H93.7676ZM96.2476 202.504C96.2476 202.771 96.1623 202.995 95.9916 203.176C95.8316 203.357 95.613 203.448 95.3356 203.448C95.069 203.448 94.845 203.368 94.6636 203.208C94.493 203.048 94.4076 202.829 94.4076 202.552C94.4076 202.264 94.4876 202.035 94.6476 201.864C94.8183 201.693 95.0476 201.608 95.3356 201.608C95.9436 201.608 96.2476 201.907 96.2476 202.504ZM98.7208 213L98.6248 212.376C99.1474 212.269 99.4621 212.163 99.5688 212.056C99.6861 211.939 99.7448 211.741 99.7448 211.464V206.856C99.7448 206.579 99.6754 206.387 99.5368 206.28C99.4088 206.163 99.0728 206.051 98.5288 205.944L98.6248 205.432L100.689 205.224C100.763 205.224 100.838 205.373 100.913 205.672C100.998 205.971 101.041 206.232 101.041 206.456V206.552L101.169 206.6L101.361 206.376C102.033 205.587 102.854 205.192 103.825 205.192C104.507 205.192 105.046 205.4 105.441 205.816C105.835 206.221 106.033 206.792 106.033 207.528V211.848C106.033 211.976 106.059 212.061 106.113 212.104C106.177 212.136 106.257 212.163 106.353 212.184L107.137 212.376L107.073 213H103.649L103.553 212.376C104.033 212.28 104.326 212.173 104.433 212.056C104.539 211.939 104.593 211.741 104.593 211.464V208.008C104.593 207.507 104.502 207.107 104.321 206.808C104.139 206.499 103.782 206.344 103.249 206.344C102.726 206.344 102.155 206.552 101.537 206.968C101.441 207.032 101.371 207.08 101.329 207.112C101.233 207.219 101.185 207.416 101.185 207.704V211.832C101.185 211.949 101.201 212.029 101.233 212.072C101.275 212.115 101.366 212.152 101.505 212.184L102.209 212.376L102.145 213H98.7208ZM108.252 213L108.156 212.376C108.679 212.269 108.993 212.163 109.1 212.056C109.217 211.939 109.276 211.741 109.276 211.464V206.872C109.276 206.648 109.191 206.488 109.02 206.392C108.849 206.285 108.529 206.184 108.06 206.088L108.156 205.576C109.297 205.427 110.092 205.352 110.54 205.352L110.716 205.512V211.848C110.716 211.976 110.743 212.061 110.796 212.104C110.86 212.136 110.94 212.163 111.036 212.184L111.82 212.376L111.756 213H108.252ZM110.732 202.504C110.732 202.771 110.647 202.995 110.476 203.176C110.316 203.357 110.097 203.448 109.82 203.448C109.553 203.448 109.329 203.368 109.148 203.208C108.977 203.048 108.892 202.829 108.892 202.552C108.892 202.264 108.972 202.035 109.132 201.864C109.303 201.693 109.532 201.608 109.82 201.608C110.428 201.608 110.732 201.907 110.732 202.504ZM113.205 213L113.109 212.376C113.632 212.269 113.946 212.163 114.053 212.056C114.17 211.939 114.229 211.741 114.229 211.464V206.856C114.229 206.579 114.16 206.387 114.021 206.28C113.893 206.163 113.557 206.051 113.013 205.944L113.109 205.432L115.173 205.224C115.248 205.224 115.322 205.373 115.397 205.672C115.482 205.971 115.525 206.232 115.525 206.456V206.552L115.653 206.6L115.845 206.376C116.517 205.587 117.338 205.192 118.309 205.192C118.992 205.192 119.53 205.4 119.925 205.816C120.32 206.221 120.517 206.792 120.517 207.528V211.848C120.517 211.976 120.544 212.061 120.597 212.104C120.661 212.136 120.741 212.163 120.837 212.184L121.621 212.376L121.557 213H118.133L118.037 212.376C118.517 212.28 118.81 212.173 118.917 212.056C119.024 211.939 119.077 211.741 119.077 211.464V208.008C119.077 207.507 118.986 207.107 118.805 206.808C118.624 206.499 118.266 206.344 117.733 206.344C117.21 206.344 116.64 206.552 116.021 206.968C115.925 207.032 115.856 207.08 115.813 207.112C115.717 207.219 115.669 207.416 115.669 207.704V211.832C115.669 211.949 115.685 212.029 115.717 212.072C115.76 212.115 115.85 212.152 115.989 212.184L116.693 212.376L116.629 213H113.205ZM124.544 213.384C124.246 213.715 124.096 214.072 124.096 214.456C124.096 214.84 124.256 215.144 124.576 215.368C124.896 215.592 125.44 215.704 126.208 215.704C126.987 215.704 127.59 215.544 128.016 215.224C128.443 214.904 128.656 214.584 128.656 214.264C128.656 213.944 128.48 213.747 128.128 213.672C127.776 213.608 127.216 213.571 126.448 213.56C125.691 213.549 125.056 213.491 124.544 213.384ZM123.168 212.024C123.168 211.597 123.328 211.187 123.648 210.792C123.872 210.515 124.128 210.264 124.416 210.04C124.256 209.965 124.107 209.875 123.968 209.768C123.435 209.341 123.168 208.701 123.168 207.848C123.168 206.984 123.462 206.328 124.048 205.88C124.635 205.421 125.366 205.192 126.24 205.192C127.019 205.192 127.664 205.357 128.176 205.688C128.87 205.357 129.542 205.181 130.192 205.16C130.299 205.341 130.352 205.56 130.352 205.816C130.352 206.061 130.336 206.232 130.304 206.328C129.942 206.243 129.563 206.2 129.168 206.2C129.008 206.2 128.864 206.2 128.736 206.2C129.035 206.605 129.184 207.128 129.184 207.768C129.184 208.621 128.891 209.277 128.304 209.736C127.718 210.184 126.987 210.408 126.112 210.408C125.622 210.408 125.19 210.344 124.816 210.216C124.496 210.6 124.336 210.968 124.336 211.32C124.336 211.64 124.518 211.832 124.88 211.896C125.2 211.949 125.558 211.976 125.952 211.976C126.358 211.976 126.667 211.981 126.88 211.992C127.104 211.992 127.387 212.008 127.728 212.04C128.07 212.072 128.336 212.125 128.528 212.2C128.731 212.275 128.939 212.371 129.152 212.488C129.547 212.712 129.744 213.107 129.744 213.672C129.744 214.44 129.36 215.101 128.592 215.656C127.824 216.221 126.79 216.504 125.488 216.504C123.739 216.504 122.864 216.003 122.864 215C122.864 214.637 122.966 214.323 123.168 214.056C123.382 213.8 123.686 213.528 124.08 213.24C123.472 213.048 123.168 212.643 123.168 212.024ZM126.224 209.624C127.216 209.624 127.712 209.016 127.712 207.8C127.712 206.584 127.184 205.976 126.128 205.976C125.136 205.976 124.64 206.584 124.64 207.8C124.64 209.016 125.168 209.624 126.224 209.624ZM136.078 206.536C136.344 206.12 136.734 205.795 137.246 205.56C137.768 205.315 138.408 205.192 139.166 205.192C139.934 205.192 140.691 205.341 141.438 205.64C141.448 205.725 141.454 206.003 141.454 206.472C141.454 206.931 141.39 207.384 141.262 207.832L140.366 207.928C140.195 206.851 140.035 206.28 139.886 206.216C139.662 206.12 139.262 206.072 138.686 206.072C138.11 206.072 137.688 206.269 137.422 206.664C137.048 207.229 136.862 208.035 136.862 209.08C136.862 210.115 137.086 210.872 137.534 211.352C137.992 211.821 138.584 212.056 139.31 212.056C140.046 212.056 140.755 211.821 141.438 211.352L141.886 211.88C141.022 212.723 140.003 213.144 138.83 213.144C137.667 213.144 136.787 212.781 136.19 212.056C135.603 211.32 135.31 210.413 135.31 209.336C135.31 208.248 135.566 207.315 136.078 206.536ZM146.186 213.144C145.109 213.144 144.271 212.776 143.674 212.04C143.087 211.304 142.794 210.376 142.794 209.256C142.794 208.125 143.135 207.165 143.818 206.376C144.501 205.587 145.402 205.192 146.522 205.192C148.335 205.192 149.285 206.307 149.37 208.536L148.954 208.84L144.314 209.096C144.314 211.069 145.157 212.056 146.842 212.056C147.578 212.056 148.298 211.875 149.002 211.512L149.338 212.04C148.986 212.328 148.527 212.584 147.962 212.808C147.397 213.032 146.805 213.144 146.186 213.144ZM144.362 208.36L147.674 208.072C147.781 208.061 147.834 207.96 147.834 207.768C147.834 207.299 147.706 206.893 147.45 206.552C147.205 206.211 146.783 206.04 146.186 206.04C145.589 206.04 145.151 206.243 144.874 206.648C144.607 207.043 144.437 207.613 144.362 208.36ZM150.531 213L150.435 212.376C151 212.28 151.347 212.173 151.475 212.056C151.603 211.939 151.667 211.741 151.667 211.464V206.856C151.667 206.579 151.592 206.381 151.443 206.264C151.304 206.136 150.936 206.029 150.339 205.944L150.435 205.432L152.611 205.224C152.685 205.224 152.765 205.331 152.851 205.544C152.936 205.757 152.979 205.981 152.979 206.216C152.979 206.44 152.957 206.701 152.915 207L153.043 207.048L153.251 206.584C153.443 206.157 153.731 205.821 154.115 205.576C154.509 205.32 154.904 205.192 155.299 205.192C155.704 205.192 156.077 205.277 156.419 205.448C156.419 206.323 156.339 207.197 156.179 208.072L155.395 208.152C155.309 207.256 155.224 206.749 155.139 206.632C155.053 206.504 154.909 206.44 154.707 206.44C154.515 206.44 154.285 206.531 154.019 206.712C153.752 206.883 153.533 207.069 153.363 207.272C153.192 207.464 153.107 207.784 153.107 208.232V211.848C153.107 211.987 153.133 212.077 153.187 212.12C153.251 212.152 153.331 212.173 153.427 212.184L154.883 212.376L154.819 213H150.531ZM158.157 210.808V206.408H157.117L157.053 205.72L157.837 205.528C158.04 205.475 158.173 205.357 158.237 205.176C158.312 204.984 158.44 204.387 158.621 203.384L159.597 203.288V205.432H161.821L161.693 206.184L159.597 206.424V210.328C159.597 211.437 159.938 211.992 160.621 211.992C161.005 211.992 161.41 211.832 161.837 211.512L162.173 211.976C161.597 212.755 160.893 213.144 160.061 213.144C159.464 213.144 158.994 212.936 158.653 212.52C158.322 212.104 158.157 211.533 158.157 210.808ZM163.143 213L163.047 212.376C163.569 212.269 163.884 212.163 163.991 212.056C164.108 211.939 164.167 211.741 164.167 211.464V206.872C164.167 206.648 164.081 206.488 163.911 206.392C163.74 206.285 163.42 206.184 162.951 206.088L163.047 205.576C164.188 205.427 164.983 205.352 165.431 205.352L165.607 205.512V211.848C165.607 211.976 165.633 212.061 165.687 212.104C165.751 212.136 165.831 212.163 165.927 212.184L166.711 212.376L166.647 213H163.143ZM165.623 202.504C165.623 202.771 165.537 202.995 165.367 203.176C165.207 203.357 164.988 203.448 164.711 203.448C164.444 203.448 164.22 203.368 164.039 203.208C163.868 203.048 163.783 202.829 163.783 202.552C163.783 202.264 163.863 202.035 164.023 201.864C164.193 201.693 164.423 201.608 164.711 201.608C165.319 201.608 165.623 201.907 165.623 202.504ZM173.696 213L173.6 212.376C174.122 212.269 174.437 212.163 174.544 212.056C174.661 211.939 174.72 211.741 174.72 211.464V206.872C174.72 206.637 174.629 206.472 174.448 206.376C174.277 206.28 173.952 206.232 173.472 206.232C173.002 206.232 172.053 206.296 170.624 206.424V211.848C170.624 211.955 170.645 212.035 170.688 212.088C170.73 212.131 170.826 212.163 170.976 212.184L172.016 212.376L171.952 213H168.16L168.064 212.376C168.586 212.269 168.901 212.163 169.008 212.056C169.125 211.939 169.184 211.741 169.184 211.464V206.52H168.144L168.08 205.832L168.864 205.64C169.002 205.608 169.093 205.549 169.136 205.464C169.178 205.379 169.205 205.245 169.216 205.064C169.226 204.883 169.242 204.701 169.264 204.52C169.296 204.339 169.349 204.093 169.424 203.784C169.509 203.464 169.605 203.176 169.712 202.92C169.829 202.653 169.989 202.376 170.192 202.088C170.394 201.8 170.629 201.555 170.896 201.352C171.493 200.883 172.245 200.648 173.152 200.648C173.802 200.648 174.522 200.765 175.312 201C175.312 201.725 175.221 202.371 175.04 202.936L174.176 203.032C174.016 202.168 173.888 201.715 173.792 201.672C173.557 201.555 173.205 201.496 172.736 201.496C172.032 201.496 171.504 201.88 171.152 202.648C170.8 203.416 170.624 204.344 170.624 205.432H172.512C173.248 205.432 174.005 205.421 174.784 205.4C175.573 205.368 175.973 205.352 175.984 205.352L176.16 205.512V211.848C176.16 211.976 176.186 212.061 176.24 212.104C176.304 212.136 176.384 212.163 176.48 212.184L177.264 212.376L177.2 213H173.696ZM179.218 206.536C179.485 206.12 179.874 205.795 180.386 205.56C180.909 205.315 181.549 205.192 182.306 205.192C183.074 205.192 183.832 205.341 184.578 205.64C184.589 205.725 184.594 206.003 184.594 206.472C184.594 206.931 184.53 207.384 184.402 207.832L183.506 207.928C183.336 206.851 183.176 206.28 183.026 206.216C182.802 206.12 182.402 206.072 181.826 206.072C181.25 206.072 180.829 206.269 180.562 206.664C180.189 207.229 180.002 208.035 180.002 209.08C180.002 210.115 180.226 210.872 180.674 211.352C181.133 211.821 181.725 212.056 182.45 212.056C183.186 212.056 183.896 211.821 184.578 211.352L185.026 211.88C184.162 212.723 183.144 213.144 181.97 213.144C180.808 213.144 179.928 212.781 179.33 212.056C178.744 211.32 178.45 210.413 178.45 209.336C178.45 208.248 178.706 207.315 179.218 206.536ZM186.063 211.032C186.063 210.232 186.404 209.635 187.087 209.24C187.769 208.845 188.879 208.643 190.415 208.632V208.12C190.415 206.733 189.913 206.04 188.911 206.04C188.431 206.04 188.127 206.109 187.999 206.248C187.881 206.387 187.753 206.84 187.615 207.608L186.751 207.512C186.665 207.181 186.623 206.84 186.623 206.488C186.623 206.125 186.628 205.891 186.639 205.784C187.268 205.389 188.095 205.192 189.119 205.192C190.143 205.192 190.852 205.389 191.247 205.784C191.652 206.179 191.855 206.829 191.855 207.736V211.416C191.855 211.693 191.919 211.891 192.047 212.008C192.185 212.115 192.527 212.221 193.071 212.328L192.975 212.84L191.055 213.048C190.948 213.048 190.836 212.947 190.719 212.744C190.601 212.541 190.543 212.355 190.543 212.184C190.543 212.003 190.548 211.869 190.559 211.784L190.431 211.736L190.239 212.024C189.737 212.771 189.049 213.144 188.175 213.144C187.577 213.144 187.076 212.957 186.671 212.584C186.265 212.211 186.063 211.693 186.063 211.032ZM187.615 210.888C187.615 211.272 187.716 211.565 187.919 211.768C188.121 211.96 188.409 212.056 188.783 212.056C189.156 212.056 189.577 211.875 190.047 211.512C190.292 211.32 190.415 211.117 190.415 210.904V209.336C189.455 209.357 188.745 209.485 188.287 209.72C187.839 209.955 187.615 210.344 187.615 210.888ZM194.938 210.808V206.408H193.898L193.834 205.72L194.618 205.528C194.821 205.475 194.954 205.357 195.018 205.176C195.093 204.984 195.221 204.387 195.402 203.384L196.378 203.288V205.432H198.602L198.474 206.184L196.378 206.424V210.328C196.378 211.437 196.719 211.992 197.402 211.992C197.786 211.992 198.191 211.832 198.618 211.512L198.954 211.976C198.378 212.755 197.674 213.144 196.842 213.144C196.245 213.144 195.775 212.936 195.434 212.52C195.103 212.104 194.938 211.533 194.938 210.808ZM199.924 213L199.828 212.376C200.351 212.269 200.665 212.163 200.772 212.056C200.889 211.939 200.948 211.741 200.948 211.464V206.872C200.948 206.648 200.863 206.488 200.692 206.392C200.521 206.285 200.201 206.184 199.732 206.088L199.828 205.576C200.969 205.427 201.764 205.352 202.212 205.352L202.388 205.512V211.848C202.388 211.976 202.415 212.061 202.468 212.104C202.532 212.136 202.612 212.163 202.708 212.184L203.492 212.376L203.428 213H199.924ZM202.404 202.504C202.404 202.771 202.319 202.995 202.148 203.176C201.988 203.357 201.769 203.448 201.492 203.448C201.225 203.448 201.001 203.368 200.82 203.208C200.649 203.048 200.564 202.829 200.564 202.552C200.564 202.264 200.644 202.035 200.804 201.864C200.975 201.693 201.204 201.608 201.492 201.608C202.1 201.608 202.404 201.907 202.404 202.504ZM208.221 213.144C207.069 213.144 206.184 212.803 205.565 212.12C204.946 211.437 204.637 210.483 204.637 209.256C204.637 208.029 204.962 207.048 205.613 206.312C206.274 205.565 207.181 205.192 208.333 205.192C209.496 205.192 210.386 205.539 211.005 206.232C211.624 206.915 211.933 207.869 211.933 209.096C211.933 210.323 211.602 211.304 210.941 212.04C210.29 212.776 209.384 213.144 208.221 213.144ZM206.189 209.048C206.189 209.997 206.381 210.776 206.765 211.384C207.149 211.992 207.672 212.296 208.333 212.296C208.994 212.296 209.464 212.136 209.741 211.816C209.933 211.603 210.088 211.267 210.205 210.808C210.322 210.339 210.381 209.832 210.381 209.288C210.381 208.339 210.189 207.56 209.805 206.952C209.421 206.344 208.898 206.04 208.237 206.04C207.576 206.04 207.106 206.2 206.829 206.52C206.637 206.733 206.482 207.075 206.365 207.544C206.248 208.003 206.189 208.504 206.189 209.048ZM213.19 213L213.094 212.376C213.616 212.269 213.931 212.163 214.038 212.056C214.155 211.939 214.214 211.741 214.214 211.464V206.856C214.214 206.579 214.144 206.387 214.006 206.28C213.878 206.163 213.542 206.051 212.998 205.944L213.094 205.432L215.158 205.224C215.232 205.224 215.307 205.373 215.382 205.672C215.467 205.971 215.51 206.232 215.51 206.456V206.552L215.638 206.6L215.83 206.376C216.502 205.587 217.323 205.192 218.294 205.192C218.976 205.192 219.515 205.4 219.91 205.816C220.304 206.221 220.502 206.792 220.502 207.528V211.848C220.502 211.976 220.528 212.061 220.582 212.104C220.646 212.136 220.726 212.163 220.822 212.184L221.606 212.376L221.542 213H218.118L218.022 212.376C218.502 212.28 218.795 212.173 218.902 212.056C219.008 211.939 219.062 211.741 219.062 211.464V208.008C219.062 207.507 218.971 207.107 218.79 206.808C218.608 206.499 218.251 206.344 217.718 206.344C217.195 206.344 216.624 206.552 216.006 206.968C215.91 207.032 215.84 207.08 215.798 207.112C215.702 207.219 215.654 207.416 215.654 207.704V211.832C215.654 211.949 215.67 212.029 215.702 212.072C215.744 212.115 215.835 212.152 215.974 212.184L216.678 212.376L216.614 213H213.19ZM225.553 206.04C224.614 206.04 224.145 206.36 224.145 207C224.145 207.256 224.209 207.448 224.337 207.576C224.465 207.693 224.555 207.784 224.609 207.848C224.673 207.901 224.79 207.971 224.961 208.056C225.131 208.141 225.249 208.205 225.313 208.248C225.387 208.28 225.531 208.339 225.745 208.424C226.641 208.797 227.27 209.149 227.633 209.48C227.995 209.811 228.177 210.28 228.177 210.888C228.177 211.496 227.905 212.024 227.361 212.472C226.827 212.92 226.091 213.144 225.153 213.144C224.737 213.144 224.305 213.101 223.857 213.016C223.409 212.931 223.083 212.845 222.881 212.76C222.859 212.621 222.849 212.339 222.849 211.912C222.849 211.485 222.897 211.021 222.993 210.52L223.825 210.456C223.899 211.139 223.953 211.56 223.985 211.72C224.027 211.869 224.086 211.965 224.161 212.008C224.502 212.2 224.95 212.296 225.505 212.296C226.369 212.296 226.801 211.949 226.801 211.256C226.801 210.925 226.673 210.653 226.417 210.44C226.129 210.205 225.798 210.008 225.425 209.848C224.443 209.443 223.771 209.075 223.409 208.744C223.057 208.403 222.881 207.933 222.881 207.336C222.881 206.739 223.153 206.232 223.697 205.816C224.241 205.4 224.897 205.192 225.665 205.192C226.433 205.192 227.137 205.325 227.777 205.592C227.787 205.677 227.793 205.917 227.793 206.312C227.793 206.707 227.723 207.123 227.585 207.56L226.849 207.64C226.774 206.808 226.651 206.333 226.481 206.216C226.321 206.099 226.011 206.04 225.553 206.04ZM16.36 229.808V225.408H15.32L15.256 224.72L16.04 224.528C16.2427 224.475 16.376 224.357 16.44 224.176C16.5147 223.984 16.6427 223.387 16.824 222.384L17.8 222.288V224.432H20.024L19.896 225.184L17.8 225.424V229.328C17.8 230.437 18.1413 230.992 18.824 230.992C19.208 230.992 19.6133 230.832 20.04 230.512L20.376 230.976C19.8 231.755 19.096 232.144 18.264 232.144C17.6667 232.144 17.1973 231.936 16.856 231.52C16.5253 231.104 16.36 230.533 16.36 229.808ZM24.6898 232.144C23.5378 232.144 22.6524 231.803 22.0338 231.12C21.4151 230.437 21.1058 229.483 21.1058 228.256C21.1058 227.029 21.4311 226.048 22.0818 225.312C22.7431 224.565 23.6498 224.192 24.8018 224.192C25.9644 224.192 26.8551 224.539 27.4738 225.232C28.0924 225.915 28.4018 226.869 28.4018 228.096C28.4018 229.323 28.0711 230.304 27.4098 231.04C26.7591 231.776 25.8524 232.144 24.6898 232.144ZM22.6578 228.048C22.6578 228.997 22.8498 229.776 23.2338 230.384C23.6178 230.992 24.1404 231.296 24.8018 231.296C25.4631 231.296 25.9324 231.136 26.2098 230.816C26.4018 230.603 26.5564 230.267 26.6738 229.808C26.7911 229.339 26.8498 228.832 26.8498 228.288C26.8498 227.339 26.6578 226.56 26.2738 225.952C25.8898 225.344 25.3671 225.04 24.7057 225.04C24.0444 225.04 23.5751 225.2 23.2978 225.52C23.1058 225.733 22.9511 226.075 22.8338 226.544C22.7164 227.003 22.6578 227.504 22.6578 228.048ZM36.7641 232.144C35.6868 232.144 34.8495 231.776 34.2521 231.04C33.6655 230.304 33.3721 229.376 33.3721 228.256C33.3721 227.125 33.7135 226.165 34.3961 225.376C35.0788 224.587 35.9801 224.192 37.1001 224.192C38.9135 224.192 39.8628 225.307 39.9481 227.536L39.5321 227.84L34.8921 228.096C34.8921 230.069 35.7348 231.056 37.4201 231.056C38.1561 231.056 38.8761 230.875 39.5801 230.512L39.9161 231.04C39.5641 231.328 39.1055 231.584 38.5401 231.808C37.9748 232.032 37.3828 232.144 36.7641 232.144ZM34.9401 227.36L38.2521 227.072C38.3588 227.061 38.4121 226.96 38.4121 226.768C38.4121 226.299 38.2841 225.893 38.0281 225.552C37.7828 225.211 37.3615 225.04 36.7641 225.04C36.1668 225.04 35.7295 225.243 35.4521 225.648C35.1855 226.043 35.0148 226.613 34.9401 227.36ZM41.2208 232L41.1248 231.376C41.6474 231.269 41.9621 231.163 42.0688 231.056C42.1861 230.939 42.2448 230.741 42.2448 230.464V225.856C42.2448 225.579 42.1754 225.387 42.0368 225.28C41.9088 225.163 41.5728 225.051 41.0288 224.944L41.1248 224.432L43.1888 224.224C43.2634 224.224 43.3381 224.373 43.4128 224.672C43.4981 224.971 43.5408 225.232 43.5408 225.456V225.552L43.6688 225.6L43.8608 225.376C44.5328 224.587 45.3541 224.192 46.3248 224.192C47.0074 224.192 47.5461 224.4 47.9408 224.816C48.3354 225.221 48.5328 225.792 48.5328 226.528V230.848C48.5328 230.976 48.5594 231.061 48.6128 231.104C48.6768 231.136 48.7568 231.163 48.8528 231.184L49.6368 231.376L49.5728 232H46.1488L46.0528 231.376C46.5328 231.28 46.8261 231.173 46.9328 231.056C47.0394 230.939 47.0928 230.741 47.0928 230.464V227.008C47.0928 226.507 47.0021 226.107 46.8208 225.808C46.6394 225.499 46.2821 225.344 45.7488 225.344C45.2261 225.344 44.6554 225.552 44.0368 225.968C43.9408 226.032 43.8714 226.08 43.8288 226.112C43.7328 226.219 43.6848 226.416 43.6848 226.704V230.832C43.6848 230.949 43.7008 231.029 43.7328 231.072C43.7754 231.115 43.8661 231.152 44.0048 231.184L44.7088 231.376L44.6448 232H41.2208ZM50.64 232L50.544 231.376C51.0667 231.269 51.3813 231.163 51.488 231.056C51.6053 230.939 51.664 230.741 51.664 230.464V221.168C51.664 220.944 51.5787 220.784 51.408 220.688C51.2373 220.581 50.9173 220.48 50.448 220.384L50.544 219.872C51.6853 219.723 52.48 219.648 52.928 219.648L53.104 219.808V224.304C53.104 224.891 53.0667 225.307 52.992 225.552L53.12 225.6L53.312 225.376C53.9733 224.587 54.8 224.192 55.792 224.192C56.5067 224.192 57.0613 224.4 57.456 224.816C57.8613 225.232 58.064 225.803 58.064 226.528V230.848C58.064 230.976 58.0907 231.061 58.144 231.104C58.208 231.136 58.288 231.163 58.384 231.184L59.168 231.376L59.104 232H55.68L55.584 231.376C56.064 231.28 56.3573 231.173 56.464 231.056C56.5707 230.939 56.624 230.741 56.624 230.464V227.008C56.624 226.496 56.528 226.091 56.336 225.792C56.1547 225.493 55.7813 225.344 55.216 225.344C54.6613 225.344 54.08 225.552 53.472 225.968C53.3333 226.064 53.2373 226.16 53.184 226.256C53.1307 226.341 53.104 226.501 53.104 226.736V230.848C53.104 230.976 53.1307 231.061 53.184 231.104C53.248 231.136 53.328 231.163 53.424 231.184L54.128 231.376L54.064 232H50.64ZM60.2033 230.032C60.2033 229.232 60.5446 228.635 61.2273 228.24C61.9099 227.845 63.0193 227.643 64.5553 227.632V227.12C64.5553 225.733 64.0539 225.04 63.0513 225.04C62.5713 225.04 62.2673 225.109 62.1393 225.248C62.0219 225.387 61.8939 225.84 61.7553 226.608L60.8913 226.512C60.8059 226.181 60.7633 225.84 60.7633 225.488C60.7633 225.125 60.7686 224.891 60.7793 224.784C61.4086 224.389 62.2353 224.192 63.2593 224.192C64.2833 224.192 64.9926 224.389 65.3873 224.784C65.7926 225.179 65.9953 225.829 65.9953 226.736V230.416C65.9953 230.693 66.0593 230.891 66.1873 231.008C66.3259 231.115 66.6673 231.221 67.2113 231.328L67.1153 231.84L65.1953 232.048C65.0886 232.048 64.9766 231.947 64.8593 231.744C64.7419 231.541 64.6833 231.355 64.6833 231.184C64.6833 231.003 64.6886 230.869 64.6993 230.784L64.5713 230.736L64.3793 231.024C63.8779 231.771 63.1899 232.144 62.3153 232.144C61.7179 232.144 61.2166 231.957 60.8113 231.584C60.4059 231.211 60.2033 230.693 60.2033 230.032ZM61.7553 229.888C61.7553 230.272 61.8566 230.565 62.0593 230.768C62.2619 230.96 62.5499 231.056 62.9233 231.056C63.2966 231.056 63.7179 230.875 64.1873 230.512C64.4326 230.32 64.5553 230.117 64.5553 229.904V228.336C63.5953 228.357 62.8859 228.485 62.4273 228.72C61.9793 228.955 61.7553 229.344 61.7553 229.888ZM68.4708 232L68.3748 231.376C68.8974 231.269 69.2121 231.163 69.3188 231.056C69.4361 230.939 69.4948 230.741 69.4948 230.464V225.856C69.4948 225.579 69.4254 225.387 69.2868 225.28C69.1588 225.163 68.8228 225.051 68.2788 224.944L68.3748 224.432L70.4388 224.224C70.5134 224.224 70.5881 224.373 70.6628 224.672C70.7481 224.971 70.7908 225.232 70.7908 225.456V225.552L70.9188 225.6L71.1108 225.376C71.7828 224.587 72.6041 224.192 73.5748 224.192C74.2574 224.192 74.7961 224.4 75.1908 224.816C75.5854 225.221 75.7828 225.792 75.7828 226.528V230.848C75.7828 230.976 75.8094 231.061 75.8628 231.104C75.9268 231.136 76.0068 231.163 76.1028 231.184L76.8868 231.376L76.8228 232H73.3988L73.3028 231.376C73.7828 231.28 74.0761 231.173 74.1828 231.056C74.2894 230.939 74.3428 230.741 74.3428 230.464V227.008C74.3428 226.507 74.2521 226.107 74.0708 225.808C73.8894 225.499 73.5321 225.344 72.9988 225.344C72.4761 225.344 71.9054 225.552 71.2868 225.968C71.1908 226.032 71.1214 226.08 71.0788 226.112C70.9828 226.219 70.9348 226.416 70.9348 226.704V230.832C70.9348 230.949 70.9508 231.029 70.9828 231.072C71.0254 231.115 71.1161 231.152 71.2548 231.184L71.9588 231.376L71.8948 232H68.4708ZM78.562 225.536C78.8287 225.12 79.218 224.795 79.73 224.56C80.2527 224.315 80.8927 224.192 81.65 224.192C82.418 224.192 83.1753 224.341 83.922 224.64C83.9327 224.725 83.938 225.003 83.938 225.472C83.938 225.931 83.874 226.384 83.746 226.832L82.85 226.928C82.6793 225.851 82.5193 225.28 82.37 225.216C82.146 225.12 81.746 225.072 81.17 225.072C80.594 225.072 80.1727 225.269 79.906 225.664C79.5327 226.229 79.346 227.035 79.346 228.08C79.346 229.115 79.57 229.872 80.018 230.352C80.4767 230.821 81.0687 231.056 81.794 231.056C82.53 231.056 83.2393 230.821 83.922 230.352L84.37 230.88C83.506 231.723 82.4873 232.144 81.314 232.144C80.1513 232.144 79.2713 231.781 78.674 231.056C78.0873 230.32 77.794 229.413 77.794 228.336C77.794 227.248 78.05 226.315 78.562 225.536ZM88.6704 232.144C87.593 232.144 86.7557 231.776 86.1584 231.04C85.5717 230.304 85.2784 229.376 85.2784 228.256C85.2784 227.125 85.6197 226.165 86.3024 225.376C86.985 224.587 87.8864 224.192 89.0064 224.192C90.8197 224.192 91.769 225.307 91.8544 227.536L91.4384 227.84L86.7984 228.096C86.7984 230.069 87.641 231.056 89.3264 231.056C90.0624 231.056 90.7824 230.875 91.4864 230.512L91.8224 231.04C91.4704 231.328 91.0117 231.584 90.4464 231.808C89.881 232.032 89.289 232.144 88.6704 232.144ZM86.8464 227.36L90.1584 227.072C90.265 227.061 90.3184 226.96 90.3184 226.768C90.3184 226.299 90.1904 225.893 89.9344 225.552C89.689 225.211 89.2677 225.04 88.6704 225.04C88.073 225.04 87.6357 225.243 87.3584 225.648C87.0917 226.043 86.921 226.613 86.8464 227.36ZM97.6089 225.536C97.8755 225.12 98.2649 224.795 98.7769 224.56C99.2995 224.315 99.9395 224.192 100.697 224.192C101.465 224.192 102.222 224.341 102.969 224.64C102.98 224.725 102.985 225.003 102.985 225.472C102.985 225.931 102.921 226.384 102.793 226.832L101.897 226.928C101.726 225.851 101.566 225.28 101.417 225.216C101.193 225.12 100.793 225.072 100.217 225.072C99.6409 225.072 99.2195 225.269 98.9529 225.664C98.5795 226.229 98.3929 227.035 98.3929 228.08C98.3929 229.115 98.6169 229.872 99.0649 230.352C99.5235 230.821 100.116 231.056 100.841 231.056C101.577 231.056 102.286 230.821 102.969 230.352L103.417 230.88C102.553 231.723 101.534 232.144 100.361 232.144C99.1982 232.144 98.3182 231.781 97.7209 231.056C97.1342 230.32 96.8409 229.413 96.8409 228.336C96.8409 227.248 97.0969 226.315 97.6089 225.536ZM104.453 230.032C104.453 229.232 104.795 228.635 105.477 228.24C106.16 227.845 107.269 227.643 108.805 227.632V227.12C108.805 225.733 108.304 225.04 107.301 225.04C106.821 225.04 106.517 225.109 106.389 225.248C106.272 225.387 106.144 225.84 106.005 226.608L105.141 226.512C105.056 226.181 105.013 225.84 105.013 225.488C105.013 225.125 105.019 224.891 105.029 224.784C105.659 224.389 106.485 224.192 107.509 224.192C108.533 224.192 109.243 224.389 109.637 224.784C110.043 225.179 110.245 225.829 110.245 226.736V230.416C110.245 230.693 110.309 230.891 110.437 231.008C110.576 231.115 110.917 231.221 111.461 231.328L111.365 231.84L109.445 232.048C109.339 232.048 109.227 231.947 109.109 231.744C108.992 231.541 108.933 231.355 108.933 231.184C108.933 231.003 108.939 230.869 108.949 230.784L108.821 230.736L108.629 231.024C108.128 231.771 107.44 232.144 106.565 232.144C105.968 232.144 105.467 231.957 105.061 231.584C104.656 231.211 104.453 230.693 104.453 230.032ZM106.005 229.888C106.005 230.272 106.107 230.565 106.309 230.768C106.512 230.96 106.8 231.056 107.173 231.056C107.547 231.056 107.968 230.875 108.437 230.512C108.683 230.32 108.805 230.117 108.805 229.904V228.336C107.845 228.357 107.136 228.485 106.677 228.72C106.229 228.955 106.005 229.344 106.005 229.888ZM112.609 232L112.513 231.376C113.078 231.28 113.425 231.173 113.553 231.056C113.681 230.939 113.745 230.741 113.745 230.464V225.856C113.745 225.579 113.67 225.381 113.521 225.264C113.382 225.136 113.014 225.029 112.417 224.944L112.513 224.432L114.689 224.224C114.763 224.224 114.843 224.331 114.929 224.544C115.014 224.757 115.057 224.981 115.057 225.216C115.057 225.44 115.035 225.701 114.993 226L115.121 226.048L115.329 225.584C115.521 225.157 115.809 224.821 116.193 224.576C116.587 224.32 116.982 224.192 117.377 224.192C117.782 224.192 118.155 224.277 118.497 224.448C118.497 225.323 118.417 226.197 118.257 227.072L117.473 227.152C117.387 226.256 117.302 225.749 117.217 225.632C117.131 225.504 116.987 225.44 116.785 225.44C116.593 225.44 116.363 225.531 116.097 225.712C115.83 225.883 115.611 226.069 115.441 226.272C115.27 226.464 115.185 226.784 115.185 227.232V230.848C115.185 230.987 115.211 231.077 115.265 231.12C115.329 231.152 115.409 231.173 115.505 231.184L116.961 231.376L116.897 232H112.609ZM122.811 232.144C121.734 232.144 120.896 231.776 120.299 231.04C119.712 230.304 119.419 229.376 119.419 228.256C119.419 227.125 119.76 226.165 120.443 225.376C121.126 224.587 122.027 224.192 123.147 224.192C124.96 224.192 125.91 225.307 125.995 227.536L125.579 227.84L120.939 228.096C120.939 230.069 121.782 231.056 123.467 231.056C124.203 231.056 124.923 230.875 125.627 230.512L125.963 231.04C125.611 231.328 125.152 231.584 124.587 231.808C124.022 232.032 123.43 232.144 122.811 232.144ZM120.987 227.36L124.299 227.072C124.406 227.061 124.459 226.96 124.459 226.768C124.459 226.299 124.331 225.893 124.075 225.552C123.83 225.211 123.408 225.04 122.811 225.04C122.214 225.04 121.776 225.243 121.499 225.648C121.232 226.043 121.062 226.613 120.987 227.36ZM130.452 232.144C129.374 232.144 128.537 231.776 127.94 231.04C127.353 230.304 127.06 229.376 127.06 228.256C127.06 227.125 127.401 226.165 128.084 225.376C128.766 224.587 129.668 224.192 130.788 224.192C132.601 224.192 133.55 225.307 133.636 227.536L133.22 227.84L128.58 228.096C128.58 230.069 129.422 231.056 131.108 231.056C131.844 231.056 132.564 230.875 133.268 230.512L133.604 231.04C133.252 231.328 132.793 231.584 132.228 231.808C131.662 232.032 131.07 232.144 130.452 232.144ZM128.628 227.36L131.94 227.072C132.046 227.061 132.1 226.96 132.1 226.768C132.1 226.299 131.972 225.893 131.716 225.552C131.47 225.211 131.049 225.04 130.452 225.04C129.854 225.04 129.417 225.243 129.14 225.648C128.873 226.043 128.702 226.613 128.628 227.36ZM134.796 232L134.7 231.376C135.266 231.28 135.612 231.173 135.74 231.056C135.868 230.939 135.932 230.741 135.932 230.464V225.856C135.932 225.579 135.858 225.381 135.708 225.264C135.57 225.136 135.202 225.029 134.604 224.944L134.7 224.432L136.876 224.224C136.951 224.224 137.031 224.331 137.116 224.544C137.202 224.757 137.244 224.981 137.244 225.216C137.244 225.44 137.223 225.701 137.18 226L137.308 226.048L137.516 225.584C137.708 225.157 137.996 224.821 138.38 224.576C138.775 224.32 139.17 224.192 139.564 224.192C139.97 224.192 140.343 224.277 140.684 224.448C140.684 225.323 140.604 226.197 140.444 227.072L139.66 227.152C139.575 226.256 139.49 225.749 139.404 225.632C139.319 225.504 139.175 225.44 138.972 225.44C138.78 225.44 138.551 225.531 138.284 225.712C138.018 225.883 137.799 226.069 137.628 226.272C137.458 226.464 137.372 226.784 137.372 227.232V230.848C137.372 230.987 137.399 231.077 137.452 231.12C137.516 231.152 137.596 231.173 137.692 231.184L139.148 231.376L139.084 232H134.796ZM145.656 230.032C145.656 229.232 145.998 228.635 146.68 228.24C147.363 227.845 148.472 227.643 150.008 227.632V227.12C150.008 225.733 149.507 225.04 148.504 225.04C148.024 225.04 147.72 225.109 147.592 225.248C147.475 225.387 147.347 225.84 147.208 226.608L146.344 226.512C146.259 226.181 146.216 225.84 146.216 225.488C146.216 225.125 146.222 224.891 146.232 224.784C146.862 224.389 147.688 224.192 148.712 224.192C149.736 224.192 150.446 224.389 150.84 224.784C151.246 225.179 151.448 225.829 151.448 226.736V230.416C151.448 230.693 151.512 230.891 151.64 231.008C151.779 231.115 152.12 231.221 152.664 231.328L152.568 231.84L150.648 232.048C150.542 232.048 150.43 231.947 150.312 231.744C150.195 231.541 150.136 231.355 150.136 231.184C150.136 231.003 150.142 230.869 150.152 230.784L150.024 230.736L149.832 231.024C149.331 231.771 148.643 232.144 147.768 232.144C147.171 232.144 146.67 231.957 146.264 231.584C145.859 231.211 145.656 230.693 145.656 230.032ZM147.208 229.888C147.208 230.272 147.31 230.565 147.512 230.768C147.715 230.96 148.003 231.056 148.376 231.056C148.75 231.056 149.171 230.875 149.64 230.512C149.886 230.32 150.008 230.117 150.008 229.904V228.336C149.048 228.357 148.339 228.485 147.88 228.72C147.432 228.955 147.208 229.344 147.208 229.888ZM153.924 232L153.828 231.376C154.351 231.269 154.665 231.163 154.772 231.056C154.889 230.939 154.948 230.741 154.948 230.464V225.856C154.948 225.579 154.879 225.387 154.74 225.28C154.612 225.163 154.276 225.051 153.732 224.944L153.828 224.432L155.892 224.224C155.967 224.224 156.041 224.373 156.116 224.672C156.201 224.971 156.244 225.232 156.244 225.456V225.552L156.372 225.6L156.564 225.376C157.236 224.587 158.057 224.192 159.028 224.192C159.711 224.192 160.249 224.4 160.644 224.816C161.039 225.221 161.236 225.792 161.236 226.528V230.848C161.236 230.976 161.263 231.061 161.316 231.104C161.38 231.136 161.46 231.163 161.556 231.184L162.34 231.376L162.276 232H158.852L158.756 231.376C159.236 231.28 159.529 231.173 159.636 231.056C159.743 230.939 159.796 230.741 159.796 230.464V227.008C159.796 226.507 159.705 226.107 159.524 225.808C159.343 225.499 158.985 225.344 158.452 225.344C157.929 225.344 157.359 225.552 156.74 225.968C156.644 226.032 156.575 226.08 156.532 226.112C156.436 226.219 156.388 226.416 156.388 226.704V230.832C156.388 230.949 156.404 231.029 156.436 231.072C156.479 231.115 156.569 231.152 156.708 231.184L157.412 231.376L157.348 232H153.924ZM168.463 230.944C167.844 231.744 167.103 232.144 166.239 232.144C165.375 232.144 164.666 231.803 164.111 231.12C163.556 230.427 163.279 229.483 163.279 228.288C163.279 227.093 163.594 226.112 164.223 225.344C164.852 224.576 165.732 224.192 166.863 224.192C167.642 224.192 168.218 224.331 168.591 224.608L168.703 224.56C168.66 224.389 168.639 224.155 168.639 223.856V221.168C168.639 220.944 168.527 220.779 168.303 220.672C168.09 220.555 167.7 220.459 167.135 220.384L167.231 219.872C168.372 219.723 169.263 219.648 169.903 219.648L170.079 219.808V230.432C170.079 230.709 170.143 230.907 170.271 231.024C170.41 231.131 170.751 231.237 171.295 231.344L171.199 231.856L169.279 232.064C169.172 232.064 169.055 231.957 168.927 231.744C168.799 231.531 168.735 231.339 168.735 231.168C168.735 230.997 168.74 230.869 168.751 230.784L168.623 230.736L168.463 230.944ZM164.831 227.904C164.831 228.96 164.996 229.739 165.327 230.24C165.668 230.741 166.095 230.992 166.607 230.992C167.119 230.992 167.652 230.811 168.207 230.448C168.495 230.256 168.639 230.011 168.639 229.712V225.888C168.202 225.365 167.519 225.104 166.591 225.104C166.132 225.104 165.77 225.253 165.503 225.552C165.055 226.053 164.831 226.837 164.831 227.904ZM15.672 249.032C15.672 248.232 16.0133 247.635 16.696 247.24C17.3787 246.845 18.488 246.643 20.024 246.632V246.12C20.024 244.733 19.5227 244.04 18.52 244.04C18.04 244.04 17.736 244.109 17.608 244.248C17.4907 244.387 17.3627 244.84 17.224 245.608L16.36 245.512C16.2747 245.181 16.232 244.84 16.232 244.488C16.232 244.125 16.2373 243.891 16.248 243.784C16.8773 243.389 17.704 243.192 18.728 243.192C19.752 243.192 20.4613 243.389 20.856 243.784C21.2613 244.179 21.464 244.829 21.464 245.736V249.416C21.464 249.693 21.528 249.891 21.656 250.008C21.7947 250.115 22.136 250.221 22.68 250.328L22.584 250.84L20.664 251.048C20.5573 251.048 20.4453 250.947 20.328 250.744C20.2107 250.541 20.152 250.355 20.152 250.184C20.152 250.003 20.1573 249.869 20.168 249.784L20.04 249.736L19.848 250.024C19.3467 250.771 18.6587 251.144 17.784 251.144C17.1867 251.144 16.6853 250.957 16.28 250.584C15.8747 250.211 15.672 249.693 15.672 249.032ZM17.224 248.888C17.224 249.272 17.3253 249.565 17.528 249.768C17.7307 249.96 18.0187 250.056 18.392 250.056C18.7653 250.056 19.1867 249.875 19.656 249.512C19.9013 249.32 20.024 249.117 20.024 248.904V247.336C19.064 247.357 18.3547 247.485 17.896 247.72C17.448 247.955 17.224 248.344 17.224 248.888ZM28.9475 249.944C28.3288 250.744 27.5875 251.144 26.7235 251.144C25.8595 251.144 25.1502 250.803 24.5955 250.12C24.0408 249.427 23.7635 248.483 23.7635 247.288C23.7635 246.093 24.0782 245.112 24.7075 244.344C25.3368 243.576 26.2168 243.192 27.3475 243.192C28.1262 243.192 28.7022 243.331 29.0755 243.608L29.1875 243.56C29.1448 243.389 29.1235 243.155 29.1235 242.856V240.168C29.1235 239.944 29.0115 239.779 28.7875 239.672C28.5742 239.555 28.1848 239.459 27.6195 239.384L27.7155 238.872C28.8568 238.723 29.7475 238.648 30.3875 238.648L30.5635 238.808V249.432C30.5635 249.709 30.6275 249.907 30.7555 250.024C30.8942 250.131 31.2355 250.237 31.7795 250.344L31.6835 250.856L29.7635 251.064C29.6568 251.064 29.5395 250.957 29.4115 250.744C29.2835 250.531 29.2195 250.339 29.2195 250.168C29.2195 249.997 29.2248 249.869 29.2355 249.784L29.1075 249.736L28.9475 249.944ZM25.3155 246.904C25.3155 247.96 25.4808 248.739 25.8115 249.24C26.1528 249.741 26.5795 249.992 27.0915 249.992C27.6035 249.992 28.1368 249.811 28.6915 249.448C28.9795 249.256 29.1235 249.011 29.1235 248.712V244.888C28.6862 244.365 28.0035 244.104 27.0755 244.104C26.6168 244.104 26.2542 244.253 25.9875 244.552C25.5395 245.053 25.3155 245.837 25.3155 246.904ZM35.6729 251.144L33.1449 244.632C33.0702 244.429 32.9955 244.301 32.9209 244.248C32.8462 244.195 32.6382 244.131 32.2969 244.056L32.3929 243.432H35.6889L35.7529 244.056L34.7769 244.296C34.7022 244.307 34.6649 244.349 34.6649 244.424C34.6649 244.435 34.6862 244.504 34.7289 244.632L36.1689 248.664C36.2969 249.037 36.3609 249.331 36.3609 249.544H36.4889L38.2649 245C38.3289 244.829 38.3609 244.691 38.3609 244.584C38.3609 244.467 38.2809 244.371 38.1209 244.296C37.9715 244.221 37.6995 244.141 37.3049 244.056L37.4009 243.432H40.2489L40.3129 244.056C39.9715 244.141 39.7635 244.2 39.6889 244.232C39.6142 244.253 39.5715 244.285 39.5609 244.328L36.7129 251.144H35.6729ZM44.3304 251.144C43.1784 251.144 42.293 250.803 41.6744 250.12C41.0557 249.437 40.7464 248.483 40.7464 247.256C40.7464 246.029 41.0717 245.048 41.7224 244.312C42.3837 243.565 43.2904 243.192 44.4424 243.192C45.605 243.192 46.4957 243.539 47.1144 244.232C47.733 244.915 48.0424 245.869 48.0424 247.096C48.0424 248.323 47.7117 249.304 47.0504 250.04C46.3997 250.776 45.493 251.144 44.3304 251.144ZM42.2984 247.048C42.2984 247.997 42.4904 248.776 42.8744 249.384C43.2584 249.992 43.781 250.296 44.4424 250.296C45.1037 250.296 45.573 250.136 45.8504 249.816C46.0424 249.603 46.197 249.267 46.3144 248.808C46.4317 248.339 46.4904 247.832 46.4904 247.288C46.4904 246.339 46.2984 245.56 45.9144 244.952C45.5304 244.344 45.0077 244.04 44.3464 244.04C43.685 244.04 43.2157 244.2 42.9384 244.52C42.7464 244.733 42.5917 245.075 42.4744 245.544C42.357 246.003 42.2984 246.504 42.2984 247.048ZM49.8589 244.536C50.1255 244.12 50.5149 243.795 51.0269 243.56C51.5495 243.315 52.1895 243.192 52.9469 243.192C53.7149 243.192 54.4722 243.341 55.2189 243.64C55.2295 243.725 55.2349 244.003 55.2349 244.472C55.2349 244.931 55.1709 245.384 55.0429 245.832L54.1469 245.928C53.9762 244.851 53.8162 244.28 53.6669 244.216C53.4429 244.12 53.0429 244.072 52.4669 244.072C51.8909 244.072 51.4695 244.269 51.2029 244.664C50.8295 245.229 50.6429 246.035 50.6429 247.08C50.6429 248.115 50.8669 248.872 51.3149 249.352C51.7735 249.821 52.3655 250.056 53.0909 250.056C53.8269 250.056 54.5362 249.821 55.2189 249.352L55.6669 249.88C54.8029 250.723 53.7842 251.144 52.6109 251.144C51.4482 251.144 50.5682 250.781 49.9709 250.056C49.3842 249.32 49.0909 248.413 49.0909 247.336C49.0909 246.248 49.3469 245.315 49.8589 244.536ZM56.7033 249.032C56.7033 248.232 57.0446 247.635 57.7273 247.24C58.4099 246.845 59.5193 246.643 61.0553 246.632V246.12C61.0553 244.733 60.5539 244.04 59.5513 244.04C59.0713 244.04 58.7673 244.109 58.6393 244.248C58.5219 244.387 58.3939 244.84 58.2553 245.608L57.3913 245.512C57.3059 245.181 57.2633 244.84 57.2633 244.488C57.2633 244.125 57.2686 243.891 57.2793 243.784C57.9086 243.389 58.7353 243.192 59.7593 243.192C60.7833 243.192 61.4926 243.389 61.8873 243.784C62.2926 244.179 62.4953 244.829 62.4953 245.736V249.416C62.4953 249.693 62.5593 249.891 62.6873 250.008C62.8259 250.115 63.1673 250.221 63.7113 250.328L63.6153 250.84L61.6953 251.048C61.5886 251.048 61.4766 250.947 61.3593 250.744C61.2419 250.541 61.1833 250.355 61.1833 250.184C61.1833 250.003 61.1886 249.869 61.1993 249.784L61.0713 249.736L60.8793 250.024C60.3779 250.771 59.6899 251.144 58.8153 251.144C58.2179 251.144 57.7166 250.957 57.3113 250.584C56.9059 250.211 56.7033 249.693 56.7033 249.032ZM58.2553 248.888C58.2553 249.272 58.3566 249.565 58.5593 249.768C58.7619 249.96 59.0499 250.056 59.4233 250.056C59.7966 250.056 60.2179 249.875 60.6873 249.512C60.9326 249.32 61.0553 249.117 61.0553 248.904V247.336C60.0953 247.357 59.3859 247.485 58.9273 247.72C58.4793 247.955 58.2553 248.344 58.2553 248.888ZM65.5308 244.536C65.7974 244.12 66.1868 243.795 66.6988 243.56C67.2214 243.315 67.8614 243.192 68.6188 243.192C69.3868 243.192 70.1441 243.341 70.8908 243.64C70.9014 243.725 70.9068 244.003 70.9068 244.472C70.9068 244.931 70.8428 245.384 70.7148 245.832L69.8188 245.928C69.6481 244.851 69.4881 244.28 69.3388 244.216C69.1148 244.12 68.7148 244.072 68.1388 244.072C67.5628 244.072 67.1414 244.269 66.8748 244.664C66.5014 245.229 66.3148 246.035 66.3148 247.08C66.3148 248.115 66.5388 248.872 66.9868 249.352C67.4454 249.821 68.0374 250.056 68.7628 250.056C69.4988 250.056 70.2081 249.821 70.8908 249.352L71.3388 249.88C70.4748 250.723 69.4561 251.144 68.2828 251.144C67.1201 251.144 66.2401 250.781 65.6428 250.056C65.0561 249.32 64.7628 248.413 64.7628 247.336C64.7628 246.248 65.0188 245.315 65.5308 244.536ZM72.1671 252.872C72.4231 252.904 72.7751 252.92 73.2231 252.92C73.6818 252.92 74.0445 252.861 74.3111 252.744C74.5778 252.637 74.8978 252.056 75.2711 251L72.6151 244.632C72.5298 244.429 72.4498 244.301 72.3751 244.248C72.3111 244.195 72.1085 244.131 71.7671 244.056L71.8631 243.432H75.1591L75.2231 244.056L74.2471 244.296C74.1725 244.307 74.1351 244.349 74.1351 244.424C74.1351 244.435 74.1565 244.504 74.1991 244.632L75.8311 248.904C75.8845 249.053 75.9111 249.219 75.9111 249.4H76.0391L77.7351 245C77.7991 244.829 77.8311 244.691 77.8311 244.584C77.8311 244.467 77.7511 244.371 77.5911 244.296C77.4418 244.221 77.1698 244.141 76.7751 244.056L76.8711 243.432H79.7191L79.7831 244.056C79.3138 244.163 79.0631 244.253 79.0311 244.328L76.5031 250.6C76.2898 251.133 76.1191 251.539 75.9911 251.816C75.8631 252.104 75.6871 252.424 75.4631 252.776C75.2391 253.128 75.0045 253.4 74.7591 253.592C74.1511 254.051 73.4151 254.355 72.5511 254.504C72.2738 254.227 72.1351 253.789 72.1351 253.192C72.1351 253.128 72.1458 253.021 72.1671 252.872ZM87.561 251.144C86.4837 251.144 85.6463 250.776 85.049 250.04C84.4623 249.304 84.169 248.376 84.169 247.256C84.169 246.125 84.5103 245.165 85.193 244.376C85.8757 243.587 86.777 243.192 87.897 243.192C89.7103 243.192 90.6597 244.307 90.745 246.536L90.329 246.84L85.689 247.096C85.689 249.069 86.5317 250.056 88.217 250.056C88.953 250.056 89.673 249.875 90.377 249.512L90.713 250.04C90.361 250.328 89.9023 250.584 89.337 250.808C88.7717 251.032 88.1797 251.144 87.561 251.144ZM85.737 246.36L89.049 246.072C89.1557 246.061 89.209 245.96 89.209 245.768C89.209 245.299 89.081 244.893 88.825 244.552C88.5797 244.211 88.1583 244.04 87.561 244.04C86.9637 244.04 86.5263 244.243 86.249 244.648C85.9823 245.043 85.8117 245.613 85.737 246.36ZM99.9216 244.536V249.848C99.9216 249.976 99.9483 250.061 100.002 250.104C100.055 250.136 100.135 250.163 100.242 250.184L101.026 250.376L100.962 251H97.4576L97.3616 250.376C97.8843 250.269 98.199 250.163 98.3056 250.056C98.423 249.939 98.4816 249.741 98.4816 249.464V244.44C96.5403 244.44 95.2283 244.472 94.5456 244.536V249.848C94.5456 249.955 94.567 250.035 94.6096 250.088C94.6523 250.131 94.7483 250.163 94.8976 250.184L95.9376 250.376L95.8736 251H92.0816L91.9856 250.376C92.5083 250.269 92.823 250.163 92.9296 250.056C93.047 249.939 93.1056 249.741 93.1056 249.464V244.52H92.0656L92.0016 243.832L92.7856 243.64C92.9243 243.608 93.015 243.549 93.0576 243.464C93.1003 243.379 93.127 243.229 93.1376 243.016C93.159 242.803 93.191 242.568 93.2336 242.312C93.2763 242.056 93.367 241.725 93.5056 241.32C93.655 240.904 93.8363 240.547 94.0496 240.248C94.263 239.949 94.5616 239.688 94.9456 239.464C95.3296 239.24 95.783 239.128 96.3056 239.128C96.839 239.128 97.415 239.245 98.0336 239.48C98.0336 240.141 97.959 240.733 97.8096 241.256L97.0256 241.352C96.8656 240.605 96.7376 240.205 96.6416 240.152C96.5243 240.035 96.3056 239.976 95.9856 239.976C95.4843 239.976 95.1163 240.312 94.8816 240.984C94.6576 241.645 94.5456 242.499 94.5456 243.544H98.0016C98.2043 243.544 98.3376 243.496 98.4016 243.4C98.4656 243.304 98.503 243.165 98.5136 242.984C98.5243 242.803 98.535 242.643 98.5456 242.504C98.567 242.355 98.6043 242.12 98.6576 241.8C98.711 241.48 98.775 241.197 98.8496 240.952C98.935 240.707 99.0576 240.435 99.2176 240.136C99.3776 239.827 99.559 239.571 99.7616 239.368C100.242 238.888 100.807 238.648 101.458 238.648C102.119 238.648 102.77 238.771 103.41 239.016C103.41 239.827 103.34 240.472 103.202 240.952L102.354 241.032C102.183 240.168 102.055 239.709 101.97 239.656C101.799 239.549 101.575 239.496 101.298 239.496C100.38 239.496 99.9216 240.845 99.9216 243.544H101.81L101.682 244.296L99.9216 244.536ZM106.33 251.144C105.178 251.144 104.293 250.803 103.674 250.12C103.056 249.437 102.746 248.483 102.746 247.256C102.746 246.029 103.072 245.048 103.722 244.312C104.384 243.565 105.29 243.192 106.442 243.192C107.605 243.192 108.496 243.539 109.114 244.232C109.733 244.915 110.042 245.869 110.042 247.096C110.042 248.323 109.712 249.304 109.05 250.04C108.4 250.776 107.493 251.144 106.33 251.144ZM104.298 247.048C104.298 247.997 104.49 248.776 104.874 249.384C105.258 249.992 105.781 250.296 106.442 250.296C107.104 250.296 107.573 250.136 107.85 249.816C108.042 249.603 108.197 249.267 108.314 248.808C108.432 248.339 108.49 247.832 108.49 247.288C108.49 246.339 108.298 245.56 107.914 244.952C107.53 244.344 107.008 244.04 106.346 244.04C105.685 244.04 105.216 244.2 104.938 244.52C104.746 244.733 104.592 245.075 104.474 245.544C104.357 246.003 104.298 246.504 104.298 247.048ZM111.187 251L111.091 250.376C111.656 250.28 112.003 250.173 112.131 250.056C112.259 249.939 112.323 249.741 112.323 249.464V244.856C112.323 244.579 112.248 244.381 112.099 244.264C111.96 244.136 111.592 244.029 110.995 243.944L111.091 243.432L113.267 243.224C113.342 243.224 113.422 243.331 113.507 243.544C113.592 243.757 113.635 243.981 113.635 244.216C113.635 244.44 113.614 244.701 113.571 245L113.699 245.048L113.907 244.584C114.099 244.157 114.387 243.821 114.771 243.576C115.166 243.32 115.56 243.192 115.955 243.192C116.36 243.192 116.734 243.277 117.075 243.448C117.075 244.323 116.995 245.197 116.835 246.072L116.051 246.152C115.966 245.256 115.88 244.749 115.795 244.632C115.71 244.504 115.566 244.44 115.363 244.44C115.171 244.44 114.942 244.531 114.675 244.712C114.408 244.883 114.19 245.069 114.019 245.272C113.848 245.464 113.763 245.784 113.763 246.232V249.848C113.763 249.987 113.79 250.077 113.843 250.12C113.907 250.152 113.987 250.173 114.083 250.184L115.539 250.376L115.475 251H111.187ZM118.813 248.808V244.408H117.773L117.709 243.72L118.493 243.528C118.696 243.475 118.829 243.357 118.893 243.176C118.968 242.984 119.096 242.387 119.277 241.384L120.253 241.288V243.432H122.477L122.349 244.184L120.253 244.424V248.328C120.253 249.437 120.594 249.992 121.277 249.992C121.661 249.992 122.066 249.832 122.493 249.512L122.829 249.976C122.253 250.755 121.549 251.144 120.717 251.144C120.12 251.144 119.65 250.936 119.309 250.52C118.978 250.104 118.813 249.533 118.813 248.808ZM126.631 244.04C125.692 244.04 125.223 244.36 125.223 245C125.223 245.256 125.287 245.448 125.415 245.576C125.543 245.693 125.634 245.784 125.687 245.848C125.751 245.901 125.868 245.971 126.039 246.056C126.21 246.141 126.327 246.205 126.391 246.248C126.466 246.28 126.61 246.339 126.823 246.424C127.719 246.797 128.348 247.149 128.711 247.48C129.074 247.811 129.255 248.28 129.255 248.888C129.255 249.496 128.983 250.024 128.439 250.472C127.906 250.92 127.17 251.144 126.231 251.144C125.815 251.144 125.383 251.101 124.935 251.016C124.487 250.931 124.162 250.845 123.959 250.76C123.938 250.621 123.927 250.339 123.927 249.912C123.927 249.485 123.975 249.021 124.071 248.52L124.903 248.456C124.978 249.139 125.031 249.56 125.063 249.72C125.106 249.869 125.164 249.965 125.239 250.008C125.58 250.2 126.028 250.296 126.583 250.296C127.447 250.296 127.879 249.949 127.879 249.256C127.879 248.925 127.751 248.653 127.495 248.44C127.207 248.205 126.876 248.008 126.503 247.848C125.522 247.443 124.85 247.075 124.487 246.744C124.135 246.403 123.959 245.933 123.959 245.336C123.959 244.739 124.231 244.232 124.775 243.816C125.319 243.4 125.975 243.192 126.743 243.192C127.511 243.192 128.215 243.325 128.855 243.592C128.866 243.677 128.871 243.917 128.871 244.312C128.871 244.707 128.802 245.123 128.663 245.56L127.927 245.64C127.852 244.808 127.73 244.333 127.559 244.216C127.399 244.099 127.09 244.04 126.631 244.04ZM133.023 250.152C133.023 250.429 132.933 250.664 132.751 250.856C132.57 251.048 132.335 251.144 132.047 251.144C131.759 251.144 131.525 251.064 131.343 250.904C131.162 250.733 131.071 250.504 131.071 250.216C131.071 249.917 131.157 249.672 131.327 249.48C131.509 249.288 131.743 249.192 132.031 249.192C132.693 249.192 133.023 249.512 133.023 250.152Z" fill="white"/>
<path d="M54.6027 30.8C54.6027 30.2232 54.8318 29.6699 55.2397 29.262C55.6476 28.8542 56.2008 28.625 56.7777 28.625H64.0277C64.6045 28.625 65.1578 28.8542 65.5656 29.262C65.9735 29.6699 66.2027 30.2232 66.2027 30.8V38.05C66.2027 38.6268 65.9735 39.1801 65.5656 39.588C65.1578 39.9959 64.6045 40.225 64.0277 40.225C63.4508 40.225 62.8976 39.9959 62.4897 39.588C62.0818 39.1801 61.8527 38.6268 61.8527 38.05V36.049L48.8897 49.012C48.4819 49.4193 47.9291 49.6481 47.3527 49.6481C46.7763 49.6481 46.2235 49.4193 45.8157 49.012L38.6527 41.849L26.4147 54.087C26.2156 54.3007 25.9755 54.4721 25.7087 54.591C25.4419 54.7098 25.1538 54.7738 24.8618 54.7789C24.5698 54.7841 24.2797 54.7303 24.0089 54.621C23.738 54.5116 23.492 54.3487 23.2855 54.1422C23.0789 53.9357 22.9161 53.6897 22.8067 53.4188C22.6973 53.148 22.6436 52.8579 22.6488 52.5659C22.6539 52.2739 22.7179 51.9858 22.8367 51.719C22.9556 51.4522 23.127 51.2121 23.3407 51.013L37.1157 37.238C37.5235 36.8307 38.0763 36.6019 38.6527 36.6019C39.2291 36.6019 39.7819 36.8307 40.1897 37.238L47.3527 44.401L58.7787 32.975H56.7777C56.2008 32.975 55.6476 32.7458 55.2397 32.338C54.8318 31.9301 54.6027 31.3768 54.6027 30.8ZM24.8777 63.425C25.4545 63.425 26.0078 63.6542 26.4156 64.062C26.8235 64.4699 27.0527 65.0232 27.0527 65.6V72.85C27.0527 73.4269 26.8235 73.9801 26.4156 74.388C26.0078 74.7959 25.4545 75.025 24.8777 75.025C24.3008 75.025 23.7476 74.7959 23.3397 74.388C22.9318 73.9801 22.7027 73.4269 22.7027 72.85V65.6C22.7027 65.0232 22.9318 64.4699 23.3397 64.062C23.7476 63.6542 24.3008 63.425 24.8777 63.425ZM38.6527 56.9C38.6527 56.3232 38.4235 55.7699 38.0156 55.362C37.6078 54.9542 37.0545 54.725 36.4777 54.725C35.9008 54.725 35.3476 54.9542 34.9397 55.362C34.5318 55.7699 34.3027 56.3232 34.3027 56.9V72.85C34.3027 73.4269 34.5318 73.9801 34.9397 74.388C35.3476 74.7959 35.9008 75.025 36.4777 75.025C37.0545 75.025 37.6078 74.7959 38.0156 74.388C38.4235 73.9801 38.6527 73.4269 38.6527 72.85V56.9ZM48.0777 60.525C48.6545 60.525 49.2078 60.7542 49.6156 61.162C50.0235 61.5699 50.2527 62.1232 50.2527 62.7V72.85C50.2527 73.4269 50.0235 73.9801 49.6156 74.388C49.2078 74.7959 48.6545 75.025 48.0777 75.025C47.5008 75.025 46.9476 74.7959 46.5397 74.388C46.1318 73.9801 45.9027 73.4269 45.9027 72.85V62.7C45.9027 62.1232 46.1318 61.5699 46.5397 61.162C46.9476 60.7542 47.5008 60.525 48.0777 60.525ZM61.8527 51.1C61.8527 50.5232 61.6235 49.9699 61.2156 49.562C60.8078 49.1542 60.2545 48.925 59.6777 48.925C59.1008 48.925 58.5476 49.1542 58.1397 49.562C57.7318 49.9699 57.5027 50.5232 57.5027 51.1V72.85C57.5027 73.4269 57.7318 73.9801 58.1397 74.388C58.5476 74.7959 59.1008 75.025 59.6777 75.025C60.2545 75.025 60.8078 74.7959 61.2156 74.388C61.6235 73.9801 61.8527 73.4269 61.8527 72.85V51.1Z" fill="white"/>
</svg>
