<svg width="252" height="311" viewBox="0 0 252 311" fill="none" xmlns="http://www.w3.org/2000/svg">
<rect y="36" width="252" height="275" rx="20" fill="#F9C22E"/>
<path d="M31.112 141.92L30.024 140.544L35.368 123.936C35.368 123.808 35.272 123.701 35.08 123.616C34.9093 123.531 34.6747 123.467 34.376 123.424C34.0987 123.381 33.8107 123.36 33.512 123.36H33.064V121.28H39.688V123.36H39.528C39.0587 123.36 38.696 123.456 38.44 123.648C38.184 123.819 37.96 124.192 37.768 124.768L31.528 144H25.576L19.144 124.256C19.016 123.872 18.8133 123.627 18.536 123.52C18.2587 123.413 17.896 123.36 17.448 123.36H17.288V121.28H27.688V123.36H27.176C26.8987 123.36 26.6107 123.371 26.312 123.392C26.0133 123.413 25.768 123.445 25.576 123.488C25.384 123.531 25.288 123.595 25.288 123.68L31.112 141.92ZM57.5855 135.808C57.5855 137.472 57.2015 138.955 56.4335 140.256C55.6868 141.536 54.6095 142.539 53.2015 143.264C51.8148 143.968 50.1722 144.32 48.2735 144.32C46.3748 144.32 44.7215 143.968 43.3135 143.264C41.9268 142.539 40.8495 141.536 40.0815 140.256C39.3348 138.955 38.9615 137.472 38.9615 135.808C38.9615 134.528 39.1748 133.376 39.6015 132.352C40.0282 131.307 40.6468 130.411 41.4575 129.664C42.2895 128.896 43.2708 128.309 44.4015 127.904C45.5535 127.477 46.8442 127.264 48.2735 127.264C49.7028 127.264 50.9828 127.477 52.1135 127.904C53.2655 128.309 54.2468 128.896 55.0575 129.664C55.8895 130.411 56.5188 131.307 56.9455 132.352C57.3722 133.376 57.5855 134.528 57.5855 135.808ZM44.9455 135.808C44.9455 137.131 45.0735 138.251 45.3295 139.168C45.6068 140.085 45.9908 140.779 46.4815 141.248C46.9722 141.717 47.5695 141.952 48.2735 141.952C48.9775 141.952 49.5748 141.717 50.0655 141.248C50.5562 140.779 50.9295 140.085 51.1855 139.168C51.4415 138.251 51.5695 137.131 51.5695 135.808C51.5695 134.443 51.4415 133.312 51.1855 132.416C50.9295 131.52 50.5562 130.848 50.0655 130.4C49.5748 129.952 48.9775 129.728 48.2735 129.728C47.5695 129.728 46.9722 129.952 46.4815 130.4C45.9908 130.848 45.6068 131.52 45.3295 132.416C45.0735 133.312 44.9455 134.443 44.9455 135.808ZM66.945 120.448V141.088C66.945 141.472 67.105 141.728 67.425 141.856C67.745 141.984 68.1397 142.048 68.609 142.048H68.641V144H59.361V142.048H59.393C59.8837 142.048 60.289 141.984 60.609 141.856C60.929 141.728 61.089 141.472 61.089 141.088V123.584C61.089 123.371 61.0357 123.2 60.929 123.072C60.8437 122.944 60.6943 122.837 60.481 122.752C60.2677 122.667 59.9903 122.592 59.649 122.528L59.361 122.464V120.448H66.945ZM77.189 127.584V138.784C77.189 139.339 77.2423 139.797 77.349 140.16C77.477 140.501 77.669 140.757 77.925 140.928C78.181 141.099 78.5223 141.184 78.949 141.184C79.4183 141.184 79.8663 141.056 80.293 140.8C80.7197 140.544 81.1357 140.149 81.541 139.616C81.9463 139.061 82.341 138.347 82.725 137.472L82.789 140.384C82.3623 141.259 81.8397 141.984 81.221 142.56C80.6237 143.136 79.9517 143.573 79.205 143.872C78.4583 144.171 77.637 144.32 76.741 144.32C75.653 144.32 74.7037 144.117 73.893 143.712C73.0823 143.285 72.453 142.667 72.005 141.856C71.5783 141.024 71.365 140 71.365 138.784V130.752C71.365 130.411 71.2477 130.176 71.013 130.048C70.7783 129.92 70.405 129.803 69.893 129.696L69.605 129.632V127.584H77.189ZM87.909 127.584V140.992C87.909 141.205 87.973 141.376 88.101 141.504C88.229 141.632 88.4103 141.728 88.645 141.792C88.8797 141.856 89.157 141.909 89.477 141.952L89.669 141.984V144H82.469V140.32L82.085 140.448V130.752C82.085 130.411 81.925 130.176 81.605 130.048C81.285 129.899 80.869 129.781 80.357 129.696L79.877 129.632V127.584H87.909ZM90.9563 144V142.048H90.9883C91.3083 142.048 91.5963 142.027 91.8523 141.984C92.1083 141.92 92.3003 141.824 92.4283 141.696C92.5776 141.547 92.6523 141.344 92.6523 141.088V130.752C92.6523 130.517 92.5989 130.347 92.4923 130.24C92.4069 130.112 92.2576 130.016 92.0443 129.952C91.8309 129.867 91.5536 129.781 91.2122 129.696L90.9563 129.632V127.584H98.1243V131.136H98.5083V141.76C98.5083 141.824 98.5829 141.877 98.7323 141.92C98.9029 141.963 99.0949 141.995 99.3083 142.016C99.5429 142.037 99.7563 142.048 99.9483 142.048H100.044V144H90.9563ZM111.084 144H101.996V142.048H102.028C102.22 142.048 102.434 142.048 102.668 142.048C102.903 142.027 103.106 141.995 103.276 141.952C103.447 141.888 103.532 141.824 103.532 141.76V132.736C103.532 132.203 103.468 131.765 103.34 131.424C103.212 131.083 103.02 130.827 102.764 130.656C102.508 130.485 102.167 130.4 101.74 130.4C101.228 130.4 100.748 130.549 100.3 130.848C99.8523 131.125 99.4256 131.541 99.0203 132.096C98.6149 132.651 98.2309 133.344 97.8683 134.176L97.8043 131.232C98.2309 130.4 98.7323 129.696 99.3083 129.12C99.9056 128.523 100.588 128.064 101.356 127.744C102.146 127.424 103.01 127.264 103.948 127.264C105.036 127.264 105.986 127.477 106.796 127.904C107.607 128.309 108.236 128.928 108.684 129.76C109.132 130.571 109.356 131.584 109.356 132.8V141.088C109.356 141.344 109.431 141.547 109.58 141.696C109.73 141.824 109.922 141.92 110.156 141.984C110.412 142.027 110.7 142.048 111.02 142.048H111.084V144ZM111.722 129.856V127.744H111.818C112.287 127.744 112.692 127.712 113.034 127.648C113.375 127.563 113.642 127.424 113.834 127.232C114.026 127.019 114.122 126.731 114.122 126.368L117.322 127.584H123.85V129.856H111.722ZM119.722 138.4C119.722 139.232 119.807 139.893 119.978 140.384C120.17 140.853 120.436 141.195 120.778 141.408C121.119 141.6 121.535 141.696 122.026 141.696C122.431 141.696 122.815 141.653 123.178 141.568C123.54 141.461 123.818 141.387 124.01 141.344V143.744C123.839 143.829 123.583 143.915 123.242 144C122.9 144.085 122.506 144.16 122.058 144.224C121.61 144.288 121.098 144.32 120.522 144.32C119.263 144.32 118.132 144.139 117.13 143.776C116.127 143.413 115.327 142.805 114.73 141.952C114.154 141.099 113.866 139.936 113.866 138.464V128.192L114.122 127.936L114.154 123.136H119.722V138.4ZM131.005 135.872C131.005 136.832 131.09 137.685 131.261 138.432C131.432 139.157 131.698 139.776 132.061 140.288C132.424 140.779 132.872 141.152 133.405 141.408C133.96 141.643 134.6 141.76 135.325 141.76C136.093 141.76 136.754 141.621 137.309 141.344C137.864 141.045 138.344 140.661 138.749 140.192C139.154 139.723 139.485 139.253 139.741 138.784L141.725 140.192C141.32 141.003 140.786 141.717 140.125 142.336C139.464 142.955 138.664 143.445 137.725 143.808C136.808 144.149 135.709 144.32 134.429 144.32C132.573 144.32 130.941 143.979 129.533 143.296C128.146 142.613 127.069 141.643 126.301 140.384C125.533 139.104 125.149 137.589 125.149 135.84C125.149 134.133 125.522 132.64 126.269 131.36C127.037 130.059 128.072 129.056 129.373 128.352C130.696 127.627 132.189 127.264 133.853 127.264C135.197 127.264 136.37 127.467 137.373 127.872C138.397 128.256 139.25 128.843 139.933 129.632C140.616 130.421 141.138 131.403 141.501 132.576C141.864 133.749 142.045 135.125 142.045 136.704H130.237L130.205 134.432H137.309L136.605 135.36C136.584 134.272 136.52 133.365 136.413 132.64C136.306 131.915 136.146 131.339 135.933 130.912C135.72 130.485 135.453 130.187 135.133 130.016C134.813 129.824 134.429 129.728 133.981 129.728C133.533 129.728 133.128 129.845 132.765 130.08C132.402 130.315 132.093 130.677 131.837 131.168C131.581 131.659 131.378 132.299 131.229 133.088C131.08 133.856 131.005 134.784 131.005 135.872ZM149.849 135.872C149.849 136.832 149.934 137.685 150.105 138.432C150.275 139.157 150.542 139.776 150.905 140.288C151.267 140.779 151.715 141.152 152.249 141.408C152.803 141.643 153.443 141.76 154.169 141.76C154.937 141.76 155.598 141.621 156.153 141.344C156.707 141.045 157.187 140.661 157.593 140.192C157.998 139.723 158.329 139.253 158.585 138.784L160.569 140.192C160.163 141.003 159.63 141.717 158.969 142.336C158.307 142.955 157.507 143.445 156.569 143.808C155.651 144.149 154.553 144.32 153.273 144.32C151.417 144.32 149.785 143.979 148.377 143.296C146.99 142.613 145.913 141.643 145.145 140.384C144.377 139.104 143.993 137.589 143.993 135.84C143.993 134.133 144.366 132.64 145.113 131.36C145.881 130.059 146.915 129.056 148.217 128.352C149.539 127.627 151.033 127.264 152.697 127.264C154.041 127.264 155.214 127.467 156.217 127.872C157.241 128.256 158.094 128.843 158.777 129.632C159.459 130.421 159.982 131.403 160.345 132.576C160.707 133.749 160.889 135.125 160.889 136.704H149.081L149.049 134.432H156.153L155.449 135.36C155.427 134.272 155.363 133.365 155.257 132.64C155.15 131.915 154.99 131.339 154.777 130.912C154.563 130.485 154.297 130.187 153.977 130.016C153.657 129.824 153.273 129.728 152.825 129.728C152.377 129.728 151.971 129.845 151.609 130.08C151.246 130.315 150.937 130.677 150.681 131.168C150.425 131.659 150.222 132.299 150.073 133.088C149.923 133.856 149.849 134.784 149.849 135.872ZM175.574 127.552V132.512C175.403 132.448 175.211 132.405 174.998 132.384C174.806 132.341 174.593 132.309 174.358 132.288C174.123 132.267 173.889 132.256 173.654 132.256C173.163 132.256 172.705 132.309 172.278 132.416C171.873 132.501 171.489 132.651 171.126 132.864C170.785 133.056 170.475 133.323 170.198 133.664C169.921 133.984 169.665 134.389 169.43 134.88V133.056C169.707 131.947 170.049 130.965 170.454 130.112C170.881 129.259 171.403 128.597 172.022 128.128C172.641 127.637 173.43 127.392 174.39 127.392C174.646 127.392 174.881 127.413 175.094 127.456C175.307 127.477 175.467 127.509 175.574 127.552ZM162.55 144V142.048H162.582C163.073 142.048 163.467 141.984 163.766 141.856C164.086 141.728 164.246 141.472 164.246 141.088V130.752C164.246 130.539 164.193 130.368 164.086 130.24C164.001 130.112 163.851 130.016 163.638 129.952C163.425 129.867 163.147 129.781 162.806 129.696L162.55 129.632V127.584H169.718V132.8L170.102 132.416V141.472C170.102 141.643 170.219 141.771 170.454 141.856C170.689 141.941 170.966 141.995 171.286 142.016C171.606 142.037 171.894 142.048 172.15 142.048H172.438V144H162.55ZM205.817 134.432C205.689 135.051 205.443 135.787 205.081 136.64C204.718 137.472 204.227 138.336 203.609 139.232C203.011 140.128 202.275 140.96 201.401 141.728C200.526 142.496 199.502 143.125 198.329 143.616C197.155 144.085 195.833 144.32 194.361 144.32C192.633 144.32 191.107 144.053 189.785 143.52C188.462 142.965 187.427 142.176 186.681 141.152C185.955 140.107 185.593 138.859 185.593 137.408C185.593 136.469 185.774 135.627 186.137 134.88C186.521 134.112 187.054 133.429 187.737 132.832C188.441 132.235 189.262 131.733 190.201 131.328C191.161 130.901 192.206 130.571 193.337 130.336L194.297 131.52C193.614 131.861 193.017 132.288 192.505 132.8C192.014 133.291 191.641 133.877 191.385 134.56C191.129 135.243 191.001 136.011 191.001 136.864C191.001 137.845 191.182 138.699 191.545 139.424C191.907 140.149 192.441 140.715 193.145 141.12C193.849 141.504 194.702 141.696 195.705 141.696C196.515 141.696 197.294 141.536 198.041 141.216C198.787 140.875 199.481 140.416 200.121 139.84C200.782 139.264 201.347 138.624 201.817 137.92C202.307 137.216 202.691 136.491 202.969 135.744C203.246 134.976 203.385 134.24 203.385 133.536C203.385 133.451 203.278 133.387 203.065 133.344C202.873 133.301 202.638 133.269 202.361 133.248C202.083 133.227 201.817 133.216 201.561 133.216H201.369V131.168H207.993V133.216H207.705C207.342 133.216 207.033 133.248 206.777 133.312C206.542 133.355 206.339 133.461 206.169 133.632C206.019 133.803 205.902 134.069 205.817 134.432ZM208.249 144H202.137C200.793 142.912 199.523 141.781 198.329 140.608C197.134 139.435 196.046 138.24 195.065 137.024C194.105 135.808 193.273 134.603 192.569 133.408C191.865 132.213 191.321 131.061 190.937 129.952C190.574 128.843 190.393 127.808 190.393 126.848C190.393 125.589 190.681 124.533 191.257 123.68C191.854 122.805 192.665 122.144 193.689 121.696C194.734 121.227 195.95 120.992 197.337 120.992C199.235 120.992 200.675 121.429 201.657 122.304C202.659 123.157 203.161 124.267 203.161 125.632C203.161 126.421 202.969 127.136 202.585 127.776C202.222 128.416 201.71 128.992 201.049 129.504C200.409 130.016 199.641 130.464 198.745 130.848C197.87 131.232 196.921 131.573 195.897 131.872L195.001 129.984C195.747 129.707 196.387 129.429 196.921 129.152C197.475 128.853 197.923 128.533 198.265 128.192C198.627 127.829 198.883 127.435 199.033 127.008C199.203 126.581 199.289 126.112 199.289 125.6C199.289 124.96 199.15 124.448 198.873 124.064C198.617 123.68 198.201 123.488 197.625 123.488C197.219 123.488 196.857 123.595 196.537 123.808C196.238 124 196.003 124.32 195.833 124.768C195.662 125.195 195.577 125.781 195.577 126.528C195.577 127.296 195.705 128.096 195.961 128.928C196.217 129.739 196.59 130.592 197.081 131.488C197.593 132.363 198.243 133.291 199.033 134.272C199.822 135.253 200.75 136.288 201.817 137.376C202.883 138.443 204.099 139.573 205.465 140.768C205.742 141.003 205.998 141.205 206.233 141.376C206.467 141.525 206.702 141.632 206.937 141.696C207.193 141.76 207.491 141.792 207.833 141.792H208.249V144ZM20.232 177.768V161.512C20.232 161.043 20.0507 160.733 19.688 160.584C19.3253 160.435 18.8667 160.36 18.312 160.36H17.992V158.28H28.648V160.36H28.296C27.7627 160.36 27.3147 160.435 26.952 160.584C26.5893 160.733 26.408 161.043 26.408 161.512V177.768C26.408 178.237 26.5893 178.547 26.952 178.696C27.3147 178.845 27.7627 178.92 28.296 178.92H28.648V181H17.992V178.92H18.312C18.8667 178.92 19.3253 178.845 19.688 178.696C20.0507 178.547 20.232 178.237 20.232 177.768ZM30.425 181V179.048H30.457C30.9477 179.048 31.3423 178.984 31.641 178.856C31.961 178.728 32.121 178.472 32.121 178.088V167.752C32.121 167.539 32.0677 167.368 31.961 167.24C31.8757 167.112 31.7263 167.016 31.513 166.952C31.2997 166.867 31.0223 166.781 30.681 166.696L30.425 166.632V164.584H37.593V168.232L37.977 168.136V178.76C37.977 178.824 38.041 178.888 38.169 178.952C38.3183 178.995 38.4783 179.027 38.649 179.048C38.841 179.048 39.0223 179.048 39.193 179.048H39.289V181H30.425ZM49.401 181H40.921V179.048H40.953C41.145 179.048 41.337 179.048 41.529 179.048C41.721 179.027 41.881 178.995 42.009 178.952C42.1583 178.888 42.233 178.824 42.233 178.76V169.768C42.233 169.235 42.1903 168.797 42.105 168.456C42.0197 168.093 41.8703 167.827 41.657 167.656C41.465 167.485 41.177 167.4 40.793 167.4C40.3877 167.4 39.993 167.528 39.609 167.784C39.225 168.019 38.841 168.403 38.457 168.936C38.0943 169.469 37.721 170.173 37.337 171.048L37.273 168.168C37.721 167.336 38.2223 166.632 38.777 166.056C39.3317 165.48 39.961 165.043 40.665 164.744C41.3903 164.424 42.1797 164.264 43.033 164.264C44.0357 164.264 44.921 164.477 45.689 164.904C46.457 165.309 47.0437 165.928 47.449 166.76C47.8757 167.571 48.089 168.584 48.089 169.8V178.728C48.089 178.813 48.153 178.888 48.281 178.952C48.4303 178.995 48.601 179.027 48.793 179.048C49.0063 179.048 49.1983 179.048 49.369 179.048H49.401V181ZM59.961 181H51.065V179.048H51.129C51.2997 179.048 51.481 179.037 51.673 179.016C51.865 178.995 52.025 178.963 52.153 178.92C52.3023 178.877 52.377 178.824 52.377 178.76V169.768C52.377 169.235 52.3237 168.797 52.217 168.456C52.1317 168.093 51.9823 167.827 51.769 167.656C51.577 167.485 51.289 167.4 50.905 167.4C50.4783 167.4 50.073 167.539 49.689 167.816C49.305 168.072 48.9317 168.467 48.569 169C48.2063 169.512 47.833 170.173 47.449 170.984L47.385 168.168C47.833 167.336 48.3343 166.632 48.889 166.056C49.465 165.48 50.105 165.043 50.809 164.744C51.513 164.424 52.2917 164.264 53.145 164.264C54.1477 164.264 55.033 164.477 55.801 164.904C56.569 165.309 57.1557 165.928 57.561 166.76C57.9877 167.571 58.201 168.584 58.201 169.8V178.088C58.201 178.472 58.361 178.728 58.681 178.856C59.001 178.984 59.3957 179.048 59.865 179.048H59.961V181ZM71.1248 188.136H61.2048V186.184H61.2368C61.5568 186.184 61.8448 186.152 62.1008 186.088C62.3568 186.045 62.5594 185.949 62.7088 185.8C62.8581 185.672 62.9328 185.48 62.9328 185.224V167.752C62.9328 167.539 62.8794 167.368 62.7728 167.24C62.6661 167.112 62.5061 167.016 62.2928 166.952C62.0794 166.867 61.8021 166.781 61.4608 166.696L61.2048 166.632V164.584H68.3728V168.84L68.7568 168.904V185.896C68.7568 185.96 68.8634 186.013 69.0768 186.056C69.3114 186.099 69.5781 186.131 69.8767 186.152C70.1968 186.173 70.4848 186.184 70.7408 186.184H71.1248V188.136ZM73.4608 181.32C72.6288 181.32 71.8821 181.224 71.2208 181.032C70.5808 180.84 69.9941 180.541 69.4608 180.136C68.9274 179.709 68.4368 179.165 67.9888 178.504L68.0848 174.792C68.4048 175.539 68.7354 176.189 69.0768 176.744C69.4394 177.299 69.8448 177.736 70.2928 178.056C70.7408 178.355 71.2634 178.504 71.8608 178.504C72.4154 178.504 72.8848 178.365 73.2688 178.088C73.6741 177.811 74.0048 177.416 74.2608 176.904C74.5168 176.392 74.7088 175.773 74.8368 175.048C74.9648 174.323 75.0288 173.512 75.0288 172.616C75.0288 171.741 74.9648 170.963 74.8368 170.28C74.7088 169.597 74.5274 169.021 74.2928 168.552C74.0581 168.083 73.7488 167.731 73.3648 167.496C73.0021 167.261 72.5754 167.144 72.0848 167.144C71.4874 167.144 70.9541 167.315 70.4848 167.656C70.0368 167.976 69.6101 168.445 69.2048 169.064C68.8208 169.661 68.4368 170.387 68.0528 171.24L67.9888 168.04C68.5008 167.208 69.0234 166.515 69.5568 165.96C70.1114 165.405 70.7194 164.989 71.3808 164.712C72.0634 164.413 72.8421 164.264 73.7168 164.264C75.1888 164.264 76.4688 164.616 77.5568 165.32C78.6661 166.024 79.5194 167.005 80.1168 168.264C80.7141 169.501 81.0128 170.952 81.0128 172.616C81.0128 174.323 80.6928 175.837 80.0528 177.16C79.4128 178.461 78.5274 179.485 77.3968 180.232C76.2661 180.957 74.9541 181.32 73.4608 181.32ZM93.5245 171.144V173.032C92.7992 173.139 92.1485 173.267 91.5725 173.416C91.0178 173.565 90.5272 173.747 90.1005 173.96C89.6738 174.173 89.3218 174.419 89.0445 174.696C88.7885 174.952 88.5858 175.261 88.4365 175.624C88.3085 175.965 88.2445 176.328 88.2445 176.712C88.2445 177.203 88.3192 177.608 88.4685 177.928C88.6392 178.248 88.8738 178.493 89.1725 178.664C89.4712 178.813 89.8232 178.888 90.2285 178.888C90.7192 178.888 91.1672 178.76 91.5725 178.504C91.9778 178.227 92.3405 177.843 92.6605 177.352C92.9805 176.861 93.2578 176.285 93.4925 175.624L93.5565 177.832C93.2365 178.579 92.8312 179.208 92.3405 179.72C91.8498 180.232 91.2525 180.627 90.5485 180.904C89.8658 181.181 89.0658 181.32 88.1485 181.32C87.0605 181.32 86.1112 181.16 85.3005 180.84C84.5112 180.499 83.8925 180.008 83.4445 179.368C83.0178 178.707 82.8045 177.907 82.8045 176.968C82.8045 176.072 83.0285 175.304 83.4765 174.664C83.9458 174.024 84.6285 173.48 85.5245 173.032C86.4205 172.584 87.5405 172.211 88.8845 171.912C90.2285 171.592 91.7752 171.336 93.5245 171.144ZM93.2045 181V177.832L92.8205 177.896V169.16C92.8205 168.563 92.7352 168.083 92.5645 167.72C92.3938 167.336 92.1272 167.069 91.7645 166.92C91.4232 166.749 90.9965 166.664 90.4845 166.664C89.7165 166.664 89.0765 166.835 88.5645 167.176C88.0738 167.496 87.7005 167.901 87.4445 168.392C87.2525 168.179 87.1458 167.976 87.1245 167.784C87.1032 167.571 87.1352 167.379 87.2205 167.208C87.3272 167.037 87.4872 166.888 87.7005 166.76C87.9138 166.611 88.1698 166.515 88.4685 166.472V169.896H83.9245V166.408C84.2445 166.173 84.7138 165.896 85.3325 165.576C85.9725 165.235 86.7725 164.936 87.7325 164.68C88.6925 164.403 89.8125 164.264 91.0925 164.264C92.1805 164.264 93.1725 164.381 94.0685 164.616C94.9858 164.829 95.7752 165.16 96.4365 165.608C97.0978 166.056 97.6098 166.643 97.9725 167.368C98.3352 168.072 98.5165 168.936 98.5165 169.96V177.992C98.5165 178.205 98.5805 178.376 98.7085 178.504C98.8365 178.632 99.0178 178.728 99.2525 178.792C99.4872 178.856 99.7645 178.909 100.085 178.952L100.213 178.984V181H93.2045ZM111.7 178.824C112.468 178.824 113.129 178.653 113.684 178.312C114.26 177.949 114.751 177.512 115.156 177C115.561 176.467 115.903 175.955 116.18 175.464L118.1 176.84C117.631 177.715 117.065 178.493 116.404 179.176C115.764 179.837 114.985 180.36 114.068 180.744C113.151 181.128 112.041 181.32 110.74 181.32C108.948 181.32 107.359 180.979 105.972 180.296C104.585 179.613 103.497 178.632 102.708 177.352C101.919 176.072 101.524 174.557 101.524 172.808C101.524 171.037 101.919 169.523 102.708 168.264C103.497 166.984 104.596 166.003 106.004 165.32C107.433 164.616 109.108 164.264 111.028 164.264C112.244 164.264 113.3 164.381 114.196 164.616C115.113 164.851 115.86 165.117 116.436 165.416C117.033 165.693 117.46 165.949 117.716 166.184V170.472H113.268V166.376C113.545 166.397 113.769 166.483 113.94 166.632C114.111 166.76 114.228 166.92 114.292 167.112C114.377 167.283 114.399 167.475 114.356 167.688C114.313 167.88 114.228 168.04 114.1 168.168C113.844 167.741 113.481 167.4 113.012 167.144C112.543 166.867 111.977 166.728 111.316 166.728C110.505 166.728 109.812 166.973 109.236 167.464C108.681 167.933 108.255 168.627 107.956 169.544C107.657 170.44 107.508 171.528 107.508 172.808C107.508 173.747 107.604 174.589 107.796 175.336C107.988 176.083 108.255 176.712 108.596 177.224C108.959 177.736 109.396 178.131 109.908 178.408C110.441 178.685 111.039 178.824 111.7 178.824ZM119.191 166.856V164.744H119.287C119.756 164.744 120.161 164.712 120.503 164.648C120.844 164.563 121.111 164.424 121.303 164.232C121.495 164.019 121.591 163.731 121.591 163.368L124.791 164.584H131.319V166.856H119.191ZM127.191 175.4C127.191 176.232 127.276 176.893 127.447 177.384C127.639 177.853 127.905 178.195 128.247 178.408C128.588 178.6 129.004 178.696 129.495 178.696C129.9 178.696 130.284 178.653 130.647 178.568C131.009 178.461 131.287 178.387 131.479 178.344V180.744C131.308 180.829 131.052 180.915 130.711 181C130.369 181.085 129.975 181.16 129.527 181.224C129.079 181.288 128.567 181.32 127.991 181.32C126.732 181.32 125.601 181.139 124.599 180.776C123.596 180.413 122.796 179.805 122.199 178.952C121.623 178.099 121.335 176.936 121.335 175.464V165.192L121.591 164.936L121.623 160.136H127.191V175.4Z" fill="white"/>
<path d="M24.456 216.144L22.728 210.32C22.6747 210.16 22.648 210.021 22.648 209.904H22.52C22.52 210.021 22.488 210.16 22.424 210.32L20.488 216.144H19.352L16.008 206.24C15.9333 206.016 15.8373 205.872 15.72 205.808C15.6027 205.733 15.3413 205.648 14.936 205.552L15.048 204.912H18.616L18.68 205.568L17.784 205.872C17.7093 205.883 17.672 205.915 17.672 205.968C17.672 206.011 17.6933 206.096 17.736 206.224L19.96 213.408C20.056 213.749 20.104 213.931 20.104 213.952H20.264L22.104 208.128L21.544 206.24C21.512 206.112 21.4747 206.016 21.432 205.952C21.4 205.888 21.336 205.829 21.24 205.776C21.112 205.712 20.8933 205.637 20.584 205.552L20.696 204.912H24.072L24.136 205.568L23 205.872C22.9253 205.883 22.888 205.915 22.888 205.968C22.888 206.011 22.9093 206.096 22.952 206.224L25.064 213.408C25.16 213.739 25.208 213.92 25.208 213.952H25.368L27.608 206.896C27.7253 206.501 27.784 206.24 27.784 206.112C27.784 205.877 27.3733 205.691 26.552 205.552L26.648 204.912H29.928L29.992 205.584C29.5547 205.68 29.272 205.781 29.144 205.888C29.016 205.995 28.904 206.192 28.808 206.48L25.608 216.144H24.456ZM33.971 216.144C32.819 216.144 31.9337 215.803 31.315 215.12C30.6963 214.437 30.387 213.483 30.387 212.256C30.387 211.029 30.7123 210.048 31.363 209.312C32.0243 208.565 32.931 208.192 34.083 208.192C35.2457 208.192 36.1363 208.539 36.755 209.232C37.3737 209.915 37.683 210.869 37.683 212.096C37.683 213.323 37.3523 214.304 36.691 215.04C36.0403 215.776 35.1337 216.144 33.971 216.144ZM31.939 212.048C31.939 212.997 32.131 213.776 32.515 214.384C32.899 214.992 33.4217 215.296 34.083 215.296C34.7443 215.296 35.2137 215.136 35.491 214.816C35.683 214.603 35.8377 214.267 35.955 213.808C36.0723 213.339 36.131 212.832 36.131 212.288C36.131 211.339 35.939 210.56 35.555 209.952C35.171 209.344 34.6483 209.04 33.987 209.04C33.3257 209.04 32.8563 209.2 32.579 209.52C32.387 209.733 32.2323 210.075 32.115 210.544C31.9977 211.003 31.939 211.504 31.939 212.048ZM38.8275 216L38.7315 215.376C39.2968 215.28 39.6435 215.173 39.7715 215.056C39.8995 214.939 39.9635 214.741 39.9635 214.464V209.856C39.9635 209.579 39.8888 209.381 39.7395 209.264C39.6008 209.136 39.2328 209.029 38.6355 208.944L38.7315 208.432L40.9075 208.224C40.9822 208.224 41.0622 208.331 41.1475 208.544C41.2328 208.757 41.2755 208.981 41.2755 209.216C41.2755 209.44 41.2542 209.701 41.2115 210L41.3395 210.048L41.5475 209.584C41.7395 209.157 42.0275 208.821 42.4115 208.576C42.8062 208.32 43.2008 208.192 43.5955 208.192C44.0008 208.192 44.3742 208.277 44.7155 208.448C44.7155 209.323 44.6355 210.197 44.4755 211.072L43.6915 211.152C43.6062 210.256 43.5208 209.749 43.4355 209.632C43.3502 209.504 43.2062 209.44 43.0035 209.44C42.8115 209.44 42.5822 209.531 42.3155 209.712C42.0488 209.883 41.8302 210.069 41.6595 210.272C41.4888 210.464 41.4035 210.784 41.4035 211.232V214.848C41.4035 214.987 41.4302 215.077 41.4835 215.12C41.5475 215.152 41.6275 215.173 41.7235 215.184L43.1795 215.376L43.1155 216H38.8275ZM45.7338 216L45.6378 215.376C46.1604 215.269 46.4751 215.163 46.5818 215.056C46.6991 214.939 46.7578 214.741 46.7578 214.464V205.168C46.7578 204.944 46.6724 204.784 46.5018 204.688C46.3311 204.581 46.0111 204.48 45.5418 204.384L45.6378 203.872C46.7791 203.723 47.5738 203.648 48.0218 203.648L48.1978 203.808V212.304L50.9498 209.728C51.0351 209.632 51.0778 209.541 51.0778 209.456C51.0778 209.296 50.7098 209.163 49.9738 209.056L50.0698 208.432H53.2538L53.3177 209.056C52.8271 209.131 52.5338 209.216 52.4378 209.312L50.2458 211.408L52.5658 214.72C52.7364 214.933 52.9231 215.088 53.1258 215.184C53.3391 215.28 53.6431 215.344 54.0378 215.376L53.9418 216H51.7178L49.2378 212.384L48.1978 213.376V214.848C48.1978 214.976 48.2244 215.061 48.2778 215.104C48.3418 215.136 48.4218 215.163 48.5178 215.184L49.2218 215.376L49.1578 216H45.7338ZM58.797 214.032C58.797 213.232 59.1383 212.635 59.821 212.24C60.5037 211.845 61.613 211.643 63.149 211.632V211.12C63.149 209.733 62.6477 209.04 61.645 209.04C61.165 209.04 60.861 209.109 60.733 209.248C60.6157 209.387 60.4877 209.84 60.349 210.608L59.485 210.512C59.3997 210.181 59.357 209.84 59.357 209.488C59.357 209.125 59.3623 208.891 59.373 208.784C60.0023 208.389 60.829 208.192 61.853 208.192C62.877 208.192 63.5863 208.389 63.981 208.784C64.3863 209.179 64.589 209.829 64.589 210.736V214.416C64.589 214.693 64.653 214.891 64.781 215.008C64.9197 215.115 65.261 215.221 65.805 215.328L65.709 215.84L63.789 216.048C63.6823 216.048 63.5703 215.947 63.453 215.744C63.3357 215.541 63.277 215.355 63.277 215.184C63.277 215.003 63.2823 214.869 63.293 214.784L63.165 214.736L62.973 215.024C62.4717 215.771 61.7837 216.144 60.909 216.144C60.3117 216.144 59.8103 215.957 59.405 215.584C58.9997 215.211 58.797 214.693 58.797 214.032ZM60.349 213.888C60.349 214.272 60.4503 214.565 60.653 214.768C60.8557 214.96 61.1437 215.056 61.517 215.056C61.8903 215.056 62.3117 214.875 62.781 214.512C63.0263 214.32 63.149 214.117 63.149 213.904V212.336C62.189 212.357 61.4797 212.485 61.021 212.72C60.573 212.955 60.349 213.344 60.349 213.888ZM66.9525 216L66.8565 215.376C67.3792 215.269 67.6938 215.163 67.8005 215.056C67.9178 214.939 67.9765 214.741 67.9765 214.464V205.168C67.9765 204.944 67.8912 204.784 67.7205 204.688C67.5498 204.581 67.2298 204.48 66.7605 204.384L66.8565 203.872C67.9978 203.723 68.7925 203.648 69.2405 203.648L69.4165 203.808V214.848C69.4165 214.976 69.4432 215.061 69.4965 215.104C69.5605 215.136 69.6405 215.163 69.7365 215.184L70.5205 215.376L70.4565 216H66.9525ZM75.2523 216.144C74.1003 216.144 73.2149 215.803 72.5963 215.12C71.9776 214.437 71.6683 213.483 71.6683 212.256C71.6683 211.029 71.9936 210.048 72.6443 209.312C73.3056 208.565 74.2123 208.192 75.3643 208.192C76.5269 208.192 77.4176 208.539 78.0363 209.232C78.6549 209.915 78.9643 210.869 78.9643 212.096C78.9643 213.323 78.6336 214.304 77.9723 215.04C77.3216 215.776 76.4149 216.144 75.2523 216.144ZM73.2203 212.048C73.2203 212.997 73.4123 213.776 73.7963 214.384C74.1803 214.992 74.7029 215.296 75.3643 215.296C76.0256 215.296 76.4949 215.136 76.7723 214.816C76.9643 214.603 77.1189 214.267 77.2363 213.808C77.3536 213.339 77.4123 212.832 77.4123 212.288C77.4123 211.339 77.2203 210.56 76.8363 209.952C76.4523 209.344 75.9296 209.04 75.2682 209.04C74.6069 209.04 74.1376 209.2 73.8603 209.52C73.6683 209.733 73.5136 210.075 73.3963 210.544C73.2789 211.003 73.2203 211.504 73.2203 212.048ZM80.2208 216L80.1248 215.376C80.6474 215.269 80.9621 215.163 81.0688 215.056C81.1861 214.939 81.2448 214.741 81.2448 214.464V209.856C81.2448 209.579 81.1754 209.387 81.0368 209.28C80.9088 209.163 80.5728 209.051 80.0288 208.944L80.1248 208.432L82.1888 208.224C82.2634 208.224 82.3381 208.373 82.4128 208.672C82.4981 208.971 82.5408 209.232 82.5408 209.456V209.552L82.6688 209.6L82.8608 209.376C83.5328 208.587 84.3541 208.192 85.3248 208.192C86.0074 208.192 86.5461 208.4 86.9408 208.816C87.3354 209.221 87.5328 209.792 87.5328 210.528V214.848C87.5328 214.976 87.5594 215.061 87.6128 215.104C87.6768 215.136 87.7568 215.163 87.8528 215.184L88.6368 215.376L88.5728 216H85.1488L85.0528 215.376C85.5328 215.28 85.8261 215.173 85.9328 215.056C86.0394 214.939 86.0928 214.741 86.0928 214.464V211.008C86.0928 210.507 86.0021 210.107 85.8208 209.808C85.6394 209.499 85.2821 209.344 84.7488 209.344C84.2261 209.344 83.6554 209.552 83.0368 209.968C82.9408 210.032 82.8714 210.08 82.8288 210.112C82.7328 210.219 82.6848 210.416 82.6848 210.704V214.832C82.6848 214.949 82.7008 215.029 82.7328 215.072C82.7754 215.115 82.8661 215.152 83.0048 215.184L83.7088 215.376L83.6448 216H80.2208ZM91.56 216.384C91.2613 216.715 91.112 217.072 91.112 217.456C91.112 217.84 91.272 218.144 91.592 218.368C91.912 218.592 92.456 218.704 93.224 218.704C94.0027 218.704 94.6053 218.544 95.032 218.224C95.4587 217.904 95.672 217.584 95.672 217.264C95.672 216.944 95.496 216.747 95.144 216.672C94.792 216.608 94.232 216.571 93.464 216.56C92.7067 216.549 92.072 216.491 91.56 216.384ZM90.184 215.024C90.184 214.597 90.344 214.187 90.664 213.792C90.888 213.515 91.144 213.264 91.432 213.04C91.272 212.965 91.1227 212.875 90.984 212.768C90.4507 212.341 90.184 211.701 90.184 210.848C90.184 209.984 90.4773 209.328 91.064 208.88C91.6507 208.421 92.3813 208.192 93.256 208.192C94.0347 208.192 94.68 208.357 95.192 208.688C95.8853 208.357 96.5573 208.181 97.208 208.16C97.3147 208.341 97.368 208.56 97.368 208.816C97.368 209.061 97.352 209.232 97.32 209.328C96.9573 209.243 96.5787 209.2 96.184 209.2C96.024 209.2 95.88 209.2 95.752 209.2C96.0507 209.605 96.2 210.128 96.2 210.768C96.2 211.621 95.9067 212.277 95.32 212.736C94.7333 213.184 94.0027 213.408 93.128 213.408C92.6373 213.408 92.2053 213.344 91.832 213.216C91.512 213.6 91.352 213.968 91.352 214.32C91.352 214.64 91.5333 214.832 91.896 214.896C92.216 214.949 92.5733 214.976 92.968 214.976C93.3733 214.976 93.6827 214.981 93.896 214.992C94.12 214.992 94.4027 215.008 94.744 215.04C95.0853 215.072 95.352 215.125 95.544 215.2C95.7467 215.275 95.9547 215.371 96.168 215.488C96.5627 215.712 96.76 216.107 96.76 216.672C96.76 217.44 96.376 218.101 95.608 218.656C94.84 219.221 93.8053 219.504 92.504 219.504C90.7547 219.504 89.88 219.003 89.88 218C89.88 217.637 89.9813 217.323 90.184 217.056C90.3973 216.8 90.7013 216.528 91.096 216.24C90.488 216.048 90.184 215.643 90.184 215.024ZM93.24 212.624C94.232 212.624 94.728 212.016 94.728 210.8C94.728 209.584 94.2 208.976 93.144 208.976C92.152 208.976 91.656 209.584 91.656 210.8C91.656 212.016 92.184 212.624 93.24 212.624ZM101.443 209.04C100.505 209.04 100.035 209.36 100.035 210C100.035 210.256 100.099 210.448 100.227 210.576C100.355 210.693 100.446 210.784 100.499 210.848C100.563 210.901 100.681 210.971 100.851 211.056C101.022 211.141 101.139 211.205 101.203 211.248C101.278 211.28 101.422 211.339 101.635 211.424C102.531 211.797 103.161 212.149 103.523 212.48C103.886 212.811 104.067 213.28 104.067 213.888C104.067 214.496 103.795 215.024 103.251 215.472C102.718 215.92 101.982 216.144 101.043 216.144C100.627 216.144 100.195 216.101 99.7474 216.016C99.2994 215.931 98.974 215.845 98.7714 215.76C98.75 215.621 98.7394 215.339 98.7394 214.912C98.7394 214.485 98.7874 214.021 98.8834 213.52L99.7154 213.456C99.79 214.139 99.8434 214.56 99.8754 214.72C99.918 214.869 99.9767 214.965 100.051 215.008C100.393 215.2 100.841 215.296 101.395 215.296C102.259 215.296 102.691 214.949 102.691 214.256C102.691 213.925 102.563 213.653 102.307 213.44C102.019 213.205 101.689 213.008 101.315 212.848C100.334 212.443 99.662 212.075 99.2994 211.744C98.9474 211.403 98.7714 210.933 98.7714 210.336C98.7714 209.739 99.0434 209.232 99.5874 208.816C100.131 208.4 100.787 208.192 101.555 208.192C102.323 208.192 103.027 208.325 103.667 208.592C103.678 208.677 103.683 208.917 103.683 209.312C103.683 209.707 103.614 210.123 103.475 210.56L102.739 210.64C102.665 209.808 102.542 209.333 102.371 209.216C102.211 209.099 101.902 209.04 101.443 209.04ZM105.596 216L105.5 215.376C106.022 215.269 106.337 215.163 106.444 215.056C106.561 214.939 106.62 214.741 106.62 214.464V209.872C106.62 209.648 106.534 209.488 106.364 209.392C106.193 209.285 105.873 209.184 105.404 209.088L105.5 208.576C106.641 208.427 107.436 208.352 107.884 208.352L108.06 208.512V214.848C108.06 214.976 108.086 215.061 108.14 215.104C108.204 215.136 108.284 215.163 108.38 215.184L109.164 215.376L109.1 216H105.596ZM108.076 205.504C108.076 205.771 107.99 205.995 107.82 206.176C107.66 206.357 107.441 206.448 107.164 206.448C106.897 206.448 106.673 206.368 106.492 206.208C106.321 206.048 106.236 205.829 106.236 205.552C106.236 205.264 106.316 205.035 106.476 204.864C106.646 204.693 106.876 204.608 107.164 204.608C107.772 204.608 108.076 204.907 108.076 205.504ZM115.557 214.944C114.938 215.744 114.197 216.144 113.333 216.144C112.469 216.144 111.76 215.803 111.205 215.12C110.65 214.427 110.373 213.483 110.373 212.288C110.373 211.093 110.688 210.112 111.317 209.344C111.946 208.576 112.826 208.192 113.957 208.192C114.736 208.192 115.312 208.331 115.685 208.608L115.797 208.56C115.754 208.389 115.733 208.155 115.733 207.856V205.168C115.733 204.944 115.621 204.779 115.397 204.672C115.184 204.555 114.794 204.459 114.229 204.384L114.325 203.872C115.466 203.723 116.357 203.648 116.997 203.648L117.173 203.808V214.432C117.173 214.709 117.237 214.907 117.365 215.024C117.504 215.131 117.845 215.237 118.389 215.344L118.293 215.856L116.373 216.064C116.266 216.064 116.149 215.957 116.021 215.744C115.893 215.531 115.829 215.339 115.829 215.168C115.829 214.997 115.834 214.869 115.845 214.784L115.717 214.736L115.557 214.944ZM111.925 211.904C111.925 212.96 112.09 213.739 112.421 214.24C112.762 214.741 113.189 214.992 113.701 214.992C114.213 214.992 114.746 214.811 115.301 214.448C115.589 214.256 115.733 214.011 115.733 213.712V209.888C115.296 209.365 114.613 209.104 113.685 209.104C113.226 209.104 112.864 209.253 112.597 209.552C112.149 210.053 111.925 210.837 111.925 211.904ZM122.842 216.144C121.765 216.144 120.928 215.776 120.33 215.04C119.744 214.304 119.45 213.376 119.45 212.256C119.45 211.125 119.792 210.165 120.474 209.376C121.157 208.587 122.058 208.192 123.178 208.192C124.992 208.192 125.941 209.307 126.026 211.536L125.61 211.84L120.97 212.096C120.97 214.069 121.813 215.056 123.498 215.056C124.234 215.056 124.954 214.875 125.658 214.512L125.994 215.04C125.642 215.328 125.184 215.584 124.618 215.808C124.053 216.032 123.461 216.144 122.842 216.144ZM121.018 211.36L124.33 211.072C124.437 211.061 124.49 210.96 124.49 210.768C124.49 210.299 124.362 209.893 124.106 209.552C123.861 209.211 123.44 209.04 122.842 209.04C122.245 209.04 121.808 209.243 121.53 209.648C121.264 210.043 121.093 210.613 121.018 211.36ZM134.565 216.144C133.413 216.144 132.527 215.803 131.909 215.12C131.29 214.437 130.981 213.483 130.981 212.256C130.981 211.029 131.306 210.048 131.957 209.312C132.618 208.565 133.525 208.192 134.677 208.192C135.839 208.192 136.73 208.539 137.349 209.232C137.967 209.915 138.277 210.869 138.277 212.096C138.277 213.323 137.946 214.304 137.285 215.04C136.634 215.776 135.727 216.144 134.565 216.144ZM132.533 212.048C132.533 212.997 132.725 213.776 133.109 214.384C133.493 214.992 134.015 215.296 134.677 215.296C135.338 215.296 135.807 215.136 136.085 214.816C136.277 214.603 136.431 214.267 136.549 213.808C136.666 213.339 136.725 212.832 136.725 212.288C136.725 211.339 136.533 210.56 136.149 209.952C135.765 209.344 135.242 209.04 134.581 209.04C133.919 209.04 133.45 209.2 133.173 209.52C132.981 209.733 132.826 210.075 132.709 210.544C132.591 211.003 132.533 211.504 132.533 212.048ZM139.421 216L139.325 215.376C139.891 215.28 140.237 215.173 140.365 215.056C140.493 214.939 140.557 214.741 140.557 214.464V209.856C140.557 209.579 140.483 209.381 140.333 209.264C140.195 209.136 139.827 209.029 139.229 208.944L139.325 208.432L141.501 208.224C141.576 208.224 141.656 208.331 141.741 208.544C141.827 208.757 141.869 208.981 141.869 209.216C141.869 209.44 141.848 209.701 141.805 210L141.933 210.048L142.141 209.584C142.333 209.157 142.621 208.821 143.005 208.576C143.4 208.32 143.795 208.192 144.189 208.192C144.595 208.192 144.968 208.277 145.309 208.448C145.309 209.323 145.229 210.197 145.069 211.072L144.285 211.152C144.2 210.256 144.115 209.749 144.029 209.632C143.944 209.504 143.8 209.44 143.597 209.44C143.405 209.44 143.176 209.531 142.909 209.712C142.643 209.883 142.424 210.069 142.253 210.272C142.083 210.464 141.997 210.784 141.997 211.232V214.848C141.997 214.987 142.024 215.077 142.077 215.12C142.141 215.152 142.221 215.173 142.317 215.184L143.773 215.376L143.709 216H139.421ZM148.248 216.384C147.949 216.715 147.799 217.072 147.799 217.456C147.799 217.84 147.959 218.144 148.28 218.368C148.6 218.592 149.144 218.704 149.911 218.704C150.69 218.704 151.293 218.544 151.72 218.224C152.146 217.904 152.36 217.584 152.36 217.264C152.36 216.944 152.184 216.747 151.832 216.672C151.48 216.608 150.92 216.571 150.152 216.56C149.394 216.549 148.76 216.491 148.248 216.384ZM146.872 215.024C146.872 214.597 147.032 214.187 147.352 213.792C147.576 213.515 147.832 213.264 148.12 213.04C147.96 212.965 147.81 212.875 147.672 212.768C147.138 212.341 146.872 211.701 146.872 210.848C146.872 209.984 147.165 209.328 147.752 208.88C148.338 208.421 149.069 208.192 149.944 208.192C150.722 208.192 151.368 208.357 151.88 208.688C152.573 208.357 153.245 208.181 153.896 208.16C154.002 208.341 154.056 208.56 154.056 208.816C154.056 209.061 154.04 209.232 154.008 209.328C153.645 209.243 153.266 209.2 152.872 209.2C152.712 209.2 152.568 209.2 152.44 209.2C152.738 209.605 152.888 210.128 152.888 210.768C152.888 211.621 152.594 212.277 152.008 212.736C151.421 213.184 150.69 213.408 149.816 213.408C149.325 213.408 148.893 213.344 148.52 213.216C148.2 213.6 148.039 213.968 148.039 214.32C148.039 214.64 148.221 214.832 148.584 214.896C148.904 214.949 149.261 214.976 149.656 214.976C150.061 214.976 150.37 214.981 150.584 214.992C150.808 214.992 151.09 215.008 151.432 215.04C151.773 215.072 152.04 215.125 152.232 215.2C152.434 215.275 152.642 215.371 152.856 215.488C153.25 215.712 153.448 216.107 153.448 216.672C153.448 217.44 153.064 218.101 152.296 218.656C151.528 219.221 150.493 219.504 149.192 219.504C147.442 219.504 146.568 219.003 146.568 218C146.568 217.637 146.669 217.323 146.872 217.056C147.085 216.8 147.389 216.528 147.784 216.24C147.176 216.048 146.872 215.643 146.872 215.024ZM149.928 212.624C150.92 212.624 151.416 212.016 151.416 210.8C151.416 209.584 150.888 208.976 149.832 208.976C148.84 208.976 148.344 209.584 148.344 210.8C148.344 212.016 148.872 212.624 149.928 212.624ZM155.219 214.032C155.219 213.232 155.56 212.635 156.243 212.24C156.926 211.845 158.035 211.643 159.571 211.632V211.12C159.571 209.733 159.07 209.04 158.067 209.04C157.587 209.04 157.283 209.109 157.155 209.248C157.038 209.387 156.91 209.84 156.771 210.608L155.907 210.512C155.822 210.181 155.779 209.84 155.779 209.488C155.779 209.125 155.784 208.891 155.795 208.784C156.424 208.389 157.251 208.192 158.275 208.192C159.299 208.192 160.008 208.389 160.403 208.784C160.808 209.179 161.011 209.829 161.011 210.736V214.416C161.011 214.693 161.075 214.891 161.203 215.008C161.342 215.115 161.683 215.221 162.227 215.328L162.131 215.84L160.211 216.048C160.104 216.048 159.992 215.947 159.875 215.744C159.758 215.541 159.699 215.355 159.699 215.184C159.699 215.003 159.704 214.869 159.715 214.784L159.587 214.736L159.395 215.024C158.894 215.771 158.206 216.144 157.331 216.144C156.734 216.144 156.232 215.957 155.827 215.584C155.422 215.211 155.219 214.693 155.219 214.032ZM156.771 213.888C156.771 214.272 156.872 214.565 157.075 214.768C157.278 214.96 157.566 215.056 157.939 215.056C158.312 215.056 158.734 214.875 159.203 214.512C159.448 214.32 159.571 214.117 159.571 213.904V212.336C158.611 212.357 157.902 212.485 157.443 212.72C156.995 212.955 156.771 213.344 156.771 213.888ZM163.486 216L163.39 215.376C163.913 215.269 164.228 215.163 164.334 215.056C164.452 214.939 164.51 214.741 164.51 214.464V209.856C164.51 209.579 164.441 209.387 164.302 209.28C164.174 209.163 163.838 209.051 163.294 208.944L163.39 208.432L165.454 208.224C165.529 208.224 165.604 208.373 165.678 208.672C165.764 208.971 165.806 209.232 165.806 209.456V209.552L165.934 209.6L166.126 209.376C166.798 208.587 167.62 208.192 168.59 208.192C169.273 208.192 169.812 208.4 170.206 208.816C170.601 209.221 170.798 209.792 170.798 210.528V214.848C170.798 214.976 170.825 215.061 170.878 215.104C170.942 215.136 171.022 215.163 171.118 215.184L171.902 215.376L171.838 216H168.414L168.318 215.376C168.798 215.28 169.092 215.173 169.198 215.056C169.305 214.939 169.358 214.741 169.358 214.464V211.008C169.358 210.507 169.268 210.107 169.086 209.808C168.905 209.499 168.548 209.344 168.014 209.344C167.492 209.344 166.921 209.552 166.302 209.968C166.206 210.032 166.137 210.08 166.094 210.112C165.998 210.219 165.95 210.416 165.95 210.704V214.832C165.95 214.949 165.966 215.029 165.998 215.072C166.041 215.115 166.132 215.152 166.27 215.184L166.974 215.376L166.91 216H163.486ZM173.018 216L172.922 215.376C173.444 215.269 173.759 215.163 173.866 215.056C173.983 214.939 174.042 214.741 174.042 214.464V209.872C174.042 209.648 173.956 209.488 173.786 209.392C173.615 209.285 173.295 209.184 172.826 209.088L172.922 208.576C174.063 208.427 174.858 208.352 175.306 208.352L175.482 208.512V214.848C175.482 214.976 175.508 215.061 175.562 215.104C175.626 215.136 175.706 215.163 175.802 215.184L176.586 215.376L176.522 216H173.018ZM175.498 205.504C175.498 205.771 175.412 205.995 175.242 206.176C175.082 206.357 174.863 206.448 174.586 206.448C174.319 206.448 174.095 206.368 173.914 206.208C173.743 206.048 173.658 205.829 173.658 205.552C173.658 205.264 173.738 205.035 173.898 204.864C174.068 204.693 174.298 204.608 174.586 204.608C175.194 204.608 175.498 204.907 175.498 205.504ZM177.667 216V215.584L181.715 209.728C181.885 209.515 182.003 209.392 182.067 209.36L182.035 209.248H180.211C179.795 209.248 179.443 209.264 179.155 209.296C179.08 209.307 179.016 209.387 178.963 209.536C178.909 209.675 178.808 210.043 178.659 210.64L177.923 210.56C177.901 210.219 177.891 209.877 177.891 209.536C177.891 209.195 177.923 208.827 177.987 208.432H183.843V208.88L179.843 214.704C179.704 214.907 179.587 215.029 179.491 215.072L179.523 215.184L180.307 215.168C181.448 215.147 182.12 215.115 182.323 215.072C182.525 215.019 182.744 214.485 182.979 213.472L183.811 213.536C183.789 214.389 183.731 215.211 183.635 216H177.667ZM184.985 214.032C184.985 213.232 185.326 212.635 186.009 212.24C186.691 211.845 187.801 211.643 189.337 211.632V211.12C189.337 209.733 188.835 209.04 187.833 209.04C187.353 209.04 187.049 209.109 186.921 209.248C186.803 209.387 186.675 209.84 186.537 210.608L185.673 210.512C185.587 210.181 185.545 209.84 185.545 209.488C185.545 209.125 185.55 208.891 185.561 208.784C186.19 208.389 187.017 208.192 188.041 208.192C189.065 208.192 189.774 208.389 190.169 208.784C190.574 209.179 190.777 209.829 190.777 210.736V214.416C190.777 214.693 190.841 214.891 190.969 215.008C191.107 215.115 191.449 215.221 191.993 215.328L191.897 215.84L189.977 216.048C189.87 216.048 189.758 215.947 189.641 215.744C189.523 215.541 189.465 215.355 189.465 215.184C189.465 215.003 189.47 214.869 189.481 214.784L189.353 214.736L189.161 215.024C188.659 215.771 187.971 216.144 187.097 216.144C186.499 216.144 185.998 215.957 185.593 215.584C185.187 215.211 184.985 214.693 184.985 214.032ZM186.537 213.888C186.537 214.272 186.638 214.565 186.841 214.768C187.043 214.96 187.331 215.056 187.705 215.056C188.078 215.056 188.499 214.875 188.969 214.512C189.214 214.32 189.337 214.117 189.337 213.904V212.336C188.377 212.357 187.667 212.485 187.209 212.72C186.761 212.955 186.537 213.344 186.537 213.888ZM193.86 213.808V209.408H192.82L192.756 208.72L193.54 208.528C193.743 208.475 193.876 208.357 193.94 208.176C194.015 207.984 194.143 207.387 194.324 206.384L195.3 206.288V208.432H197.524L197.396 209.184L195.3 209.424V213.328C195.3 214.437 195.641 214.992 196.324 214.992C196.708 214.992 197.113 214.832 197.54 214.512L197.876 214.976C197.3 215.755 196.596 216.144 195.764 216.144C195.167 216.144 194.697 215.936 194.356 215.52C194.025 215.104 193.86 214.533 193.86 213.808ZM198.846 216L198.75 215.376C199.272 215.269 199.587 215.163 199.694 215.056C199.811 214.939 199.87 214.741 199.87 214.464V209.872C199.87 209.648 199.784 209.488 199.614 209.392C199.443 209.285 199.123 209.184 198.654 209.088L198.75 208.576C199.891 208.427 200.686 208.352 201.134 208.352L201.31 208.512V214.848C201.31 214.976 201.336 215.061 201.39 215.104C201.454 215.136 201.534 215.163 201.63 215.184L202.414 215.376L202.35 216H198.846ZM201.326 205.504C201.326 205.771 201.24 205.995 201.07 206.176C200.91 206.357 200.691 206.448 200.414 206.448C200.147 206.448 199.923 206.368 199.742 206.208C199.571 206.048 199.486 205.829 199.486 205.552C199.486 205.264 199.566 205.035 199.726 204.864C199.896 204.693 200.126 204.608 200.414 204.608C201.022 204.608 201.326 204.907 201.326 205.504ZM207.143 216.144C205.991 216.144 205.106 215.803 204.487 215.12C203.868 214.437 203.559 213.483 203.559 212.256C203.559 211.029 203.884 210.048 204.535 209.312C205.196 208.565 206.103 208.192 207.255 208.192C208.418 208.192 209.308 208.539 209.927 209.232C210.546 209.915 210.855 210.869 210.855 212.096C210.855 213.323 210.524 214.304 209.863 215.04C209.212 215.776 208.306 216.144 207.143 216.144ZM205.111 212.048C205.111 212.997 205.303 213.776 205.687 214.384C206.071 214.992 206.594 215.296 207.255 215.296C207.916 215.296 208.386 215.136 208.663 214.816C208.855 214.603 209.01 214.267 209.127 213.808C209.244 213.339 209.303 212.832 209.303 212.288C209.303 211.339 209.111 210.56 208.727 209.952C208.343 209.344 207.82 209.04 207.159 209.04C206.498 209.04 206.028 209.2 205.751 209.52C205.559 209.733 205.404 210.075 205.287 210.544C205.17 211.003 205.111 211.504 205.111 212.048ZM212.111 216L212.015 215.376C212.538 215.269 212.853 215.163 212.959 215.056C213.077 214.939 213.135 214.741 213.135 214.464V209.856C213.135 209.579 213.066 209.387 212.927 209.28C212.799 209.163 212.463 209.051 211.919 208.944L212.015 208.432L214.079 208.224C214.154 208.224 214.229 208.373 214.303 208.672C214.389 208.971 214.431 209.232 214.431 209.456V209.552L214.559 209.6L214.751 209.376C215.423 208.587 216.245 208.192 217.215 208.192C217.898 208.192 218.437 208.4 218.831 208.816C219.226 209.221 219.423 209.792 219.423 210.528V214.848C219.423 214.976 219.45 215.061 219.503 215.104C219.567 215.136 219.647 215.163 219.743 215.184L220.527 215.376L220.463 216H217.039L216.943 215.376C217.423 215.28 217.717 215.173 217.823 215.056C217.93 214.939 217.983 214.741 217.983 214.464V211.008C217.983 210.507 217.893 210.107 217.711 209.808C217.53 209.499 217.173 209.344 216.639 209.344C216.117 209.344 215.546 209.552 214.927 209.968C214.831 210.032 214.762 210.08 214.719 210.112C214.623 210.219 214.575 210.416 214.575 210.704V214.832C214.575 214.949 214.591 215.029 214.623 215.072C214.666 215.115 214.757 215.152 214.895 215.184L215.599 215.376L215.535 216H212.111ZM224.475 209.04C223.536 209.04 223.067 209.36 223.067 210C223.067 210.256 223.131 210.448 223.259 210.576C223.387 210.693 223.477 210.784 223.531 210.848C223.595 210.901 223.712 210.971 223.883 211.056C224.053 211.141 224.171 211.205 224.235 211.248C224.309 211.28 224.453 211.339 224.667 211.424C225.563 211.797 226.192 212.149 226.555 212.48C226.917 212.811 227.099 213.28 227.099 213.888C227.099 214.496 226.827 215.024 226.283 215.472C225.749 215.92 225.013 216.144 224.075 216.144C223.659 216.144 223.227 216.101 222.779 216.016C222.331 215.931 222.005 215.845 221.803 215.76C221.781 215.621 221.771 215.339 221.771 214.912C221.771 214.485 221.819 214.021 221.915 213.52L222.747 213.456C222.821 214.139 222.875 214.56 222.907 214.72C222.949 214.869 223.008 214.965 223.083 215.008C223.424 215.2 223.872 215.296 224.427 215.296C225.291 215.296 225.723 214.949 225.723 214.256C225.723 213.925 225.595 213.653 225.339 213.44C225.051 213.205 224.72 213.008 224.347 212.848C223.365 212.443 222.693 212.075 222.331 211.744C221.979 211.403 221.803 210.933 221.803 210.336C221.803 209.739 222.075 209.232 222.619 208.816C223.163 208.4 223.819 208.192 224.587 208.192C225.355 208.192 226.059 208.325 226.699 208.592C226.709 208.677 226.715 208.917 226.715 209.312C226.715 209.707 226.645 210.123 226.507 210.56L225.771 210.64C225.696 209.808 225.573 209.333 225.403 209.216C225.243 209.099 224.933 209.04 224.475 209.04ZM19.096 235.144C17.944 235.144 17.0587 234.803 16.44 234.12C15.8213 233.437 15.512 232.483 15.512 231.256C15.512 230.029 15.8373 229.048 16.488 228.312C17.1493 227.565 18.056 227.192 19.208 227.192C20.3707 227.192 21.2613 227.539 21.88 228.232C22.4987 228.915 22.808 229.869 22.808 231.096C22.808 232.323 22.4773 233.304 21.816 234.04C21.1653 234.776 20.2587 235.144 19.096 235.144ZM17.064 231.048C17.064 231.997 17.256 232.776 17.64 233.384C18.024 233.992 18.5467 234.296 19.208 234.296C19.8693 234.296 20.3387 234.136 20.616 233.816C20.808 233.603 20.9627 233.267 21.08 232.808C21.1973 232.339 21.256 231.832 21.256 231.288C21.256 230.339 21.064 229.56 20.68 228.952C20.296 228.344 19.7733 228.04 19.112 228.04C18.4507 228.04 17.9813 228.2 17.704 228.52C17.512 228.733 17.3573 229.075 17.24 229.544C17.1227 230.003 17.064 230.504 17.064 231.048ZM24.0645 235L23.9685 234.376C24.4912 234.269 24.8058 234.163 24.9125 234.056C25.0298 233.939 25.0885 233.741 25.0885 233.464V228.856C25.0885 228.579 25.0192 228.387 24.8805 228.28C24.7525 228.163 24.4165 228.051 23.8725 227.944L23.9685 227.432L26.0325 227.224C26.1072 227.224 26.1818 227.373 26.2565 227.672C26.3418 227.971 26.3845 228.232 26.3845 228.456V228.552L26.5125 228.6L26.7045 228.376C27.3765 227.587 28.1978 227.192 29.1685 227.192C29.8512 227.192 30.3898 227.4 30.7845 227.816C31.1792 228.221 31.3765 228.792 31.3765 229.528V233.848C31.3765 233.976 31.4032 234.061 31.4565 234.104C31.5205 234.136 31.6005 234.163 31.6965 234.184L32.4805 234.376L32.4165 235H28.9925L28.8965 234.376C29.3765 234.28 29.6698 234.173 29.7765 234.056C29.8832 233.939 29.9365 233.741 29.9365 233.464V230.008C29.9365 229.507 29.8458 229.107 29.6645 228.808C29.4832 228.499 29.1258 228.344 28.5925 228.344C28.0698 228.344 27.4992 228.552 26.8805 228.968C26.7845 229.032 26.7152 229.08 26.6725 229.112C26.5765 229.219 26.5285 229.416 26.5285 229.704V233.832C26.5285 233.949 26.5445 234.029 26.5765 234.072C26.6192 234.115 26.7098 234.152 26.8485 234.184L27.5525 234.376L27.4885 235H24.0645ZM37.4056 235L37.3096 234.376C37.8323 234.269 38.147 234.163 38.2536 234.056C38.371 233.939 38.4296 233.741 38.4296 233.464V224.168C38.4296 223.944 38.3443 223.784 38.1736 223.688C38.003 223.581 37.683 223.48 37.2136 223.384L37.3096 222.872C38.451 222.723 39.2456 222.648 39.6936 222.648L39.8696 222.808V227.304C39.8696 227.891 39.8323 228.307 39.7576 228.552L39.8856 228.6L40.0776 228.376C40.739 227.587 41.5656 227.192 42.5576 227.192C43.2723 227.192 43.827 227.4 44.2216 227.816C44.627 228.232 44.8296 228.803 44.8296 229.528V233.848C44.8296 233.976 44.8563 234.061 44.9096 234.104C44.9736 234.136 45.0536 234.163 45.1496 234.184L45.9336 234.376L45.8696 235H42.4456L42.3496 234.376C42.8296 234.28 43.123 234.173 43.2296 234.056C43.3363 233.939 43.3896 233.741 43.3896 233.464V230.008C43.3896 229.496 43.2936 229.091 43.1016 228.792C42.9203 228.493 42.547 228.344 41.9816 228.344C41.427 228.344 40.8456 228.552 40.2376 228.968C40.099 229.064 40.003 229.16 39.9496 229.256C39.8963 229.341 39.8696 229.501 39.8696 229.736V233.848C39.8696 233.976 39.8963 234.061 39.9496 234.104C40.0136 234.136 40.0936 234.163 40.1896 234.184L40.8936 234.376L40.8296 235H37.4056ZM47.0489 235L46.9529 234.376C47.4755 234.269 47.7902 234.163 47.8969 234.056C48.0142 233.939 48.0729 233.741 48.0729 233.464V228.872C48.0729 228.648 47.9875 228.488 47.8169 228.392C47.6462 228.285 47.3262 228.184 46.8569 228.088L46.9529 227.576C48.0942 227.427 48.8889 227.352 49.3369 227.352L49.5129 227.512V233.848C49.5129 233.976 49.5395 234.061 49.5929 234.104C49.6569 234.136 49.7369 234.163 49.8329 234.184L50.6169 234.376L50.5529 235H47.0489ZM49.5289 224.504C49.5289 224.771 49.4435 224.995 49.2729 225.176C49.1129 225.357 48.8942 225.448 48.6169 225.448C48.3502 225.448 48.1262 225.368 47.9449 225.208C47.7742 225.048 47.6889 224.829 47.6889 224.552C47.6889 224.264 47.7689 224.035 47.9289 223.864C48.0995 223.693 48.3289 223.608 48.6169 223.608C49.2249 223.608 49.5289 223.907 49.5289 224.504ZM53.81 235.384C53.5113 235.715 53.362 236.072 53.362 236.456C53.362 236.84 53.522 237.144 53.842 237.368C54.162 237.592 54.706 237.704 55.474 237.704C56.2527 237.704 56.8553 237.544 57.282 237.224C57.7087 236.904 57.922 236.584 57.922 236.264C57.922 235.944 57.746 235.747 57.394 235.672C57.042 235.608 56.482 235.571 55.714 235.56C54.9567 235.549 54.322 235.491 53.81 235.384ZM52.434 234.024C52.434 233.597 52.594 233.187 52.914 232.792C53.138 232.515 53.394 232.264 53.682 232.04C53.522 231.965 53.3727 231.875 53.234 231.768C52.7007 231.341 52.434 230.701 52.434 229.848C52.434 228.984 52.7273 228.328 53.314 227.88C53.9007 227.421 54.6313 227.192 55.506 227.192C56.2847 227.192 56.93 227.357 57.442 227.688C58.1353 227.357 58.8073 227.181 59.458 227.16C59.5647 227.341 59.618 227.56 59.618 227.816C59.618 228.061 59.602 228.232 59.57 228.328C59.2073 228.243 58.8287 228.2 58.434 228.2C58.274 228.2 58.13 228.2 58.002 228.2C58.3007 228.605 58.45 229.128 58.45 229.768C58.45 230.621 58.1567 231.277 57.57 231.736C56.9833 232.184 56.2527 232.408 55.378 232.408C54.8873 232.408 54.4553 232.344 54.082 232.216C53.762 232.6 53.602 232.968 53.602 233.32C53.602 233.64 53.7833 233.832 54.146 233.896C54.466 233.949 54.8233 233.976 55.218 233.976C55.6233 233.976 55.9327 233.981 56.146 233.992C56.37 233.992 56.6527 234.008 56.994 234.04C57.3353 234.072 57.602 234.125 57.794 234.2C57.9967 234.275 58.2047 234.371 58.418 234.488C58.8127 234.712 59.01 235.107 59.01 235.672C59.01 236.44 58.626 237.101 57.858 237.656C57.09 238.221 56.0553 238.504 54.754 238.504C53.0047 238.504 52.13 238.003 52.13 237C52.13 236.637 52.2313 236.323 52.434 236.056C52.6473 235.8 52.9513 235.528 53.346 235.24C52.738 235.048 52.434 234.643 52.434 234.024ZM55.49 231.624C56.482 231.624 56.978 231.016 56.978 229.8C56.978 228.584 56.45 227.976 55.394 227.976C54.402 227.976 53.906 228.584 53.906 229.8C53.906 231.016 54.434 231.624 55.49 231.624ZM60.7494 235L60.6534 234.376C61.176 234.269 61.4907 234.163 61.5974 234.056C61.7147 233.939 61.7734 233.741 61.7734 233.464V224.168C61.7734 223.944 61.688 223.784 61.5174 223.688C61.3467 223.581 61.0267 223.48 60.5574 223.384L60.6534 222.872C61.7947 222.723 62.5894 222.648 63.0374 222.648L63.2134 222.808V227.304C63.2134 227.891 63.176 228.307 63.1014 228.552L63.2294 228.6L63.4214 228.376C64.0827 227.587 64.9094 227.192 65.9014 227.192C66.616 227.192 67.1707 227.4 67.5654 227.816C67.9707 228.232 68.1734 228.803 68.1734 229.528V233.848C68.1734 233.976 68.2 234.061 68.2534 234.104C68.3174 234.136 68.3974 234.163 68.4934 234.184L69.2774 234.376L69.2134 235H65.7894L65.6934 234.376C66.1734 234.28 66.4667 234.173 66.5734 234.056C66.68 233.939 66.7334 233.741 66.7334 233.464V230.008C66.7334 229.496 66.6374 229.091 66.4454 228.792C66.264 228.493 65.8907 228.344 65.3254 228.344C64.7707 228.344 64.1894 228.552 63.5814 228.968C63.4427 229.064 63.3467 229.16 63.2934 229.256C63.24 229.341 63.2134 229.501 63.2134 229.736V233.848C63.2134 233.976 63.24 234.061 63.2934 234.104C63.3574 234.136 63.4374 234.163 63.5334 234.184L64.2374 234.376L64.1734 235H60.7494ZM70.3766 230.568L73.8646 230.344L73.6086 231.336L70.1846 231.752L70.3766 230.568ZM75.1114 235L75.0154 234.376C75.538 234.269 75.8527 234.163 75.9594 234.056C76.0767 233.939 76.1354 233.741 76.1354 233.464V228.872C76.1354 228.648 76.05 228.488 75.8794 228.392C75.7087 228.285 75.3887 228.184 74.9194 228.088L75.0154 227.576C76.1567 227.427 76.9514 227.352 77.3994 227.352L77.5754 227.512V233.848C77.5754 233.976 77.602 234.061 77.6554 234.104C77.7194 234.136 77.7994 234.163 77.8954 234.184L78.6794 234.376L78.6154 235H75.1114ZM77.5914 224.504C77.5914 224.771 77.506 224.995 77.3354 225.176C77.1754 225.357 76.9567 225.448 76.6794 225.448C76.4127 225.448 76.1887 225.368 76.0074 225.208C75.8367 225.048 75.7514 224.829 75.7514 224.552C75.7514 224.264 75.8314 224.035 75.9914 223.864C76.162 223.693 76.3914 223.608 76.6794 223.608C77.2874 223.608 77.5914 223.907 77.5914 224.504ZM80.0645 235L79.9685 234.376C80.4912 234.269 80.8058 234.163 80.9125 234.056C81.0298 233.939 81.0885 233.741 81.0885 233.464V228.856C81.0885 228.579 81.0192 228.387 80.8805 228.28C80.7525 228.163 80.4165 228.051 79.8725 227.944L79.9685 227.432L82.0325 227.224C82.1072 227.224 82.1818 227.373 82.2565 227.672C82.3418 227.96 82.3845 228.221 82.3845 228.456V228.552L82.4965 228.6L82.6565 228.392C82.9232 228.051 83.2592 227.768 83.6645 227.544C84.0805 227.309 84.5178 227.192 84.9765 227.192C86.0005 227.192 86.6512 227.651 86.9285 228.568L87.0405 228.584L87.2165 228.36C87.8245 227.581 88.5872 227.192 89.5045 227.192C90.1552 227.192 90.6618 227.4 91.0245 227.816C91.3978 228.232 91.5845 228.803 91.5845 229.528V233.848C91.5845 233.976 91.6112 234.061 91.6645 234.104C91.7285 234.136 91.8085 234.163 91.9045 234.184L92.6885 234.376L92.6245 235H89.2005L89.1045 234.376C89.5845 234.28 89.8778 234.173 89.9845 234.056C90.0912 233.939 90.1445 233.741 90.1445 233.464V229.832C90.1445 228.84 89.7445 228.344 88.9445 228.344C88.5285 228.344 88.0058 228.552 87.3765 228.968C87.2485 229.043 87.1632 229.128 87.1205 229.224C87.0778 229.309 87.0565 229.469 87.0565 229.704V233.848C87.0565 233.976 87.0832 234.061 87.1365 234.104C87.2005 234.136 87.2805 234.163 87.3765 234.184L88.0805 234.376L88.0165 235H84.6725L84.5765 234.376C85.0565 234.28 85.3498 234.173 85.4565 234.056C85.5632 233.939 85.6165 233.741 85.6165 233.464V229.832C85.6165 228.84 85.2165 228.344 84.4165 228.344C84.0005 228.344 83.4778 228.552 82.8485 228.968C82.7205 229.043 82.6352 229.128 82.5925 229.224C82.5498 229.309 82.5285 229.469 82.5285 229.704V233.848C82.5285 233.976 82.5552 234.061 82.6085 234.104C82.6725 234.136 82.7525 234.163 82.8485 234.184L83.5525 234.376L83.4885 235H80.0645ZM94.5985 236.824V228.856C94.5985 228.579 94.5292 228.387 94.3905 228.28C94.2625 228.163 93.9265 228.051 93.3825 227.944L93.4785 227.432C94.8012 227.293 95.4945 227.224 95.5585 227.224C95.6225 227.224 95.6972 227.368 95.7825 227.656C95.8785 227.933 95.9265 228.179 95.9265 228.392V228.552L96.0545 228.6L96.2145 228.392C96.8332 227.592 97.5745 227.192 98.4385 227.192C99.3025 227.192 100.012 227.539 100.567 228.232C101.121 228.915 101.399 229.853 101.399 231.048C101.399 232.243 101.084 233.224 100.455 233.992C99.8252 234.76 98.9452 235.144 97.8145 235.144C97.0145 235.144 96.4385 235.005 96.0865 234.728L95.9745 234.776C96.0172 235.011 96.0385 235.245 96.0385 235.48V237.208C96.0385 237.347 96.0652 237.432 96.1185 237.464C96.1825 237.507 96.2625 237.533 96.3585 237.544L97.8145 237.736L97.7505 238.36H93.5745L93.4785 237.736C94.0012 237.629 94.3158 237.517 94.4225 237.4C94.5398 237.293 94.5985 237.101 94.5985 236.824ZM96.0385 233.448C96.4758 233.971 97.1585 234.232 98.0865 234.232C98.5452 234.232 98.9078 234.083 99.1745 233.784C99.6225 233.283 99.8465 232.504 99.8465 231.448C99.8465 230.381 99.6758 229.597 99.3345 229.096C99.0038 228.595 98.5825 228.344 98.0705 228.344C97.5585 228.344 97.0252 228.525 96.4705 228.888C96.1825 229.08 96.0385 229.325 96.0385 229.624V233.448ZM102.641 233.032C102.641 232.232 102.982 231.635 103.665 231.24C104.347 230.845 105.457 230.643 106.993 230.632V230.12C106.993 228.733 106.491 228.04 105.489 228.04C105.009 228.04 104.705 228.109 104.577 228.248C104.459 228.387 104.331 228.84 104.193 229.608L103.329 229.512C103.243 229.181 103.201 228.84 103.201 228.488C103.201 228.125 103.206 227.891 103.217 227.784C103.846 227.389 104.673 227.192 105.697 227.192C106.721 227.192 107.43 227.389 107.825 227.784C108.23 228.179 108.433 228.829 108.433 229.736V233.416C108.433 233.693 108.497 233.891 108.625 234.008C108.763 234.115 109.105 234.221 109.649 234.328L109.553 234.84L107.633 235.048C107.526 235.048 107.414 234.947 107.297 234.744C107.179 234.541 107.121 234.355 107.121 234.184C107.121 234.003 107.126 233.869 107.137 233.784L107.009 233.736L106.817 234.024C106.315 234.771 105.627 235.144 104.753 235.144C104.155 235.144 103.654 234.957 103.249 234.584C102.843 234.211 102.641 233.693 102.641 233.032ZM104.193 232.888C104.193 233.272 104.294 233.565 104.497 233.768C104.699 233.96 104.987 234.056 105.361 234.056C105.734 234.056 106.155 233.875 106.625 233.512C106.87 233.32 106.993 233.117 106.993 232.904V231.336C106.033 231.357 105.323 231.485 104.865 231.72C104.417 231.955 104.193 232.344 104.193 232.888ZM111.468 228.536C111.735 228.12 112.124 227.795 112.636 227.56C113.159 227.315 113.799 227.192 114.556 227.192C115.324 227.192 116.082 227.341 116.828 227.64C116.839 227.725 116.844 228.003 116.844 228.472C116.844 228.931 116.78 229.384 116.652 229.832L115.756 229.928C115.586 228.851 115.426 228.28 115.276 228.216C115.052 228.12 114.652 228.072 114.076 228.072C113.5 228.072 113.079 228.269 112.812 228.664C112.439 229.229 112.252 230.035 112.252 231.08C112.252 232.115 112.476 232.872 112.924 233.352C113.383 233.821 113.975 234.056 114.7 234.056C115.436 234.056 116.146 233.821 116.828 233.352L117.276 233.88C116.412 234.723 115.394 235.144 114.22 235.144C113.058 235.144 112.178 234.781 111.58 234.056C110.994 233.32 110.7 232.413 110.7 231.336C110.7 230.248 110.956 229.315 111.468 228.536ZM119.001 232.808V228.408H117.961L117.897 227.72L118.681 227.528C118.883 227.475 119.017 227.357 119.081 227.176C119.155 226.984 119.283 226.387 119.465 225.384L120.441 225.288V227.432H122.665L122.537 228.184L120.441 228.424V232.328C120.441 233.437 120.782 233.992 121.465 233.992C121.849 233.992 122.254 233.832 122.681 233.512L123.017 233.976C122.441 234.755 121.737 235.144 120.905 235.144C120.307 235.144 119.838 234.936 119.497 234.52C119.166 234.104 119.001 233.533 119.001 232.808ZM128.692 236.824V228.856C128.692 228.579 128.623 228.387 128.484 228.28C128.356 228.163 128.02 228.051 127.476 227.944L127.572 227.432C128.895 227.293 129.588 227.224 129.652 227.224C129.716 227.224 129.791 227.368 129.876 227.656C129.972 227.933 130.02 228.179 130.02 228.392V228.552L130.148 228.6L130.308 228.392C130.927 227.592 131.668 227.192 132.532 227.192C133.396 227.192 134.106 227.539 134.66 228.232C135.215 228.915 135.492 229.853 135.492 231.048C135.492 232.243 135.178 233.224 134.548 233.992C133.919 234.76 133.039 235.144 131.908 235.144C131.108 235.144 130.532 235.005 130.18 234.728L130.068 234.776C130.111 235.011 130.132 235.245 130.132 235.48V237.208C130.132 237.347 130.159 237.432 130.212 237.464C130.276 237.507 130.356 237.533 130.452 237.544L131.908 237.736L131.844 238.36H127.668L127.572 237.736C128.095 237.629 128.41 237.517 128.516 237.4C128.634 237.293 128.692 237.101 128.692 236.824ZM130.132 233.448C130.57 233.971 131.252 234.232 132.18 234.232C132.639 234.232 133.002 234.083 133.268 233.784C133.716 233.283 133.94 232.504 133.94 231.448C133.94 230.381 133.77 229.597 133.428 229.096C133.098 228.595 132.676 228.344 132.164 228.344C131.652 228.344 131.119 228.525 130.564 228.888C130.276 229.08 130.132 229.325 130.132 229.624V233.448ZM136.703 235L136.607 234.376C137.172 234.28 137.519 234.173 137.647 234.056C137.775 233.939 137.839 233.741 137.839 233.464V228.856C137.839 228.579 137.764 228.381 137.615 228.264C137.476 228.136 137.108 228.029 136.511 227.944L136.607 227.432L138.783 227.224C138.857 227.224 138.937 227.331 139.023 227.544C139.108 227.757 139.151 227.981 139.151 228.216C139.151 228.44 139.129 228.701 139.087 229L139.215 229.048L139.423 228.584C139.615 228.157 139.903 227.821 140.286 227.576C140.681 227.32 141.076 227.192 141.471 227.192C141.876 227.192 142.249 227.277 142.591 227.448C142.591 228.323 142.511 229.197 142.351 230.072L141.567 230.152C141.481 229.256 141.396 228.749 141.311 228.632C141.225 228.504 141.081 228.44 140.879 228.44C140.687 228.44 140.457 228.531 140.191 228.712C139.924 228.883 139.705 229.069 139.535 229.272C139.364 229.464 139.279 229.784 139.279 230.232V233.848C139.279 233.987 139.305 234.077 139.359 234.12C139.423 234.152 139.503 234.173 139.599 234.184L141.055 234.376L140.991 235H136.703ZM147.065 235.144C145.913 235.144 145.027 234.803 144.409 234.12C143.79 233.437 143.481 232.483 143.481 231.256C143.481 230.029 143.806 229.048 144.457 228.312C145.118 227.565 146.025 227.192 147.177 227.192C148.339 227.192 149.23 227.539 149.849 228.232C150.467 228.915 150.777 229.869 150.777 231.096C150.777 232.323 150.446 233.304 149.785 234.04C149.134 234.776 148.227 235.144 147.065 235.144ZM145.033 231.048C145.033 231.997 145.225 232.776 145.609 233.384C145.993 233.992 146.515 234.296 147.177 234.296C147.838 234.296 148.307 234.136 148.585 233.816C148.777 233.603 148.931 233.267 149.049 232.808C149.166 232.339 149.225 231.832 149.225 231.288C149.225 230.339 149.033 229.56 148.649 228.952C148.265 228.344 147.742 228.04 147.081 228.04C146.419 228.04 145.95 228.2 145.673 228.52C145.481 228.733 145.326 229.075 145.209 229.544C145.091 230.003 145.033 230.504 145.033 231.048ZM152.881 233.912V228.872C152.881 228.648 152.796 228.488 152.625 228.392C152.455 228.285 152.135 228.184 151.665 228.088L151.761 227.576C152.903 227.427 153.697 227.352 154.145 227.352L154.321 227.512V234.392C154.321 235.395 154.023 236.328 153.425 237.192C152.828 238.067 152.252 238.504 151.697 238.504C151.313 238.504 150.908 238.467 150.481 238.392C150.449 238.264 150.433 238.088 150.433 237.864C150.433 237.64 150.524 237.379 150.705 237.08C151.132 237.187 151.452 237.24 151.665 237.24C151.889 237.24 152.055 237.203 152.161 237.128C152.385 236.979 152.561 236.595 152.689 235.976C152.817 235.368 152.881 234.68 152.881 233.912ZM154.337 224.504C154.337 224.771 154.252 224.995 154.081 225.176C153.921 225.357 153.703 225.448 153.425 225.448C153.159 225.448 152.935 225.368 152.753 225.208C152.583 225.048 152.497 224.829 152.497 224.552C152.497 224.264 152.577 224.035 152.737 223.864C152.908 223.693 153.137 223.608 153.425 223.608C154.033 223.608 154.337 223.907 154.337 224.504ZM159.702 235.144C158.624 235.144 157.787 234.776 157.19 234.04C156.603 233.304 156.31 232.376 156.31 231.256C156.31 230.125 156.651 229.165 157.334 228.376C158.016 227.587 158.918 227.192 160.038 227.192C161.851 227.192 162.8 228.307 162.886 230.536L162.47 230.84L157.83 231.096C157.83 233.069 158.672 234.056 160.358 234.056C161.094 234.056 161.814 233.875 162.518 233.512L162.854 234.04C162.502 234.328 162.043 234.584 161.478 234.808C160.912 235.032 160.32 235.144 159.702 235.144ZM157.878 230.36L161.19 230.072C161.296 230.061 161.35 229.96 161.35 229.768C161.35 229.299 161.222 228.893 160.966 228.552C160.72 228.211 160.299 228.04 159.702 228.04C159.104 228.04 158.667 228.243 158.39 228.648C158.123 229.043 157.952 229.613 157.878 230.36ZM164.718 228.536C164.985 228.12 165.374 227.795 165.886 227.56C166.409 227.315 167.049 227.192 167.806 227.192C168.574 227.192 169.332 227.341 170.078 227.64C170.089 227.725 170.094 228.003 170.094 228.472C170.094 228.931 170.03 229.384 169.902 229.832L169.006 229.928C168.836 228.851 168.676 228.28 168.526 228.216C168.302 228.12 167.902 228.072 167.326 228.072C166.75 228.072 166.329 228.269 166.062 228.664C165.689 229.229 165.502 230.035 165.502 231.08C165.502 232.115 165.726 232.872 166.174 233.352C166.633 233.821 167.225 234.056 167.95 234.056C168.686 234.056 169.396 233.821 170.078 233.352L170.526 233.88C169.662 234.723 168.644 235.144 167.47 235.144C166.308 235.144 165.428 234.781 164.83 234.056C164.244 233.32 163.95 232.413 163.95 231.336C163.95 230.248 164.206 229.315 164.718 228.536ZM172.251 232.808V228.408H171.211L171.147 227.72L171.931 227.528C172.133 227.475 172.267 227.357 172.331 227.176C172.405 226.984 172.533 226.387 172.715 225.384L173.691 225.288V227.432H175.915L175.787 228.184L173.691 228.424V232.328C173.691 233.437 174.032 233.992 174.715 233.992C175.099 233.992 175.504 233.832 175.931 233.512L176.267 233.976C175.691 234.755 174.987 235.144 174.155 235.144C173.557 235.144 173.088 234.936 172.747 234.52C172.416 234.104 172.251 233.533 172.251 232.808ZM180.068 228.04C179.13 228.04 178.66 228.36 178.66 229C178.66 229.256 178.724 229.448 178.852 229.576C178.98 229.693 179.071 229.784 179.124 229.848C179.188 229.901 179.306 229.971 179.476 230.056C179.647 230.141 179.764 230.205 179.828 230.248C179.903 230.28 180.047 230.339 180.26 230.424C181.156 230.797 181.786 231.149 182.148 231.48C182.511 231.811 182.692 232.28 182.692 232.888C182.692 233.496 182.42 234.024 181.876 234.472C181.343 234.92 180.607 235.144 179.668 235.144C179.252 235.144 178.82 235.101 178.372 235.016C177.924 234.931 177.599 234.845 177.396 234.76C177.375 234.621 177.364 234.339 177.364 233.912C177.364 233.485 177.412 233.021 177.508 232.52L178.34 232.456C178.415 233.139 178.468 233.56 178.5 233.72C178.543 233.869 178.602 233.965 178.676 234.008C179.018 234.2 179.466 234.296 180.02 234.296C180.884 234.296 181.316 233.949 181.316 233.256C181.316 232.925 181.188 232.653 180.932 232.44C180.644 232.205 180.314 232.008 179.94 231.848C178.959 231.443 178.287 231.075 177.924 230.744C177.572 230.403 177.396 229.933 177.396 229.336C177.396 228.739 177.668 228.232 178.212 227.816C178.756 227.4 179.412 227.192 180.18 227.192C180.948 227.192 181.652 227.325 182.292 227.592C182.303 227.677 182.308 227.917 182.308 228.312C182.308 228.707 182.239 229.123 182.1 229.56L181.364 229.64C181.29 228.808 181.167 228.333 180.996 228.216C180.836 228.099 180.527 228.04 180.068 228.04ZM186.461 234.152C186.461 234.429 186.37 234.664 186.189 234.856C186.007 235.048 185.773 235.144 185.485 235.144C185.197 235.144 184.962 235.064 184.781 234.904C184.599 234.733 184.509 234.504 184.509 234.216C184.509 233.917 184.594 233.672 184.765 233.48C184.946 233.288 185.181 233.192 185.469 233.192C186.13 233.192 186.461 233.512 186.461 234.152Z" fill="white"/>
<path d="M0 0H53C71.7777 0 87 15.2223 87 34V59C87 77.7777 71.7777 93 53 93H34C15.2223 93 0 77.7777 0 59V0Z" fill="#FFD460"/>
<path d="M52.883 45.4785L43.3137 36.3082C42.1953 35.2322 41.2625 34.0292 40.5153 32.699C39.768 31.3689 39.3944 29.9202 39.3944 28.3528C39.3944 26.4838 40.0485 24.8953 41.3566 23.5872C42.663 22.2791 44.2498 21.625 46.1171 21.625C47.5049 21.625 48.7672 22.0003 49.9042 22.751C51.0412 23.5016 52.0333 24.4132 52.8805 25.4858C53.7277 24.4132 54.7207 23.5016 55.8593 22.751C56.9946 22.0003 58.257 21.625 59.6464 21.625C61.5154 21.625 63.1031 22.2791 64.4095 23.5872C65.7159 24.8953 66.3708 26.483 66.3742 28.3502C66.3742 29.9193 66.0031 31.3689 65.261 32.699C64.5171 34.0292 63.586 35.2322 62.4677 36.3082L52.883 45.4785ZM52.883 41.9787L60.4953 34.6917C61.3968 33.8208 62.1788 32.8566 62.8413 31.7993C63.5021 30.742 63.8325 29.5923 63.8325 28.3502C63.8325 27.1912 63.4259 26.2042 62.6125 25.3892C61.7992 24.5742 60.8105 24.1667 59.6464 24.1667C58.6297 24.1667 57.7181 24.4708 56.9116 25.0791C56.105 25.6857 55.3807 26.4016 54.7385 27.2268L52.883 29.5525L51.0251 27.2268C50.3812 26.4016 49.6568 25.6857 48.852 25.0791C48.0454 24.4708 47.1338 24.1667 46.1171 24.1667C44.9564 24.1667 43.9694 24.5733 43.1561 25.3867C42.3411 26.2034 41.9335 27.1912 41.9335 28.3502C41.9335 29.5923 42.264 30.742 42.9248 31.7993C43.5856 32.8566 44.3676 33.8208 45.2707 34.6917L52.883 41.9787ZM29.276 61.4122L48.5037 67.0217L63.7258 62.3196C63.675 61.5487 63.4437 60.9929 63.0319 60.6523C62.6202 60.3117 62.1542 60.1414 61.634 60.1414H49.5738C48.4995 60.1414 47.5252 60.0991 46.6509 60.0143C45.7765 59.9296 44.8827 59.728 43.9694 59.4094L38.4032 57.5845L39.2622 55.0733L44.4091 56.9338C45.2258 57.2439 46.1544 57.4303 47.1948 57.493C48.2335 57.554 49.6568 57.5896 51.4648 57.5997C51.4648 56.8067 51.3191 56.1663 51.0276 55.6783C50.7362 55.1903 50.3185 54.8497 49.7746 54.6565L35.1498 49.2885C35.0532 49.2563 34.9634 49.2326 34.8804 49.2173C34.7974 49.2021 34.7084 49.1936 34.6135 49.1919H29.276V61.4122ZM19.1094 67.375V46.6503H34.5525C34.7898 46.6503 35.0338 46.6774 35.2845 46.7316C35.5353 46.7858 35.7683 46.8485 35.9835 46.9197L50.6718 52.3004C51.5817 52.646 52.3645 53.2671 53.0203 54.1634C53.6777 55.0598 54.0065 56.2052 54.0065 57.5997H61.6315C63.1632 57.5997 64.3358 58.0784 65.1491 59.0358C65.9642 59.9948 66.3717 61.2106 66.3717 62.6831V64.2462L48.6308 69.721L29.2735 64.0785V67.375H19.1094ZM21.651 64.8333H26.7344V49.1919H21.651V64.8333Z" fill="white"/>
</svg>
