<svg width="43" height="43" viewBox="0 0 43 43" fill="none" xmlns="http://www.w3.org/2000/svg">
<path fill-rule="evenodd" clip-rule="evenodd" d="M24.4871 12.5318C23.9005 12.9385 23.2388 13.2243 22.5406 13.3725C21.8424 13.5207 21.1217 13.5284 20.4205 13.395C19.7193 13.2617 19.0517 12.9901 18.4566 12.5959C17.8615 12.2018 17.3509 11.6931 16.9545 11.0996C16.5581 10.506 16.2839 9.8394 16.148 9.13872C16.012 8.43803 16.0169 7.71728 16.1624 7.01852C16.308 6.31977 16.5913 5.657 16.9957 5.06889C17.4002 4.48078 17.9177 3.97912 18.5181 3.59318C19.7035 2.8102 21.1507 2.52836 22.5433 2.80927C23.9359 3.09019 25.1607 3.911 25.9499 5.09229C26.739 6.27358 27.0285 7.71927 26.7549 9.11333C26.4813 10.5074 25.6669 11.7364 24.4897 12.5318H24.4871ZM22.9955 5.82918C22.7028 5.61862 22.3708 5.46912 22.0191 5.38955C21.6674 5.30999 21.3034 5.302 20.9486 5.36606C20.5938 5.43012 20.2555 5.56491 19.9538 5.76242C19.6522 5.95992 19.3934 6.2161 19.1928 6.51571C18.9922 6.81531 18.854 7.15221 18.7863 7.50634C18.7186 7.86048 18.7229 8.22461 18.7989 8.57706C18.8748 8.92951 19.021 9.26307 19.2285 9.55789C19.4361 9.8527 19.7008 10.1027 20.007 10.2931C20.5985 10.6525 21.3059 10.7697 21.9818 10.6205C22.6577 10.4712 23.2499 10.067 23.6351 9.49192C24.0203 8.91687 24.1688 8.21537 24.0497 7.53356C23.9305 6.85174 23.5529 6.24218 22.9955 5.83186V5.82918ZM30.0099 5.9098C30.785 5.38843 31.7176 5.15364 32.6472 5.24586C33.5768 5.33809 34.4451 5.75155 35.1027 6.41505C35.5712 6.88738 35.9167 7.46746 36.1089 8.10442C36.301 8.74138 36.3339 9.41576 36.2047 10.0684C36.0755 10.721 35.7882 11.332 35.3678 11.8477C34.9475 12.3634 34.407 12.7681 33.7939 13.0263C33.0576 13.3349 32.2458 13.4164 31.4628 13.2603C30.6799 13.1042 29.9614 12.7176 29.3998 12.1502C28.9774 11.7256 28.6541 11.2129 28.4529 10.6488C28.2518 10.0846 28.1779 9.483 28.2364 8.88696C28.295 8.29091 28.4846 7.71518 28.7916 7.20096C29.0987 6.68674 29.5156 6.24676 30.0126 5.91249L30.0099 5.9098ZM31.2999 10.2367C31.5522 10.4879 31.894 10.6287 32.2501 10.6279C32.4264 10.6275 32.6009 10.5924 32.7636 10.5246C32.9264 10.4568 33.0742 10.3576 33.1986 10.2326C33.323 10.1077 33.4216 9.95949 33.4887 9.79646C33.5558 9.63342 33.5902 9.45876 33.5898 9.28245C33.5894 9.10614 33.5543 8.93163 33.4865 8.76888C33.4187 8.60613 33.3195 8.45833 33.1946 8.33393C32.9458 8.08009 32.6066 7.93514 32.2512 7.9308C32.0741 7.9308 31.8987 7.96582 31.7351 8.03385C31.5716 8.10189 31.4231 8.20159 31.2982 8.32722C31.1733 8.45286 31.0745 8.60194 31.0075 8.76591C30.9404 8.92987 30.9064 9.10547 30.9075 9.28261C30.9065 9.4601 30.9406 9.63603 31.008 9.80024C31.0753 9.96446 31.1745 10.111 31.2999 10.2367ZM8.57436 33.5588H13.4387V36.2597H8.57436C7.723 36.2512 6.90956 35.9063 6.31149 35.3003C6.01323 34.9996 5.77713 34.6431 5.61666 34.2511C5.45619 33.8592 5.37449 33.4395 5.37624 33.0159V28.1516C5.01449 28.139 4.65901 28.0535 4.33112 27.9002C4.00323 27.7468 3.70969 27.5289 3.46811 27.2593C3.21084 27.0003 3.00905 26.6915 2.87506 26.3519C2.74106 26.0123 2.67766 25.6489 2.68874 25.284V19.4199C2.6968 18.1514 3.19936 16.9393 4.08624 16.039C4.97042 15.1494 6.16636 14.6415 7.41874 14.6334H12.3637C11.696 15.4273 11.1935 16.3465 10.8856 17.3371H7.41874C6.8734 17.3532 6.35461 17.5761 5.96749 17.9606C5.58826 18.3517 5.37621 18.8751 5.37624 19.4199V25.4184H8.06374V33.0132C8.05719 33.0865 8.06573 33.1603 8.08885 33.2301C8.11196 33.2999 8.14915 33.3642 8.19811 33.4191C8.30615 33.5025 8.43788 33.5496 8.57436 33.5534V33.5588ZM28.1931 16.0417C27.7529 15.5982 27.2297 15.2459 26.6533 15.0047C26.0768 14.7635 25.4586 14.6383 24.8337 14.6361H18.1687C16.9162 14.6476 15.7187 15.1527 14.8362 16.0417C13.9494 16.942 13.4468 18.1541 13.4387 19.4226V27.9634C13.4349 28.6968 13.7141 29.4033 14.2181 29.9361C14.4597 30.2056 14.7532 30.4236 15.0811 30.5769C15.409 30.7302 15.7645 30.8157 16.1262 30.8283V37.0714C16.1234 37.4975 16.2051 37.92 16.3666 38.3144C16.528 38.7088 16.766 39.0673 17.0669 39.3692C17.5506 39.8207 18.1607 40.1136 18.8137 40.2077H24.1887C24.9447 40.1084 25.6372 39.7333 26.1333 39.1544C26.6294 38.5754 26.894 37.8336 26.8762 37.0714V30.8256C27.238 30.8131 27.5935 30.7275 27.9214 30.5742C28.2493 30.4209 28.5428 30.2029 28.7844 29.9334C29.0413 29.6746 29.2429 29.3663 29.3769 29.0272C29.5109 28.6881 29.5744 28.3252 29.5637 27.9607V19.4199C29.5656 18.1572 29.0737 16.9466 28.1931 16.0417ZM26.8762 28.0951H24.1887V37.0714C24.1867 37.2131 24.1288 37.3484 24.0275 37.4476C23.9816 37.5019 23.9237 37.5447 23.8584 37.5727C23.7931 37.6007 23.7222 37.6131 23.6512 37.6089H19.3244C19.1839 37.6023 19.051 37.5436 18.9516 37.4442C18.8521 37.3448 18.7934 37.2118 18.7869 37.0714V28.0951H16.1262V19.4199C16.1262 18.8743 16.3385 18.3502 16.7175 17.9606C17.1046 17.5761 17.6234 17.3532 18.1687 17.3371H24.8337C25.2407 17.3449 25.6366 17.4711 25.973 17.7002C26.3095 17.9292 26.572 18.2513 26.7284 18.6271C26.8273 18.8796 26.8774 19.1486 26.8762 19.4199V28.0951ZM34.4281 36.2571H29.5637V33.5561H34.4012C34.5377 33.5523 34.6695 33.5052 34.7775 33.4217C34.8316 33.3688 34.874 33.3051 34.9017 33.2347C34.9295 33.1643 34.9421 33.0888 34.9387 33.0132V25.4184H37.6262V19.4199C37.6263 18.8751 37.4142 18.3517 37.035 17.9606C36.6479 17.5761 36.1291 17.3532 35.5837 17.3371H32.1169C31.809 16.3465 31.3065 15.4273 30.6387 14.6334H35.5837C36.8363 14.6449 38.0338 15.15 38.9162 16.039C39.8031 16.9393 40.3057 18.1514 40.3137 19.4199V25.284C40.3137 26.0177 40.0369 26.7218 39.5371 27.2539C39.0372 27.7887 38.3546 28.1086 37.6262 28.1489V33.0132C37.6262 33.8706 37.2903 34.6902 36.691 35.2976C36.0929 35.9036 35.2795 36.2485 34.4281 36.2571ZM10.7512 5.22718C9.95119 5.2248 9.16876 5.46213 8.50485 5.90857C7.84094 6.35501 7.32598 6.99009 7.02636 7.73193C6.72381 8.47283 6.64556 9.28629 6.80132 10.0713C6.95707 10.8563 7.33998 11.5782 7.90249 12.1475C8.4657 12.7155 9.18545 13.1028 9.96981 13.2598C10.7542 13.4168 11.5675 13.3364 12.306 13.0289C13.0444 12.7214 13.6745 12.2007 14.1156 11.5334C14.5567 10.8662 14.7889 10.0825 14.7825 9.28261C14.7825 8.20761 14.3579 7.17561 13.6 6.41505C13.2264 6.03963 12.7826 5.7415 12.2938 5.53768C11.805 5.33386 11.2808 5.22835 10.7512 5.22718ZM10.7512 10.6344C10.5741 10.6344 10.3987 10.5994 10.2351 10.5314C10.0716 10.4633 9.92309 10.3636 9.7982 10.238C9.67332 10.1124 9.5745 9.96328 9.50745 9.79932C9.4404 9.63536 9.40642 9.45975 9.40749 9.28261C9.40818 8.9257 9.54973 8.58348 9.80135 8.33035C10.053 8.07722 10.3943 7.93363 10.7512 7.9308C11.1068 7.93774 11.4458 8.08264 11.6966 8.33489C11.9473 8.58714 12.0902 8.92698 12.095 9.28261C12.0943 9.63953 11.9527 9.98174 11.7011 10.2349C11.4495 10.488 11.1081 10.6316 10.7512 10.6344Z" fill="white"/>
</svg>
