<svg width="252" height="311" viewBox="0 0 252 311" fill="none" xmlns="http://www.w3.org/2000/svg">
<path d="M0 0H53C71.7777 0 87 15.2223 87 34V59C87 77.7777 71.7777 93 53 93H34C15.2223 93 0 77.7777 0 59V0Z" fill="#6262B2"/>
<rect y="36" width="252" height="275" rx="20" fill="#37378E"/>
<path d="M22.424 158.28H33.496V160.36H33.144C32.5893 160.36 32.1307 160.435 31.768 160.584C31.4267 160.733 31.256 161.043 31.256 161.512V173.512C31.256 175.005 31.0427 176.253 30.616 177.256C30.2107 178.259 29.6347 179.059 28.888 179.656C28.1413 180.253 27.2453 180.68 26.2 180.936C25.176 181.192 24.0453 181.32 22.808 181.32C21.6347 181.32 20.5893 181.213 19.672 181C18.776 180.765 17.9867 180.467 17.304 180.104C16.6427 179.741 16.088 179.368 15.64 178.984V174.376H20.184V178.76C19.8 178.653 19.4693 178.504 19.192 178.312C18.936 178.099 18.744 177.885 18.616 177.672C18.5093 177.459 18.4773 177.277 18.52 177.128C18.5627 176.979 18.7013 176.904 18.936 176.904C19.1493 177.203 19.3947 177.501 19.672 177.8C19.9707 178.077 20.312 178.312 20.696 178.504C21.1013 178.675 21.5707 178.76 22.104 178.76C22.744 178.76 23.288 178.621 23.736 178.344C24.184 178.045 24.5253 177.533 24.76 176.808C24.9947 176.061 25.112 175.016 25.112 173.672V161.512C25.112 161.192 25.016 160.957 24.824 160.808C24.6533 160.637 24.408 160.52 24.088 160.456C23.7893 160.392 23.4373 160.36 23.032 160.36H22.424V158.28ZM53.523 172.808C53.523 174.472 53.139 175.955 52.371 177.256C51.6243 178.536 50.547 179.539 49.139 180.264C47.7523 180.968 46.1097 181.32 44.211 181.32C42.3123 181.32 40.659 180.968 39.251 180.264C37.8643 179.539 36.787 178.536 36.019 177.256C35.2723 175.955 34.899 174.472 34.899 172.808C34.899 171.528 35.1123 170.376 35.539 169.352C35.9657 168.307 36.5843 167.411 37.395 166.664C38.227 165.896 39.2083 165.309 40.339 164.904C41.491 164.477 42.7817 164.264 44.211 164.264C45.6403 164.264 46.9203 164.477 48.051 164.904C49.203 165.309 50.1843 165.896 50.995 166.664C51.827 167.411 52.4563 168.307 52.883 169.352C53.3097 170.376 53.523 171.528 53.523 172.808ZM40.883 172.808C40.883 174.131 41.011 175.251 41.267 176.168C41.5443 177.085 41.9283 177.779 42.419 178.248C42.9097 178.717 43.507 178.952 44.211 178.952C44.915 178.952 45.5123 178.717 46.003 178.248C46.4937 177.779 46.867 177.085 47.123 176.168C47.379 175.251 47.507 174.131 47.507 172.808C47.507 171.443 47.379 170.312 47.123 169.416C46.867 168.52 46.4937 167.848 46.003 167.4C45.5123 166.952 44.915 166.728 44.211 166.728C43.507 166.728 42.9097 166.952 42.419 167.4C41.9283 167.848 41.5443 168.52 41.267 169.416C41.011 170.312 40.883 171.443 40.883 172.808ZM59.9065 162.344C58.9465 162.344 58.1785 162.12 57.6025 161.672C57.0478 161.203 56.7705 160.552 56.7705 159.72C56.7705 158.888 57.0478 158.248 57.6025 157.8C58.1785 157.331 58.9465 157.096 59.9065 157.096C60.8878 157.096 61.6558 157.331 62.2105 157.8C62.7865 158.248 63.0745 158.888 63.0745 159.72C63.0745 160.552 62.7865 161.203 62.2105 161.672C61.6558 162.12 60.8878 162.344 59.9065 162.344ZM62.9145 164.584V178.088C62.9145 178.472 63.0745 178.728 63.3945 178.856C63.7358 178.984 64.1412 179.048 64.6105 179.048H64.6425V181H55.3625V179.048H55.3945C55.8852 179.048 56.2905 178.984 56.6105 178.856C56.9305 178.728 57.0905 178.472 57.0905 178.088V167.752C57.0905 167.411 56.9732 167.176 56.7385 167.048C56.5038 166.92 56.1305 166.803 55.6185 166.696L55.3625 166.632V164.584H62.9145ZM65.9875 181V179.048H66.0195C66.3395 179.048 66.6275 179.027 66.8835 178.984C67.1395 178.92 67.3315 178.824 67.4595 178.696C67.6088 178.547 67.6835 178.344 67.6835 178.088V167.752C67.6835 167.517 67.6302 167.347 67.5235 167.24C67.4382 167.112 67.2888 167.016 67.0755 166.952C66.8622 166.867 66.5848 166.781 66.2435 166.696L65.9875 166.632V164.584H73.1555V168.136H73.5395V178.76C73.5395 178.824 73.6142 178.877 73.7635 178.92C73.9342 178.963 74.1262 178.995 74.3395 179.016C74.5742 179.037 74.7875 179.048 74.9795 179.048H75.0755V181H65.9875ZM86.1155 181H77.0275V179.048H77.0595C77.2515 179.048 77.4648 179.048 77.6995 179.048C77.9342 179.027 78.1368 178.995 78.3075 178.952C78.4782 178.888 78.5635 178.824 78.5635 178.76V169.736C78.5635 169.203 78.4995 168.765 78.3715 168.424C78.2435 168.083 78.0515 167.827 77.7955 167.656C77.5395 167.485 77.1982 167.4 76.7715 167.4C76.2595 167.4 75.7795 167.549 75.3315 167.848C74.8835 168.125 74.4568 168.541 74.0515 169.096C73.6462 169.651 73.2622 170.344 72.8995 171.176L72.8355 168.232C73.2622 167.4 73.7635 166.696 74.3395 166.12C74.9368 165.523 75.6195 165.064 76.3875 164.744C77.1768 164.424 78.0408 164.264 78.9795 164.264C80.0675 164.264 81.0168 164.477 81.8275 164.904C82.6382 165.309 83.2675 165.928 83.7155 166.76C84.1635 167.571 84.3875 168.584 84.3875 169.8V178.088C84.3875 178.344 84.4622 178.547 84.6115 178.696C84.7608 178.824 84.9528 178.92 85.1875 178.984C85.4435 179.027 85.7315 179.048 86.0515 179.048H86.1155V181ZM116.129 171.432C116.001 172.051 115.756 172.787 115.393 173.64C115.03 174.472 114.54 175.336 113.921 176.232C113.324 177.128 112.588 177.96 111.713 178.728C110.838 179.496 109.814 180.125 108.641 180.616C107.468 181.085 106.145 181.32 104.673 181.32C102.945 181.32 101.42 181.053 100.097 180.52C98.7743 179.965 97.7397 179.176 96.993 178.152C96.2677 177.107 95.905 175.859 95.905 174.408C95.905 173.469 96.0863 172.627 96.449 171.88C96.833 171.112 97.3663 170.429 98.049 169.832C98.753 169.235 99.5743 168.733 100.513 168.328C101.473 167.901 102.518 167.571 103.649 167.336L104.609 168.52C103.926 168.861 103.329 169.288 102.817 169.8C102.326 170.291 101.953 170.877 101.697 171.56C101.441 172.243 101.313 173.011 101.313 173.864C101.313 174.845 101.494 175.699 101.857 176.424C102.22 177.149 102.753 177.715 103.457 178.12C104.161 178.504 105.014 178.696 106.017 178.696C106.828 178.696 107.606 178.536 108.353 178.216C109.1 177.875 109.793 177.416 110.433 176.84C111.094 176.264 111.66 175.624 112.129 174.92C112.62 174.216 113.004 173.491 113.281 172.744C113.558 171.976 113.697 171.24 113.697 170.536C113.697 170.451 113.59 170.387 113.377 170.344C113.185 170.301 112.95 170.269 112.673 170.248C112.396 170.227 112.129 170.216 111.873 170.216H111.681V168.168H118.305V170.216H118.017C117.654 170.216 117.345 170.248 117.089 170.312C116.854 170.355 116.652 170.461 116.481 170.632C116.332 170.803 116.214 171.069 116.129 171.432ZM118.561 181H112.449C111.105 179.912 109.836 178.781 108.641 177.608C107.446 176.435 106.358 175.24 105.377 174.024C104.417 172.808 103.585 171.603 102.881 170.408C102.177 169.213 101.633 168.061 101.249 166.952C100.886 165.843 100.705 164.808 100.705 163.848C100.705 162.589 100.993 161.533 101.569 160.68C102.166 159.805 102.977 159.144 104.001 158.696C105.046 158.227 106.262 157.992 107.649 157.992C109.548 157.992 110.988 158.429 111.969 159.304C112.972 160.157 113.473 161.267 113.473 162.632C113.473 163.421 113.281 164.136 112.897 164.776C112.534 165.416 112.022 165.992 111.361 166.504C110.721 167.016 109.953 167.464 109.057 167.848C108.182 168.232 107.233 168.573 106.209 168.872L105.313 166.984C106.06 166.707 106.7 166.429 107.233 166.152C107.788 165.853 108.236 165.533 108.577 165.192C108.94 164.829 109.196 164.435 109.345 164.008C109.516 163.581 109.601 163.112 109.601 162.6C109.601 161.96 109.462 161.448 109.185 161.064C108.929 160.68 108.513 160.488 107.937 160.488C107.532 160.488 107.169 160.595 106.849 160.808C106.55 161 106.316 161.32 106.145 161.768C105.974 162.195 105.889 162.781 105.889 163.528C105.889 164.296 106.017 165.096 106.273 165.928C106.529 166.739 106.902 167.592 107.393 168.488C107.905 169.363 108.556 170.291 109.345 171.272C110.134 172.253 111.062 173.288 112.129 174.376C113.196 175.443 114.412 176.573 115.777 177.768C116.054 178.003 116.31 178.205 116.545 178.376C116.78 178.525 117.014 178.632 117.249 178.696C117.505 178.76 117.804 178.792 118.145 178.792H118.561V181ZM135.79 177.768V160.68H134.798C134.009 160.68 133.358 160.712 132.846 160.776C132.356 160.84 131.993 160.979 131.758 161.192C131.524 161.384 131.385 161.683 131.342 162.088L131.054 165.576H128.334V158.28H149.422V165.576H146.734L146.446 162.088C146.425 161.683 146.286 161.384 146.03 161.192C145.774 160.979 145.401 160.84 144.91 160.776C144.42 160.712 143.78 160.68 142.99 160.68H141.998V177.768C141.998 178.237 142.169 178.547 142.51 178.696C142.873 178.845 143.332 178.92 143.886 178.92H144.334V181H133.454V178.92H133.902C134.457 178.92 134.905 178.845 135.246 178.696C135.609 178.547 135.79 178.237 135.79 177.768ZM164.449 164.552V169.512C164.278 169.448 164.086 169.405 163.873 169.384C163.681 169.341 163.468 169.309 163.233 169.288C162.998 169.267 162.764 169.256 162.529 169.256C162.038 169.256 161.58 169.309 161.153 169.416C160.748 169.501 160.364 169.651 160.001 169.864C159.66 170.056 159.35 170.323 159.073 170.664C158.796 170.984 158.54 171.389 158.305 171.88V170.056C158.582 168.947 158.924 167.965 159.329 167.112C159.756 166.259 160.278 165.597 160.897 165.128C161.516 164.637 162.305 164.392 163.265 164.392C163.521 164.392 163.756 164.413 163.969 164.456C164.182 164.477 164.342 164.509 164.449 164.552ZM151.425 181V179.048H151.457C151.948 179.048 152.342 178.984 152.641 178.856C152.961 178.728 153.121 178.472 153.121 178.088V167.752C153.121 167.539 153.068 167.368 152.961 167.24C152.876 167.112 152.726 167.016 152.513 166.952C152.3 166.867 152.022 166.781 151.681 166.696L151.425 166.632V164.584H158.593V169.8L158.977 169.416V178.472C158.977 178.643 159.094 178.771 159.329 178.856C159.564 178.941 159.841 178.995 160.161 179.016C160.481 179.037 160.769 179.048 161.025 179.048H161.313V181H151.425ZM176.493 171.144V173.032C175.768 173.139 175.117 173.267 174.541 173.416C173.987 173.565 173.496 173.747 173.069 173.96C172.643 174.173 172.291 174.419 172.013 174.696C171.757 174.952 171.555 175.261 171.405 175.624C171.277 175.965 171.213 176.328 171.213 176.712C171.213 177.203 171.288 177.608 171.437 177.928C171.608 178.248 171.843 178.493 172.141 178.664C172.44 178.813 172.792 178.888 173.197 178.888C173.688 178.888 174.136 178.76 174.541 178.504C174.947 178.227 175.309 177.843 175.629 177.352C175.949 176.861 176.227 176.285 176.461 175.624L176.525 177.832C176.205 178.579 175.8 179.208 175.309 179.72C174.819 180.232 174.221 180.627 173.517 180.904C172.835 181.181 172.035 181.32 171.117 181.32C170.029 181.32 169.08 181.16 168.269 180.84C167.48 180.499 166.861 180.008 166.413 179.368C165.987 178.707 165.773 177.907 165.773 176.968C165.773 176.072 165.997 175.304 166.445 174.664C166.915 174.024 167.597 173.48 168.493 173.032C169.389 172.584 170.509 172.211 171.853 171.912C173.197 171.592 174.744 171.336 176.493 171.144ZM176.173 181V177.832L175.789 177.896V169.16C175.789 168.563 175.704 168.083 175.533 167.72C175.363 167.336 175.096 167.069 174.733 166.92C174.392 166.749 173.965 166.664 173.453 166.664C172.685 166.664 172.045 166.835 171.533 167.176C171.043 167.496 170.669 167.901 170.413 168.392C170.221 168.179 170.115 167.976 170.093 167.784C170.072 167.571 170.104 167.379 170.189 167.208C170.296 167.037 170.456 166.888 170.669 166.76C170.883 166.611 171.139 166.515 171.437 166.472V169.896H166.893V166.408C167.213 166.173 167.683 165.896 168.301 165.576C168.941 165.235 169.741 164.936 170.701 164.68C171.661 164.403 172.781 164.264 174.061 164.264C175.149 164.264 176.141 164.381 177.037 164.616C177.955 164.829 178.744 165.16 179.405 165.608C180.067 166.056 180.579 166.643 180.941 167.368C181.304 168.072 181.485 168.936 181.485 169.96V177.992C181.485 178.205 181.549 178.376 181.677 178.504C181.805 178.632 181.987 178.728 182.221 178.792C182.456 178.856 182.733 178.909 183.053 178.952L183.181 178.984V181H176.173ZM188.907 162.344C187.947 162.344 187.179 162.12 186.603 161.672C186.048 161.203 185.771 160.552 185.771 159.72C185.771 158.888 186.048 158.248 186.603 157.8C187.179 157.331 187.947 157.096 188.907 157.096C189.888 157.096 190.656 157.331 191.211 157.8C191.787 158.248 192.075 158.888 192.075 159.72C192.075 160.552 191.787 161.203 191.211 161.672C190.656 162.12 189.888 162.344 188.907 162.344ZM191.915 164.584V178.088C191.915 178.472 192.075 178.728 192.395 178.856C192.736 178.984 193.141 179.048 193.611 179.048H193.643V181H184.363V179.048H184.395C184.885 179.048 185.291 178.984 185.611 178.856C185.931 178.728 186.091 178.472 186.091 178.088V167.752C186.091 167.411 185.973 167.176 185.739 167.048C185.504 166.92 185.131 166.803 184.618 166.696L184.363 166.632V164.584H191.915ZM194.988 181V179.048H195.02C195.34 179.048 195.628 179.027 195.884 178.984C196.14 178.92 196.332 178.824 196.46 178.696C196.609 178.547 196.684 178.344 196.684 178.088V167.752C196.684 167.517 196.63 167.347 196.524 167.24C196.438 167.112 196.289 167.016 196.076 166.952C195.862 166.867 195.585 166.781 195.243 166.696L194.988 166.632V164.584H202.156V168.136H202.54V178.76C202.54 178.824 202.614 178.877 202.764 178.92C202.934 178.963 203.126 178.995 203.34 179.016C203.574 179.037 203.788 179.048 203.98 179.048H204.076V181H194.988ZM215.116 181H206.028V179.048H206.06C206.252 179.048 206.465 179.048 206.7 179.048C206.934 179.027 207.137 178.995 207.308 178.952C207.478 178.888 207.564 178.824 207.564 178.76V169.736C207.564 169.203 207.5 168.765 207.372 168.424C207.244 168.083 207.052 167.827 206.796 167.656C206.54 167.485 206.198 167.4 205.772 167.4C205.26 167.4 204.78 167.549 204.332 167.848C203.884 168.125 203.457 168.541 203.052 169.096C202.646 169.651 202.262 170.344 201.9 171.176L201.836 168.232C202.262 167.4 202.764 166.696 203.34 166.12C203.937 165.523 204.62 165.064 205.388 164.744C206.177 164.424 207.041 164.264 207.98 164.264C209.068 164.264 210.017 164.477 210.828 164.904C211.638 165.309 212.268 165.928 212.716 166.76C213.164 167.571 213.388 168.584 213.388 169.8V178.088C213.388 178.344 213.462 178.547 213.612 178.696C213.761 178.824 213.953 178.92 214.188 178.984C214.444 179.027 214.732 179.048 215.052 179.048H215.116V181Z" fill="white"/>
<path d="M24.392 215.408C24.04 215.589 23.528 215.76 22.856 215.92C22.1947 216.069 21.5173 216.144 20.824 216.144C19.0853 216.144 17.7733 215.632 16.888 214.608C16.0027 213.584 15.56 212.283 15.56 210.704C15.56 209.488 15.8107 208.405 16.312 207.456C16.8987 206.336 17.7787 205.557 18.952 205.12C19.6027 204.885 20.28 204.768 20.984 204.768C21.688 204.768 22.3653 204.821 23.016 204.928C23.6667 205.035 24.0933 205.131 24.296 205.216C24.36 205.611 24.392 206.027 24.392 206.464C24.392 206.891 24.3813 207.371 24.36 207.904L23.448 208.032C23.2133 206.795 23.0053 206.112 22.824 205.984C22.728 205.909 22.4773 205.829 22.072 205.744C21.6773 205.659 21.2827 205.616 20.888 205.616C19.7147 205.616 18.8293 206.048 18.232 206.912C17.6347 207.776 17.336 208.912 17.336 210.32C17.336 211.984 17.7147 213.221 18.472 214.032C19.2293 214.843 20.168 215.248 21.288 215.248C21.8747 215.248 22.392 215.163 22.84 214.992V212.768C22.84 212.437 22.776 212.213 22.648 212.096C22.5307 211.979 22.1893 211.872 21.624 211.776L21.72 211.152H25.464L25.528 211.776L24.712 211.968C24.4987 212.011 24.392 212.149 24.392 212.384V215.408ZM26.5626 214.032C26.5626 213.232 26.904 212.635 27.5866 212.24C28.2693 211.845 29.3786 211.643 30.9146 211.632V211.12C30.9146 209.733 30.4133 209.04 29.4106 209.04C28.9306 209.04 28.6266 209.109 28.4986 209.248C28.3813 209.387 28.2533 209.84 28.1146 210.608L27.2506 210.512C27.1653 210.181 27.1226 209.84 27.1226 209.488C27.1226 209.125 27.128 208.891 27.1386 208.784C27.768 208.389 28.5946 208.192 29.6186 208.192C30.6426 208.192 31.352 208.389 31.7466 208.784C32.152 209.179 32.3546 209.829 32.3546 210.736V214.416C32.3546 214.693 32.4186 214.891 32.5466 215.008C32.6853 215.115 33.0266 215.221 33.5706 215.328L33.4746 215.84L31.5546 216.048C31.448 216.048 31.336 215.947 31.2186 215.744C31.1013 215.541 31.0426 215.355 31.0426 215.184C31.0426 215.003 31.048 214.869 31.0586 214.784L30.9306 214.736L30.7386 215.024C30.2373 215.771 29.5493 216.144 28.6746 216.144C28.0773 216.144 27.576 215.957 27.1706 215.584C26.7653 215.211 26.5626 214.693 26.5626 214.032ZM28.1146 213.888C28.1146 214.272 28.216 214.565 28.4186 214.768C28.6213 214.96 28.9093 215.056 29.2826 215.056C29.656 215.056 30.0773 214.875 30.5466 214.512C30.792 214.32 30.9146 214.117 30.9146 213.904V212.336C29.9546 212.357 29.2453 212.485 28.7866 212.72C28.3386 212.955 28.1146 213.344 28.1146 213.888ZM34.8301 216L34.7341 215.376C35.2568 215.269 35.5715 215.163 35.6781 215.056C35.7955 214.939 35.8541 214.741 35.8541 214.464V209.872C35.8541 209.648 35.7688 209.488 35.5981 209.392C35.4275 209.285 35.1075 209.184 34.6381 209.088L34.7341 208.576C35.8755 208.427 36.6701 208.352 37.1181 208.352L37.2941 208.512V214.848C37.2941 214.976 37.3208 215.061 37.3741 215.104C37.4381 215.136 37.5181 215.163 37.6141 215.184L38.3981 215.376L38.3341 216H34.8301ZM37.3101 205.504C37.3101 205.771 37.2248 205.995 37.0541 206.176C36.8941 206.357 36.6755 206.448 36.3981 206.448C36.1315 206.448 35.9075 206.368 35.7261 206.208C35.5555 206.048 35.4701 205.829 35.4701 205.552C35.4701 205.264 35.5501 205.035 35.7101 204.864C35.8808 204.693 36.1101 204.608 36.3981 204.608C37.0061 204.608 37.3101 204.907 37.3101 205.504ZM39.7833 216L39.6873 215.376C40.2099 215.269 40.5246 215.163 40.6313 215.056C40.7486 214.939 40.8073 214.741 40.8073 214.464V209.856C40.8073 209.579 40.7379 209.387 40.5993 209.28C40.4713 209.163 40.1353 209.051 39.5913 208.944L39.6873 208.432L41.7513 208.224C41.8259 208.224 41.9006 208.373 41.9753 208.672C42.0606 208.971 42.1033 209.232 42.1033 209.456V209.552L42.2313 209.6L42.4233 209.376C43.0953 208.587 43.9166 208.192 44.8873 208.192C45.5699 208.192 46.1086 208.4 46.5033 208.816C46.8979 209.221 47.0953 209.792 47.0953 210.528V214.848C47.0953 214.976 47.1219 215.061 47.1753 215.104C47.2393 215.136 47.3193 215.163 47.4153 215.184L48.1993 215.376L48.1353 216H44.7113L44.6153 215.376C45.0953 215.28 45.3886 215.173 45.4953 215.056C45.6019 214.939 45.6553 214.741 45.6553 214.464V211.008C45.6553 210.507 45.5646 210.107 45.3833 209.808C45.2019 209.499 44.8446 209.344 44.3113 209.344C43.7886 209.344 43.2179 209.552 42.5993 209.968C42.5033 210.032 42.4339 210.08 42.3913 210.112C42.2953 210.219 42.2473 210.416 42.2473 210.704V214.832C42.2473 214.949 42.2633 215.029 42.2953 215.072C42.3379 215.115 42.4286 215.152 42.5673 215.184L43.2713 215.376L43.2073 216H39.7833ZM53.1244 216L53.0284 215.376C53.551 215.269 53.8657 215.163 53.9724 215.056C54.0897 214.939 54.1484 214.741 54.1484 214.464V205.168C54.1484 204.944 54.063 204.784 53.8924 204.688C53.7217 204.581 53.4017 204.48 52.9324 204.384L53.0284 203.872C54.1697 203.723 54.9644 203.648 55.4124 203.648L55.5884 203.808V208.304C55.5884 208.891 55.551 209.307 55.4764 209.552L55.6044 209.6L55.7964 209.376C56.4577 208.587 57.2844 208.192 58.2764 208.192C58.991 208.192 59.5457 208.4 59.9404 208.816C60.3457 209.232 60.5484 209.803 60.5484 210.528V214.848C60.5484 214.976 60.575 215.061 60.6284 215.104C60.6924 215.136 60.7724 215.163 60.8684 215.184L61.6524 215.376L61.5884 216H58.1644L58.0684 215.376C58.5484 215.28 58.8417 215.173 58.9484 215.056C59.055 214.939 59.1084 214.741 59.1084 214.464V211.008C59.1084 210.496 59.0124 210.091 58.8204 209.792C58.639 209.493 58.2657 209.344 57.7004 209.344C57.1457 209.344 56.5644 209.552 55.9564 209.968C55.8177 210.064 55.7217 210.16 55.6684 210.256C55.615 210.341 55.5884 210.501 55.5884 210.736V214.848C55.5884 214.976 55.615 215.061 55.6684 215.104C55.7324 215.136 55.8124 215.163 55.9084 215.184L56.6124 215.376L56.5484 216H53.1244ZM62.6876 214.032C62.6876 213.232 63.029 212.635 63.7116 212.24C64.3943 211.845 65.5036 211.643 67.0396 211.632V211.12C67.0396 209.733 66.5383 209.04 65.5356 209.04C65.0556 209.04 64.7516 209.109 64.6236 209.248C64.5063 209.387 64.3783 209.84 64.2396 210.608L63.3756 210.512C63.2903 210.181 63.2476 209.84 63.2476 209.488C63.2476 209.125 63.253 208.891 63.2636 208.784C63.893 208.389 64.7196 208.192 65.7436 208.192C66.7676 208.192 67.477 208.389 67.8716 208.784C68.277 209.179 68.4796 209.829 68.4796 210.736V214.416C68.4796 214.693 68.5436 214.891 68.6716 215.008C68.8103 215.115 69.1516 215.221 69.6956 215.328L69.5996 215.84L67.6796 216.048C67.573 216.048 67.461 215.947 67.3436 215.744C67.2263 215.541 67.1676 215.355 67.1676 215.184C67.1676 215.003 67.173 214.869 67.1836 214.784L67.0556 214.736L66.8636 215.024C66.3623 215.771 65.6743 216.144 64.7996 216.144C64.2023 216.144 63.701 215.957 63.2956 215.584C62.8903 215.211 62.6876 214.693 62.6876 214.032ZM64.2396 213.888C64.2396 214.272 64.341 214.565 64.5436 214.768C64.7463 214.96 65.0343 215.056 65.4076 215.056C65.781 215.056 66.2023 214.875 66.6716 214.512C66.917 214.32 67.0396 214.117 67.0396 213.904V212.336C66.0796 212.357 65.3703 212.485 64.9116 212.72C64.4636 212.955 64.2396 213.344 64.2396 213.888ZM70.9551 216L70.8591 215.376C71.3818 215.269 71.6965 215.163 71.8031 215.056C71.9205 214.939 71.9791 214.741 71.9791 214.464V209.856C71.9791 209.579 71.9098 209.387 71.7711 209.28C71.6431 209.163 71.3071 209.051 70.7631 208.944L70.8591 208.432L72.9231 208.224C72.9978 208.224 73.0725 208.373 73.1471 208.672C73.2325 208.971 73.2751 209.232 73.2751 209.456V209.552L73.4031 209.6L73.5951 209.376C74.2671 208.587 75.0885 208.192 76.0591 208.192C76.7418 208.192 77.2805 208.4 77.6751 208.816C78.0698 209.221 78.2671 209.792 78.2671 210.528V214.848C78.2671 214.976 78.2938 215.061 78.3471 215.104C78.4111 215.136 78.4911 215.163 78.5871 215.184L79.3711 215.376L79.3071 216H75.8831L75.7871 215.376C76.2671 215.28 76.5605 215.173 76.6671 215.056C76.7738 214.939 76.8271 214.741 76.8271 214.464V211.008C76.8271 210.507 76.7365 210.107 76.5551 209.808C76.3738 209.499 76.0165 209.344 75.4831 209.344C74.9605 209.344 74.3898 209.552 73.7711 209.968C73.6751 210.032 73.6058 210.08 73.5631 210.112C73.4671 210.219 73.4191 210.416 73.4191 210.704V214.832C73.4191 214.949 73.4351 215.029 73.4671 215.072C73.5098 215.115 73.6005 215.152 73.7391 215.184L74.4431 215.376L74.3791 216H70.9551ZM85.4944 214.944C84.8757 215.744 84.1344 216.144 83.2704 216.144C82.4064 216.144 81.697 215.803 81.1424 215.12C80.5877 214.427 80.3104 213.483 80.3104 212.288C80.3104 211.093 80.625 210.112 81.2544 209.344C81.8837 208.576 82.7637 208.192 83.8944 208.192C84.673 208.192 85.249 208.331 85.6224 208.608L85.7344 208.56C85.6917 208.389 85.6704 208.155 85.6704 207.856V205.168C85.6704 204.944 85.5584 204.779 85.3344 204.672C85.121 204.555 84.7317 204.459 84.1664 204.384L84.2624 203.872C85.4037 203.723 86.2944 203.648 86.9344 203.648L87.1104 203.808V214.432C87.1104 214.709 87.1744 214.907 87.3024 215.024C87.441 215.131 87.7824 215.237 88.3264 215.344L88.2304 215.856L86.3104 216.064C86.2037 216.064 86.0864 215.957 85.9584 215.744C85.8304 215.531 85.7664 215.339 85.7664 215.168C85.7664 214.997 85.7717 214.869 85.7824 214.784L85.6544 214.736L85.4944 214.944ZM81.8624 211.904C81.8624 212.96 82.0277 213.739 82.3584 214.24C82.6997 214.741 83.1264 214.992 83.6384 214.992C84.1504 214.992 84.6837 214.811 85.2384 214.448C85.5264 214.256 85.6704 214.011 85.6704 213.712V209.888C85.233 209.365 84.5504 209.104 83.6224 209.104C83.1637 209.104 82.801 209.253 82.5344 209.552C82.0864 210.053 81.8624 210.837 81.8624 211.904ZM92.4278 209.04C91.4891 209.04 91.0198 209.36 91.0198 210C91.0198 210.256 91.0838 210.448 91.2118 210.576C91.3398 210.693 91.4304 210.784 91.4838 210.848C91.5478 210.901 91.6651 210.971 91.8358 211.056C92.0064 211.141 92.1238 211.205 92.1878 211.248C92.2624 211.28 92.4064 211.339 92.6198 211.424C93.5158 211.797 94.1451 212.149 94.5078 212.48C94.8704 212.811 95.0518 213.28 95.0518 213.888C95.0518 214.496 94.7798 215.024 94.2358 215.472C93.7024 215.92 92.9664 216.144 92.0278 216.144C91.6118 216.144 91.1798 216.101 90.7318 216.016C90.2838 215.931 89.9584 215.845 89.7558 215.76C89.7344 215.621 89.7238 215.339 89.7238 214.912C89.7238 214.485 89.7718 214.021 89.8678 213.52L90.6998 213.456C90.7744 214.139 90.8278 214.56 90.8598 214.72C90.9024 214.869 90.9611 214.965 91.0358 215.008C91.3771 215.2 91.8251 215.296 92.3798 215.296C93.2438 215.296 93.6758 214.949 93.6758 214.256C93.6758 213.925 93.5478 213.653 93.2918 213.44C93.0038 213.205 92.6731 213.008 92.2998 212.848C91.3184 212.443 90.6464 212.075 90.2838 211.744C89.9318 211.403 89.7558 210.933 89.7558 210.336C89.7558 209.739 90.0278 209.232 90.5718 208.816C91.1158 208.4 91.7718 208.192 92.5398 208.192C93.3078 208.192 94.0118 208.325 94.6518 208.592C94.6624 208.677 94.6678 208.917 94.6678 209.312C94.6678 209.707 94.5984 210.123 94.4598 210.56L93.7238 210.64C93.6491 209.808 93.5264 209.333 93.3558 209.216C93.1958 209.099 92.8864 209.04 92.4278 209.04ZM96.5641 211.568L100.052 211.344L99.7961 212.336L96.3721 212.752L96.5641 211.568ZM104.643 216.144C103.491 216.144 102.606 215.803 101.987 215.12C101.368 214.437 101.059 213.483 101.059 212.256C101.059 211.029 101.384 210.048 102.035 209.312C102.696 208.565 103.603 208.192 104.755 208.192C105.918 208.192 106.808 208.539 107.427 209.232C108.046 209.915 108.355 210.869 108.355 212.096C108.355 213.323 108.024 214.304 107.363 215.04C106.712 215.776 105.806 216.144 104.643 216.144ZM102.611 212.048C102.611 212.997 102.803 213.776 103.187 214.384C103.571 214.992 104.094 215.296 104.755 215.296C105.416 215.296 105.886 215.136 106.163 214.816C106.355 214.603 106.51 214.267 106.627 213.808C106.744 213.339 106.803 212.832 106.803 212.288C106.803 211.339 106.611 210.56 106.227 209.952C105.843 209.344 105.32 209.04 104.659 209.04C103.998 209.04 103.528 209.2 103.251 209.52C103.059 209.733 102.904 210.075 102.787 210.544C102.67 211.003 102.611 211.504 102.611 212.048ZM109.611 216L109.515 215.376C110.038 215.269 110.353 215.163 110.459 215.056C110.577 214.939 110.635 214.741 110.635 214.464V209.856C110.635 209.579 110.566 209.387 110.427 209.28C110.299 209.163 109.963 209.051 109.419 208.944L109.515 208.432L111.579 208.224C111.654 208.224 111.729 208.373 111.803 208.672C111.889 208.971 111.931 209.232 111.931 209.456V209.552L112.059 209.6L112.251 209.376C112.923 208.587 113.745 208.192 114.715 208.192C115.398 208.192 115.937 208.4 116.331 208.816C116.726 209.221 116.923 209.792 116.923 210.528V214.848C116.923 214.976 116.95 215.061 117.003 215.104C117.067 215.136 117.147 215.163 117.243 215.184L118.027 215.376L117.963 216H114.539L114.443 215.376C114.923 215.28 115.217 215.173 115.323 215.056C115.43 214.939 115.483 214.741 115.483 214.464V211.008C115.483 210.507 115.393 210.107 115.211 209.808C115.03 209.499 114.673 209.344 114.139 209.344C113.617 209.344 113.046 209.552 112.427 209.968C112.331 210.032 112.262 210.08 112.219 210.112C112.123 210.219 112.075 210.416 112.075 210.704V214.832C112.075 214.949 112.091 215.029 112.123 215.072C112.166 215.115 112.257 215.152 112.395 215.184L113.099 215.376L113.035 216H109.611ZM126.249 216.144C125.171 216.144 124.334 215.776 123.737 215.04C123.15 214.304 122.857 213.376 122.857 212.256C122.857 211.125 123.198 210.165 123.881 209.376C124.563 208.587 125.465 208.192 126.585 208.192C128.398 208.192 129.347 209.307 129.433 211.536L129.017 211.84L124.377 212.096C124.377 214.069 125.219 215.056 126.905 215.056C127.641 215.056 128.361 214.875 129.065 214.512L129.401 215.04C129.049 215.328 128.59 215.584 128.025 215.808C127.459 216.032 126.867 216.144 126.249 216.144ZM124.424 211.36L127.737 211.072C127.843 211.061 127.897 210.96 127.897 210.768C127.897 210.299 127.769 209.893 127.513 209.552C127.267 209.211 126.846 209.04 126.249 209.04C125.651 209.04 125.214 209.243 124.937 209.648C124.67 210.043 124.499 210.613 124.424 211.36ZM130.209 216L130.145 215.376C130.689 215.291 130.993 215.216 131.057 215.152L133.569 212.208L131.281 209.472C131.196 209.365 131.089 209.291 130.961 209.248L130.385 209.056L130.449 208.432H133.617L133.713 209.056L133.217 209.168C133.078 209.211 133.009 209.275 133.009 209.36C133.009 209.435 133.089 209.568 133.249 209.76L134.513 211.28L135.761 209.728C135.836 209.643 135.873 209.557 135.873 209.472C135.873 209.291 135.633 209.152 135.153 209.056L135.249 208.432H138.225L138.289 209.056C137.798 209.131 137.505 209.216 137.409 209.312L135.121 212.016L137.585 214.96C137.67 215.067 137.777 215.141 137.905 215.184L138.481 215.376L138.417 216H135.249L135.153 215.376L135.649 215.264C135.788 215.221 135.857 215.163 135.857 215.088C135.857 215.003 135.777 214.864 135.617 214.672L134.145 212.912L132.673 214.704C132.598 214.789 132.561 214.875 132.561 214.96C132.561 215.141 132.801 215.28 133.281 215.376L133.185 216H130.209ZM140.349 217.824V209.856C140.349 209.579 140.279 209.387 140.141 209.28C140.013 209.163 139.677 209.051 139.133 208.944L139.229 208.432C140.551 208.293 141.245 208.224 141.309 208.224C141.373 208.224 141.447 208.368 141.533 208.656C141.629 208.933 141.677 209.179 141.677 209.392V209.552L141.805 209.6L141.965 209.392C142.583 208.592 143.325 208.192 144.189 208.192C145.053 208.192 145.762 208.539 146.317 209.232C146.871 209.915 147.149 210.853 147.149 212.048C147.149 213.243 146.834 214.224 146.205 214.992C145.575 215.76 144.695 216.144 143.565 216.144C142.765 216.144 142.189 216.005 141.837 215.728L141.725 215.776C141.767 216.011 141.789 216.245 141.789 216.48V218.208C141.789 218.347 141.815 218.432 141.869 218.464C141.933 218.507 142.013 218.533 142.109 218.544L143.565 218.736L143.501 219.36H139.325L139.229 218.736C139.751 218.629 140.066 218.517 140.173 218.4C140.29 218.293 140.349 218.101 140.349 217.824ZM141.789 214.448C142.226 214.971 142.909 215.232 143.837 215.232C144.295 215.232 144.658 215.083 144.925 214.784C145.373 214.283 145.597 213.504 145.597 212.448C145.597 211.381 145.426 210.597 145.085 210.096C144.754 209.595 144.333 209.344 143.821 209.344C143.309 209.344 142.775 209.525 142.221 209.888C141.933 210.08 141.789 210.325 141.789 210.624V214.448ZM151.655 216.144C150.577 216.144 149.74 215.776 149.143 215.04C148.556 214.304 148.263 213.376 148.263 212.256C148.263 211.125 148.604 210.165 149.287 209.376C149.969 208.587 150.871 208.192 151.991 208.192C153.804 208.192 154.753 209.307 154.839 211.536L154.423 211.84L149.783 212.096C149.783 214.069 150.625 215.056 152.311 215.056C153.047 215.056 153.767 214.875 154.471 214.512L154.807 215.04C154.455 215.328 153.996 215.584 153.431 215.808C152.865 216.032 152.273 216.144 151.655 216.144ZM149.831 211.36L153.143 211.072C153.249 211.061 153.303 210.96 153.303 210.768C153.303 210.299 153.175 209.893 152.919 209.552C152.673 209.211 152.252 209.04 151.655 209.04C151.057 209.04 150.62 209.243 150.343 209.648C150.076 210.043 149.905 210.613 149.831 211.36ZM155.999 216L155.903 215.376C156.469 215.28 156.815 215.173 156.943 215.056C157.071 214.939 157.135 214.741 157.135 214.464V209.856C157.135 209.579 157.061 209.381 156.911 209.264C156.773 209.136 156.405 209.029 155.807 208.944L155.903 208.432L158.079 208.224C158.154 208.224 158.234 208.331 158.319 208.544C158.405 208.757 158.447 208.981 158.447 209.216C158.447 209.44 158.426 209.701 158.383 210L158.511 210.048L158.719 209.584C158.911 209.157 159.199 208.821 159.583 208.576C159.978 208.32 160.373 208.192 160.767 208.192C161.173 208.192 161.546 208.277 161.887 208.448C161.887 209.323 161.807 210.197 161.647 211.072L160.863 211.152C160.778 210.256 160.693 209.749 160.607 209.632C160.522 209.504 160.378 209.44 160.175 209.44C159.983 209.44 159.754 209.531 159.487 209.712C159.221 209.883 159.002 210.069 158.831 210.272C158.661 210.464 158.575 210.784 158.575 211.232V214.848C158.575 214.987 158.602 215.077 158.655 215.12C158.719 215.152 158.799 215.173 158.895 215.184L160.351 215.376L160.287 216H155.999ZM163.018 216L162.922 215.376C163.444 215.269 163.759 215.163 163.866 215.056C163.983 214.939 164.042 214.741 164.042 214.464V209.872C164.042 209.648 163.956 209.488 163.786 209.392C163.615 209.285 163.295 209.184 162.826 209.088L162.922 208.576C164.063 208.427 164.858 208.352 165.306 208.352L165.482 208.512V214.848C165.482 214.976 165.508 215.061 165.562 215.104C165.626 215.136 165.706 215.163 165.802 215.184L166.586 215.376L166.522 216H163.018ZM165.498 205.504C165.498 205.771 165.412 205.995 165.242 206.176C165.082 206.357 164.863 206.448 164.586 206.448C164.319 206.448 164.095 206.368 163.914 206.208C163.743 206.048 163.658 205.829 163.658 205.552C163.658 205.264 163.738 205.035 163.898 204.864C164.068 204.693 164.298 204.608 164.586 204.608C165.194 204.608 165.498 204.907 165.498 205.504ZM171.155 216.144C170.077 216.144 169.24 215.776 168.643 215.04C168.056 214.304 167.763 213.376 167.763 212.256C167.763 211.125 168.104 210.165 168.787 209.376C169.469 208.587 170.371 208.192 171.491 208.192C173.304 208.192 174.253 209.307 174.339 211.536L173.923 211.84L169.283 212.096C169.283 214.069 170.125 215.056 171.811 215.056C172.547 215.056 173.267 214.875 173.971 214.512L174.307 215.04C173.955 215.328 173.496 215.584 172.931 215.808C172.365 216.032 171.773 216.144 171.155 216.144ZM169.331 211.36L172.643 211.072C172.749 211.061 172.803 210.96 172.803 210.768C172.803 210.299 172.675 209.893 172.419 209.552C172.173 209.211 171.752 209.04 171.155 209.04C170.557 209.04 170.12 209.243 169.843 209.648C169.576 210.043 169.405 210.613 169.331 211.36ZM175.611 216L175.515 215.376C176.038 215.269 176.353 215.163 176.459 215.056C176.577 214.939 176.635 214.741 176.635 214.464V209.856C176.635 209.579 176.566 209.387 176.427 209.28C176.299 209.163 175.963 209.051 175.419 208.944L175.515 208.432L177.579 208.224C177.654 208.224 177.729 208.373 177.803 208.672C177.889 208.971 177.931 209.232 177.931 209.456V209.552L178.059 209.6L178.251 209.376C178.923 208.587 179.745 208.192 180.715 208.192C181.398 208.192 181.937 208.4 182.331 208.816C182.726 209.221 182.923 209.792 182.923 210.528V214.848C182.923 214.976 182.95 215.061 183.003 215.104C183.067 215.136 183.147 215.163 183.243 215.184L184.027 215.376L183.963 216H180.539L180.443 215.376C180.923 215.28 181.217 215.173 181.323 215.056C181.43 214.939 181.483 214.741 181.483 214.464V211.008C181.483 210.507 181.393 210.107 181.211 209.808C181.03 209.499 180.673 209.344 180.139 209.344C179.617 209.344 179.046 209.552 178.427 209.968C178.331 210.032 178.262 210.08 178.219 210.112C178.123 210.219 178.075 210.416 178.075 210.704V214.832C178.075 214.949 178.091 215.029 178.123 215.072C178.166 215.115 178.257 215.152 178.395 215.184L179.099 215.376L179.035 216H175.611ZM185.703 209.536C185.969 209.12 186.359 208.795 186.871 208.56C187.393 208.315 188.033 208.192 188.791 208.192C189.559 208.192 190.316 208.341 191.063 208.64C191.073 208.725 191.079 209.003 191.079 209.472C191.079 209.931 191.015 210.384 190.887 210.832L189.991 210.928C189.82 209.851 189.66 209.28 189.511 209.216C189.287 209.12 188.887 209.072 188.311 209.072C187.735 209.072 187.313 209.269 187.047 209.664C186.673 210.229 186.487 211.035 186.487 212.08C186.487 213.115 186.711 213.872 187.159 214.352C187.617 214.821 188.209 215.056 188.935 215.056C189.671 215.056 190.38 214.821 191.063 214.352L191.511 214.88C190.647 215.723 189.628 216.144 188.455 216.144C187.292 216.144 186.412 215.781 185.815 215.056C185.228 214.32 184.935 213.413 184.935 212.336C184.935 211.248 185.191 210.315 185.703 209.536ZM195.811 216.144C194.734 216.144 193.896 215.776 193.299 215.04C192.712 214.304 192.419 213.376 192.419 212.256C192.419 211.125 192.76 210.165 193.443 209.376C194.126 208.587 195.027 208.192 196.147 208.192C197.96 208.192 198.91 209.307 198.995 211.536L198.579 211.84L193.939 212.096C193.939 214.069 194.782 215.056 196.467 215.056C197.203 215.056 197.923 214.875 198.627 214.512L198.963 215.04C198.611 215.328 198.152 215.584 197.587 215.808C197.022 216.032 196.43 216.144 195.811 216.144ZM193.987 211.36L197.299 211.072C197.406 211.061 197.459 210.96 197.459 210.768C197.459 210.299 197.331 209.893 197.075 209.552C196.83 209.211 196.408 209.04 195.811 209.04C195.214 209.04 194.776 209.243 194.499 209.648C194.232 210.043 194.062 210.613 193.987 211.36ZM15.672 233.032C15.672 232.232 16.0133 231.635 16.696 231.24C17.3787 230.845 18.488 230.643 20.024 230.632V230.12C20.024 228.733 19.5227 228.04 18.52 228.04C18.04 228.04 17.736 228.109 17.608 228.248C17.4907 228.387 17.3627 228.84 17.224 229.608L16.36 229.512C16.2747 229.181 16.232 228.84 16.232 228.488C16.232 228.125 16.2373 227.891 16.248 227.784C16.8773 227.389 17.704 227.192 18.728 227.192C19.752 227.192 20.4613 227.389 20.856 227.784C21.2613 228.179 21.464 228.829 21.464 229.736V233.416C21.464 233.693 21.528 233.891 21.656 234.008C21.7947 234.115 22.136 234.221 22.68 234.328L22.584 234.84L20.664 235.048C20.5573 235.048 20.4453 234.947 20.328 234.744C20.2107 234.541 20.152 234.355 20.152 234.184C20.152 234.003 20.1573 233.869 20.168 233.784L20.04 233.736L19.848 234.024C19.3467 234.771 18.6587 235.144 17.784 235.144C17.1867 235.144 16.6853 234.957 16.28 234.584C15.8747 234.211 15.672 233.693 15.672 233.032ZM17.224 232.888C17.224 233.272 17.3253 233.565 17.528 233.768C17.7307 233.96 18.0187 234.056 18.392 234.056C18.7653 234.056 19.1867 233.875 19.656 233.512C19.9013 233.32 20.024 233.117 20.024 232.904V231.336C19.064 231.357 18.3547 231.485 17.896 231.72C17.448 231.955 17.224 232.344 17.224 232.888ZM23.9395 235L23.8435 234.376C24.3662 234.269 24.6808 234.163 24.7875 234.056C24.9048 233.939 24.9635 233.741 24.9635 233.464V228.856C24.9635 228.579 24.8942 228.387 24.7555 228.28C24.6275 228.163 24.2915 228.051 23.7475 227.944L23.8435 227.432L25.9075 227.224C25.9822 227.224 26.0568 227.373 26.1315 227.672C26.2168 227.971 26.2595 228.232 26.2595 228.456V228.552L26.3875 228.6L26.5795 228.376C27.2515 227.587 28.0728 227.192 29.0435 227.192C29.7262 227.192 30.2648 227.4 30.6595 227.816C31.0542 228.221 31.2515 228.792 31.2515 229.528V233.848C31.2515 233.976 31.2782 234.061 31.3315 234.104C31.3955 234.136 31.4755 234.163 31.5715 234.184L32.3555 234.376L32.2915 235H28.8675L28.7715 234.376C29.2515 234.28 29.5448 234.173 29.6515 234.056C29.7582 233.939 29.8115 233.741 29.8115 233.464V230.008C29.8115 229.507 29.7208 229.107 29.5395 228.808C29.3582 228.499 29.0008 228.344 28.4675 228.344C27.9448 228.344 27.3742 228.552 26.7555 228.968C26.6595 229.032 26.5902 229.08 26.5475 229.112C26.4515 229.219 26.4035 229.416 26.4035 229.704V233.832C26.4035 233.949 26.4195 234.029 26.4515 234.072C26.4942 234.115 26.5848 234.152 26.7235 234.184L27.4275 234.376L27.3635 235H23.9395ZM38.4788 233.944C37.8601 234.744 37.1188 235.144 36.2548 235.144C35.3908 235.144 34.6814 234.803 34.1268 234.12C33.5721 233.427 33.2948 232.483 33.2948 231.288C33.2948 230.093 33.6094 229.112 34.2388 228.344C34.8681 227.576 35.7481 227.192 36.8788 227.192C37.6574 227.192 38.2334 227.331 38.6068 227.608L38.7188 227.56C38.6761 227.389 38.6548 227.155 38.6548 226.856V224.168C38.6548 223.944 38.5428 223.779 38.3188 223.672C38.1054 223.555 37.7161 223.459 37.1508 223.384L37.2468 222.872C38.3881 222.723 39.2788 222.648 39.9188 222.648L40.0948 222.808V233.432C40.0948 233.709 40.1588 233.907 40.2868 234.024C40.4254 234.131 40.7668 234.237 41.3108 234.344L41.2148 234.856L39.2948 235.064C39.1881 235.064 39.0708 234.957 38.9428 234.744C38.8148 234.531 38.7508 234.339 38.7508 234.168C38.7508 233.997 38.7561 233.869 38.7668 233.784L38.6388 233.736L38.4788 233.944ZM34.8468 230.904C34.8468 231.96 35.0121 232.739 35.3428 233.24C35.6841 233.741 36.1108 233.992 36.6228 233.992C37.1348 233.992 37.6681 233.811 38.2228 233.448C38.5108 233.256 38.6548 233.011 38.6548 232.712V228.888C38.2174 228.365 37.5348 228.104 36.6068 228.104C36.1481 228.104 35.7854 228.253 35.5188 228.552C35.0708 229.053 34.8468 229.837 34.8468 230.904ZM46.422 233.032C46.422 232.232 46.7633 231.635 47.446 231.24C48.1287 230.845 49.238 230.643 50.774 230.632V230.12C50.774 228.733 50.2727 228.04 49.27 228.04C48.79 228.04 48.486 228.109 48.358 228.248C48.2407 228.387 48.1127 228.84 47.974 229.608L47.11 229.512C47.0247 229.181 46.982 228.84 46.982 228.488C46.982 228.125 46.9873 227.891 46.998 227.784C47.6273 227.389 48.454 227.192 49.478 227.192C50.502 227.192 51.2113 227.389 51.606 227.784C52.0113 228.179 52.214 228.829 52.214 229.736V233.416C52.214 233.693 52.278 233.891 52.406 234.008C52.5447 234.115 52.886 234.221 53.43 234.328L53.334 234.84L51.414 235.048C51.3073 235.048 51.1953 234.947 51.078 234.744C50.9607 234.541 50.902 234.355 50.902 234.184C50.902 234.003 50.9073 233.869 50.918 233.784L50.79 233.736L50.598 234.024C50.0967 234.771 49.4087 235.144 48.534 235.144C47.9367 235.144 47.4353 234.957 47.03 234.584C46.6247 234.211 46.422 233.693 46.422 233.032ZM47.974 232.888C47.974 233.272 48.0753 233.565 48.278 233.768C48.4807 233.96 48.7687 234.056 49.142 234.056C49.5153 234.056 49.9367 233.875 50.406 233.512C50.6513 233.32 50.774 233.117 50.774 232.904V231.336C49.814 231.357 49.1047 231.485 48.646 231.72C48.198 231.955 47.974 232.344 47.974 232.888ZM55.2975 232.808V228.408H54.2575L54.1935 227.72L54.9775 227.528C55.1802 227.475 55.3135 227.357 55.3775 227.176C55.4522 226.984 55.5802 226.387 55.7615 225.384L56.7375 225.288V227.432H58.9615L58.8335 228.184L56.7375 228.424V232.328C56.7375 233.437 57.0788 233.992 57.7615 233.992C58.1455 233.992 58.5508 233.832 58.9775 233.512L59.3135 233.976C58.7375 234.755 58.0335 235.144 57.2015 235.144C56.6042 235.144 56.1348 234.936 55.7935 234.52C55.4628 234.104 55.2975 233.533 55.2975 232.808ZM60.8913 232.808V228.408H59.8513L59.7873 227.72L60.5713 227.528C60.7739 227.475 60.9073 227.357 60.9713 227.176C61.0459 226.984 61.1739 226.387 61.3553 225.384L62.3313 225.288V227.432H64.5553L64.4273 228.184L62.3313 228.424V232.328C62.3313 233.437 62.6726 233.992 63.3553 233.992C63.7393 233.992 64.1446 233.832 64.5713 233.512L64.9073 233.976C64.3313 234.755 63.6273 235.144 62.7953 235.144C62.1979 235.144 61.7286 234.936 61.3873 234.52C61.0566 234.104 60.8913 233.533 60.8913 232.808ZM69.061 235.144C67.9837 235.144 67.1463 234.776 66.549 234.04C65.9623 233.304 65.669 232.376 65.669 231.256C65.669 230.125 66.0103 229.165 66.693 228.376C67.3757 227.587 68.277 227.192 69.397 227.192C71.2103 227.192 72.1597 228.307 72.245 230.536L71.829 230.84L67.189 231.096C67.189 233.069 68.0317 234.056 69.717 234.056C70.453 234.056 71.173 233.875 71.877 233.512L72.213 234.04C71.861 234.328 71.4023 234.584 70.837 234.808C70.2717 235.032 69.6797 235.144 69.061 235.144ZM67.237 230.36L70.549 230.072C70.6557 230.061 70.709 229.96 70.709 229.768C70.709 229.299 70.581 228.893 70.325 228.552C70.0797 228.211 69.6583 228.04 69.061 228.04C68.4637 228.04 68.0263 228.243 67.749 228.648C67.4823 229.043 67.3117 229.613 67.237 230.36ZM73.5176 235L73.4216 234.376C73.9443 234.269 74.259 234.163 74.3656 234.056C74.483 233.939 74.5416 233.741 74.5416 233.464V228.856C74.5416 228.579 74.4723 228.387 74.3336 228.28C74.2056 228.163 73.8696 228.051 73.3256 227.944L73.4216 227.432L75.4856 227.224C75.5603 227.224 75.635 227.373 75.7096 227.672C75.795 227.971 75.8376 228.232 75.8376 228.456V228.552L75.9656 228.6L76.1576 228.376C76.8296 227.587 77.651 227.192 78.6216 227.192C79.3043 227.192 79.843 227.4 80.2376 227.816C80.6323 228.221 80.8296 228.792 80.8296 229.528V233.848C80.8296 233.976 80.8563 234.061 80.9096 234.104C80.9736 234.136 81.0536 234.163 81.1496 234.184L81.9336 234.376L81.8696 235H78.4456L78.3496 234.376C78.8296 234.28 79.123 234.173 79.2296 234.056C79.3363 233.939 79.3896 233.741 79.3896 233.464V230.008C79.3896 229.507 79.299 229.107 79.1176 228.808C78.9363 228.499 78.579 228.344 78.0456 228.344C77.523 228.344 76.9523 228.552 76.3336 228.968C76.2376 229.032 76.1683 229.08 76.1256 229.112C76.0296 229.219 75.9816 229.416 75.9816 229.704V233.832C75.9816 233.949 75.9976 234.029 76.0296 234.072C76.0723 234.115 76.163 234.152 76.3016 234.184L77.0056 234.376L76.9416 235H73.5176ZM88.0569 233.944C87.4382 234.744 86.6969 235.144 85.8329 235.144C84.9689 235.144 84.2595 234.803 83.7049 234.12C83.1502 233.427 82.8729 232.483 82.8729 231.288C82.8729 230.093 83.1875 229.112 83.8169 228.344C84.4462 227.576 85.3262 227.192 86.4569 227.192C87.2355 227.192 87.8115 227.331 88.1849 227.608L88.2969 227.56C88.2542 227.389 88.2329 227.155 88.2329 226.856V224.168C88.2329 223.944 88.1209 223.779 87.8969 223.672C87.6835 223.555 87.2942 223.459 86.7289 223.384L86.8249 222.872C87.9662 222.723 88.8569 222.648 89.4969 222.648L89.6729 222.808V233.432C89.6729 233.709 89.7369 233.907 89.8649 234.024C90.0035 234.131 90.3449 234.237 90.8889 234.344L90.7929 234.856L88.8729 235.064C88.7662 235.064 88.6489 234.957 88.5209 234.744C88.3929 234.531 88.3289 234.339 88.3289 234.168C88.3289 233.997 88.3342 233.869 88.3449 233.784L88.2169 233.736L88.0569 233.944ZM84.4249 230.904C84.4249 231.96 84.5902 232.739 84.9209 233.24C85.2622 233.741 85.6889 233.992 86.2009 233.992C86.7129 233.992 87.2462 233.811 87.8009 233.448C88.0889 233.256 88.2329 233.011 88.2329 232.712V228.888C87.7955 228.365 87.1129 228.104 86.1849 228.104C85.7262 228.104 85.3635 228.253 85.0969 228.552C84.6489 229.053 84.4249 229.837 84.4249 230.904ZM99.2641 235.144C98.1868 235.144 97.3495 234.776 96.7521 234.04C96.1655 233.304 95.8721 232.376 95.8721 231.256C95.8721 230.125 96.2135 229.165 96.8961 228.376C97.5788 227.587 98.4801 227.192 99.6001 227.192C101.413 227.192 102.363 228.307 102.448 230.536L102.032 230.84L97.3921 231.096C97.3921 233.069 98.2348 234.056 99.9201 234.056C100.656 234.056 101.376 233.875 102.08 233.512L102.416 234.04C102.064 234.328 101.605 234.584 101.04 234.808C100.475 235.032 99.8828 235.144 99.2641 235.144ZM97.4401 230.36L100.752 230.072C100.859 230.061 100.912 229.96 100.912 229.768C100.912 229.299 100.784 228.893 100.528 228.552C100.283 228.211 99.8615 228.04 99.2641 228.04C98.6668 228.04 98.2295 228.243 97.9521 228.648C97.6855 229.043 97.5148 229.613 97.4401 230.36ZM103.225 235L103.161 234.376C103.705 234.291 104.009 234.216 104.073 234.152L106.585 231.208L104.297 228.472C104.211 228.365 104.105 228.291 103.977 228.248L103.401 228.056L103.465 227.432H106.633L106.729 228.056L106.233 228.168C106.094 228.211 106.025 228.275 106.025 228.36C106.025 228.435 106.105 228.568 106.265 228.76L107.529 230.28L108.777 228.728C108.851 228.643 108.889 228.557 108.889 228.472C108.889 228.291 108.649 228.152 108.169 228.056L108.265 227.432H111.241L111.305 228.056C110.814 228.131 110.521 228.216 110.425 228.312L108.137 231.016L110.601 233.96C110.686 234.067 110.793 234.141 110.921 234.184L111.497 234.376L111.433 235H108.265L108.169 234.376L108.665 234.264C108.803 234.221 108.873 234.163 108.873 234.088C108.873 234.003 108.793 233.864 108.633 233.672L107.161 231.912L105.689 233.704C105.614 233.789 105.577 233.875 105.577 233.96C105.577 234.141 105.817 234.28 106.297 234.376L106.201 235H103.225ZM113.364 236.824V228.856C113.364 228.579 113.295 228.387 113.156 228.28C113.028 228.163 112.692 228.051 112.148 227.944L112.244 227.432C113.567 227.293 114.26 227.224 114.324 227.224C114.388 227.224 114.463 227.368 114.548 227.656C114.644 227.933 114.692 228.179 114.692 228.392V228.552L114.82 228.6L114.98 228.392C115.599 227.592 116.34 227.192 117.204 227.192C118.068 227.192 118.777 227.539 119.332 228.232C119.887 228.915 120.164 229.853 120.164 231.048C120.164 232.243 119.849 233.224 119.22 233.992C118.591 234.76 117.711 235.144 116.58 235.144C115.78 235.144 115.204 235.005 114.852 234.728L114.74 234.776C114.783 235.011 114.804 235.245 114.804 235.48V237.208C114.804 237.347 114.831 237.432 114.884 237.464C114.948 237.507 115.028 237.533 115.124 237.544L116.58 237.736L116.516 238.36H112.34L112.244 237.736C112.767 237.629 113.081 237.517 113.188 237.4C113.305 237.293 113.364 237.101 113.364 236.824ZM114.804 233.448C115.241 233.971 115.924 234.232 116.852 234.232C117.311 234.232 117.673 234.083 117.94 233.784C118.388 233.283 118.612 232.504 118.612 231.448C118.612 230.381 118.441 229.597 118.1 229.096C117.769 228.595 117.348 228.344 116.836 228.344C116.324 228.344 115.791 228.525 115.236 228.888C114.948 229.08 114.804 229.325 114.804 229.624V233.448ZM124.67 235.144C123.593 235.144 122.756 234.776 122.158 234.04C121.572 233.304 121.278 232.376 121.278 231.256C121.278 230.125 121.62 229.165 122.302 228.376C122.985 227.587 123.886 227.192 125.006 227.192C126.82 227.192 127.769 228.307 127.854 230.536L127.438 230.84L122.798 231.096C122.798 233.069 123.641 234.056 125.326 234.056C126.062 234.056 126.782 233.875 127.486 233.512L127.822 234.04C127.47 234.328 127.012 234.584 126.446 234.808C125.881 235.032 125.289 235.144 124.67 235.144ZM122.846 230.36L126.158 230.072C126.265 230.061 126.318 229.96 126.318 229.768C126.318 229.299 126.19 228.893 125.934 228.552C125.689 228.211 125.268 228.04 124.67 228.04C124.073 228.04 123.636 228.243 123.358 228.648C123.092 229.043 122.921 229.613 122.846 230.36ZM129.015 235L128.919 234.376C129.484 234.28 129.831 234.173 129.959 234.056C130.087 233.939 130.151 233.741 130.151 233.464V228.856C130.151 228.579 130.076 228.381 129.927 228.264C129.788 228.136 129.42 228.029 128.823 227.944L128.919 227.432L131.095 227.224C131.17 227.224 131.25 227.331 131.335 227.544C131.42 227.757 131.463 227.981 131.463 228.216C131.463 228.44 131.442 228.701 131.399 229L131.527 229.048L131.735 228.584C131.927 228.157 132.215 227.821 132.599 227.576C132.994 227.32 133.388 227.192 133.783 227.192C134.188 227.192 134.562 227.277 134.903 227.448C134.903 228.323 134.823 229.197 134.663 230.072L133.879 230.152C133.794 229.256 133.708 228.749 133.623 228.632C133.538 228.504 133.394 228.44 133.191 228.44C132.999 228.44 132.77 228.531 132.503 228.712C132.236 228.883 132.018 229.069 131.847 229.272C131.676 229.464 131.591 229.784 131.591 230.232V233.848C131.591 233.987 131.618 234.077 131.671 234.12C131.735 234.152 131.815 234.173 131.911 234.184L133.367 234.376L133.303 235H129.015ZM136.641 232.808V228.408H135.601L135.537 227.72L136.321 227.528C136.524 227.475 136.657 227.357 136.721 227.176C136.796 226.984 136.924 226.387 137.105 225.384L138.081 225.288V227.432H140.305L140.177 228.184L138.081 228.424V232.328C138.081 233.437 138.423 233.992 139.105 233.992C139.489 233.992 139.895 233.832 140.321 233.512L140.657 233.976C140.081 234.755 139.377 235.144 138.545 235.144C137.948 235.144 137.479 234.936 137.137 234.52C136.807 234.104 136.641 233.533 136.641 232.808ZM141.611 230.568L145.099 230.344L144.843 231.336L141.419 231.752L141.611 230.568ZM146.234 235L146.138 234.376C146.66 234.269 146.975 234.163 147.082 234.056C147.199 233.939 147.258 233.741 147.258 233.464V224.168C147.258 223.944 147.172 223.784 147.002 223.688C146.831 223.581 146.511 223.48 146.042 223.384L146.138 222.872C147.279 222.723 148.074 222.648 148.522 222.648L148.698 222.808V233.848C148.698 233.976 148.724 234.061 148.778 234.104C148.842 234.136 148.922 234.163 149.018 234.184L149.802 234.376L149.738 235H146.234ZM154.374 235.144C153.296 235.144 152.459 234.776 151.862 234.04C151.275 233.304 150.982 232.376 150.982 231.256C150.982 230.125 151.323 229.165 152.006 228.376C152.688 227.587 153.59 227.192 154.71 227.192C156.523 227.192 157.472 228.307 157.558 230.536L157.142 230.84L152.502 231.096C152.502 233.069 153.344 234.056 155.03 234.056C155.766 234.056 156.486 233.875 157.19 233.512L157.526 234.04C157.174 234.328 156.715 234.584 156.15 234.808C155.584 235.032 154.992 235.144 154.374 235.144ZM152.549 230.36L155.862 230.072C155.968 230.061 156.022 229.96 156.022 229.768C156.022 229.299 155.894 228.893 155.638 228.552C155.392 228.211 154.971 228.04 154.374 228.04C153.776 228.04 153.339 228.243 153.062 228.648C152.795 229.043 152.624 229.613 152.549 230.36ZM163.838 233.944C163.219 234.744 162.478 235.144 161.614 235.144C160.75 235.144 160.041 234.803 159.486 234.12C158.931 233.427 158.654 232.483 158.654 231.288C158.654 230.093 158.969 229.112 159.598 228.344C160.227 227.576 161.107 227.192 162.238 227.192C163.017 227.192 163.593 227.331 163.966 227.608L164.078 227.56C164.035 227.389 164.014 227.155 164.014 226.856V224.168C164.014 223.944 163.902 223.779 163.678 223.672C163.465 223.555 163.075 223.459 162.51 223.384L162.606 222.872C163.747 222.723 164.638 222.648 165.278 222.648L165.454 222.808V233.432C165.454 233.709 165.518 233.907 165.646 234.024C165.785 234.131 166.126 234.237 166.67 234.344L166.574 234.856L164.654 235.064C164.547 235.064 164.43 234.957 164.302 234.744C164.174 234.531 164.11 234.339 164.11 234.168C164.11 233.997 164.115 233.869 164.126 233.784L163.998 233.736L163.838 233.944ZM160.206 230.904C160.206 231.96 160.371 232.739 160.702 233.24C161.043 233.741 161.47 233.992 161.982 233.992C162.494 233.992 163.027 233.811 163.582 233.448C163.87 233.256 164.014 233.011 164.014 232.712V228.888C163.577 228.365 162.894 228.104 161.966 228.104C161.507 228.104 161.145 228.253 160.878 228.552C160.43 229.053 160.206 229.837 160.206 230.904ZM16.36 251.808V247.408H15.32L15.256 246.72L16.04 246.528C16.2427 246.475 16.376 246.357 16.44 246.176C16.5147 245.984 16.6427 245.387 16.824 244.384L17.8 244.288V246.432H20.024L19.896 247.184L17.8 247.424V251.328C17.8 252.437 18.1413 252.992 18.824 252.992C19.208 252.992 19.6133 252.832 20.04 252.512L20.376 252.976C19.8 253.755 19.096 254.144 18.264 254.144C17.6667 254.144 17.1973 253.936 16.856 253.52C16.5253 253.104 16.36 252.533 16.36 251.808ZM21.2338 254L21.1378 253.376C21.7031 253.28 22.0498 253.173 22.1778 253.056C22.3058 252.939 22.3698 252.741 22.3698 252.464V247.856C22.3698 247.579 22.2951 247.381 22.1458 247.264C22.0071 247.136 21.6391 247.029 21.0418 246.944L21.1378 246.432L23.3138 246.224C23.3884 246.224 23.4684 246.331 23.5538 246.544C23.6391 246.757 23.6818 246.981 23.6818 247.216C23.6818 247.44 23.6604 247.701 23.6178 248L23.7458 248.048L23.9538 247.584C24.1458 247.157 24.4338 246.821 24.8177 246.576C25.2124 246.32 25.6071 246.192 26.0018 246.192C26.4071 246.192 26.7804 246.277 27.1218 246.448C27.1218 247.323 27.0418 248.197 26.8818 249.072L26.0978 249.152C26.0124 248.256 25.9271 247.749 25.8418 247.632C25.7564 247.504 25.6124 247.44 25.4098 247.44C25.2178 247.44 24.9884 247.531 24.7218 247.712C24.4551 247.883 24.2364 248.069 24.0658 248.272C23.8951 248.464 23.8098 248.784 23.8098 249.232V252.848C23.8098 252.987 23.8364 253.077 23.8898 253.12C23.9538 253.152 24.0338 253.173 24.1298 253.184L25.5858 253.376L25.5218 254H21.2338ZM28.172 252.032C28.172 251.232 28.5133 250.635 29.196 250.24C29.8787 249.845 30.988 249.643 32.524 249.632V249.12C32.524 247.733 32.0227 247.04 31.02 247.04C30.54 247.04 30.236 247.109 30.108 247.248C29.9907 247.387 29.8627 247.84 29.724 248.608L28.86 248.512C28.7747 248.181 28.732 247.84 28.732 247.488C28.732 247.125 28.7373 246.891 28.748 246.784C29.3773 246.389 30.204 246.192 31.228 246.192C32.252 246.192 32.9613 246.389 33.356 246.784C33.7613 247.179 33.964 247.829 33.964 248.736V252.416C33.964 252.693 34.028 252.891 34.156 253.008C34.2947 253.115 34.636 253.221 35.18 253.328L35.084 253.84L33.164 254.048C33.0573 254.048 32.9453 253.947 32.828 253.744C32.7107 253.541 32.652 253.355 32.652 253.184C32.652 253.003 32.6573 252.869 32.668 252.784L32.54 252.736L32.348 253.024C31.8467 253.771 31.1587 254.144 30.284 254.144C29.6867 254.144 29.1853 253.957 28.78 253.584C28.3747 253.211 28.172 252.693 28.172 252.032ZM29.724 251.888C29.724 252.272 29.8253 252.565 30.028 252.768C30.2307 252.96 30.5187 253.056 30.892 253.056C31.2653 253.056 31.6867 252.875 32.156 252.512C32.4013 252.32 32.524 252.117 32.524 251.904V250.336C31.564 250.357 30.8547 250.485 30.396 250.72C29.948 250.955 29.724 251.344 29.724 251.888ZM36.4395 254L36.3435 253.376C36.8662 253.269 37.1808 253.163 37.2875 253.056C37.4048 252.939 37.4635 252.741 37.4635 252.464V247.872C37.4635 247.648 37.3782 247.488 37.2075 247.392C37.0368 247.285 36.7168 247.184 36.2475 247.088L36.3435 246.576C37.4848 246.427 38.2795 246.352 38.7275 246.352L38.9035 246.512V252.848C38.9035 252.976 38.9302 253.061 38.9835 253.104C39.0475 253.136 39.1275 253.163 39.2235 253.184L40.0075 253.376L39.9435 254H36.4395ZM38.9195 243.504C38.9195 243.771 38.8342 243.995 38.6635 244.176C38.5035 244.357 38.2848 244.448 38.0075 244.448C37.7408 244.448 37.5168 244.368 37.3355 244.208C37.1648 244.048 37.0795 243.829 37.0795 243.552C37.0795 243.264 37.1595 243.035 37.3195 242.864C37.4902 242.693 37.7195 242.608 38.0075 242.608C38.6155 242.608 38.9195 242.907 38.9195 243.504ZM41.3926 254L41.2966 253.376C41.8193 253.269 42.134 253.163 42.2406 253.056C42.358 252.939 42.4166 252.741 42.4166 252.464V247.856C42.4166 247.579 42.3473 247.387 42.2086 247.28C42.0806 247.163 41.7446 247.051 41.2006 246.944L41.2966 246.432L43.3606 246.224C43.4353 246.224 43.51 246.373 43.5846 246.672C43.67 246.971 43.7126 247.232 43.7126 247.456V247.552L43.8406 247.6L44.0326 247.376C44.7046 246.587 45.526 246.192 46.4966 246.192C47.1793 246.192 47.718 246.4 48.1126 246.816C48.5073 247.221 48.7046 247.792 48.7046 248.528V252.848C48.7046 252.976 48.7313 253.061 48.7846 253.104C48.8486 253.136 48.9286 253.163 49.0246 253.184L49.8086 253.376L49.7446 254H46.3206L46.2246 253.376C46.7046 253.28 46.998 253.173 47.1046 253.056C47.2113 252.939 47.2646 252.741 47.2646 252.464V249.008C47.2646 248.507 47.174 248.107 46.9926 247.808C46.8113 247.499 46.454 247.344 45.9206 247.344C45.398 247.344 44.8273 247.552 44.2086 247.968C44.1126 248.032 44.0433 248.08 44.0006 248.112C43.9046 248.219 43.8566 248.416 43.8566 248.704V252.832C43.8566 252.949 43.8726 253.029 43.9046 253.072C43.9473 253.115 44.038 253.152 44.1766 253.184L44.8806 253.376L44.8166 254H41.3926ZM50.9239 254L50.8279 253.376C51.3505 253.269 51.6652 253.163 51.7719 253.056C51.8892 252.939 51.9479 252.741 51.9479 252.464V247.872C51.9479 247.648 51.8625 247.488 51.6919 247.392C51.5212 247.285 51.2012 247.184 50.7319 247.088L50.8279 246.576C51.9692 246.427 52.7639 246.352 53.2119 246.352L53.3879 246.512V252.848C53.3879 252.976 53.4145 253.061 53.4679 253.104C53.5319 253.136 53.6119 253.163 53.7079 253.184L54.4919 253.376L54.4279 254H50.9239ZM53.4039 243.504C53.4039 243.771 53.3185 243.995 53.1479 244.176C52.9879 244.357 52.7692 244.448 52.4919 244.448C52.2252 244.448 52.0012 244.368 51.8199 244.208C51.6492 244.048 51.5639 243.829 51.5639 243.552C51.5639 243.264 51.6439 243.035 51.8039 242.864C51.9745 242.693 52.2039 242.608 52.4919 242.608C53.0999 242.608 53.4039 242.907 53.4039 243.504ZM55.877 254L55.781 253.376C56.3037 253.269 56.6183 253.163 56.725 253.056C56.8423 252.939 56.901 252.741 56.901 252.464V247.856C56.901 247.579 56.8317 247.387 56.693 247.28C56.565 247.163 56.229 247.051 55.685 246.944L55.781 246.432L57.845 246.224C57.9197 246.224 57.9943 246.373 58.069 246.672C58.1543 246.971 58.197 247.232 58.197 247.456V247.552L58.325 247.6L58.517 247.376C59.189 246.587 60.0103 246.192 60.981 246.192C61.6637 246.192 62.2023 246.4 62.597 246.816C62.9917 247.221 63.189 247.792 63.189 248.528V252.848C63.189 252.976 63.2157 253.061 63.269 253.104C63.333 253.136 63.413 253.163 63.509 253.184L64.293 253.376L64.229 254H60.805L60.709 253.376C61.189 253.28 61.4823 253.173 61.589 253.056C61.6957 252.939 61.749 252.741 61.749 252.464V249.008C61.749 248.507 61.6583 248.107 61.477 247.808C61.2957 247.499 60.9383 247.344 60.405 247.344C59.8823 247.344 59.3117 247.552 58.693 247.968C58.597 248.032 58.5277 248.08 58.485 248.112C58.389 248.219 58.341 248.416 58.341 248.704V252.832C58.341 252.949 58.357 253.029 58.389 253.072C58.4317 253.115 58.5223 253.152 58.661 253.184L59.365 253.376L59.301 254H55.877ZM67.2163 254.384C66.9176 254.715 66.7682 255.072 66.7682 255.456C66.7682 255.84 66.9282 256.144 67.2483 256.368C67.5683 256.592 68.1123 256.704 68.8802 256.704C69.6589 256.704 70.2616 256.544 70.6883 256.224C71.1149 255.904 71.3283 255.584 71.3283 255.264C71.3283 254.944 71.1523 254.747 70.8003 254.672C70.4483 254.608 69.8883 254.571 69.1203 254.56C68.3629 254.549 67.7283 254.491 67.2163 254.384ZM65.8403 253.024C65.8403 252.597 66.0003 252.187 66.3203 251.792C66.5443 251.515 66.8003 251.264 67.0883 251.04C66.9283 250.965 66.7789 250.875 66.6403 250.768C66.1069 250.341 65.8403 249.701 65.8403 248.848C65.8403 247.984 66.1336 247.328 66.7203 246.88C67.3069 246.421 68.0376 246.192 68.9123 246.192C69.6909 246.192 70.3363 246.357 70.8483 246.688C71.5416 246.357 72.2136 246.181 72.8643 246.16C72.9709 246.341 73.0243 246.56 73.0243 246.816C73.0243 247.061 73.0083 247.232 72.9763 247.328C72.6136 247.243 72.2349 247.2 71.8403 247.2C71.6803 247.2 71.5363 247.2 71.4083 247.2C71.7069 247.605 71.8563 248.128 71.8563 248.768C71.8563 249.621 71.5629 250.277 70.9763 250.736C70.3896 251.184 69.6589 251.408 68.7843 251.408C68.2936 251.408 67.8616 251.344 67.4883 251.216C67.1683 251.6 67.0082 251.968 67.0082 252.32C67.0082 252.64 67.1896 252.832 67.5523 252.896C67.8723 252.949 68.2296 252.976 68.6243 252.976C69.0296 252.976 69.3389 252.981 69.5523 252.992C69.7763 252.992 70.0589 253.008 70.4003 253.04C70.7416 253.072 71.0083 253.125 71.2003 253.2C71.4029 253.275 71.6109 253.371 71.8243 253.488C72.2189 253.712 72.4163 254.107 72.4163 254.672C72.4163 255.44 72.0323 256.101 71.2643 256.656C70.4963 257.221 69.4616 257.504 68.1603 257.504C66.4109 257.504 65.5363 257.003 65.5363 256C65.5363 255.637 65.6376 255.323 65.8403 255.056C66.0536 254.8 66.3576 254.528 66.7523 254.24C66.1443 254.048 65.8403 253.643 65.8403 253.024ZM68.8963 250.624C69.8883 250.624 70.3843 250.016 70.3843 248.8C70.3843 247.584 69.8563 246.976 68.8003 246.976C67.8083 246.976 67.3123 247.584 67.3123 248.8C67.3123 250.016 67.8403 250.624 68.8963 250.624ZM81.0215 247.04C80.0828 247.04 79.6135 247.36 79.6135 248C79.6135 248.256 79.6775 248.448 79.8055 248.576C79.9335 248.693 80.0242 248.784 80.0775 248.848C80.1415 248.901 80.2588 248.971 80.4295 249.056C80.6002 249.141 80.7175 249.205 80.7815 249.248C80.8562 249.28 81.0002 249.339 81.2135 249.424C82.1095 249.797 82.7388 250.149 83.1015 250.48C83.4642 250.811 83.6455 251.28 83.6455 251.888C83.6455 252.496 83.3735 253.024 82.8295 253.472C82.2962 253.92 81.5602 254.144 80.6215 254.144C80.2055 254.144 79.7735 254.101 79.3255 254.016C78.8775 253.931 78.5522 253.845 78.3495 253.76C78.3282 253.621 78.3175 253.339 78.3175 252.912C78.3175 252.485 78.3655 252.021 78.4615 251.52L79.2935 251.456C79.3682 252.139 79.4215 252.56 79.4535 252.72C79.4962 252.869 79.5548 252.965 79.6295 253.008C79.9708 253.2 80.4188 253.296 80.9735 253.296C81.8375 253.296 82.2695 252.949 82.2695 252.256C82.2695 251.925 82.1415 251.653 81.8855 251.44C81.5975 251.205 81.2668 251.008 80.8935 250.848C79.9122 250.443 79.2402 250.075 78.8775 249.744C78.5255 249.403 78.3495 248.933 78.3495 248.336C78.3495 247.739 78.6215 247.232 79.1655 246.816C79.7095 246.4 80.3655 246.192 81.1335 246.192C81.9015 246.192 82.6055 246.325 83.2455 246.592C83.2562 246.677 83.2615 246.917 83.2615 247.312C83.2615 247.707 83.1922 248.123 83.0535 248.56L82.3175 248.64C82.2428 247.808 82.1202 247.333 81.9495 247.216C81.7895 247.099 81.4802 247.04 81.0215 247.04ZM88.3579 254.144C87.2805 254.144 86.4432 253.776 85.8459 253.04C85.2592 252.304 84.9659 251.376 84.9659 250.256C84.9659 249.125 85.3072 248.165 85.9899 247.376C86.6725 246.587 87.5739 246.192 88.6939 246.192C90.5072 246.192 91.4565 247.307 91.5419 249.536L91.1259 249.84L86.4859 250.096C86.4859 252.069 87.3285 253.056 89.0139 253.056C89.7499 253.056 90.4699 252.875 91.1739 252.512L91.5099 253.04C91.1579 253.328 90.6992 253.584 90.1339 253.808C89.5685 254.032 88.9765 254.144 88.3579 254.144ZM86.5339 249.36L89.8459 249.072C89.9525 249.061 90.0059 248.96 90.0059 248.768C90.0059 248.299 89.8779 247.893 89.6219 247.552C89.3765 247.211 88.9552 247.04 88.3579 247.04C87.7605 247.04 87.3232 247.243 87.0459 247.648C86.7792 248.043 86.6085 248.613 86.5339 249.36ZM95.6465 247.04C94.7078 247.04 94.2385 247.36 94.2385 248C94.2385 248.256 94.3025 248.448 94.4305 248.576C94.5585 248.693 94.6492 248.784 94.7025 248.848C94.7665 248.901 94.8838 248.971 95.0545 249.056C95.2252 249.141 95.3425 249.205 95.4065 249.248C95.4812 249.28 95.6252 249.339 95.8385 249.424C96.7345 249.797 97.3638 250.149 97.7265 250.48C98.0892 250.811 98.2705 251.28 98.2705 251.888C98.2705 252.496 97.9985 253.024 97.4545 253.472C96.9212 253.92 96.1852 254.144 95.2465 254.144C94.8305 254.144 94.3985 254.101 93.9505 254.016C93.5025 253.931 93.1772 253.845 92.9745 253.76C92.9532 253.621 92.9425 253.339 92.9425 252.912C92.9425 252.485 92.9905 252.021 93.0865 251.52L93.9185 251.456C93.9932 252.139 94.0465 252.56 94.0785 252.72C94.1212 252.869 94.1798 252.965 94.2545 253.008C94.5958 253.2 95.0438 253.296 95.5985 253.296C96.4625 253.296 96.8945 252.949 96.8945 252.256C96.8945 251.925 96.7665 251.653 96.5105 251.44C96.2225 251.205 95.8918 251.008 95.5185 250.848C94.5372 250.443 93.8652 250.075 93.5025 249.744C93.1505 249.403 92.9745 248.933 92.9745 248.336C92.9745 247.739 93.2465 247.232 93.7905 246.816C94.3345 246.4 94.9905 246.192 95.7585 246.192C96.5265 246.192 97.2305 246.325 97.8705 246.592C97.8812 246.677 97.8865 246.917 97.8865 247.312C97.8865 247.707 97.8172 248.123 97.6785 248.56L96.9425 248.64C96.8678 247.808 96.7452 247.333 96.5745 247.216C96.4145 247.099 96.1052 247.04 95.6465 247.04ZM102.631 247.04C101.692 247.04 101.223 247.36 101.223 248C101.223 248.256 101.287 248.448 101.415 248.576C101.543 248.693 101.634 248.784 101.687 248.848C101.751 248.901 101.868 248.971 102.039 249.056C102.21 249.141 102.327 249.205 102.391 249.248C102.466 249.28 102.61 249.339 102.823 249.424C103.719 249.797 104.348 250.149 104.711 250.48C105.074 250.811 105.255 251.28 105.255 251.888C105.255 252.496 104.983 253.024 104.439 253.472C103.906 253.92 103.17 254.144 102.231 254.144C101.815 254.144 101.383 254.101 100.935 254.016C100.487 253.931 100.162 253.845 99.9589 253.76C99.9375 253.621 99.9269 253.339 99.9269 252.912C99.9269 252.485 99.9749 252.021 100.071 251.52L100.903 251.456C100.978 252.139 101.031 252.56 101.063 252.72C101.106 252.869 101.164 252.965 101.239 253.008C101.58 253.2 102.028 253.296 102.583 253.296C103.447 253.296 103.879 252.949 103.879 252.256C103.879 251.925 103.751 251.653 103.495 251.44C103.207 251.205 102.876 251.008 102.503 250.848C101.522 250.443 100.85 250.075 100.487 249.744C100.135 249.403 99.9589 248.933 99.9589 248.336C99.9589 247.739 100.231 247.232 100.775 246.816C101.319 246.4 101.975 246.192 102.743 246.192C103.511 246.192 104.215 246.325 104.855 246.592C104.866 246.677 104.871 246.917 104.871 247.312C104.871 247.707 104.802 248.123 104.663 248.56L103.927 248.64C103.852 247.808 103.73 247.333 103.559 247.216C103.399 247.099 103.09 247.04 102.631 247.04ZM106.783 254L106.687 253.376C107.21 253.269 107.525 253.163 107.631 253.056C107.749 252.939 107.807 252.741 107.807 252.464V247.872C107.807 247.648 107.722 247.488 107.551 247.392C107.381 247.285 107.061 247.184 106.591 247.088L106.687 246.576C107.829 246.427 108.623 246.352 109.071 246.352L109.247 246.512V252.848C109.247 252.976 109.274 253.061 109.327 253.104C109.391 253.136 109.471 253.163 109.567 253.184L110.351 253.376L110.287 254H106.783ZM109.263 243.504C109.263 243.771 109.178 243.995 109.007 244.176C108.847 244.357 108.629 244.448 108.351 244.448C108.085 244.448 107.861 244.368 107.679 244.208C107.509 244.048 107.423 243.829 107.423 243.552C107.423 243.264 107.503 243.035 107.663 242.864C107.834 242.693 108.063 242.608 108.351 242.608C108.959 242.608 109.263 242.907 109.263 243.504ZM115.08 254.144C113.928 254.144 113.043 253.803 112.424 253.12C111.806 252.437 111.496 251.483 111.496 250.256C111.496 249.029 111.822 248.048 112.472 247.312C113.134 246.565 114.04 246.192 115.192 246.192C116.355 246.192 117.246 246.539 117.864 247.232C118.483 247.915 118.792 248.869 118.792 250.096C118.792 251.323 118.462 252.304 117.8 253.04C117.15 253.776 116.243 254.144 115.08 254.144ZM113.048 250.048C113.048 250.997 113.24 251.776 113.624 252.384C114.008 252.992 114.531 253.296 115.192 253.296C115.854 253.296 116.323 253.136 116.6 252.816C116.792 252.603 116.947 252.267 117.064 251.808C117.182 251.339 117.24 250.832 117.24 250.288C117.24 249.339 117.048 248.56 116.664 247.952C116.28 247.344 115.758 247.04 115.096 247.04C114.435 247.04 113.966 247.2 113.688 247.52C113.496 247.733 113.342 248.075 113.224 248.544C113.107 249.003 113.048 249.504 113.048 250.048ZM120.049 254L119.953 253.376C120.476 253.269 120.79 253.163 120.897 253.056C121.014 252.939 121.073 252.741 121.073 252.464V247.856C121.073 247.579 121.004 247.387 120.865 247.28C120.737 247.163 120.401 247.051 119.857 246.944L119.953 246.432L122.017 246.224C122.092 246.224 122.166 246.373 122.241 246.672C122.326 246.971 122.369 247.232 122.369 247.456V247.552L122.497 247.6L122.689 247.376C123.361 246.587 124.182 246.192 125.153 246.192C125.836 246.192 126.374 246.4 126.769 246.816C127.164 247.221 127.361 247.792 127.361 248.528V252.848C127.361 252.976 127.388 253.061 127.441 253.104C127.505 253.136 127.585 253.163 127.681 253.184L128.465 253.376L128.401 254H124.977L124.881 253.376C125.361 253.28 125.654 253.173 125.761 253.056C125.868 252.939 125.921 252.741 125.921 252.464V249.008C125.921 248.507 125.83 248.107 125.649 247.808C125.468 247.499 125.11 247.344 124.577 247.344C124.054 247.344 123.484 247.552 122.865 247.968C122.769 248.032 122.7 248.08 122.657 248.112C122.561 248.219 122.513 248.416 122.513 248.704V252.832C122.513 252.949 122.529 253.029 122.561 253.072C122.604 253.115 122.694 253.152 122.833 253.184L123.537 253.376L123.473 254H120.049ZM132.412 247.04C131.473 247.04 131.004 247.36 131.004 248C131.004 248.256 131.068 248.448 131.196 248.576C131.324 248.693 131.415 248.784 131.468 248.848C131.532 248.901 131.649 248.971 131.82 249.056C131.991 249.141 132.108 249.205 132.172 249.248C132.247 249.28 132.391 249.339 132.604 249.424C133.5 249.797 134.129 250.149 134.492 250.48C134.855 250.811 135.036 251.28 135.036 251.888C135.036 252.496 134.764 253.024 134.22 253.472C133.687 253.92 132.951 254.144 132.012 254.144C131.596 254.144 131.164 254.101 130.716 254.016C130.268 253.931 129.943 253.845 129.74 253.76C129.719 253.621 129.708 253.339 129.708 252.912C129.708 252.485 129.756 252.021 129.852 251.52L130.684 251.456C130.759 252.139 130.812 252.56 130.844 252.72C130.887 252.869 130.945 252.965 131.02 253.008C131.361 253.2 131.809 253.296 132.364 253.296C133.228 253.296 133.66 252.949 133.66 252.256C133.66 251.925 133.532 251.653 133.276 251.44C132.988 251.205 132.657 251.008 132.284 250.848C131.303 250.443 130.631 250.075 130.268 249.744C129.916 249.403 129.74 248.933 129.74 248.336C129.74 247.739 130.012 247.232 130.556 246.816C131.1 246.4 131.756 246.192 132.524 246.192C133.292 246.192 133.996 246.325 134.636 246.592C134.647 246.677 134.652 246.917 134.652 247.312C134.652 247.707 134.583 248.123 134.444 248.56L133.708 248.64C133.633 247.808 133.511 247.333 133.34 247.216C133.18 247.099 132.871 247.04 132.412 247.04ZM138.805 253.152C138.805 253.429 138.714 253.664 138.533 253.856C138.351 254.048 138.117 254.144 137.829 254.144C137.541 254.144 137.306 254.064 137.125 253.904C136.943 253.733 136.853 253.504 136.853 253.216C136.853 252.917 136.938 252.672 137.109 252.48C137.29 252.288 137.525 252.192 137.812 252.192C138.474 252.192 138.805 252.512 138.805 253.152Z" fill="white"/>
<path d="M70.1875 67C70.1875 67 74 67 74 62.9167C74 58.8333 70.1875 46.5833 54.9375 46.5833C39.6875 46.5833 35.875 58.8333 35.875 62.9167C35.875 67 39.6875 67 39.6875 67H70.1875ZM39.7714 62.9167L39.6875 62.9003C39.6913 61.8223 40.3242 58.6945 42.585 55.877C44.6895 53.2351 48.3876 50.6667 54.9375 50.6667C61.4836 50.6667 65.1817 53.2392 67.29 55.877C69.5508 58.6945 70.1799 61.8264 70.1875 62.9003L70.157 62.9085L70.1036 62.9167H39.7714ZM54.9375 38.4167C56.9598 38.4167 58.8992 37.5563 60.3292 36.0247C61.7592 34.4932 62.5625 32.4159 62.5625 30.25C62.5625 28.0841 61.7592 26.0068 60.3292 24.4753C58.8992 22.9437 56.9598 22.0833 54.9375 22.0833C52.9152 22.0833 50.9758 22.9437 49.5458 24.4753C48.1158 26.0068 47.3125 28.0841 47.3125 30.25C47.3125 32.4159 48.1158 34.4932 49.5458 36.0247C50.9758 37.5563 52.9152 38.4167 54.9375 38.4167ZM66.375 30.25C66.375 31.8587 66.0792 33.4516 65.5044 34.9379C64.9296 36.4241 64.0871 37.7745 63.025 38.9121C61.963 40.0496 60.7021 40.9519 59.3144 41.5675C57.9268 42.1831 56.4395 42.5 54.9375 42.5C53.4355 42.5 51.9482 42.1831 50.5606 41.5675C49.1729 40.9519 47.912 40.0496 46.85 38.9121C45.7879 37.7745 44.9454 36.4241 44.3706 34.9379C43.7958 33.4516 43.5 31.8587 43.5 30.25C43.5 27.0011 44.705 23.8853 46.85 21.5879C48.9949 19.2906 51.9041 18 54.9375 18C57.9709 18 60.8801 19.2906 63.025 21.5879C65.17 23.8853 66.375 27.0011 66.375 30.25ZM39.4435 47.7267C37.9176 47.2159 36.3459 46.8778 34.7541 46.7181C33.8596 46.6247 32.9613 46.5797 32.0625 46.5833C16.8125 46.5833 13 58.8333 13 62.9167C13 65.6389 14.2708 67 16.8125 67H32.886C32.3211 65.7252 32.0392 64.3276 32.0625 62.9167C32.0625 58.7925 33.4998 54.5785 36.2181 51.0587C37.1446 49.8582 38.2235 48.7353 39.4435 47.7267ZM31.7575 50.6667C29.5025 54.2986 28.2837 58.5552 28.25 62.9167H16.8125C16.8125 61.855 17.4377 58.7108 19.71 55.877C21.7878 53.28 25.3983 50.7483 31.7575 50.6708V50.6667ZM18.7188 32.2917C18.7188 29.0428 19.9238 25.9269 22.0687 23.6296C24.2137 21.3323 27.1228 20.0417 30.1562 20.0417C33.1897 20.0417 36.0988 21.3323 38.2438 23.6296C40.3887 25.9269 41.5938 29.0428 41.5938 32.2917C41.5938 35.5406 40.3887 38.6564 38.2438 40.9537C36.0988 43.251 33.1897 44.5417 30.1562 44.5417C27.1228 44.5417 24.2137 43.251 22.0687 40.9537C19.9238 38.6564 18.7188 35.5406 18.7188 32.2917ZM30.1562 24.125C28.134 24.125 26.1945 24.9854 24.7646 26.517C23.3346 28.0485 22.5312 30.1257 22.5312 32.2917C22.5312 34.4576 23.3346 36.5348 24.7646 38.0664C26.1945 39.5979 28.134 40.4583 30.1562 40.4583C32.1785 40.4583 34.118 39.5979 35.5479 38.0664C36.9779 36.5348 37.7812 34.4576 37.7812 32.2917C37.7812 30.1257 36.9779 28.0485 35.5479 26.517C34.118 24.9854 32.1785 24.125 30.1562 24.125Z" fill="white"/>
</svg>
