<svg width="48" height="48" viewBox="0 0 48 48" fill="none" xmlns="http://www.w3.org/2000/svg">
<path d="M31.3807 24.77L23.8507 17.554C22.9707 16.7073 22.2367 15.7607 21.6487 14.714C21.0607 13.6673 20.7667 12.5273 20.7667 11.294C20.7667 9.82333 21.2814 8.57333 22.3107 7.544C23.3387 6.51467 24.5874 6 26.0567 6C27.1487 6 28.142 6.29533 29.0367 6.886C29.9314 7.47667 30.712 8.194 31.3787 9.038C32.0454 8.194 32.8267 7.47667 33.7227 6.886C34.616 6.29533 35.6094 6 36.7027 6C38.1734 6 39.4227 6.51467 40.4507 7.544C41.4787 8.57333 41.994 9.82267 41.9967 11.292C41.9967 12.5267 41.7047 13.6673 41.1207 14.714C40.5354 15.7607 39.8027 16.7073 38.9227 17.554L31.3807 24.77ZM31.3807 22.016L37.3707 16.282C38.08 15.5967 38.6954 14.838 39.2167 14.006C39.7367 13.174 39.9967 12.2693 39.9967 11.292C39.9967 10.38 39.6767 9.60333 39.0367 8.962C38.3967 8.32067 37.6187 8 36.7027 8C35.9027 8 35.1854 8.23933 34.5507 8.718C33.916 9.19533 33.346 9.75867 32.8407 10.408L31.3807 12.238L29.9187 10.408C29.412 9.75867 28.842 9.19533 28.2087 8.718C27.574 8.23933 26.8567 8 26.0567 8C25.1434 8 24.3667 8.32 23.7267 8.96C23.0854 9.60267 22.7647 10.38 22.7647 11.292C22.7647 12.2693 23.0247 13.174 23.5447 14.006C24.0647 14.838 24.68 15.5967 25.3907 16.282L31.3807 22.016ZM12.8047 37.308L27.9347 41.722L39.9127 38.022C39.8727 37.4153 39.6907 36.978 39.3667 36.71C39.0427 36.442 38.676 36.308 38.2667 36.308H28.7767C27.9314 36.308 27.1647 36.2747 26.4767 36.208C25.7887 36.1413 25.0854 35.9827 24.3667 35.732L19.9867 34.296L20.6627 32.32L24.7127 33.784C25.3554 34.028 26.086 34.1747 26.9047 34.224C27.722 34.272 28.842 34.3 30.2647 34.308C30.2647 33.684 30.15 33.18 29.9207 32.796C29.6914 32.412 29.3627 32.144 28.9347 31.992L17.4267 27.768C17.3507 27.7427 17.28 27.724 17.2147 27.712C17.1494 27.7 17.0794 27.6933 17.0047 27.692H12.8047V37.308ZM4.80469 42V25.692H16.9567C17.1434 25.692 17.3354 25.7133 17.5327 25.756C17.73 25.7987 17.9134 25.848 18.0827 25.904L29.6407 30.138C30.3567 30.41 30.9727 30.8987 31.4887 31.604C32.006 32.3093 32.2647 33.2107 32.2647 34.308H38.2647C39.47 34.308 40.3927 34.6847 41.0327 35.438C41.674 36.1927 41.9947 37.1493 41.9947 38.308V39.538L28.0347 43.846L12.8027 39.406V42H4.80469ZM6.80469 40H10.8047V27.692H6.80469V40Z" fill="white"/>
</svg>
